<svg width="48" height="48" viewBox="0 0 48 48" fill="none" xmlns="http://www.w3.org/2000/svg">
<rect width="48" height="48" rx="24" fill="#EA9E33"/>
<path d="M38.4001 9.60001V38.4H9.6001V9.60001H38.4001Z" fill="white" fill-opacity="0.01"/>
<path d="M24 12.7547C25.6988 12.7547 26.9586 13.6521 28.083 14.9891C29.1597 16.2694 30.2718 18.1456 31.6494 20.4705C31.9899 21.0452 32.324 21.6236 32.6514 22.2059C33.9759 24.5615 35.0449 26.4624 35.6152 28.035C36.2108 29.6772 36.3572 31.2172 35.5078 32.6883C34.6584 34.1592 33.252 34.802 31.5322 35.1072C29.885 35.3996 27.7036 35.4243 25.001 35.4549C24.3337 35.4625 23.6663 35.4625 22.999 35.4549C20.2963 35.4243 18.115 35.3996 16.4678 35.1072C14.748 34.802 13.3416 34.1592 12.4922 32.6883C11.6428 31.2172 11.7892 29.6772 12.3848 28.035C12.9551 26.4624 14.0241 24.5615 15.3486 22.2059C15.676 21.6237 16.0101 21.0451 16.3506 20.4705C17.7283 18.1456 18.8403 16.2694 19.917 14.9891C21.0414 13.6521 22.3013 12.7547 24 12.7547ZM24 27.6004C23.3375 27.6005 22.8 28.1371 22.7998 28.7996C22.7998 29.4623 23.3373 29.9997 24 29.9998C24.6627 29.9998 25.2002 29.4624 25.2002 28.7996C25.2 28.1371 24.6626 27.6004 24 27.6004ZM24 19.2C23.3373 19.2001 22.7998 19.7375 22.7998 20.4002V25.2C22.7998 25.8627 23.3373 26.4001 24 26.4002C24.6627 26.4002 25.2002 25.8628 25.2002 25.2V20.4002C25.2002 19.7375 24.6627 19.2 24 19.2Z" fill="white"/>
</svg>
