<svg width="91" height="91" viewBox="0 0 91 91" fill="none" xmlns="http://www.w3.org/2000/svg">
<path d="M73.8428 53.727C74.132 55.181 74.5105 56.6945 73.9987 58.2307C73.3767 60.6779 72.4809 63.7382 69.7611 64.466C70.3223 65.229 70.9339 66.0319 71.4458 66.8213C71.6352 67.0843 71.6638 67.1442 71.9135 67.339C72.048 67.4442 72.1317 67.4254 72.3072 67.4356C72.2148 67.717 72.2112 67.7584 72.2164 68.0551L72.1282 68.1607C70.9715 68.6386 70.1828 68.6698 68.9933 68.167C67.3939 67.4909 65.8331 66.2334 64.5277 65.1019C62.3538 63.31 59.7296 60.1059 58.2822 57.6988C57.6775 56.5686 57.378 55.9736 56.9632 54.7389C57.216 54.785 57.4797 54.8135 57.7354 54.8454C57.2489 53.8235 57.0966 53.5386 57.8581 52.6563C57.6779 52.3551 57.4932 52.0565 57.3042 51.7608L57.3954 51.6565C57.6808 51.6949 57.7017 51.7005 57.9813 51.6519L57.9379 51.8438C58.0394 51.9597 58.0151 51.9514 58.1401 52.0326C58.2076 52.1557 58.2341 52.228 58.3294 52.3302C59.1644 53.0024 59.9571 53.7256 60.7029 54.4957C60.8819 54.4291 60.8573 54.3938 60.9908 54.2041C61.3355 53.5369 62.1689 52.9143 62.8077 52.5482C65.4855 51.0219 68.6608 50.6243 71.6326 51.4431L71.5443 51.6457C71.6693 51.8982 72.1047 52.2098 72.3553 52.4302C72.5413 52.5194 72.6325 52.6505 72.7711 52.8052C73.0476 53.0125 73.1302 53.0653 73.339 53.3363L73.5449 53.5501C73.6252 53.6145 73.7494 53.6754 73.8428 53.727Z" fill="#69595C"/>
<path d="M71.6327 51.4429L71.5444 51.6455C71.6694 51.898 72.1047 52.2097 72.3554 52.43C72.5414 52.5192 72.6326 52.6503 72.7712 52.805L72.7395 52.8701L64.8124 59.9541C64.7703 59.9472 64.662 59.8945 64.6173 59.8749L64.5645 59.6776C64.3969 59.3376 63.9916 58.8991 63.7418 58.5819C62.9981 57.6375 62.2022 56.6416 61.8648 55.4669C61.7602 55.1022 61.8637 54.2227 61.6679 53.9629C61.3715 53.977 61.2571 54.0647 60.9909 54.2039C61.3355 53.5367 62.169 52.9141 62.8077 52.548C65.4856 51.0217 68.6609 50.6241 71.6327 51.4429Z" fill="#A09C91"/>
<path d="M72.3516 52.4306C72.5376 52.5198 72.6288 52.6509 72.7674 52.8055L72.7358 52.8707L64.8086 59.9547C64.7666 59.9477 64.6582 59.8951 64.6135 59.8754L64.5608 59.6781C66.4053 58.0876 68.2273 56.4707 70.0258 54.8281C70.4888 54.4115 72.1267 52.992 72.396 52.6028L72.3516 52.4306Z" fill="#736764"/>
<path d="M68.1918 51.6616C68.2758 51.9108 68.2905 51.8401 68.2417 52.0655C68.0009 52.1965 67.6129 52.1986 67.3308 52.2485C65.953 52.4918 64.6856 53.1324 63.3792 53.5677L63.2649 53.2344C63.4896 52.2399 67.285 51.6627 68.1918 51.6616Z" fill="#B8B6AB"/>
<path d="M73.839 53.7268C74.1282 55.1808 74.5067 56.6943 73.995 58.2305L73.8038 58.1243C73.2051 58.5425 73.0024 59.6694 72.6808 60.3327C72.1014 61.5271 70.8512 62.7775 69.6123 63.2503C68.8817 63.197 66.6614 62.1756 66.7092 61.4686C66.9378 61.3537 67.1435 61.3958 67.3783 61.5012L67.2026 61.3134C66.8943 61.1482 66.8787 61.0719 66.5904 61.1296L66.4611 61.2924C65.9332 61.2812 65.3092 60.2891 64.8085 59.9541L72.7357 52.8701L72.7673 52.805C73.0438 53.0123 73.1265 53.0651 73.3352 53.3361L73.5412 53.5499C73.6215 53.6143 73.7457 53.6752 73.839 53.7268Z" fill="#A09C91"/>
<path d="M67.2041 61.314C67.3106 61.317 67.4374 61.3205 67.5842 61.3247C67.9598 61.0597 68.2035 60.7183 68.6612 61.1315C68.7471 61.2089 68.7631 61.35 68.7825 61.4743C68.593 61.9786 68.208 61.9392 67.7882 61.723C67.6508 61.6517 67.5146 61.5779 67.3798 61.5018L67.2041 61.314Z" fill="#736764"/>
<path d="M68.3221 61.1449C68.4269 61.163 68.5123 61.2394 68.5417 61.3417C68.5711 61.4441 68.5395 61.5541 68.4602 61.6253C68.3808 61.6963 68.2679 61.7157 68.1695 61.6752C68.0385 61.6213 67.9691 61.4777 68.0082 61.3417C68.0474 61.2057 68.1825 61.1209 68.3221 61.1449Z" fill="#968E87"/>
<path d="M72.7676 52.8051C73.0441 53.0124 73.1267 53.0652 73.3354 53.3363C73.1791 53.8185 73.1885 54.3079 73.0404 54.8111L72.9808 54.8079C72.8601 54.1484 73.0134 53.2871 72.7359 52.8702L72.7676 52.8051Z" fill="#888077"/>
<path d="M69.6138 63.2509C70.8528 62.7781 72.103 61.5277 72.6824 60.3334C73.004 59.67 73.2066 58.5432 73.8054 58.1249L73.9965 58.2311C73.3746 60.6783 72.4788 63.7387 69.759 64.4665C70.3201 65.2294 70.9317 66.0323 71.4436 66.8218C71.633 67.0847 71.6616 67.1446 71.9113 67.3394C72.0458 67.4447 72.1295 67.4258 72.305 67.4361C72.2126 67.7175 72.209 67.7589 72.2142 68.0556L72.126 68.1612C70.787 67.2173 69.7748 65.8854 68.6008 64.8844C67.2363 63.5801 65.8361 61.9571 64.5399 60.5477C62.3414 58.1573 59.7264 55.3164 57.856 52.6568C57.6757 52.3556 57.491 52.057 57.302 51.7613L57.3932 51.6569C57.6786 51.6954 57.6995 51.7009 57.9791 51.6523L57.9357 51.8442C58.0372 51.9601 58.0129 51.9519 58.138 52.0331C58.2054 52.1561 58.232 52.2285 58.3272 52.3306C59.1622 53.0028 59.9549 53.726 60.7007 54.4961C60.8797 54.4296 60.8551 54.3943 60.9886 54.2046C61.2548 54.0653 61.3692 53.9776 61.6657 53.9635C61.8614 54.2233 61.7579 55.1028 61.8626 55.4675C62.1999 56.6423 62.9958 57.6381 63.7395 58.5826C63.9894 58.8997 64.3947 59.3383 64.5623 59.6782L64.615 59.8755C64.6598 59.8951 64.7681 59.9478 64.8101 59.9547C65.3108 60.2898 65.9348 61.2818 66.4627 61.293L66.592 61.1303C66.8803 61.0725 66.8959 61.1489 67.2042 61.3141L67.3799 61.5018C67.1451 61.3965 66.9394 61.3544 66.7108 61.4693C66.663 62.1762 68.8833 63.1976 69.6138 63.2509Z" fill="#888077"/>
<path d="M69.7578 64.4668C70.319 65.2298 70.9306 66.0327 71.4425 66.8222L71.4402 66.9376L71.3211 66.9739C70.6662 66.6639 69.0387 64.9299 68.5036 64.3406C68.9473 64.4316 69.3068 64.5187 69.7578 64.4668Z" fill="#55494C"/>
<path d="M58.3252 52.3311C59.1602 53.0033 59.9529 53.7265 60.6987 54.4966L60.4539 55.3837C59.9482 54.8152 58.417 53.1534 58.2161 52.4754L58.2552 52.3639L58.3252 52.3311Z" fill="url(#paint0_linear_109_93211)"/>
<path d="M60.9476 55.3364C61.3299 55.6965 61.3296 56.0197 61.4318 56.5442C61.0535 56.0953 60.7987 55.9222 60.9476 55.3364Z" fill="#736764"/>
<path d="M68.6013 64.8849C69.7754 65.886 70.7875 67.2179 72.1265 68.1617C70.9698 68.6396 70.1812 68.6708 68.9916 68.168C67.3922 67.4919 65.8314 66.2344 64.5261 65.103C62.3522 63.311 59.728 60.107 58.2806 57.6998C57.6759 56.5696 57.3764 55.9746 56.9615 54.74C57.2144 54.7861 57.4781 54.8145 57.7338 54.8465C59.0196 58.5682 64.4838 64.6995 68.6013 64.8849Z" fill="#55494C"/>
<path d="M52.9671 35.9996C53.5915 36.3685 54.1995 37.0829 54.6407 37.6424C54.7972 37.8629 55.029 38.2099 55.1908 38.4126L55.2298 38.4638C55.3226 38.9086 55.5801 39.1652 55.6497 39.5117C56.3698 41.2659 56.2366 43.4997 55.503 45.2301C54.7153 47.0447 53.238 48.4714 51.397 49.1953C49.7417 49.8462 47.5504 49.9244 45.8992 49.2049C45.3374 48.9601 44.9374 48.6565 44.3056 48.4162C44.0385 48.5238 43.9314 48.6577 43.7256 48.8552C43.9145 48.6822 44.116 48.5537 44.1637 48.3142C43.2104 47.373 42.8875 46.9369 42.0664 45.9355L42.0355 45.8876C42.0117 45.7385 41.8242 45.3097 41.7576 45.1339C41.4593 44.3472 41.3059 43.8399 41.2318 42.9988C40.971 41.6386 41.5016 39.6309 42.1827 38.4229C43.1502 36.6974 44.7734 35.4358 46.6844 34.9241C49.106 34.2685 50.8997 34.8111 52.9671 35.9996Z" fill="#FBC944"/>
<path d="M55.6497 39.512C56.3698 41.2661 56.2366 43.4999 55.503 45.2304C54.7153 47.045 53.238 48.4717 51.397 49.1955C49.7417 49.8464 47.5504 49.9246 45.8992 49.2052C45.3374 48.9603 44.9374 48.6567 44.3056 48.4165C44.0385 48.524 43.9314 48.6579 43.7256 48.8555C43.9145 48.6824 44.116 48.554 44.1637 48.3144C43.2104 47.3733 42.8875 46.9372 42.0664 45.9358L42.0355 45.8879C42.0117 45.7388 41.8242 45.3099 41.7576 45.1342C41.4593 44.3475 41.3059 43.8402 41.2318 42.9991C41.3352 43.0797 41.745 43.8216 41.8478 44.0083C42.9652 46.0373 45.0729 47.3076 47.3782 47.619C49.2729 47.8642 51.1879 47.3533 52.7086 46.197C54.1824 45.0543 55.2665 43.2641 55.5204 41.3987C55.6075 40.7587 55.5676 40.0885 55.6497 39.512Z" fill="#E79D2B"/>
<path d="M49.6129 35.6671C49.6554 35.9886 49.6927 36.2297 49.6956 36.5567C48.8262 36.5419 47.8705 36.5542 47.0231 36.7445C46.5248 36.8564 45.3396 37.7416 45.3622 36.6351C45.4178 36.5247 45.4976 36.3818 45.6138 36.3336C47.0223 35.7505 48.1424 35.3323 49.6129 35.6671Z" fill="#FADB76"/>
<path d="M52.6021 43.1939C53.4464 44.2865 52.1692 45.5826 50.8942 45.2436C50.8592 45.1941 50.8254 45.1438 50.7926 45.0928C50.1529 44.083 51.3688 42.8621 52.6021 43.1939Z" fill="#704936"/>
<path d="M47.6064 37.7988L47.6613 37.8544C48.6343 38.8596 47.3492 40.0549 46.0976 39.9104C45.1315 38.8359 46.3828 37.6915 47.6064 37.7988Z" fill="#704936"/>
<path d="M45.7617 41.0045C46.3312 41.5852 49.2936 44.6109 49.3826 45.1235C49.2511 45.3382 49.2502 45.2865 48.9839 45.4216C48.5334 44.9196 45.4185 41.6349 45.3962 41.2851C45.5402 41.0599 45.4841 41.1328 45.7617 41.0045Z" fill="#704936"/>
<path d="M49.6106 35.6671C50.3218 35.826 51.1384 35.9277 51.5739 36.5613L51.5978 36.755C51.0896 37.2113 50.2673 36.7119 49.6933 36.5567C49.6904 36.2297 49.6531 35.9885 49.6106 35.6671Z" fill="#FADB76"/>
<path d="M80.3149 43.2891C80.8294 43.0232 81.2904 42.9132 81.8637 43.1003C82.3168 43.2527 82.6902 43.5802 82.9005 44.0096C83.1197 44.4524 83.1544 44.9641 82.9971 45.4325C82.6619 46.4262 81.8452 46.7155 80.8927 46.7379C78.9048 51.7064 76.8703 56.6562 74.7895 61.5866C73.9806 63.5081 73.0755 65.5197 72.3038 67.4365C72.1283 67.4263 72.0446 67.4451 71.9102 67.3399C71.6604 67.1451 71.6319 67.0852 71.4424 66.8222C70.9305 66.0328 70.319 65.2299 69.7578 64.4669C72.4776 63.7391 73.3734 60.6788 73.9954 58.2316C74.5071 56.6954 74.1287 55.1819 73.8395 53.7279C73.7461 53.6763 73.6219 53.6154 73.5416 53.551L73.3356 53.3373C73.1269 53.0662 73.0442 53.0134 72.7677 52.8061C72.6292 52.6514 72.538 52.5203 72.352 52.4311C72.1013 52.2107 71.666 51.8991 71.541 51.6466L71.6293 51.444L72.0083 51.2537C72.1606 51.4519 72.6745 51.9279 72.8791 52.1259C72.9806 51.7995 73.0995 51.5397 73.2351 51.2284C73.2371 50.7196 73.732 50.1835 74.0573 49.8371C74.5822 49.606 74.6863 49.7287 75.2081 49.9406C75.5051 49.8895 79.2633 46.4459 79.684 46.036C79.7422 45.8026 79.6825 45.8044 79.5586 45.5213C79.7642 45.7312 79.8636 45.7701 80.1245 45.9176C79.9614 45.5876 79.7223 45.2177 79.5871 44.8866C79.508 44.6932 79.8288 44.2753 79.7454 44.0834C79.56 44.1373 79.5004 44.1418 79.3074 44.1319C77.1185 43.0626 74.7864 41.7482 72.6325 40.5745C68.9397 38.5971 65.2674 36.5815 61.6163 34.528L61.6619 34.4911C62.6506 33.678 63.0448 32.9036 63.1697 31.6443C65.3701 33.0566 67.7553 34.7331 69.9221 36.2175L76.5487 40.7065C77.8224 41.5763 79.0162 42.4441 80.3149 43.2891Z" fill="#69595C"/>
<path d="M80.1268 45.9173L80.5053 46.2373L80.5026 46.3601L80.4436 46.3566L80.4185 46.4451C80.4303 46.5182 80.4449 46.6087 80.4623 46.7168C79.9528 48.0009 79.3067 49.5318 78.7931 50.7857L74.5354 61.1085C73.7628 62.9302 72.5331 65.5454 71.9125 67.3396C71.6627 67.1448 71.6342 67.0849 71.4447 66.8219C70.9328 66.0325 70.3213 65.2296 69.7601 64.4666C72.4799 63.7388 73.3757 60.6785 73.9977 58.2313C74.5094 56.6951 74.131 55.1817 73.8418 53.7276C73.7484 53.676 73.6242 53.6151 73.5439 53.5507L73.3379 53.337C73.1292 53.0659 73.0465 53.0131 72.7701 52.8058C72.6315 52.6511 72.5403 52.52 72.3543 52.4308C72.1036 52.2104 71.6683 51.8988 71.5433 51.6463L71.6316 51.4437L72.0106 51.2534C72.1629 51.4516 72.6768 51.9276 72.8814 52.1256C72.9829 51.7992 73.1018 51.5394 73.2374 51.2281C73.2394 50.7193 73.7343 50.1832 74.0596 49.8368C74.5845 49.6057 74.6887 49.7284 75.2105 49.9403C75.5074 49.8892 79.2656 46.4456 79.6863 46.0357C79.7445 45.8023 79.6848 45.8041 79.5609 45.521C79.7665 45.7309 79.8659 45.7698 80.1268 45.9173Z" fill="#FCFCFC"/>
<path d="M80.1243 45.9171L80.5027 46.2371L80.5001 46.3599L80.4411 46.3563L80.416 46.4449L79.9971 46.3073C79.3233 47.0809 75.7354 50.0477 75.5063 50.5155C75.188 50.9211 75.0298 51.0262 75.053 51.5408C74.7374 51.541 74.4121 51.7135 74.1246 51.8547C73.9262 51.9804 73.9222 51.999 73.6837 52.0404C73.722 51.9172 73.7602 51.8172 73.8066 51.6969C73.5747 51.8947 73.5518 51.9231 73.4884 52.2584L73.2559 52.4035L73.1434 52.3557C73.0285 51.9042 73.2109 51.6719 73.2349 51.2279C73.2369 50.7191 73.7318 50.183 74.0571 49.8366C74.582 49.6055 74.6861 49.7282 75.2079 49.9401C75.5049 49.889 79.2631 46.4454 79.6838 46.0354C79.742 45.8021 79.6823 45.8039 79.5584 45.5208C79.764 45.7307 79.8634 45.7696 80.1243 45.9171Z" fill="url(#paint1_linear_109_93211)"/>
<path d="M74.1249 51.8546L74.0862 51.647C74.3374 51.284 79.5452 46.5848 79.9974 46.3071C79.3237 47.0807 75.7357 50.0476 75.5066 50.5153C75.1884 50.9209 75.0301 51.026 75.0533 51.5407C74.7377 51.5408 74.4124 51.7133 74.1249 51.8546Z" fill="#968E87"/>
<path d="M75.5076 50.5148L75.513 51.3851C75.8642 51.7631 76.5743 52.3316 76.1809 52.8411C75.5944 53.1224 74.4335 52.9709 74.0025 53.2645C73.9633 53.5183 73.9725 53.5112 73.8406 53.7268C73.7472 53.6751 73.623 53.6142 73.5427 53.5498L73.3367 53.3361C73.128 53.065 73.0454 53.0123 72.7689 52.8049C72.6303 52.6503 72.5391 52.5191 72.3531 52.4299C72.1025 52.2096 71.6671 51.8979 71.5421 51.6454L71.6304 51.4428L72.0094 51.2525C72.1617 51.4508 72.6756 51.9267 72.8802 52.1247C72.9817 51.7983 73.1006 51.5385 73.2363 51.2272C73.2122 51.6713 73.0298 51.9036 73.1448 52.355L73.2572 52.4028L73.4898 52.2578C73.5531 51.9225 73.576 51.8941 73.808 51.6963C73.7615 51.8166 73.7233 51.9166 73.6851 52.0397C73.9235 51.9983 73.9276 51.9797 74.1259 51.8541C74.4134 51.7128 74.7387 51.5403 75.0543 51.5402C75.0312 51.0255 75.1894 50.9204 75.5076 50.5148Z" fill="#A09C91"/>
<path d="M72.8815 52.1255C73.1873 52.4506 73.7653 52.9555 73.7585 53.3678C73.6424 53.5408 73.7215 53.4933 73.544 53.5506L73.338 53.3369C73.1293 53.0659 73.0467 53.0131 72.7702 52.8057C72.6316 52.6511 72.5404 52.5199 72.3544 52.4307C72.1038 52.2104 71.6684 51.8988 71.5434 51.6462L71.6317 51.4437L72.0107 51.2533C72.163 51.4516 72.6769 51.9276 72.8815 52.1255Z" fill="#69595C"/>
<path d="M75.0568 51.5413L75.0885 51.656C74.7432 51.9124 73.7824 52.2838 73.3341 52.4892L74.005 53.2656C73.9657 53.5194 73.975 53.5123 73.8431 53.7279C73.7497 53.6762 73.6255 53.6153 73.5452 53.5509C73.7226 53.4936 73.6436 53.5411 73.7597 53.368C73.7665 52.9557 73.1885 52.4509 72.8827 52.1258C72.9842 51.7994 73.1031 51.5396 73.2387 51.2283C73.2147 51.6724 73.0323 51.9047 73.1472 52.3561L73.2597 52.4039L73.4922 52.2589C73.5556 51.9236 73.5785 51.8952 73.8104 51.6974C73.764 51.8177 73.7258 51.9177 73.6875 52.0408C73.926 51.9994 73.93 51.9808 74.1284 51.8552C74.4159 51.7139 74.7412 51.5414 75.0568 51.5413Z" fill="#736764"/>
<path d="M67.7543 37.0777C67.9122 37.2223 68.4674 37.7241 68.4567 37.9226L68.305 37.9184C67.9193 37.6983 67.8748 37.5085 67.7543 37.0777Z" fill="#55494C"/>
<path d="M79.5621 45.5207C79.686 45.8038 79.7457 45.802 79.6875 46.0354C79.2668 46.4453 75.5086 49.8889 75.2116 49.94C74.6898 49.7281 74.5857 49.6054 74.0608 49.8365C73.7355 50.1829 73.2406 50.719 73.2386 51.2278C73.103 51.5391 72.9841 51.7989 72.8826 52.1253C72.678 51.9273 72.1641 51.4513 72.0118 51.2531L71.6328 51.4434C68.661 50.6246 65.4857 51.0222 62.8078 52.5485C62.169 52.9146 61.3356 53.5372 60.991 54.2044C60.8575 54.3941 60.882 54.4294 60.7031 54.496C59.9572 53.7259 59.1646 53.0027 58.3295 52.3305C58.2343 52.2284 58.2077 52.156 58.1403 52.0329C60.5775 51.3731 63.4061 50.4302 65.8488 49.6822L79.5621 45.5207Z" fill="url(#paint2_linear_109_93211)"/>
<path d="M74.0597 49.8363C73.7344 50.1827 73.2394 50.7188 73.2375 51.2277C73.1019 51.5389 72.983 51.7988 72.8814 52.1251C72.6768 51.9272 72.163 51.4512 72.0107 51.2529C72.3153 50.7082 72.136 49.0558 72.9148 48.7591C73.2996 48.8581 73.687 49.4785 73.9527 49.8251L74.0597 49.8363Z" fill="#A09C91"/>
<path d="M79.3106 44.1309C79.5036 44.1408 79.5633 44.1363 79.7487 44.0824C79.832 44.2743 79.5113 44.6922 79.5904 44.8856C79.7255 45.2166 79.9646 45.5865 80.1277 45.9165C79.8668 45.769 79.7675 45.7302 79.5618 45.5203L65.8485 49.6817C63.4058 50.4298 60.5772 51.3727 58.14 52.0325C58.015 51.9513 58.0393 51.9595 57.9378 51.8437L57.9812 51.6517C60.2384 50.8656 62.8292 50.1681 65.1484 49.4478C69.8766 47.9562 74.6201 46.5132 79.378 45.1189C79.4533 44.6355 79.5269 44.4972 79.3106 44.1309Z" fill="url(#paint3_linear_109_93211)"/>
<path d="M57.3019 51.7607C57.4909 52.0564 57.6757 52.355 57.8559 52.6562C57.0943 53.5385 57.2467 53.8234 57.7332 54.8453C57.4775 54.8134 57.2138 54.7849 56.9609 54.7388C56.6407 53.4315 56.6567 52.9507 57.3019 51.7607Z" fill="url(#paint4_linear_109_93211)"/>
<path d="M70.2433 42.7813C70.353 42.8021 70.4424 42.8815 70.4758 42.988C70.5091 43.0947 70.4811 43.211 70.4028 43.2906C70.3244 43.3701 70.2085 43.4 70.1015 43.3684C69.947 43.3226 69.8556 43.1639 69.8934 43.0074C69.9312 42.851 70.085 42.7515 70.2433 42.7813Z" fill="#736764"/>
<path d="M32.0687 27.2901C32.0581 27.3076 31.9298 27.5154 31.9298 27.515C31.866 28.689 32.2143 29.9719 31.8357 31.1313C31.7888 31.3592 31.7515 31.5484 31.6852 31.7712C31.0435 33.9975 30.0737 36.8257 27.8216 37.8158C27.8747 37.9259 27.9137 38.0139 27.9756 38.1184C28.4382 38.7127 29.0888 39.5836 29.4646 40.2352C29.2996 40.3159 29.3017 40.3091 29.1176 40.3343C29.5567 40.7388 29.8182 40.522 29.9123 41.3163L30.0835 41.5356C27.9754 42.4708 25.9818 41.1817 24.2981 39.912C21.9103 38.1607 20.6524 36.8077 18.71 34.5842C17.173 32.7403 15.6202 30.5096 14.9205 28.1866C14.5981 27.1164 14.6305 26.3261 15.1626 25.3466C15.3457 25.058 15.6833 25.132 16.0258 25.0759C15.9355 25.3685 15.915 25.2421 16.0371 25.4745L16.1084 25.5156L16.3363 25.7988C17.1891 26.4907 17.975 27.1491 18.7338 27.9447C18.9541 27.6824 19.1386 27.1184 19.3619 26.848C20.909 24.9752 23.3042 24.5775 25.5086 24.249C27.3914 24.1586 28.1146 24.3145 29.876 24.9585L30.099 25.453C30.3571 25.6533 30.392 25.6807 30.541 25.9696L30.5754 26.0776L30.7767 26.3784C31.1748 26.8079 31.2927 27.3295 31.7526 27.5033L32.0687 27.2901Z" fill="url(#paint5_linear_109_93211)"/>
<path d="M29.8737 24.9589L30.0966 25.4534C30.3547 25.6537 30.3897 25.6811 30.5387 25.97L30.5731 26.078L30.7744 26.3788C29.0409 27.8937 27.3372 29.4423 25.6642 31.0239C24.8541 31.7818 23.7318 32.7945 22.9796 33.5935L22.7885 33.6028L22.6836 33.4762L22.7056 33.2724C21.6514 31.8489 19.7912 30.044 19.5026 28.2108C19.6049 27.9921 19.884 27.5141 19.7867 27.3177C19.5988 27.3796 19.5521 27.4696 19.4261 27.6227C19.4004 27.8433 19.4049 27.9514 19.2951 28.1469C19.0119 28.2244 18.9921 28.2413 18.716 28.1764L18.7315 27.945C18.9518 27.6828 19.1362 27.1188 19.3596 26.8484C20.9067 24.9756 23.3019 24.5779 25.5063 24.2494C27.3891 24.159 28.1123 24.3149 29.8737 24.9589Z" fill="#A09C91"/>
<path d="M30.5766 26.079L30.7779 26.3798C29.0444 27.8947 27.3407 29.4433 25.6677 31.0249C24.8576 31.7828 23.7353 32.7955 22.9831 33.5945L22.792 33.6038L22.6871 33.4772L22.7091 33.2734C25.2828 31.1391 27.993 28.3425 30.5766 26.079Z" fill="#736764"/>
<path d="M30.0964 25.4533C30.3545 25.6536 30.3894 25.681 30.5384 25.9699C29.8854 25.8375 28.9498 25.9819 28.6321 25.8809L28.5875 25.7686C28.9059 25.3851 29.492 25.7371 30.1585 25.6362L30.0964 25.4533Z" fill="#888077"/>
<path d="M25.7799 24.847C25.9136 25.007 25.9029 24.9972 25.9512 25.2019C25.7787 25.4189 25.1704 25.4779 24.8133 25.5594C23.5467 25.848 22.5264 26.205 21.3852 26.8092L21.2565 26.5108C21.4774 25.456 24.762 24.8258 25.7799 24.847Z" fill="#B8B6AB"/>
<path d="M21.6947 29.0564C22.0044 29.3901 22.2325 29.6385 21.903 30.0649C21.3299 30.8063 21.9099 30.8173 22.224 31.3125L22.1842 31.4291L21.9546 31.4979C21.4878 31.0191 20.7841 29.8858 21.1611 29.2323C21.3613 29.0653 21.4198 29.0823 21.6947 29.0564Z" fill="#736764"/>
<path d="M32.0695 27.2903C32.0589 27.3077 31.9306 27.5155 31.9306 27.5151C31.8669 28.6891 32.2151 29.972 31.8365 31.1314C31.7976 30.9673 31.7629 30.8022 31.7328 30.6362L31.6511 30.6311C31.1516 31.2249 31.0704 31.2724 30.8554 31.997C30.3681 33.6399 28.8564 35.8301 26.9937 36.0023C26.1593 36.0731 25.3301 35.8161 24.6819 35.2858C24.1112 34.8111 23.4807 33.9944 22.9827 33.5932C23.7349 32.7943 24.8573 31.7816 25.6673 31.0237C27.3403 29.4421 29.0441 27.8934 30.7775 26.3785C31.1756 26.8081 31.2935 27.3296 31.7534 27.5034L32.0695 27.2903Z" fill="#A09C91"/>
<path d="M22.982 33.5935C23.4801 33.9947 24.1105 34.8113 24.6812 35.2861C25.3294 35.8164 26.1586 36.0734 26.993 36.0026C28.8558 35.8304 30.3674 33.6401 30.8547 31.9973C31.0697 31.2726 31.151 31.2251 31.6505 30.6314L31.7321 30.6364C31.7622 30.8025 31.7969 30.9675 31.8359 31.1317C31.7889 31.3596 31.7516 31.5487 31.6853 31.7715C31.0437 33.9978 30.0739 36.8261 27.8218 37.8162C27.8748 37.9263 27.9139 38.0143 27.9757 38.1188C28.4383 38.7131 29.0889 39.5839 29.4648 40.2356C29.2998 40.3162 29.3018 40.3095 29.1177 40.3347C29.5569 40.7392 29.8184 40.5224 29.9124 41.3167C26.1524 37.9886 22.6347 34.3965 19.3861 30.5676C18.12 29.1029 16.8888 27.5573 15.7758 25.9753C15.6532 25.8008 15.4705 25.3979 15.3012 25.3123L15.1627 25.347C15.3459 25.0584 15.6835 25.1324 16.026 25.0763C15.9357 25.3689 15.9151 25.2425 16.0372 25.4748L16.1085 25.516L16.3364 25.7992C17.1892 26.491 17.9751 27.1495 18.734 27.945L18.7184 28.1764C18.9945 28.2412 19.0144 28.2244 19.2975 28.1469C19.4074 27.9514 19.4029 27.8433 19.4286 27.6227C19.5546 27.4696 19.6013 27.3796 19.7891 27.3177C19.8865 27.5141 19.6074 27.9921 19.505 28.2108C19.7936 30.044 21.6539 31.8488 22.7081 33.2724L22.686 33.4762L22.791 33.6028L22.982 33.5935Z" fill="#888077"/>
<path d="M18.7343 27.9439L18.7188 28.1753C18.6287 28.4679 18.5954 28.6735 18.5417 28.9714C18.0535 28.4606 16.2871 26.4563 16.2207 25.8552L16.3368 25.7981C17.1896 26.4899 17.9755 27.1484 18.7343 27.9439Z" fill="#55494C"/>
<path d="M27.9735 38.1193C28.4361 38.7136 29.0867 39.5845 29.4626 40.2361C29.2975 40.3168 29.2996 40.3101 29.1155 40.3353C28.3765 39.611 27.6266 38.898 26.8659 38.1965L26.8189 38.011C27.3907 37.9401 27.4645 37.7294 27.9735 38.1193Z" fill="#55494C"/>
<path d="M26.8667 38.1966C26.6441 38.0174 26.0317 37.3802 26.0261 37.0719L26.1551 36.9659C26.8154 37.0003 27.0124 37.42 26.8196 38.0111L26.8667 38.1966Z" fill="#736764"/>
<path d="M41.1277 18.8357C46.9529 21.9415 53.1557 25.5389 58.8795 28.8309C58.7109 29.2165 57.967 29.5465 57.6665 29.9622C57.3257 30.4336 57.2189 30.854 56.978 31.377C52.4881 28.4137 48.1088 25.2384 43.6535 22.2234C43.0284 21.8003 40.0845 19.4124 39.2131 20.3495C38.4638 21.155 37.8844 23.846 36.9686 24.9305L32.3702 35.8305C31.9329 36.8656 30.101 40.8112 30.0847 41.5357L29.9135 41.3164C29.8195 40.5222 29.558 40.7389 29.1188 40.3345C29.3029 40.3092 29.3008 40.316 29.4659 40.2353C29.09 39.5837 28.4394 38.7128 27.9768 38.1185C27.915 38.014 27.8759 37.926 27.8229 37.8159C30.075 36.8258 31.0448 33.9976 31.6864 31.7713C31.7527 31.5485 31.79 31.3593 31.8369 31.1315C32.2155 29.972 31.8673 28.6892 31.931 27.5151C31.931 27.5155 32.0593 27.3077 32.0699 27.2903L31.7538 27.5034C31.2939 27.3296 31.1761 26.8081 30.7779 26.3785L30.5766 26.0778L30.5423 25.9698C30.3932 25.6809 30.3583 25.6535 30.1002 25.4532L29.8773 24.9587C28.1159 24.3146 27.3927 24.1588 25.5099 24.2491C23.3055 24.5776 20.9103 24.9753 19.3632 26.8481C19.1398 27.1185 18.9554 27.6826 18.735 27.9448C17.9762 27.1492 17.1903 26.4908 16.3375 25.799L16.1096 25.5157L16.0383 25.4746C15.9162 25.2422 15.9368 25.3686 16.0271 25.076L30.8707 20.4537C33.0627 19.7675 35.2884 19.1402 37.4686 18.4258C37.5424 17.836 37.5995 17.4369 38.0571 16.9887C38.4235 16.6333 38.9231 16.4495 39.4325 16.4829C39.9577 16.5126 40.4457 16.7633 40.7757 17.173C41.2206 17.735 41.2 18.1862 41.1277 18.8357Z" fill="#69595C"/>
<path d="M37.5974 18.9007C37.8992 19.009 38.7964 19.749 38.6883 20.1129L38.5819 20.1843C38.0592 21.033 37.3848 22.8453 36.9713 23.8369C36.3694 25.28 35.6871 26.7906 35.119 28.2339C34.8492 28.2342 34.7309 28.212 34.5035 28.4549C33.6187 29.3995 32.7877 31.1463 31.6835 31.7712C31.7498 31.5484 31.7871 31.3592 31.834 31.1314C32.2126 29.9719 31.8643 28.6891 31.9281 27.515C31.9281 27.5154 32.0564 27.3076 32.067 27.2902L31.7509 27.5033C31.291 27.3295 31.1731 26.808 30.775 26.3784L30.5737 26.0777L30.5394 25.9697C30.3903 25.6808 30.3554 25.6534 30.0973 25.4531L29.8743 24.9586L30.3133 24.8148C30.6653 24.551 30.5557 23.3557 30.8503 22.7883C31.376 22.4439 31.903 23.1362 32.2804 23.5007L33.076 23.691C34.0059 22.8807 34.8861 22.0165 35.8311 21.2117C36.3925 20.6813 37.2556 20.0611 37.7021 19.4263C37.812 19.2701 37.6782 19.0815 37.5974 18.9007Z" fill="#FDF4CD"/>
<path d="M35.8313 21.212L35.7584 21.292C35.2392 21.8557 33.564 23.2435 33.2977 23.7011C33.3576 23.8551 33.34 23.8331 33.4309 23.9686C33.7914 24.3579 33.8602 24.668 33.6871 25.1815C33.9719 25.6753 34.5382 25.6553 34.6117 26.3061C34.3186 26.9582 32.7908 27.0206 32.1037 27.1192L32.0672 27.2904L31.7511 27.5036C31.2912 27.3298 31.1733 26.8082 30.7752 26.3787L30.5739 26.0779L30.5396 25.97C30.3905 25.681 30.3556 25.6537 30.0975 25.4534L29.8745 24.9588L30.3135 24.8151C30.6655 24.5512 30.5559 23.356 30.8505 22.7886C31.3762 22.4442 31.9032 23.1365 32.2806 23.501L33.0762 23.6912C34.0061 22.8809 34.8863 22.0168 35.8313 21.212Z" fill="#A09C91"/>
<path d="M30.3142 24.8153C30.5079 25.0742 30.7202 25.2655 30.8953 25.5013C30.9702 25.7148 31.3337 26.1463 31.4862 26.3412C31.6575 26.5419 31.9885 26.904 32.1044 27.1194L32.0679 27.2907L31.7518 27.5038C31.2919 27.33 31.174 26.8085 30.7759 26.379L30.5746 26.0782L30.5402 25.9702C30.3912 25.6813 30.3563 25.6539 30.0981 25.4536L29.8752 24.9591L30.3142 24.8153Z" fill="#69595C"/>
<path d="M33.4918 25.0404C33.4497 25.8405 31.5629 25.8872 31.4846 26.341C31.3321 26.146 30.9685 25.7145 30.8936 25.501L31.0253 25.543C31.5121 25.222 31.6814 24.2592 32.0797 23.7363L32.1779 23.7421L32.2209 23.8729C32.135 24.467 31.6567 25.2664 31.3547 25.8103C32.2587 25.7078 32.7283 25.5069 33.4918 25.0404Z" fill="#736764"/>
<path d="M37.6007 18.9012C37.9025 19.0095 38.7997 19.7495 38.6916 20.1134L38.5852 20.1848C38.5492 19.9179 38.5838 20.0152 38.3374 19.7944C38.1414 19.755 38.1246 19.7278 37.9534 19.8693C36.4204 21.1364 34.9903 22.7426 33.434 23.9689C33.3431 23.8333 33.3606 23.8554 33.3008 23.7013C33.567 23.2438 35.2422 21.856 35.7614 21.2922L35.8344 21.2123C36.3958 20.6818 37.2589 20.0617 37.7054 19.4268C37.8153 19.2707 37.6815 19.082 37.6007 18.9012Z" fill="#736764"/>
<path d="M37.599 18.9011C37.6798 19.082 37.8136 19.2706 37.7037 19.4267C37.2572 20.0616 36.3941 20.6818 35.8327 21.2122C34.8877 22.017 34.0074 22.8812 33.0775 23.6914L32.282 23.5012C31.9045 23.1367 31.3776 22.4444 30.8518 22.7888C30.5573 23.3562 30.6668 24.5514 30.3149 24.8153L29.8759 24.959C28.1145 24.315 27.3913 24.1591 25.5085 24.2495C25.7141 23.4564 26.3782 22.9448 26.3655 22.3559C26.7256 22.1784 29.2752 21.4129 29.7796 21.2581C32.3811 20.4561 34.9875 19.6705 37.599 18.9011Z" fill="#FDF4CD"/>
<path d="M35.1212 28.2343L31.3547 37.1028C31.131 37.6316 30.0175 40.334 29.8223 40.6033C29.6359 40.5375 29.5797 40.4045 29.4652 40.2356C29.0893 39.5839 28.4387 38.7131 27.9761 38.1188C27.9142 38.0143 27.8752 37.9263 27.8221 37.8162C30.0742 36.8261 31.044 33.9978 31.6857 31.7715C32.7899 31.1467 33.6209 29.3999 34.5057 28.4552C34.7331 28.2124 34.8514 28.2345 35.1212 28.2343Z" fill="#FCFCFC"/>
<path d="M26.3627 22.3563C26.3754 22.9452 25.7113 23.4568 25.5057 24.2499C23.3012 24.5784 20.9061 24.9761 19.359 26.8489C19.1356 27.1193 18.9511 27.6833 18.7308 27.9455C17.972 27.15 17.1861 26.4915 16.3333 25.7997L16.1054 25.5165C19.3507 24.5053 23.1281 23.2313 26.3627 22.3563Z" fill="#FCFCFC"/>
<path d="M42.0677 45.9357C42.8888 46.9371 43.2117 47.3731 44.165 48.3143C44.1173 48.5539 43.9159 48.6823 43.7269 48.8553L37.8432 54.1837C36.8342 55.0972 35.6636 56.2068 34.6315 57.0707C34.3793 57.2978 34.1093 57.5174 33.9081 57.7872L31.8098 59.6809C31.1594 60.2117 30.6181 60.7025 30.001 61.2733L29.7885 61.4477L29.5403 61.7717L28.8233 62.426C29.5124 63.0901 33.163 67.2739 32.3246 68.0621C32.1553 68.0581 32.035 68.0307 31.8802 67.9585C29.4173 66.8066 22.2291 58.9993 21.3316 56.4832C21.2303 56.1988 21.1906 55.9994 21.3204 55.7273L21.5095 55.6624C22.728 55.8224 25.6866 58.8159 26.6004 59.8288L27.3114 59.1947L27.6707 58.881C28.0323 58.5388 28.894 57.7718 29.5441 57.1823C30.1942 56.5928 31.8178 55.1532 32.43 54.5737C35.6496 51.8006 38.7933 48.6394 42.0368 45.8878L42.0677 45.9357Z" fill="#69595C"/>
<path d="M42.0695 45.9365C42.8906 46.9379 43.2135 47.374 44.1668 48.3151C44.1191 48.5547 43.9177 48.6831 43.7287 48.8562L37.845 54.1845C36.836 55.098 35.6654 56.2076 34.6332 57.0716C34.3811 57.2987 34.1111 57.5183 33.9098 57.7881L31.8116 59.6818C31.1611 60.2125 30.6199 60.7033 30.0028 61.2742L29.7903 61.4485C29.2205 61.9272 28.0335 63.5685 27.3646 62.424C27.4708 62.0061 33.6758 56.6107 34.4559 55.926C36.7744 53.8734 39.062 51.7862 41.3178 49.6649C40.8383 48.7023 40.8251 48.1584 40.7964 47.1078L42.0695 45.9365Z" fill="#55494C"/>
<path d="M32.0286 64.3503C32.9947 65.5725 34.5714 67.1818 35.6623 68.403L35.3244 69.1941C35.1476 69.5191 35.0415 69.6754 34.9776 70.0474C34.4584 70.9378 34.1896 71.7719 33.7389 72.5924C31.716 70.2148 29.272 67.6493 27.1448 65.3038L16.6228 53.7094C17.1996 53.4576 18.3175 53.1404 18.9615 52.9269C19.347 52.8442 19.7483 52.7304 20.1316 52.6286C20.3985 52.5662 20.825 52.4194 21.0997 52.3334C22.2127 53.6015 23.3275 54.8894 24.5204 56.0812C25.4262 57.1473 26.3958 58.1418 27.3094 59.1954L26.5984 59.8295C25.6846 58.8166 22.726 55.8231 21.5075 55.6631L21.3184 55.728C21.1886 56.0001 21.2283 56.1995 21.3296 56.4839C22.2271 59.0001 29.4153 66.8073 31.8782 67.9592C32.033 68.0314 32.1533 68.0588 32.3226 68.0628C33.161 67.2746 29.5104 63.0908 28.8213 62.4267L29.5383 61.7724C30.1063 62.3812 31.446 63.888 32.0286 64.3503Z" fill="#7C7177"/>
<path d="M16.6226 53.7094L27.1446 65.3038C29.2718 67.6493 31.7158 70.2148 33.7387 72.5925C33.1417 73.1318 32.5065 73.7269 31.8974 74.2444C30.5488 72.6274 29.0255 71.1875 27.6578 69.5099C26.4757 68.0857 25.1163 66.6863 23.8799 65.3062C22.3394 63.5863 20.8097 61.8216 19.1984 60.1701C17.9984 58.7148 16.1614 56.804 14.851 55.3505C15.4098 54.7834 15.9879 54.1887 16.6226 53.7094Z" fill="#55494C"/>
<path d="M61.034 28.6284C61.6472 28.0496 62.2379 27.504 62.8759 26.9518C63.9234 26.0453 65.5333 26.5945 65.7422 27.9525C65.8754 29.3566 64.1844 30.2453 63.2771 31.2201L63.1248 31.4744L63.1706 31.6433C63.0457 32.9025 62.6515 33.6769 61.6629 34.49L61.6173 34.5269C61.0701 34.4617 60.717 34.972 59.3395 34.7269C58.0968 35.86 56.4899 37.4201 55.2308 38.4641L55.1919 38.4129C55.0301 38.2101 54.7983 37.8631 54.6417 37.6427C54.2006 37.0832 53.5925 36.3687 52.9682 35.9998C53.9239 35.1153 54.8867 34.2385 55.8567 33.3697C56.2369 33.0352 56.6125 32.6952 56.9833 32.35C57.1384 32.1437 57.0743 31.5951 56.9757 31.3771C57.2166 30.854 57.3234 30.4336 57.6642 29.9622C57.9647 29.5465 58.7086 29.2166 58.8772 28.8309C58.9329 28.8473 60.9662 28.6675 61.034 28.6284Z" fill="#7C7177"/>
<path d="M56.9847 32.3508C57.9769 33.7552 57.5369 33.7426 59.2235 34.7337C57.8696 35.9487 56.526 37.1754 55.1933 38.4137C55.0315 38.2109 54.7997 37.8639 54.6432 37.6435C54.202 37.084 53.594 36.3695 52.9697 36.0006C53.9253 35.1161 54.8881 34.2392 55.8581 33.3705C56.2384 33.036 56.614 32.6959 56.9847 32.3508Z" fill="#55494C"/>
<path d="M55.8582 33.3705C55.6934 33.5691 55.5802 33.6199 55.6226 33.8551C55.7481 34.5531 56.1671 35.2677 56.4918 35.895C56.2377 36.1269 54.7809 37.4366 54.6432 37.6435C54.202 37.084 53.594 36.3695 52.9697 36.0006C53.9253 35.1161 54.8882 34.2393 55.8582 33.3705Z" fill="#69595C"/>
<path d="M61.0354 28.628C61.6486 28.0491 62.2393 27.5036 62.8774 26.9513C63.9248 26.0449 65.5347 26.5941 65.7436 27.9521C65.8769 29.3562 64.1859 30.2449 63.2786 31.2197C63.2203 31.1332 62.8504 30.3413 62.7756 30.1891C62.277 29.3962 62.0251 29.2596 61.2061 28.7768C61.0896 28.7082 61.1335 28.7397 61.0354 28.628Z" fill="#69595C"/>
<path d="M62.773 30.1892C63.4895 29.5209 64.2617 28.8166 65.0385 28.2227C65.3513 27.9836 65.4078 27.9041 65.741 27.9521C65.8743 29.3563 64.1833 30.245 63.276 31.2197C63.2177 31.1332 62.8478 30.3414 62.773 30.1892Z" fill="#55494C"/>
<path d="M60.6461 30.8293C60.9856 31.02 61.195 31.3796 61.1931 31.7688C61.1912 32.1581 60.9783 32.5157 60.6371 32.703C60.2958 32.8902 59.8798 32.8776 59.5505 32.6701C59.0588 32.3602 58.9037 31.7149 59.201 31.2156C59.4982 30.7163 60.1394 30.5449 60.6461 30.8293Z" fill="#55494C"/>
<defs>
<linearGradient id="paint0_linear_109_93211" x1="60.6237" y1="53.8948" x2="58.0409" y2="53.5171" gradientUnits="userSpaceOnUse">
<stop stop-color="#544549"/>
<stop offset="1" stop-color="#685C5E"/>
</linearGradient>
<linearGradient id="paint1_linear_109_93211" x1="77.1836" y1="49.6233" x2="75.6441" y2="48.2177" gradientUnits="userSpaceOnUse">
<stop stop-color="#706162"/>
<stop offset="1" stop-color="#9F968D"/>
</linearGradient>
<linearGradient id="paint2_linear_109_93211" x1="70.7908" y1="52.2221" x2="67.8207" y2="46.8457" gradientUnits="userSpaceOnUse">
<stop stop-color="#FAF7E4"/>
<stop offset="1" stop-color="white"/>
</linearGradient>
<linearGradient id="paint3_linear_109_93211" x1="68.4928" y1="47.6376" x2="69.3117" y2="49.731" gradientUnits="userSpaceOnUse">
<stop stop-color="#5F5A5D"/>
<stop offset="1" stop-color="#7A6666"/>
</linearGradient>
<linearGradient id="paint4_linear_109_93211" x1="57.0633" y1="54.6249" x2="57.5713" y2="52.1182" gradientUnits="userSpaceOnUse">
<stop stop-color="#494344"/>
<stop offset="1" stop-color="#67595D"/>
</linearGradient>
<linearGradient id="paint5_linear_109_93211" x1="20.1214" y1="36.2295" x2="23.4271" y2="32.35" gradientUnits="userSpaceOnUse">
<stop stop-color="#574B4C"/>
<stop offset="1" stop-color="#736268"/>
</linearGradient>
</defs>
</svg>
