<svg width="287" height="165" viewBox="0 0 287 165" fill="none" xmlns="http://www.w3.org/2000/svg">
<g clip-path="url(#clip0_217_2958)">
<rect width="286.333" height="164.767" rx="16" fill="#2F1C3A"/>
<path d="M132.643 14.349C133.555 14.0279 137.621 13.4232 138.895 13.1937L155.475 10.2391L212.728 -0.10275C213.469 -0.229311 213.936 -0.178769 214.628 0.0636686C215.261 0.816664 214.737 1.09096 214.521 1.95202C214.523 1.94462 214.757 2.38471 214.71 2.77857C212.463 3.62012 207.998 4.03986 205.469 4.46905C183.812 8.1424 162.298 12.5858 140.658 16.328C140.366 16.3785 140.487 16.3395 140.214 16.5135C138.57 16.9823 134.472 15.4248 132.9 14.8142C132.805 14.5074 132.885 14.664 132.643 14.349Z" fill="#3D2948"/>
<path d="M0 62.0189C0.912223 61.6978 4.9782 61.0931 6.25203 60.8636L22.8323 57.909L80.0846 47.5671C80.8263 47.4406 81.2927 47.4911 81.9851 47.7336C82.6179 48.4866 82.0939 48.7608 81.8782 49.6219C81.8803 49.6145 82.1145 50.0546 82.0673 50.4485C79.8196 51.29 75.355 51.7097 72.8259 52.1389C51.1688 55.8123 29.6555 60.2557 8.01483 63.9979C7.72308 64.0484 7.8443 64.0094 7.57104 64.1834C5.92739 64.6522 1.82856 63.0947 0.25682 62.4841C0.16231 62.1773 0.242438 62.3339 0 62.0189Z" fill="#3D2948"/>
<path d="M12 31.0189C12.9122 30.6978 16.9782 30.0931 18.252 29.8636L34.8323 26.909L92.0846 16.5671C92.8263 16.4406 93.2927 16.4911 93.9851 16.7336C94.6179 17.4866 94.0939 17.7608 93.8782 18.6219C93.8803 18.6145 94.1145 19.0546 94.0673 19.4485C91.8196 20.29 87.355 20.7097 84.8259 21.1389C63.1688 24.8123 41.6555 29.2557 20.0148 32.9979C19.7231 33.0484 19.8443 33.0094 19.571 33.1834C17.9274 33.6522 13.8286 32.0947 12.2568 31.4841C12.1623 31.1773 12.2424 31.3339 12 31.0189Z" fill="#3D2948"/>
<path d="M204 82.0189C204.912 81.6978 208.978 81.0932 210.252 80.8637L226.832 77.909L284.085 67.5672C284.826 67.4406 285.293 67.4912 285.985 67.7336C286.618 68.4866 286.094 68.7609 285.878 69.6219C285.88 69.6145 286.115 70.0546 286.067 70.4485C283.82 71.29 279.355 71.7098 276.826 72.139C255.169 75.8123 233.655 80.2557 212.015 83.9979C211.723 84.0484 211.844 84.0094 211.571 84.1834C209.927 84.6523 205.829 83.0947 204.257 82.4841C204.162 82.1773 204.242 82.3339 204 82.0189Z" fill="#3D2948"/>
<path d="M182 49.0189C182.912 48.6978 186.978 48.0931 188.252 47.8636L204.832 44.909L262.085 34.5671C262.826 34.4406 263.293 34.4911 263.985 34.7336C264.618 35.4866 264.094 35.7608 263.878 36.6219C263.88 36.6145 264.115 37.0546 264.067 37.4485C261.82 38.29 257.355 38.7097 254.826 39.1389C233.169 42.8123 211.655 47.2557 190.015 50.9979C189.723 51.0484 189.844 51.0094 189.571 51.1834C187.927 51.6522 183.829 50.0947 182.257 49.4841C182.162 49.1773 182.242 49.3339 182 49.0189Z" fill="#3D2948"/>
<path d="M82.9103 163.328L83.4506 163.158C83.1589 161.717 83.0521 160.421 82.7274 158.962C81.9816 155.605 80.981 152.326 80.1161 148.998C78.3718 142.117 76.5679 135.251 74.7064 128.401C73.5066 124.012 71.9739 119.568 71 115.05C71.5712 114.678 73.6935 114.869 74.4496 114.933L74.4825 115.091C75.068 117.816 76.3295 121.339 77.0486 124.172L83.7855 150.076C84.3629 152.271 86.7605 161.064 86.6948 162.827C86.2078 162.952 86.2407 162.944 85.7435 162.864L85.2771 163.061C85.647 163.201 86.1483 163.361 86.4749 163.554C85.5422 163.587 84.9977 163.807 84.0567 163.959C83.4178 163.78 83.4137 163.729 82.9103 163.328Z" fill="#3D2948"/>
<path d="M148.91 187.001L149.451 186.83C149.159 185.39 149.052 184.094 148.727 182.635C147.982 179.278 146.981 175.999 146.116 172.67C144.372 165.79 142.568 158.923 140.706 152.074C139.507 147.685 137.974 143.241 137 138.723C137.571 138.351 139.694 138.542 140.45 138.606L140.482 138.764C141.068 141.488 142.33 145.012 143.049 147.845L149.786 173.749C150.363 175.943 152.761 184.737 152.695 186.5C152.208 186.625 152.241 186.617 151.744 186.537L151.277 186.734C151.647 186.874 152.148 187.034 152.475 187.227C151.542 187.26 150.998 187.48 150.057 187.632C149.418 187.453 149.414 187.402 148.91 187.001Z" fill="#3D2948"/>
<path d="M21.9103 138.001L22.4506 137.83C22.1589 136.39 22.0521 135.094 21.7274 133.635C20.9816 130.278 19.981 126.999 19.1161 123.67C17.3718 116.79 15.5679 109.923 13.7064 103.074C12.5066 98.685 10.9739 94.241 10 89.723C10.5712 89.3511 12.6935 89.5422 13.4496 89.6059L13.4825 89.7641C14.068 92.4884 15.3295 96.012 16.0486 98.8453L22.7855 124.749C23.3629 126.943 25.7605 135.737 25.6948 137.5C25.2078 137.625 25.2407 137.617 24.7435 137.537L24.2771 137.734C24.647 137.874 25.1483 138.034 25.4749 138.227C24.5422 138.26 23.9977 138.48 23.0567 138.632C22.4178 138.453 22.4137 138.402 21.9103 138.001Z" fill="#3D2948"/>
<path d="M275.91 163.001L276.451 162.83C276.159 161.39 276.052 160.094 275.727 158.635C274.982 155.278 273.981 151.999 273.116 148.67C271.372 141.79 269.568 134.923 267.706 128.074C266.507 123.685 264.974 119.241 264 114.723C264.571 114.351 266.694 114.542 267.45 114.606L267.482 114.764C268.068 117.488 269.33 121.012 270.049 123.845L276.786 149.749C277.363 151.943 279.761 160.737 279.695 162.5C279.208 162.625 279.241 162.617 278.744 162.537L278.277 162.734C278.647 162.874 279.148 163.034 279.475 163.227C278.542 163.26 277.998 163.48 277.057 163.632C276.418 163.453 276.414 163.402 275.91 163.001Z" fill="#3D2948"/>
<path d="M139.565 34.1101C114.38 33.9605 98.0221 62.0365 102.246 87.0071C105.783 107.923 119.128 124.99 140.219 124.54L139.565 34.1101Z" fill="#16606B"/>
<path d="M140.219 124.54C162.401 124.067 177.143 103.598 177.975 81.3004C178.863 57.5009 163.245 34.2508 139.565 34.1101L140.219 124.54Z" fill="#E3772E"/>
<path fill-rule="evenodd" clip-rule="evenodd" d="M135.418 26.6476C106.107 29.1396 89.0806 61.8153 95.2619 90.7386C100.37 114.64 116.786 133.436 141.092 133.1C167.038 132.742 184.014 109.542 185.614 83.4954C187.324 55.6463 167.469 27.726 140.656 26.5392C138.937 26.4632 137.19 26.4969 135.418 26.6476ZM102.246 87.0071C98.0221 62.0365 114.38 33.9605 139.565 34.1101C163.245 34.2508 178.863 57.5009 177.975 81.3004C177.143 103.598 162.401 124.067 140.219 124.54C119.128 124.99 105.783 107.923 102.246 87.0071Z" fill="#F0B240"/>
<path d="M185.614 83.4954C184.014 109.542 167.038 132.742 141.092 133.1C141.092 133.1 143.655 133.507 147.5 133.412C150.909 133.328 155.327 132.849 159.861 131.344C160.575 131.107 161.288 130.824 162 130.503C165.764 128.805 169.483 126.044 172.956 123.442C175.856 121.269 178.421 118.556 180.652 115.5C187.684 105.871 191.41 92.8438 191.943 82.6174C192.57 70.5839 188.065 50.9269 177.975 41.5209C173.323 37.1837 168.75 32.6932 163.401 30.5464C151.706 25.8526 140.656 26.5392 140.656 26.5392C167.469 27.726 187.324 55.6463 185.614 83.4954Z" fill="#F0B240"/>
<path d="M172.956 123.442C169.483 126.044 165.764 128.805 162 130.503C162 130.503 263.029 150.635 242 127.5C225.58 109.436 180.652 115.5 180.652 115.5C178.421 118.556 175.856 121.269 172.956 123.442Z" fill="#1A0C23"/>
<path d="M141.092 133.1C116.786 133.436 100.37 114.64 95.2619 90.7386C89.0806 61.8153 106.107 29.1396 135.418 26.6476C137.19 26.4969 138.937 26.4632 140.656 26.5392M141.092 133.1C167.038 132.742 184.014 109.542 185.614 83.4954C187.324 55.6463 167.469 27.726 140.656 26.5392M141.092 133.1C141.092 133.1 143.655 133.507 147.5 133.412C150.909 133.328 155.327 132.849 159.861 131.344C160.575 131.107 161.288 130.824 162 130.503M139.565 34.1101C114.38 33.9605 98.0221 62.0365 102.246 87.0071C105.783 107.923 119.128 124.99 140.219 124.54M139.565 34.1101C163.245 34.2508 178.863 57.5009 177.975 81.3004C177.143 103.598 162.401 124.067 140.219 124.54M139.565 34.1101L140.219 124.54M140.656 26.5392C140.656 26.5392 151.706 25.8526 163.401 30.5464C168.75 32.6932 173.323 37.1837 177.975 41.5209C188.065 50.9269 192.57 70.5839 191.943 82.6174C191.41 92.8438 187.684 105.871 180.652 115.5M162 130.503C165.764 128.805 169.483 126.044 172.956 123.442C175.856 121.269 178.421 118.556 180.652 115.5M162 130.503C162 130.503 263.029 150.635 242 127.5C225.58 109.436 180.652 115.5 180.652 115.5" stroke="black"/>
<path d="M99.6743 69.6155C99.6743 69.6155 100.928 57.7088 104.694 51.1784C108.54 44.5096 118.443 37.57 118.443 37.57" stroke="white" stroke-width="0.533405"/>
<path d="M121.498 35.3751C121.498 35.3751 122.127 34.7628 123.681 34.0582C125.342 33.305 126.3 33.1803 126.3 33.1803" stroke="white" stroke-width="0.533405"/>
<path d="M114.483 87.1819L113.118 82.0586L114.248 81.9591L114.896 84.3909L114.306 84.0884L117.311 83.8239L116.897 84.2148L116.249 81.783L117.38 81.6835L118.745 86.8069L117.614 86.9063L116.959 84.4457L117.557 84.7476L114.552 85.012L114.958 84.6218L115.613 87.0824L114.483 87.1819ZM119.742 86.7191L118.377 81.5958L122.052 81.2725L122.298 82.1961L119.754 82.4199L120.067 83.5961L122.522 83.3801L122.764 84.2894L120.31 84.5054L120.627 85.696L123.23 85.4669L123.476 86.3905L119.742 86.7191ZM123.961 86.348L124.5 81.0571L125.839 80.9392L129.108 85.895L127.933 85.9984L127.256 84.9429L125.225 85.1215L125.128 86.2452L123.961 86.348ZM125.305 84.1914L126.703 84.0683L125.477 82.1527L125.305 84.1914ZM129.615 85.8504L128.25 80.7271L130.072 80.5668C130.93 80.4913 131.649 80.6569 132.23 81.0637C132.809 81.4657 133.208 82.078 133.427 82.9007C133.645 83.7185 133.585 84.3687 133.247 84.8515C132.913 85.3337 132.325 85.612 131.482 85.6862L129.615 85.8504ZM130.499 84.8273L131.191 84.7664C131.702 84.7215 132.044 84.556 132.216 84.2701C132.392 83.9789 132.406 83.5542 132.257 82.9962C132.109 82.4382 131.875 82.0378 131.557 81.795C131.242 81.547 130.829 81.4455 130.318 81.4904L129.627 81.5513L130.499 84.8273Z" fill="white"/>
<path d="M146.167 85.3763L147.286 81.1766L145.709 81.0379L145.955 80.1142L150.255 80.4925L150.009 81.4162L148.424 81.2768L147.305 85.4765L146.167 85.3763ZM148.362 85.5694L151.631 80.6137L152.97 80.7315L153.51 86.0224L152.334 85.9189L152.238 84.7953L150.207 84.6166L149.53 85.6722L148.362 85.5694ZM150.767 83.7428L152.166 83.8658L151.993 81.8271L150.767 83.7428ZM154.016 86.0669L155.381 80.9436L156.512 81.0431L155.147 86.1664L154.016 86.0669ZM156.246 86.2632L157.611 81.1398L158.742 81.2393L157.456 86.0668L156.998 85.384L160.056 85.653L159.809 86.5767L156.246 86.2632Z" fill="white"/>
</g>
<defs>
<clipPath id="clip0_217_2958">
<rect width="286.333" height="164.767" rx="16" fill="white"/>
</clipPath>
</defs>
</svg>
