<svg width="64" height="80" viewBox="0 0 64 80" fill="none" xmlns="http://www.w3.org/2000/svg">
<path d="M21.2532 3.68158C23.042 2.89105 32.8917 4.20137 35.5835 4.10237C36.1556 4.08141 37.9115 4.25261 38.5637 4.31405C40.1183 4.35762 41.0638 4.15197 42.6055 3.90584L43.1092 4.01267L43.1103 4.14905C40.4842 6.10387 39.4909 9.24759 38.5214 12.3559C38.1022 12.8544 37.6946 12.8132 36.9691 12.9634C36.5387 13.6003 36.1317 14.2127 35.6581 14.8209C36.3212 14.6473 37.0025 14.4781 37.6554 14.2745C39.7719 13.9997 41.8414 14.0659 43.9628 13.8415C44.5846 13.6657 44.8781 13.8976 45.3244 13.8338C49.1369 14.4034 50.0774 14.3206 53.9373 14.3534L55.4712 14.3374C55.9381 14.1768 55.9538 14.2231 56.4373 14.3691L56.8371 14.4883C56.985 14.5312 56.9346 14.5166 57.1188 14.5343C57.426 14.7556 57.4116 14.7405 57.5374 15.0995L57.6409 15.1399C57.3489 16.1525 57.0096 16.7121 56.4271 17.5932C56.8801 19.3251 58.5998 25.108 58.6521 26.3835C58.8829 27.5238 58.7095 28.9785 58.9372 29.9584L58.2789 30.0119L58.3276 29.8474C57.2898 30.2226 55.8896 31.3353 54.9669 32.0159C54.3982 32.4345 53.6088 32.9747 53.1362 33.4708C53.0223 33.7552 52.8334 34.1395 52.8352 34.4314L52.9964 34.4945L52.988 34.601C52.9544 35.0816 52.9648 34.9472 53.0235 35.3467C53.122 36.0178 52.5792 36.5008 52.3909 37.3956C52.3006 38.0698 53.6243 40.5243 53.6299 41.4325C53.6431 41.4589 53.656 41.4852 53.6689 41.5116L55.2121 41.5322C55.1789 42.0108 55.1589 43.5547 55.1065 43.8323C55.1764 44.0136 55.3169 44.4077 55.3975 44.5625C56.5062 45.6668 57.1879 45.2254 58.0504 45.7782C58.1292 46.1414 58.2267 46.684 58.3454 47.0185C58.494 47.4229 58.6508 47.932 58.4734 48.356C58.1841 49.3385 58.2167 49.732 57.3919 50.3634C57.4364 50.8343 57.4878 51.3047 57.5465 51.7741L57.5357 51.9047C57.2376 51.967 56.9848 52.0124 56.6839 52.0582L56.5871 52.215C56.1571 52.9027 55.9621 53.2839 55.3455 53.8101C55.2735 54.0666 55.2549 53.957 55.3156 54.1742C56.2825 54.7977 56.6221 55.8249 56.6922 56.9266C56.545 57.7103 56.0174 60.2323 55.72 60.9118C54.7255 61.0016 53.5913 61.7812 52.5205 61.9537C49.2016 62.4879 45.0343 63.2772 41.7161 63.4154C41.7894 64.7634 42.0474 68.3099 41.7945 69.5336C41.5686 70.7291 41.4542 73.1924 41.3679 74.4836C41.2848 75.7275 41.066 77.3392 41.0109 78.5115L40.7369 78.4133C40.4179 78.6452 40.1347 78.8371 39.8029 79.0506C39.1777 78.6913 38.4441 77.7077 37.9068 77.1547C35.6426 74.8376 33.636 72.2813 31.4106 69.9345C30.7798 69.2691 29.5318 67.6776 28.7444 67.5657C28.3177 67.3813 27.5651 67.2743 27.0603 67.0984C26.0067 66.7314 24.9492 66.3593 23.8925 66.0025C22.382 65.5009 20.8525 65.0586 19.3074 64.6768C18.6067 64.5 17.4174 64.1822 16.7214 64.1685L16.5686 64.184C14.867 64.3461 12.1913 64.3649 10.7934 65.2991C10.9973 64.4936 11.0573 64.151 11.1014 63.3282C11.0177 62.2511 11.1254 57.9485 10.8047 57.3394L10.2873 57.1987C9.47473 57.0637 8.53342 56.9544 7.81308 56.579C7.69749 56.3625 7.62767 56.1955 7.53031 55.9728C6.83476 55.4116 5.28414 53.2888 5.3609 52.3674C5.34923 51.8343 5.36801 51.3834 5.39244 50.8523L5.43765 50.8573L5.48396 50.5614C5.86537 50.1098 6.85719 50.0859 7.48801 50.0035C7.07342 49.9119 7.02638 49.9207 6.70823 49.6614C6.61817 49.2786 6.63859 49.4113 6.76348 48.993C6.82875 48.7092 6.76639 48.6368 6.64879 48.3699C6.55927 47.9983 6.36438 47.4554 6.24223 47.0771C6.78043 47.1159 6.88563 47.1208 7.38773 47.3073C7.54526 46.9361 9.22222 46.0628 9.68914 45.7917C9.50919 45.1959 8.00214 43.8354 8.14052 42.8947L8.50717 42.7922L8.46323 42.6959C8.6935 42.1304 9.56936 40.3389 9.91522 39.8932L10.0977 39.5827C9.98723 39.3498 10.0126 39.169 10.0124 38.9101L9.0111 39.6616C8.72832 39.4722 8.3491 39.1998 8.06541 39.0333C8.3305 39.3232 8.6151 39.6487 8.89077 39.9236C7.64918 40.5553 6.12262 41.0866 4.74739 41.3101L4.54648 41.4976L4.49124 41.5092C4.60081 40.4206 0.677496 33.7583 0 31.8578C0.744225 29.0113 0.506119 24.4158 1.09665 21.8839C1.78399 20.4387 3.40261 18.0277 4.25459 16.6151C5.07156 15.2605 6.20977 13.2745 7.09128 12.0682L7.35947 11.6974C7.82803 11.2693 10.5413 9.78962 11.2358 9.3898C14.5523 7.44756 17.8918 5.5447 21.2532 3.68158Z" fill="#CC8531"/>
<path d="M21.2532 3.68158C23.042 2.89105 32.8917 4.20137 35.5835 4.10237C36.1556 4.08141 37.9115 4.25261 38.5637 4.31405C40.1183 4.35762 41.0638 4.15197 42.6055 3.90584L43.1092 4.01267L43.1103 4.14905C40.4842 6.10387 39.4909 9.24759 38.5214 12.3559C38.1022 12.8544 37.6946 12.8132 36.9691 12.9634C36.5387 13.6003 36.1317 14.2127 35.6581 14.8209C36.3212 14.6473 37.0025 14.4781 37.6554 14.2745C39.7719 13.9997 41.8414 14.0659 43.9628 13.8415C44.5846 13.6657 44.8781 13.8976 45.3244 13.8338C49.1369 14.4034 50.0774 14.3206 53.9373 14.3534L55.4712 14.3374L55.4996 14.4745C54.2316 15.3513 52.6356 16.5854 51.1269 16.905C50.725 18.0995 50.4973 18.1681 49.3542 18.9001C49.1334 19.0416 48.0492 19.5139 47.8198 19.5358C46.8273 20.3767 46.0993 21.2385 45.0433 22.0938C44.5579 22.6256 43.2833 23.7705 44.0236 24.4641C43.6742 24.8285 43.3433 25.1757 42.9751 25.5228L42.8533 25.2209C42.4432 25.478 41.3366 25.8936 40.8069 26.1133C38.4348 27.0977 35.8697 28.2215 33.4367 29.0253C31.8859 29.4275 29.2084 28.1283 27.607 27.6393C26.4202 27.2769 23.7712 26.7041 22.8961 26.0814C22.207 26.0519 21.7103 26.205 20.9889 26.0499L20.5274 26.1505C20.0107 26.5057 19.8733 26.6541 19.4408 27.0986C18.5026 29.3327 15.3009 32.3928 13.4956 34.3144L13.3614 34.4384C12.2751 36.0976 11.0955 37.336 10.0124 38.9101L9.0111 39.6616C8.72832 39.4722 8.3491 39.1998 8.06541 39.0333C8.3305 39.3232 8.6151 39.6487 8.89077 39.9236C7.64918 40.5553 6.12262 41.0866 4.74739 41.3101L4.54648 41.4976L4.49124 41.5092C4.60081 40.4206 0.677496 33.7583 0 31.8578C0.744225 29.0113 0.506119 24.4158 1.09665 21.8839C1.78399 20.4387 3.40261 18.0277 4.25459 16.6151C5.07156 15.2605 6.20977 13.2745 7.09128 12.0682L7.35947 11.6974C7.82803 11.2693 10.5413 9.78962 11.2358 9.3898C14.5523 7.44756 17.8918 5.5447 21.2532 3.68158Z" fill="#49A22A"/>
<path d="M7.09128 12.0681L7.35947 11.6973C7.8253 11.9447 17.2725 12.0599 19.0632 12.3334C19.066 12.6714 19.0849 13.1392 19.0652 13.4652C19.4826 13.9133 19.8049 14.1801 20.2461 14.5677C20.8243 15.0756 23.4874 16.0014 23.4947 16.6432L23.5698 16.7189C22.6429 18.5535 21.8556 20.9124 21.0633 22.8448C20.9807 23.7799 20.9353 25.3644 20.5274 26.1504C20.0107 26.5055 19.8733 26.654 19.4408 27.0984C18.5026 29.3326 15.3009 32.3926 13.4956 34.3143L13.3614 34.4382C12.2752 36.0975 11.0955 37.3358 10.0124 38.91L9.0111 39.6615C8.72832 39.4721 8.3491 39.1997 8.06541 39.0332C8.3305 39.3231 8.6151 39.6485 8.89077 39.9235C7.64918 40.5552 6.12262 41.0865 4.7474 41.31L4.54648 41.4974L4.49124 41.5091C4.60081 40.4205 0.677496 33.7582 0 31.8577C0.744225 29.0112 0.506119 24.4156 1.09665 21.8838C1.78399 20.4385 3.40261 18.0276 4.25459 16.6149C5.07156 15.2603 6.20977 13.2743 7.09128 12.0681Z" fill="#EEC558"/>
<path d="M0 31.8577C0.744225 29.0112 0.506119 24.4156 1.09665 21.8838C1.33202 22.1142 1.57359 22.4138 1.87843 22.4749C3.03032 23.903 4.12842 25.5039 5.08633 27.0782C6.65901 29.6626 9.29862 30.8015 11.4542 32.7954C11.749 33.0712 12.0974 33.3372 12.4039 33.5978C12.6608 33.9622 12.9557 34.243 13.3614 34.4382C12.2751 36.0975 11.0955 37.3358 10.0124 38.91L9.0111 39.6615C8.72832 39.4721 8.3491 39.1997 8.06541 39.0332C8.3305 39.3231 8.6151 39.6485 8.89077 39.9235C7.64918 40.5552 6.12262 41.0865 4.74739 41.31L4.54648 41.4974L4.49124 41.5091C4.60081 40.4205 0.677496 33.7582 0 31.8577Z" fill="#B96D27"/>
<path d="M0 31.8574C1.94333 33.4193 3.76251 35.1251 5.61213 36.791C5.88288 37.0349 7.86687 38.9082 8.06541 39.0329C8.3305 39.3228 8.6151 39.6483 8.89077 39.9232C7.64918 40.5549 6.12262 41.0862 4.74739 41.3097L4.54648 41.4972L4.49124 41.5088C4.60081 40.4202 0.677496 33.7579 0 31.8574Z" fill="#632C19"/>
<path d="M7.0918 12.0679C7.19864 14.6169 7.04968 17.5795 7.28597 20.0274C8.90933 22.192 12.5508 25.9689 13.6686 28.103C13.7005 29.9017 13.0919 32.4715 13.2861 34.1346L13.4961 34.314L13.3619 34.438C12.9563 34.2427 12.6613 33.962 12.4044 33.5975C12.0979 33.337 11.7495 33.071 11.4547 32.7951C9.29914 30.8013 6.65953 29.6623 5.08685 27.078C4.12894 25.5037 3.03084 23.9027 1.87895 22.4746C1.57411 22.4135 1.33254 22.114 1.09717 21.8835C1.78451 20.4383 3.40313 18.0273 4.25511 16.6147C5.07208 15.2601 6.21029 13.2741 7.0918 12.0679Z" fill="#CC8531"/>
<path d="M1.87891 22.4746C2.85923 22.4908 6.68683 24.8973 7.18657 25.8274C7.74902 26.8745 12.3655 32.8901 12.4043 33.5975C12.0979 33.337 11.7495 33.071 11.4546 32.7951C9.29909 30.8013 6.65948 29.6623 5.0868 27.078C4.1289 25.5037 3.0308 23.9027 1.87891 22.4746Z" fill="#EEC558"/>
<path d="M19.0656 13.4648C19.4829 13.913 19.8052 14.1797 20.2464 14.5673C20.8246 15.0753 23.4877 16.0011 23.495 16.6428L23.5701 16.7185C22.6432 18.5532 21.8559 20.912 21.0636 22.8444C20.981 23.7795 20.9356 25.364 20.5278 26.15C20.0111 26.5052 19.8736 26.6536 19.4411 27.0981C18.5029 29.3322 15.3012 32.3923 13.4959 34.3139L13.2859 34.1345C13.0917 32.4714 13.7003 29.9016 13.6684 28.1028C14.1391 24.0887 16.0152 22.8889 18.5853 19.7762C18.4825 19.6901 18.1204 19.3709 18.1605 19.225C18.6814 17.3264 18.8936 15.4237 19.0656 13.4648Z" fill="#49A22A"/>
<path d="M19.408 18.9175C20.0149 20.2386 17.2167 24.7544 16.5858 26.213C15.8741 27.858 15.3109 29.5691 14.6385 31.2331C14.2197 32.2493 13.5089 33.0628 13.2859 34.1352C13.0917 32.4721 13.7003 29.9024 13.6684 28.1036C14.1391 24.0895 16.0152 22.8897 18.5853 19.7769L19.408 18.9175Z" fill="#2E7622"/>
<path d="M19.0658 13.4648C19.4832 13.913 19.8055 14.1797 20.2467 14.5673C20.8248 15.0753 23.488 16.0011 23.4953 16.6428L23.5704 16.7185C22.6435 18.5532 21.8562 20.912 21.0639 22.8444C20.7758 23.1456 20.6318 23.3766 20.2347 23.4311L19.8332 23.306C19.9224 21.584 20.0431 19.8639 20.1949 18.1462C19.8852 18.4051 19.6813 18.6274 19.4082 18.9167L18.5856 19.7762C18.4828 19.6901 18.1207 19.3709 18.1608 19.225C18.6817 17.3264 18.8939 15.4237 19.0658 13.4648Z" fill="#F2DC7E"/>
<path d="M21.0633 22.8447C20.9807 23.7798 20.9353 25.3644 20.5275 26.1503C20.0108 26.5055 19.8733 26.6539 19.4409 27.0984C19.3949 25.8969 19.6305 24.4984 19.8327 23.3064L20.2341 23.4314C20.6312 23.3769 20.7753 23.1459 21.0633 22.8447Z" fill="#CC8531"/>
<path d="M21.2536 3.68158C23.0424 2.89105 32.8921 4.20137 35.5839 4.10237C36.156 4.08141 37.9119 4.25261 38.5641 4.31405C40.1187 4.35762 41.0642 4.15197 42.6059 3.90584L43.1096 4.01267L43.1107 4.14905C40.4846 6.10387 39.4913 9.24759 38.5218 12.3559C38.1026 12.8544 37.6949 12.8132 36.9695 12.9634C36.539 13.6003 36.1321 14.2127 35.6585 14.8209C34.3855 15.8005 33.118 16.7839 31.8221 17.7338C31.3767 18.0603 30.8275 18.326 30.4607 18.5952L30.2738 18.282L30.0111 17.7249C29.7003 18.2044 29.1785 18.2729 28.5726 18.6324C28.9145 17.6552 31.0908 11.7645 30.827 11.2945L30.6662 11.431C28.7911 12.7999 26.8982 14.1374 25.0367 15.5254C24.7071 15.7711 23.8227 16.5688 23.5702 16.719L23.4951 16.6433C23.4878 16.0016 20.8246 15.0758 20.2465 14.5678C19.8053 14.1802 19.483 13.9135 19.0656 13.4654C19.0853 13.1394 19.0664 12.6715 19.0636 12.3335C17.2729 12.06 7.82569 11.9448 7.35986 11.6974C7.82842 11.2693 10.5417 9.78962 11.2361 9.3898C14.5527 7.44756 17.8922 5.5447 21.2536 3.68158Z" fill="#F9E8A0"/>
<path d="M21.2536 3.68158C23.0423 2.89105 32.8921 4.20137 35.5838 4.10237C36.156 4.08141 37.9119 4.25261 38.564 4.31405L38.446 4.60047C37.3742 5.58043 21.3196 11.8008 19.1431 12.2821C19.3876 11.2934 19.6541 10.1238 19.9329 9.16081C20.5041 7.18703 21.179 5.79119 21.2536 3.68158Z" fill="#F9F7D4"/>
<path d="M39.212 6.08789L39.4197 6.18762C39.3843 6.64305 39.2125 6.90012 39.0078 7.31015C38.5803 9.28776 38.1241 10.0433 37.6195 11.7722C37.3443 12.222 37.1981 12.4937 36.9691 12.9631C36.5387 13.6 36.1317 14.2124 35.6581 14.8206C34.3851 15.8002 33.1176 16.7836 31.8217 17.7335C31.3763 18.06 30.8272 18.3257 30.4603 18.5949L30.2735 18.2817L30.0107 17.7246C30.7781 15.8596 31.6817 12.0517 32.7674 10.6072C33.5302 9.59224 37.9155 7.05072 39.121 6.15626L39.212 6.08789Z" fill="#2E7622"/>
<path d="M30.2739 18.2816C31.3799 16.6118 33.1493 14.9787 34.3504 13.2843C35.5442 11.6004 37.1483 8.22858 39.0083 7.31006C38.5807 9.28767 38.1246 10.0432 37.6199 11.7721C37.3448 12.2219 37.1986 12.4936 36.9696 12.963C36.5391 13.5999 36.1322 14.2123 35.6585 14.8205C34.3856 15.8001 33.1181 16.7835 31.8222 17.7334C31.3768 18.0599 30.8276 18.3256 30.4608 18.5949L30.2739 18.2816Z" fill="#78CB3E"/>
<path d="M39.2122 6.08839C39.3812 5.55967 40.2514 5.6727 40.6742 5.8067L40.79 5.95493C40.5484 6.17918 40.1694 6.1212 39.8702 6.02129C39.6074 6.47983 39.6988 6.52121 39.8862 7.0091C39.7799 7.50099 39.7374 7.54657 39.2784 7.84102L39.2084 7.88514C38.7267 8.994 38.404 11.0186 37.6196 11.7727C38.1243 10.0438 38.5804 9.28826 39.008 7.31065C39.2127 6.90062 39.3845 6.64355 39.4198 6.18812L39.2122 6.08839Z" fill="#EEC558"/>
<path d="M43.9631 13.8411C44.5848 13.6654 44.8784 13.8973 45.3247 13.8335C49.1371 14.403 50.0777 14.3203 53.9376 14.3531L55.4714 14.337L55.4999 14.4742C54.2318 15.3509 52.6358 16.585 51.1271 16.9046C50.7253 18.0992 50.4976 18.1677 49.3545 18.8998C49.1337 19.0412 48.0494 19.5136 47.8201 19.5355C46.8275 20.3764 46.0995 21.2382 45.0435 22.0934C43.4428 22.1864 41.8032 22.1999 40.1973 22.2309C39.4668 22.2265 39.0206 22.2519 38.3694 21.8768C38.2088 21.3609 37.8711 20.5641 37.6673 20.0383L37.8498 19.8533C37.1743 19.6938 35.1019 19.5681 34.4176 19.6932C32.7988 19.9275 31.0694 20.1585 29.4336 20.2338C29.6724 19.7346 29.7483 19.7242 30.1714 19.5315L30.1598 19.3758C30.2174 19.1831 30.3809 18.7978 30.4606 18.5949C30.8274 18.3256 31.3766 18.06 31.822 17.7335C33.1179 16.7836 34.3854 15.8002 35.6583 14.8206C36.3214 14.647 37.0027 14.4778 37.6556 14.2741C39.7722 13.9994 41.8417 14.0656 43.9631 13.8411Z" fill="#F9F7D4"/>
<path d="M43.9634 13.8411C44.5851 13.6654 44.8786 13.8973 45.3249 13.8335C49.1374 14.403 50.078 14.3203 53.9378 14.3531L55.4717 14.337L55.5001 14.4742C54.2321 15.3509 52.6361 16.585 51.1274 16.9046C50.7256 18.0992 50.4978 18.1677 49.3547 18.8998C49.1339 19.0412 48.0497 19.5136 47.8203 19.5355C47.5417 19.3805 47.1486 19.3741 46.8212 19.3397C44.7368 18.8288 42.5839 17.5083 40.5225 16.9056C40.9232 16.5934 41.3666 16.2014 41.7582 15.8696L43.1079 14.7445C43.4087 14.4876 43.8341 14.1921 43.9634 13.8411Z" fill="#EDBD52"/>
<path d="M41.7582 15.8696C43.3995 15.9185 44.4086 16.0277 46.0314 16.4365C46.5711 16.5725 47.7749 16.9116 48.2725 16.9951C49.4643 17.1953 49.9321 17.1371 51.1274 16.9047C50.7256 18.0992 50.4978 18.1678 49.3547 18.8998C49.1339 19.0412 48.0497 19.5136 47.8203 19.5355C47.5417 19.3805 47.1486 19.3742 46.8212 19.3397C44.7368 18.8288 42.5839 17.5083 40.5225 16.9056C40.9232 16.5934 41.3666 16.2014 41.7582 15.8696Z" fill="#CC8531"/>
<path d="M53.9378 14.3534L55.4717 14.3374L55.5001 14.4745C54.2321 15.3513 52.6361 16.5854 51.1274 16.905C49.9321 17.1375 49.4643 17.1956 48.2725 16.9954C48.7489 16.1755 51.8226 15.1458 52.818 14.8309C53.2503 14.6942 53.4795 14.8178 53.9845 14.5868L53.9378 14.3534Z" fill="#EEC558"/>
<path d="M43.9635 13.8413C43.8342 14.1923 43.4089 14.4878 43.1081 14.7447L41.7584 15.8698C41.3667 16.2016 40.9233 16.5936 40.5226 16.9057C38.0917 18.4746 37.5472 19.3922 34.2581 19.1956C33.7571 19.1275 33.4753 19.221 32.9345 19.1408C32.6532 18.7991 32.7232 18.581 32.6694 18.0673C31.8081 18.468 30.8854 19.0472 30.1602 19.376C30.2178 19.1832 30.3813 18.798 30.461 18.5951C30.8278 18.3258 31.3769 18.0602 31.8224 17.7336C33.1183 16.7837 34.3858 15.8003 35.6587 14.8207C36.3218 14.6472 37.0031 14.478 37.656 14.2743C39.7725 13.9996 41.842 14.0657 43.9635 13.8413Z" fill="#2E7622"/>
<path d="M32.6694 18.0672C32.9473 18.0249 34.2678 17.5244 34.6077 17.4156C37.3191 16.5461 40.2499 14.9308 43.1081 14.7446L41.7584 15.8697C41.3668 16.2015 40.9234 16.5935 40.5226 16.9057C38.0918 18.4745 37.5472 19.3921 34.2582 19.1956C33.7571 19.1274 33.4753 19.2209 32.9345 19.1407C32.6532 18.799 32.7232 18.581 32.6694 18.0672Z" fill="#49A22A"/>
<path d="M46.8211 19.3398C47.1486 19.3743 47.5417 19.3807 47.8203 19.5357C46.8277 20.3765 46.0997 21.2383 45.0437 22.0936C43.443 22.1866 41.8034 22.2001 40.1975 22.2311C39.467 22.2267 39.0208 22.252 38.3696 21.877C38.209 21.361 37.8713 20.5643 37.6675 20.0385L37.85 19.8534C38.9572 19.8853 46.1797 19.7231 46.8211 19.3398Z" fill="#EEC558"/>
<path d="M30.1602 19.3761C30.8854 19.0473 31.8081 18.4681 32.6694 18.0674C32.7232 18.5812 32.6532 18.7992 32.9345 19.1409C33.4753 19.2211 33.7571 19.1276 34.2581 19.1958C33.2335 19.3454 31.1793 19.5464 30.1718 19.5318L30.1602 19.3761Z" fill="#49A22A"/>
<path d="M34.4177 19.6934C35.102 19.5684 37.1744 19.694 37.8499 19.8535L37.6674 20.0386C37.8712 20.5644 38.2089 21.3611 38.3695 21.8771C39.0207 22.2521 39.4669 22.2268 40.1974 22.2311C41.8033 22.2001 43.4429 22.1867 45.0436 22.0937C44.5583 22.6255 43.2837 23.7705 44.0239 24.464C43.6746 24.8284 43.3437 25.1756 42.9754 25.5227L42.8536 25.2208C42.4436 25.4779 41.3369 25.8936 40.8073 26.1132C38.4351 27.0976 35.8701 28.2214 33.4371 29.0252C31.8863 29.4274 29.2087 28.1282 27.6074 27.6393C26.4205 27.2768 23.7716 26.704 22.8965 26.0813C24.1612 26.0864 27.7246 25.6276 28.8933 25.3484C29.361 25.1141 30.1196 24.532 30.5737 24.2042C31.5805 23.2724 32.6965 22.2778 33.6531 21.3084L33.7131 21.3283L34.1928 20.847C34.5078 20.4639 34.8269 20.296 35.0524 19.8907L34.9674 19.7483L34.4177 19.6934Z" fill="#EDBD52"/>
<path d="M34.4177 19.6934C35.102 19.5684 37.1744 19.694 37.8499 19.8535L37.6674 20.0386C37.8712 20.5644 38.2089 21.3611 38.3695 21.8771C39.0207 22.2521 39.4669 22.2268 40.1974 22.2311C37.4377 22.6671 36.613 23.4366 34.1324 24.606L34.0648 24.7728L34.1674 24.8979C32.7796 24.7158 31.9112 24.5329 30.5737 24.2042C31.5805 23.2724 32.6965 22.2778 33.6531 21.3084L33.7131 21.3283L34.1928 20.847C34.5078 20.4639 34.8269 20.296 35.0524 19.8907L34.9674 19.7483L34.4177 19.6934Z" fill="#CC8531"/>
<path d="M34.4176 19.6934C35.1018 19.5684 37.1742 19.694 37.8497 19.8535L37.6672 20.0386C37.871 20.5644 38.2087 21.3611 38.3693 21.8771C37.1443 21.6466 34.497 22.1389 33.7129 21.3283L34.1926 20.847C34.5076 20.4639 34.8267 20.296 35.0522 19.8907L34.9672 19.7483L34.4176 19.6934Z" fill="#D79B3C"/>
<path d="M34.4174 19.6934C35.1016 19.5684 37.174 19.694 37.8495 19.8535L37.667 20.0386C36.8639 20.2116 34.926 21.1281 34.3189 20.9888L34.1924 20.847C34.5074 20.4639 34.8265 20.296 35.052 19.8907L34.967 19.7483L34.4174 19.6934Z" fill="#EDBD52"/>
<path d="M40.1976 22.2312C41.8035 22.2002 43.4431 22.1867 45.0438 22.0938C44.5585 22.6256 43.2839 23.7705 44.0241 24.4641C43.6748 24.8285 43.3439 25.1757 42.9756 25.5228L42.8538 25.2209C42.5242 25.0758 37.1263 25.0198 36.407 25.0346C35.6719 25.0119 34.9042 24.948 34.1676 24.898L34.0649 24.7729L34.1326 24.6061C36.6132 23.4367 37.4378 22.6671 40.1976 22.2312Z" fill="#76391A"/>
<path d="M30.5735 24.2041C31.911 24.5328 32.7794 24.7157 34.1672 24.8978C34.9037 24.9478 35.6715 25.0118 36.4066 25.0344C36.803 25.1048 37.0019 25.0599 37.2035 25.3137C36.8143 25.8213 32.7276 26.4131 31.7595 26.5855C30.9099 26.2432 29.249 25.89 28.8931 25.3483C29.3607 25.1141 30.1193 24.5319 30.5735 24.2041Z" fill="#F9F7D4"/>
<path d="M30.6661 11.4305L30.8269 11.2939C31.0908 11.764 28.9144 17.6547 28.5726 18.6319C29.1784 18.2724 29.7002 18.2038 30.0111 17.7243L30.2738 18.2815L30.4607 18.5947C30.381 18.7976 30.2174 19.1829 30.1598 19.3756L30.1715 19.5313C29.7483 19.724 29.6725 19.7344 29.4337 20.2336C29.0129 20.516 27.7171 20.8859 27.2433 20.8637C25.9242 21.8648 24.6146 22.8524 23.3132 23.8785C22.6315 24.416 21.7032 25.4453 21.1196 25.8433C20.8178 24.9505 30.6964 12.8555 30.6661 11.4305Z" fill="#78CB3E"/>
<path d="M28.5725 18.6327C29.1783 18.2731 29.7001 18.2046 30.0109 17.7251L30.2737 18.2823L30.4605 18.5955C30.3809 18.7984 30.2173 19.1836 30.1597 19.3764L30.1714 19.5321C29.7482 19.7248 29.6724 19.7352 29.4335 20.2343C29.0128 20.5168 27.717 20.8867 27.2432 20.8644C27.6366 20.2739 28.3732 19.265 28.5725 18.6327Z" fill="#AD692B"/>
<path d="M21.1371 25.9674C23.5342 25.5062 32.2852 20.387 33.6531 21.3085C32.6965 22.2779 31.5805 23.2724 30.5737 24.2042C30.1196 24.5321 29.361 25.1142 28.8933 25.3485C27.7247 25.6276 24.1612 26.0865 22.8965 26.0814C22.2073 26.0519 21.7107 26.205 20.9893 26.0499L21.1371 25.9674Z" fill="#2E7622"/>
<path d="M13.9283 38.7539L14.1834 38.9962C14.7198 39.3036 15.4795 39.708 15.9431 40.0843C17.3865 40.7149 18.5838 41.3463 19.7638 42.3957L20.1676 42.6542C20.6606 43.352 21.8203 45.1245 22.3465 45.6315L22.6317 45.8153C23.1051 46.0565 26.0879 47.3938 26.4828 47.4738C26.9398 47.72 27.237 47.9147 27.4726 48.4051C27.2485 49.0296 27.6538 51.9857 27.741 52.7645C28.1264 56.0456 28.4921 59.3287 28.838 62.6139C28.9145 63.3678 29.4352 66.9934 28.9583 67.4089L28.7444 67.5654C28.3178 67.381 27.5652 67.274 27.0604 67.0981C26.0067 66.7311 24.9493 66.359 23.8926 66.0022C22.3821 65.5006 20.8526 65.0583 19.3074 64.6765C18.6068 64.4997 17.4175 64.1819 16.7214 64.1682L16.5687 64.1837C14.8671 64.3458 12.1914 64.3646 10.7935 65.2988C10.9974 64.4933 11.0573 64.1507 11.1015 63.3279C11.0178 62.2508 11.1255 57.9482 10.8048 57.3391L10.2874 57.1984C9.47481 57.0634 8.5335 56.954 7.81316 56.5786C7.69757 56.3622 7.62775 56.1952 7.53039 55.9724C6.83484 55.4113 5.28422 53.2885 5.36097 52.3671C5.34931 51.834 5.36809 51.3831 5.39252 50.852L5.43773 50.8569L5.48404 50.561C5.86545 50.1094 6.85727 50.0856 7.48809 50.0032C7.0735 49.9116 7.02646 49.9204 6.70831 49.6611C6.61825 49.2783 6.63867 49.411 6.76356 48.9927C6.82883 48.7089 6.76647 48.6365 6.64887 48.3696C6.55935 47.998 6.36446 47.4551 6.24231 47.0768C6.78051 47.1156 6.88571 47.1205 7.38781 47.307C7.54533 46.9358 9.2223 46.0625 9.68922 45.7914C9.50927 45.1956 8.00222 43.8351 8.1406 42.8944L8.50725 42.7919L8.46331 42.6956C8.69358 42.1301 9.56944 40.3386 9.9153 39.8929L10.0978 39.5824C11.1002 38.9384 12.7555 38.8423 13.9283 38.7539Z" fill="#CC8531"/>
<path d="M6.24231 47.0767C6.78051 47.1155 6.88571 47.1204 7.38781 47.3069L8.41737 47.8178C8.66824 48.1073 8.87225 48.3562 9.16232 48.6129C10.4829 49.7241 11.5974 50.455 12.3093 52.0337L13.0721 52.8474C15.012 52.6341 16.7203 52.2465 18.6068 51.9938C17.7776 52.934 16.0618 54.3805 16.2494 55.4254C16.2702 55.5413 16.2458 55.5784 16.2146 55.6991C16.2312 56.1917 16.2064 56.547 16.3798 57.0077C16.4861 58.8887 16.802 62.4118 16.7214 64.1681L16.5687 64.1836C14.8671 64.3457 12.1914 64.3645 10.7935 65.2987C10.9974 64.4932 11.0573 64.1506 11.1015 63.3278C11.0178 62.2507 11.1255 57.9481 10.8048 57.339L10.2874 57.1983C9.47481 57.0633 8.5335 56.9539 7.81316 56.5786C7.69757 56.3621 7.62775 56.1951 7.53039 55.9723C6.83484 55.4112 5.28422 53.2884 5.36097 52.367C5.34931 51.8339 5.36809 51.383 5.39252 50.8519L5.43773 50.8569L5.48404 50.5609C5.86545 50.1093 6.85727 50.0855 7.48809 50.0031C7.0735 49.9115 7.02646 49.9203 6.70831 49.661C6.61825 49.2782 6.63867 49.4109 6.76356 48.9926C6.82883 48.7088 6.76647 48.6364 6.64887 48.3695C6.55935 47.9979 6.36446 47.455 6.24231 47.0767Z" fill="#632C19"/>
<path d="M16.215 55.6992C16.2316 56.1918 16.2068 56.5472 16.3802 57.0079C16.4865 58.8889 16.8024 62.412 16.7219 64.1683L16.5691 64.1838C14.8675 64.3459 12.1918 64.3646 10.7939 65.2988C10.9978 64.4934 11.0578 64.1508 11.1019 63.328C11.4704 62.2521 13.5253 59.6747 14.2525 58.6382C14.9357 57.6642 15.5592 56.7317 16.215 55.6992Z" fill="#B96D27"/>
<path d="M5.43773 50.8572L5.48404 50.5613C5.86545 50.1097 6.85727 50.0858 7.48809 50.0034C7.95173 50.55 8.35848 51.0304 8.78127 51.6078L8.94026 51.8931C9.80645 52.68 11.1268 53.5346 11.8827 54.3014C11.7022 54.8411 11.6039 55.246 11.2772 55.7136C11.1498 56.3344 11.9321 57.1408 10.2874 57.1986C9.47481 57.0637 8.5335 56.9543 7.81316 56.5789C7.69757 56.3625 7.62774 56.1955 7.53039 55.9727C6.83484 55.4115 5.28422 53.2888 5.36097 52.3674C5.34931 51.8343 5.36809 51.3834 5.39252 50.8523L5.43773 50.8572Z" fill="#A55823"/>
<path d="M7.81299 56.579L8.08209 54.2422C8.22831 54.3589 8.53096 54.6453 8.67317 54.6615C9.67081 54.7744 10.4242 55.2192 11.277 55.7137C11.1496 56.3345 11.9319 57.1409 10.2872 57.1987C9.47464 57.0638 8.53333 56.9544 7.81299 56.579Z" fill="#85421D"/>
<path d="M5.36115 52.3672L5.48968 52.5876C6.31905 52.4908 7.7488 52.678 8.41244 53.085C8.26913 53.4925 8.13275 53.8117 8.08243 54.242L7.81333 56.5787C7.69774 56.3623 7.62792 56.1953 7.53056 55.9725C6.83501 55.4114 5.28439 53.2886 5.36115 52.3672Z" fill="#76391A"/>
<path d="M5.36115 52.3672L5.48968 52.5876C6.79873 53.0204 7.39965 54.7271 7.53056 55.9725C6.83501 55.4114 5.28439 53.2886 5.36115 52.3672Z" fill="#492218"/>
<path d="M5.43799 50.8572L5.4843 50.5613C5.86571 50.1097 6.85752 50.0858 7.48834 50.0034C7.95198 50.55 8.35873 51.0304 8.78153 51.6078L8.94051 51.8931C8.78773 52.3763 8.81708 52.5227 8.25225 52.6844H7.94013C7.10693 51.9205 5.5461 52.6242 5.43799 50.8572Z" fill="#AD692B"/>
<path d="M8.25238 52.6843C8.05711 52.4861 7.97343 52.3837 7.80424 52.1706C7.76395 51.7576 7.7036 51.9211 7.914 51.6402C8.31491 51.5184 8.35411 51.5423 8.78165 51.6077L8.94063 51.8931C8.78785 52.3762 8.8172 52.5226 8.25238 52.6843Z" fill="#B96D27"/>
<path d="M9.16252 48.6128C10.4831 49.724 11.5976 50.4549 12.3095 52.0336C11.2322 51.5551 10.2453 50.7164 9.51476 49.7939C9.09944 49.2693 9.14065 49.2336 9.16252 48.6128Z" fill="#76391A"/>
<path d="M13.9284 38.7539L14.1834 38.9962C14.7198 39.3036 15.4795 39.708 15.9432 40.0843C17.3866 40.7149 18.5839 41.3463 19.7639 42.3957L20.1677 42.6542C20.6607 43.352 21.8204 45.1245 22.3466 45.6315C21.2988 45.7622 20.0791 45.5447 18.9589 45.6641C18.2749 45.7369 15.7197 46.3985 15.2746 46.3287C12.6128 44.7126 11.8284 43.6018 8.50732 42.7919L8.46338 42.6956C8.69365 42.1301 9.5695 40.3386 9.91536 39.8929L10.0979 39.5824C11.1003 38.9384 12.7555 38.8423 13.9284 38.7539Z" fill="#E3AE4B"/>
<path d="M19.7638 42.3955L20.1677 42.654C20.6607 43.3518 21.8204 45.1243 22.3466 45.6313C21.2988 45.762 20.0791 45.5445 18.9589 45.6639C18.2748 45.7367 15.7197 46.3983 15.2746 46.3285C15.1858 45.3946 14.4773 43.8158 14.1045 42.9067C14.943 42.9609 15.8484 42.9902 16.6796 42.8723C17.3705 42.8551 19.1651 42.6398 19.7638 42.3955Z" fill="#B96D27"/>
<path d="M14.406 39.394C14.907 39.6799 15.3783 40.0041 15.9433 40.0845C17.3867 40.7151 18.584 41.3465 19.764 42.3959C19.1652 42.6402 17.3707 42.8555 16.6797 42.8727C13.5287 42.7347 14.3976 42.315 14.406 39.394Z" fill="#EDBD52"/>
<path d="M13.9285 38.7539L14.1836 38.9962C14.2879 40.314 14.1907 41.4818 14.2224 42.7768C12.7938 41.8342 11.1148 41.0486 9.91553 39.8929L10.098 39.5824C11.1004 38.9384 12.7557 38.8423 13.9285 38.7539Z" fill="#F9E8A0"/>
<path d="M16.3799 57.0077C16.3903 56.6473 16.3432 56.3375 16.5099 56.0571C16.8632 56.2309 18.3325 57.5793 18.7633 57.9598C20.8881 59.8167 22.9716 61.7203 25.0119 63.6697C25.9883 64.6073 28.0142 66.7049 28.9584 67.4088L28.7445 67.5653C28.3179 67.3809 27.5653 67.2739 27.0605 67.098C26.0069 66.731 24.9494 66.3589 23.8927 66.0021C22.3822 65.5005 20.8527 65.0582 19.3076 64.6764C18.6069 64.4996 17.4176 64.1818 16.7215 64.1681C16.8021 62.4118 16.4862 58.8887 16.3799 57.0077Z" fill="#D79B3C"/>
<path d="M8.50744 42.792C11.8286 43.6019 12.6129 44.7127 15.2747 46.3288C15.7198 46.3986 18.275 45.737 18.959 45.6642C20.0792 45.5448 21.2989 45.7623 22.3467 45.6316L22.6318 45.8154C21.9214 46.4457 18.9973 49.3144 18.2015 48.9948C13.7456 48.3028 13.484 49.0915 9.68942 45.7915C9.50947 45.1957 8.00242 43.8352 8.1408 42.8945L8.50744 42.792Z" fill="#632C19"/>
<path d="M9.68959 45.7915C13.4842 49.0915 13.7458 48.3028 18.2017 48.9948C17.268 49.8031 14.3934 50.2211 13.1318 50.4392C11.0934 49.3737 11.1986 48.8504 8.41774 47.818L7.38818 47.3071C7.54571 46.9359 9.22268 46.0626 9.68959 45.7915Z" fill="#EDBD52"/>
<path d="M55.4715 14.3373C55.9384 14.1767 55.9541 14.223 56.4376 14.369L56.8375 14.4883C56.9853 14.5311 56.935 14.5165 57.1191 14.5342C57.4263 14.7555 57.4119 14.7404 57.5377 15.0994L57.6413 15.1399C57.3492 16.1525 57.0099 16.712 56.4274 17.5931C56.8805 19.325 58.6001 25.108 58.6524 26.3835C58.8833 27.5237 58.7099 28.9784 58.9376 29.9584L58.2792 30.0118L58.3279 29.8473C57.2901 30.2225 55.8899 31.3352 54.9672 32.0158C54.3986 32.4344 53.6091 32.9746 53.1366 33.4707C53.0226 33.7551 52.8337 34.1395 52.8356 34.4314L52.9967 34.4944L52.9883 34.6009C52.9548 35.0815 52.9652 34.9471 53.0239 35.3466C53.1224 36.0177 52.5796 36.5007 52.3912 37.3955C52.301 38.0697 53.6246 40.5243 53.6303 41.4324C53.6434 41.4588 53.6564 41.4851 53.6693 41.5115C52.4301 41.5578 49.7201 41.2293 48.5059 40.9418L48.5104 41.4557C48.0369 40.6127 47.3361 41.3061 46.5432 40.83C43.784 39.1892 40.9905 37.561 38.1914 35.9869C37.1897 35.4235 36.9044 35.1896 36.0329 34.5001C35.8395 34.7143 35.8949 34.9756 35.8774 35.3262C35.7793 34.965 35.772 34.6122 35.7443 34.2381C35.4868 33.8751 35.4289 33.9852 34.8542 33.8647C34.0887 34.4602 33.237 35.0255 32.9729 36.0205L32.7615 35.9845C31.7566 35.3975 31.111 35.3537 30.2771 34.4664L29.9254 34.483L29.8379 34.2565C30.1823 32.499 32.3521 30.4873 33.3774 29.1069L33.437 29.0253C35.8701 28.2214 38.4351 27.0976 40.8073 26.1133C41.3369 25.8936 42.4436 25.4779 42.8536 25.2208L42.9754 25.5227C43.3437 25.1756 43.6746 24.8285 44.0239 24.464C43.2837 23.7705 44.5583 22.6255 45.0436 22.0937C46.0996 21.2384 46.8276 20.3766 47.8202 19.5357C48.0495 19.5139 49.1338 19.0415 49.3545 18.9C50.4977 18.168 50.7254 18.0994 51.1272 16.9049C52.6359 16.5853 54.2319 15.3512 55.5 14.4744L55.4715 14.3373Z" fill="url(#paint0_linear_101_55262)"/>
<path d="M55.4714 14.3373C55.9383 14.1767 55.954 14.223 56.4375 14.369L56.8373 14.4883C56.9852 14.5311 56.9348 14.5165 57.119 14.5342C57.4262 14.7555 57.4118 14.7404 57.5376 15.0994L57.6411 15.1399C57.3491 16.1525 57.0098 16.712 56.4273 17.5931C56.8803 19.325 58.6 25.108 58.6523 26.3835C58.8831 27.5237 58.7097 28.9784 58.9374 29.9584L58.2791 30.0118L58.3278 29.8473C57.29 30.2225 55.8898 31.3352 54.9671 32.0158C54.3984 32.4344 53.609 32.9746 53.1364 33.4707L52.9944 33.4784L52.749 33.3141C51.938 33.3748 51.7067 33.19 51.0786 32.7544C50.4561 32.7817 50.2366 32.7947 49.6129 32.7075L49.5178 32.728C48.9196 32.9065 48.5697 32.989 48.0267 33.3012C47.8007 33.3415 47.6297 33.3759 47.399 33.3963L47.1799 33.2766L47.1881 33.0848C47.5556 32.6518 50.3894 31.4953 51.0955 31.1908C50.724 31.0215 50.7763 31.2244 50.4131 31.0109L50.4064 30.7584L50.9803 30.3861C50.2093 29.7137 49.3794 30.6867 48.6423 30.4978C48.6248 30.1398 48.7329 30.1314 48.9938 29.7529C49.0113 29.6834 48.9765 29.6253 48.9504 29.5346C48.655 29.4594 48.4519 29.3988 48.1624 29.3024L48.1498 29.2032L48.7203 28.7514L48.6937 28.5941C48.8279 28.4661 49.2878 28.2287 49.4707 28.1261C49.263 26.9105 47.8134 22.4129 46.8513 21.7247C45.8005 22.6501 44.9879 23.5854 44.0238 24.464C43.2835 23.7705 44.5581 22.6255 45.0435 22.0937C46.0995 21.2384 46.8275 20.3766 47.82 19.5357C48.0494 19.5139 49.1336 19.0415 49.3544 18.9C50.4975 18.168 50.7252 18.0994 51.1271 16.9049C52.6358 16.5853 54.2318 15.3512 55.4998 14.4744L55.4714 14.3373Z" fill="#F1F1EB"/>
<path d="M56.6448 26.4034C57.3861 26.4781 57.4264 26.9691 57.711 27.5981C58.1037 27.5861 58.0829 27.5906 58.4319 27.4081C58.6608 27.1029 58.6273 26.7811 58.6521 26.3833C58.8829 27.5235 58.7095 28.9782 58.9372 29.9582L58.2789 30.0116L58.3276 29.8472C57.2898 30.2224 55.8896 31.3351 54.9669 32.0157C54.3982 32.4343 53.6088 32.9745 53.1362 33.4706L52.9942 33.4782L52.7488 33.314C51.9378 33.3747 51.7065 33.1898 51.0784 32.7542C50.456 32.7816 50.2364 32.7945 49.6127 32.7074L49.5176 32.7278C48.9194 32.9063 48.5695 32.9889 48.0266 33.301C47.8005 33.3413 47.6295 33.3758 47.3988 33.3962L47.1797 33.2764L47.1879 33.0846C47.5555 32.6516 50.3892 31.4952 51.0954 31.1907C50.7238 31.0213 50.7761 31.2242 50.4129 31.0107L50.4062 30.7582L50.9801 30.3859C51.6062 30.1761 52.6859 29.3688 53.8345 28.9983C53.7516 28.9405 53.7754 28.9142 53.7322 28.77C54.0642 28.4156 54.9113 27.9212 55.3591 27.6373C56.0342 27.0754 56.125 27.143 56.6448 26.4034Z" fill="#632C19"/>
<path d="M49.6128 32.7076C50.2321 32.4069 53.1005 30.9626 53.5915 30.9967C53.8182 31.2778 54.6512 31.8649 54.9669 32.0158C54.3983 32.4345 53.6089 32.9747 53.1363 33.4707L52.9943 33.4784L52.7489 33.3141C51.9379 33.3749 51.7065 33.19 51.0785 32.7544C50.456 32.7818 50.2365 32.7947 49.6128 32.7076Z" fill="#CC8531"/>
<path d="M53.5916 30.9966C53.8183 31.2777 54.6513 31.8648 54.967 32.0157C54.3984 32.4343 53.609 32.9746 53.1364 33.4706L52.9944 33.4783C52.771 32.8989 53.4709 31.8285 53.5916 30.9966Z" fill="#76391A"/>
<path d="M50.9802 30.3857C51.6063 30.1758 52.686 29.3685 53.8346 28.998C54.1496 29.322 54.354 29.5328 54.634 29.8925L54.6278 30.0661C53.492 30.4336 52.1955 30.7842 51.0954 31.1904C50.7239 31.0211 50.7762 31.224 50.413 31.0105L50.4062 30.758L50.9802 30.3857Z" fill="url(#paint1_linear_101_55262)"/>
<path d="M55.3593 27.6372C55.7961 27.7027 55.9689 27.6441 56.2127 27.9147C56.2557 28.4039 56.2337 28.9949 55.9717 29.423C55.3412 29.6157 55.1715 29.399 54.6342 29.8927C54.3541 29.533 54.1498 29.3222 53.8347 28.9982C53.7518 28.9404 53.7756 28.9142 53.7324 28.77C54.0644 28.4155 54.9115 27.9211 55.3593 27.6372Z" fill="#492218"/>
<path d="M58.6521 26.3833C58.8829 27.5235 58.7095 28.9782 58.9372 29.9582L58.2789 30.0116L58.3275 29.8472C58.2586 29.381 57.8577 28.1077 57.7109 27.5981C58.1037 27.5861 58.0829 27.5906 58.4318 27.4081C58.6608 27.1029 58.6273 26.7811 58.6521 26.3833Z" fill="#CDCCCB"/>
<path d="M55.4714 14.3373C55.9383 14.1767 55.954 14.223 56.4375 14.369L56.8373 14.4883C56.9852 14.5311 56.9348 14.5165 57.119 14.5342C57.4262 14.7555 57.4118 14.7404 57.5376 15.0994L57.6411 15.1399C57.3491 16.1525 57.0098 16.712 56.4273 17.5931C55.1436 17.7662 53.1816 18.6898 51.9076 19.0455C50.1201 20.5586 48.8228 20.4216 46.8513 21.7247C45.8005 22.6501 44.9879 23.5854 44.0238 24.464C43.2835 23.7705 44.5581 22.6255 45.0435 22.0937C46.0995 21.2384 46.8275 20.3766 47.82 19.5357C48.0494 19.5139 49.1336 19.0415 49.3544 18.9C50.4975 18.168 50.7252 18.0994 51.1271 16.9049C52.6358 16.5853 54.2318 15.3512 55.4998 14.4744L55.4714 14.3373Z" fill="#632C19"/>
<path d="M55.4715 14.3373C55.9384 14.1767 55.9541 14.223 56.4376 14.369L56.8374 14.4883C56.9853 14.5311 56.935 14.5165 57.1191 14.5342C57.4263 14.7555 57.4119 14.7404 57.5377 15.0994L57.6413 15.1399C57.3492 16.1525 57.0099 16.712 56.4274 17.5931C55.1437 17.7662 53.1818 18.6898 51.9077 19.0455C52.8479 18.1226 55.0217 15.5918 55.4999 14.4744L55.4715 14.3373Z" fill="#E3AE4B"/>
<path d="M56.645 26.4033C56.1253 27.143 56.0345 27.0753 55.3593 27.6373C54.9116 27.9211 54.0645 28.4156 53.7325 28.77C53.7757 28.9142 53.7518 28.9405 53.8348 28.9983C52.6862 29.3687 51.6065 30.176 50.9804 30.3859C50.2094 29.7135 49.3795 30.6865 48.6424 30.4976C48.6249 30.1396 48.733 30.1312 48.9939 29.7527C49.0114 29.6832 48.9765 29.6251 48.9505 29.5345C48.6551 29.4592 48.452 29.3986 48.1625 29.3022L48.1499 29.203L48.7204 28.7512L48.6938 28.5939C48.828 28.4659 49.2879 28.2285 49.4708 28.1259C50.8633 27.5202 55.0075 26.7235 56.645 26.4033Z" fill="url(#paint2_linear_101_55262)"/>
<path d="M49.5176 32.7279L49.6127 32.7075C50.2364 32.7947 50.456 32.7817 51.0784 32.7544C51.7065 33.1899 51.9378 33.3748 52.7488 33.3141L52.9942 33.4784L53.1362 33.4707C53.0223 33.7551 52.8334 34.1394 52.8352 34.4313L52.9964 34.4944L52.988 34.6009C52.9545 35.0815 52.9648 34.9471 53.0236 35.3466C53.122 36.0177 52.5792 36.5007 52.3909 37.3955C52.3007 38.0697 53.6243 40.5242 53.6299 41.4324C53.6431 41.4588 53.656 41.4851 53.669 41.5115C52.4297 41.5578 49.7198 41.2293 48.5055 40.9418L47.9591 40.5368C46.9409 39.5888 45.8818 38.3087 44.8571 37.3027C43.6416 36.1092 42.2808 34.9451 41.1562 33.6877C41.6244 33.6525 42.0434 33.6275 42.5083 33.5451L45.811 33.2789L47.1797 33.2765L47.3988 33.3963C47.6295 33.3759 47.8005 33.3414 48.0266 33.3011C48.5695 32.989 48.9194 32.9064 49.5176 32.7279Z" fill="#F1F1EB"/>
<path d="M47.959 40.5372C49.9417 39.8344 50.2666 36.7594 51.9098 36.7583C52.2767 37.009 52.1673 36.9444 52.3908 37.3959C52.3005 38.0701 53.6242 40.5246 53.6298 41.4328C53.643 41.4592 53.6559 41.4855 53.6688 41.5119C52.4296 41.5582 49.7196 41.2297 48.5054 40.9421L47.959 40.5372Z" fill="#F9E8A0"/>
<path d="M49.5181 32.7279L49.6133 32.7075C50.237 32.7947 50.4565 32.7817 51.079 32.7544C51.7071 33.1899 51.9384 33.3748 52.7494 33.3141L52.9948 33.4784L53.1368 33.4707C53.0228 33.7551 52.834 34.1394 52.8358 34.4313L52.7279 34.4609C52.5211 34.8962 52.4221 35.1672 52.1041 35.5351C50.1222 35.7119 49.115 34.4436 47.3994 33.3963C47.63 33.3759 47.8011 33.3414 48.0271 33.3011C48.5701 32.989 48.92 32.9064 49.5181 32.7279Z" fill="#D79B3C"/>
<path d="M49.5176 32.7279L49.6127 32.7075C50.2365 32.7947 50.456 32.7817 51.0784 32.7544C51.7065 33.1899 51.9379 33.3748 52.7488 33.3141L52.9942 33.4784L53.1362 33.4707C53.0223 33.7551 52.8334 34.1394 52.8352 34.4313L52.7273 34.4609C52.5102 34.1212 52.3109 34.1564 51.9058 34.0521C51.3271 34.0642 49.7121 33.3236 49.5176 32.7279Z" fill="#E3AE4B"/>
<path d="M48.0269 33.3012C48.5698 32.9891 48.9197 32.9065 49.5179 32.728C49.7124 33.3237 51.3274 34.0642 51.9061 34.0522L51.4723 34.2732C50.1013 33.5729 49.5405 33.3443 48.0269 33.3012Z" fill="#CC8531"/>
<path d="M51.9064 34.0522C52.3115 34.1565 52.5108 34.1213 52.7279 34.461C52.5212 34.8964 52.4222 35.1673 52.1042 35.5352C51.8962 35.0705 51.713 34.719 51.4727 34.2732L51.9064 34.0522Z" fill="#76391A"/>
<path d="M33.437 29.0251C35.8701 28.2213 38.4351 27.0975 40.8073 26.1132C41.3369 25.8935 42.4436 25.4778 42.8536 25.2207L42.9754 25.5226L39.1453 29.2425C37.6789 30.9005 36.4821 32.3532 34.8542 33.8646C34.0887 34.4601 33.237 35.0254 32.9729 36.0203L32.7615 35.9844C31.7566 35.3974 31.111 35.3536 30.2771 34.4663L29.9254 34.4829L29.8379 34.2564C30.1823 32.4989 32.3521 30.4872 33.3774 29.1068L33.437 29.0251Z" fill="#492218"/>
<path d="M30.2769 34.466L30.3875 34.3595C30.9602 33.8023 38.3547 29.4805 39.145 29.2422C37.6786 30.9002 36.4819 32.3529 34.854 33.8643C34.0884 34.4598 33.2368 35.0252 32.9726 36.0201L32.7613 35.9841C31.7564 35.3971 31.1108 35.3533 30.2769 34.466Z" fill="#CC8531"/>
<path d="M42.5088 33.5448L42.0962 33.4458C42.3564 32.9377 47.9973 28.9533 48.6939 28.5938L48.7206 28.7511L48.1501 29.2029L48.1627 29.3021C48.4522 29.3985 48.6553 29.459 48.9506 29.5343C48.9767 29.6249 49.0115 29.6831 48.994 29.7526C48.7331 30.1311 48.625 30.1394 48.6425 30.4975C49.3796 30.6864 50.2095 29.7134 50.9806 30.3858L50.4066 30.7581L50.4134 31.0106C50.7766 31.2241 50.7242 31.0211 51.0958 31.1905C50.3897 31.495 47.5559 32.6514 47.1883 33.0844L47.1801 33.2762L45.8115 33.2786L42.5088 33.5448Z" fill="url(#paint3_linear_101_55262)"/>
<path d="M49.5229 31.2708L50.4062 30.7583L50.4129 31.0108C50.7761 31.2243 50.7238 31.0214 51.0954 31.1908C50.3892 31.4952 47.5555 32.6517 47.1879 33.0847L47.1797 33.2765L45.811 33.2789C46.8233 32.8814 48.5527 31.8395 49.5229 31.2708Z" fill="#CC8531"/>
<path d="M49.5232 31.2704C49.1752 30.6033 48.189 30.8759 47.4951 30.8502L47.4619 30.7541C47.6772 30.7357 48.0583 30.7557 48.1119 30.5634C48.2001 30.2474 48.6694 29.9842 48.9939 29.7524C48.733 30.1309 48.6249 30.1393 48.6424 30.4974C49.3795 30.6863 50.2095 29.7132 50.9805 30.3856L50.4065 30.7579L49.5232 31.2704Z" fill="#85421D"/>
<path d="M27.4729 48.4053C29.0673 50.7253 31.1592 53.1587 32.8085 55.5015C33.9908 57.1812 34.9903 58.921 36.1194 60.6099C37.9138 62.9445 39.982 66.9082 41.795 69.5335C41.5691 70.7289 41.4546 73.1922 41.3683 74.4834C41.2852 75.7274 41.0664 77.3391 41.0114 78.5114L40.7373 78.4131C40.4183 78.645 40.1351 78.837 39.8033 79.0505C39.1781 78.6911 38.4445 77.7075 37.9072 77.1546C35.643 74.8375 33.6364 72.2812 31.411 69.9344C30.7802 69.2689 29.5322 67.6774 28.7448 67.5655L28.9586 67.4091C29.4356 66.9936 28.9149 63.368 28.8383 62.6141C28.4925 59.3289 28.1267 56.0457 27.7413 52.7647C27.6542 51.9858 27.2489 49.0297 27.4729 48.4053Z" fill="#EEC558"/>
<path d="M36.1195 60.6099C37.9138 62.9445 39.9821 66.9082 41.795 69.5334C41.5691 70.7289 41.4546 73.1922 41.3684 74.4834C41.2853 75.7274 41.0665 77.3391 41.0114 78.5114L40.7374 78.4131C40.4184 78.645 40.1352 78.837 39.8034 79.0505L37.3775 67.8043C36.935 65.7389 36.0513 62.5785 36.1195 60.6099Z" fill="#D79B3C"/>
<path d="M48.5059 40.9419C49.7201 41.2294 52.4301 41.5579 53.6693 41.5116L55.2124 41.5322C55.1793 42.0108 55.1592 43.5547 55.1069 43.8324C55.1767 44.0136 55.3173 44.4078 55.3979 44.5626C56.5065 45.6669 57.1882 45.2255 58.0508 45.7783C58.1295 46.1414 58.2271 46.684 58.3458 47.0186C58.4944 47.423 58.6512 47.932 58.4738 48.3561C58.1844 49.3386 58.2171 49.732 57.3922 50.3634C57.4367 50.8343 57.4881 51.3047 57.5469 51.7742L57.5361 51.9047C57.238 51.9671 56.9851 52.0125 56.6843 52.0582L56.5875 52.215C56.1574 52.9027 55.9625 53.284 55.3459 53.8101C55.2739 54.0666 55.2553 53.9571 55.316 54.1742C56.2828 54.7977 56.6225 55.8249 56.6925 56.9267C56.5454 57.7103 56.0177 60.2323 55.7204 60.9118C54.9829 60.8469 54.2567 60.8783 53.5291 60.8113L53.3306 60.7016C52.8999 59.9125 50.845 58.0162 49.897 56.6355C49.6206 56.3234 49.4957 56.0685 49.2915 55.7097C49.2472 52.0941 49.1301 48.48 48.9407 44.8692C48.8721 43.7339 48.529 42.5326 48.5104 41.4559L48.5059 40.9419Z" fill="#EDBD52"/>
<path d="M55.316 54.1743C56.2829 54.7978 56.6225 55.825 56.6925 56.9268C56.5454 57.7104 56.0178 60.2324 55.7204 60.9119C54.9829 60.847 54.2568 60.8784 53.5291 60.8114L53.3306 60.7017C52.8999 59.9126 50.845 58.0163 49.897 56.6356L50.7672 56.5946C50.4711 56.3596 50.4826 56.4462 50.418 56.1567L50.849 55.7457L51.6223 55.1995C52.3658 54.8597 53.5621 54.7087 54.4506 54.4119C54.8258 54.3503 54.9532 54.3019 55.316 54.1743Z" fill="#E3AE4B"/>
<path d="M55.316 54.1743C56.2828 54.7978 56.6225 55.825 56.6925 56.9268C56.4312 57.162 56.0113 57.5155 55.7809 57.7583C54.6678 57.7204 51.9303 56.9304 50.7671 56.5946C50.471 56.3596 50.4825 56.4462 50.418 56.1567L50.849 55.7457L51.6222 55.1995C52.3657 54.8597 53.5621 54.7087 54.4505 54.4119C54.8257 54.3503 54.9531 54.3019 55.316 54.1743Z" fill="#F1F1EB"/>
<path d="M55.7806 57.7583C56.0111 57.5155 56.431 57.1619 56.6922 56.9268C56.5451 57.7104 56.0175 60.2324 55.7201 60.9119C54.9826 60.847 54.2564 60.8783 53.5288 60.8114C54.166 60.6121 55.267 58.5344 55.7806 57.7583Z" fill="#AD692B"/>
<path d="M53.2654 48.7929C53.4437 48.1123 54.7163 44.1129 55.1069 43.8325C55.1767 44.0137 55.3173 44.4079 55.3978 44.5627C56.5065 45.667 57.1882 45.2256 58.0507 45.7784C58.1295 46.1416 58.2271 46.6842 58.3457 47.0187C58.4943 47.4231 58.6511 47.9321 58.4737 48.3562C58.1844 49.3387 58.217 49.7322 57.3922 50.3635C57.2996 50.1309 57.3255 50.1995 57.1557 49.9993C56.2093 49.7499 54.383 50.0758 53.3674 50.2064L53.1817 50.2047C53.0171 50.188 52.9961 50.1674 52.8375 50.1134C52.7892 49.6235 52.965 49.175 53.2654 48.7929Z" fill="#F9E8A0"/>
<path d="M53.5533 48.8053C54.8224 48.5309 57.159 47.6039 58.3457 47.0181C58.4943 47.4224 58.6511 47.9315 58.4737 48.3556C58.1844 49.3381 58.217 49.7315 57.3922 50.3629C57.2996 50.1302 57.3255 50.1988 57.1557 49.9986C56.2093 49.7492 54.383 50.0752 53.3674 50.2057L53.1817 50.2041C53.0171 50.1873 52.9961 50.1667 52.8375 50.1127C52.7892 49.6229 52.965 49.1743 53.2654 48.7922L53.5533 48.8053Z" fill="#492218"/>
<path d="M53.5532 48.8053C54.8223 48.5309 57.1589 47.6039 58.3457 47.0181C58.4942 47.4224 58.651 47.9315 58.4736 48.3556C58.1316 48.7275 57.8556 49.0139 57.5611 49.4296C55.5234 48.634 55.3077 49.1288 53.5532 48.8053Z" fill="#85421D"/>
<path d="M53.3673 50.2058C54.383 50.0752 56.2093 49.7492 57.1557 49.9986C57.3254 50.1988 57.2995 50.1303 57.3922 50.3629C57.4366 50.8338 57.4881 51.3042 57.5468 51.7737L57.536 51.9042C57.2379 51.9666 56.985 52.012 56.6842 52.0577L56.5874 52.2145C56.1573 52.9022 55.9624 53.2835 55.3458 53.8096C55.2738 54.0662 55.2552 53.9566 55.3159 54.1737C54.9531 54.3014 54.8257 54.3497 54.4505 54.4113C53.562 54.7081 52.3656 54.8591 51.6222 55.1989C51.3831 54.1637 52.1476 50.7454 53.1817 50.2041L53.3673 50.2058Z" fill="#EEC558"/>
<path d="M53.3672 50.2058C54.3829 50.0752 56.2092 49.7492 57.1556 49.9986C57.3253 50.1988 57.2994 50.1303 57.3921 50.3629C57.4365 50.8338 57.488 51.3042 57.5467 51.7737C56.2991 51.5684 54.8631 51.3604 53.7054 50.8802L53.3672 50.2058Z" fill="#F1F1EB"/>
<path d="M53.7054 50.8804C54.8631 51.3606 56.2991 51.5686 57.5467 51.7739L57.5359 51.9044C57.2378 51.9668 56.985 52.0122 56.6841 52.058L56.5873 52.2148C56.1572 52.9025 55.9623 53.2837 55.3457 53.8099C55.2737 54.0664 55.2551 53.9568 55.3158 54.174C54.953 54.3016 54.8256 54.3499 54.4504 54.4115L54.3371 53.7995L55.0484 52.9455C54.2777 52.282 54.2803 51.7972 53.6841 51.0545L53.7054 50.8804Z" fill="#D79B3C"/>
<path d="M55.0486 52.9458C56.2849 52.1106 55.754 51.7407 57.5362 51.9048C57.2381 51.9671 56.9852 52.0125 56.6844 52.0583L56.5876 52.2151C56.1575 52.9028 55.9626 53.284 55.346 53.8102C55.274 54.0667 55.2554 53.9571 55.3161 54.1743C54.9533 54.3019 54.8258 54.3502 54.4506 54.4118L54.3374 53.7998L55.0486 52.9458Z" fill="#76391A"/>
<path d="M53.6841 51.0547C54.2803 51.7975 54.2777 52.2822 55.0484 52.9457L54.3371 53.7997C54.1142 52.7707 53.7639 52.3194 53.6841 51.0547Z" fill="#CC8531"/>
<path d="M49.2915 55.7092C49.8746 55.1079 50.2314 55.3461 50.849 55.7451L50.418 56.1561C50.4826 56.4456 50.4711 56.359 50.7672 56.594L49.897 56.635C49.6206 56.3229 49.4957 56.068 49.2915 55.7092Z" fill="#EEC558"/>
<path d="M26.4834 47.4742C27.3558 46.8674 28.1536 45.8197 29.2253 45.1309C29.7303 47.3039 29.7051 49.4363 30.3316 51.6305C33.3741 53.4625 35.9104 54.3239 39.166 55.6289C41.1159 56.4311 43.0554 57.2581 44.9844 58.1094C46.3652 58.6605 52.0153 60.5444 53.3309 60.7016L53.5295 60.8114C54.2571 60.8783 54.9833 60.8469 55.7207 60.9118C54.7262 61.0017 53.592 61.7813 52.5212 61.9538C49.2023 62.488 45.035 63.2772 41.7168 63.4154C41.7901 64.7635 42.0481 68.3099 41.7952 69.5337C39.9823 66.9085 37.914 62.9447 36.1197 60.6101C34.9906 58.9213 33.9911 57.1814 32.8088 55.5017C31.1595 53.1589 29.0676 50.7255 27.4732 48.4055C27.2376 47.915 26.9405 47.7203 26.4834 47.4742Z" fill="url(#paint4_linear_101_55262)"/>
<path d="M20.9891 26.0498C21.7106 26.205 22.2072 26.0518 22.8964 26.0813C23.7715 26.704 26.4204 27.2768 27.6073 27.6393C29.2086 28.1282 31.8861 29.4274 33.4369 29.0252L33.3773 29.1069C32.3519 30.4873 30.1822 32.499 29.8378 34.2565L29.9253 34.483L30.277 34.4664C31.1109 35.3537 31.7565 35.3975 32.7614 35.9845L32.1233 35.9273L31.9383 36.312C31.3713 36.3659 30.708 35.0115 30.1835 34.8605C30.3567 35.7125 30.7432 35.8039 30.8617 36.6679C30.0763 35.7395 30.3211 35.0512 29.0879 34.4315C29.0318 34.1577 28.6296 33.7333 28.4272 33.4811L28.2489 33.8558C28.1769 33.8795 28.0095 33.9417 27.9431 33.9475C27.5834 33.344 27.3858 33.1642 26.8961 32.6654C26.587 32.2729 26.1621 31.896 25.7965 31.5469L24.5992 30.5926C23.5906 31.1122 23.2442 31.2614 22.1476 31.5216L21.7552 32.5558L21.6876 32.6373C21.145 33.3061 21.1361 33.9641 20.2425 34.3156C19.8427 34.2957 19.6721 34.2242 19.512 33.8264L19.4425 33.8098C19.3986 33.4328 19.4648 33.3653 19.2518 33.1827C19.017 33.3205 19.0617 33.3276 18.9295 33.5358C17.5225 35.7532 15.678 37.2254 13.4902 38.5631C13.8822 38.5787 14.7464 38.5939 15.0862 38.6637L13.9285 38.7541C12.7556 38.8426 11.1004 38.9386 10.098 39.5826C9.98748 39.3498 10.0128 39.1689 10.0126 38.91C11.0958 37.3359 12.2754 36.0976 13.3616 34.4383L13.4958 34.3143C15.3012 32.3927 18.5029 29.3326 19.4411 27.0985C19.8735 26.654 20.011 26.5056 20.5277 26.1504L20.9891 26.0498Z" fill="#85421D"/>
<path d="M20.8831 29.9219C22.2458 29.4976 23.6347 29.1636 25.0413 28.9219C26.5512 29.7631 27.6759 31.1576 28.1786 32.8118L28.4269 33.4813L28.2486 33.856C28.1766 33.8797 28.0092 33.9418 27.9429 33.9477C27.5831 33.3442 27.3855 33.1644 26.8958 32.6656C26.5868 32.2731 26.1618 31.8962 25.7962 31.5471L24.599 30.5928C23.5904 31.1124 23.244 31.2616 22.1473 31.5217L21.755 32.556L21.6873 32.6375C21.1447 33.3063 21.1358 33.9643 20.2423 34.3158C19.8424 34.2959 19.6718 34.2244 19.5117 33.8266C19.6096 32.6136 20.3644 31.0244 20.8831 29.9219Z" fill="url(#paint5_linear_101_55262)"/>
<path d="M25.7964 31.5467C26.1774 31.128 26.0779 31.0951 26.5144 31.0215C27.2433 31.3706 27.2834 32.6211 28.1787 32.8115L28.4271 33.481L28.2488 33.8556C28.1767 33.8793 28.0094 33.9415 27.943 33.9473C27.5833 33.3439 27.3857 33.1641 26.896 32.6653C26.5869 32.2727 26.1619 31.8959 25.7964 31.5467Z" fill="#CC8531"/>
<path d="M19.512 33.8262C19.6721 34.2241 19.8428 34.2955 20.2426 34.3154C21.1361 33.9639 21.1451 33.3059 21.6876 32.6372L21.7553 32.5557C21.6435 33.0034 21.5263 33.5345 21.3941 33.9695L21.8567 33.7356C21.5564 34.2871 21.4315 34.4545 21.6408 35.0447C22.1892 36.5907 22.9015 38.1146 23.5008 39.6482L23.7117 40.2588L24.2921 39.8716C24.7606 40.1263 25.1273 40.348 25.6452 40.4973C25.9856 41.3405 26.6651 43.8199 26.8746 44.7579L27.0675 44.918C27.8925 44.8616 28.729 44.7311 29.5494 44.617C29.4801 44.9225 29.4477 44.9185 29.2249 45.1305C28.1532 45.8193 27.3554 46.8671 26.483 47.4739C26.0881 47.3938 23.1054 46.0565 22.6319 45.8153L22.3467 45.6316C21.8206 45.1245 20.6608 43.352 20.1678 42.6543L19.764 42.3958C18.584 41.3463 17.3868 40.715 15.9433 40.0843C15.4797 39.708 14.72 39.3036 14.1836 38.9962L13.9285 38.7539L15.0863 38.6635C14.7464 38.5937 13.8822 38.5786 13.4902 38.5629C15.6781 37.2252 17.5226 35.753 18.9295 33.5356C19.0617 33.3274 19.017 33.3203 19.2519 33.1825C19.4648 33.3652 19.3986 33.4326 19.4426 33.8096L19.512 33.8262Z" fill="#492218"/>
<path d="M19.5119 33.8262C19.672 34.2241 19.8427 34.2955 20.2425 34.3154C21.136 33.9639 21.145 33.3059 21.6875 32.6372L21.7552 32.5557C21.6434 33.0034 21.5262 33.5345 21.394 33.9695L21.8565 33.7356C21.5563 34.2871 21.4314 34.4545 21.6407 35.0447C22.1891 36.5907 22.9014 38.1146 23.5007 39.6482L23.7116 40.2588L23.741 40.5658C22.8385 40.8085 22.9453 40.5009 22.349 41.3321C21.2013 40.3398 19.4053 35.413 19.4425 33.8096L19.5119 33.8262Z" fill="url(#paint6_linear_101_55262)"/>
<path d="M21.3939 33.9698L21.8564 33.7358C21.5561 34.2874 21.4313 34.4547 21.6406 35.0449C22.189 36.5909 22.9013 38.1148 23.5006 39.6484C23.5037 39.9146 23.535 40.0931 23.4083 40.3243C22.985 40.2441 22.741 39.7412 22.5731 39.3585C21.8305 37.6674 21.0121 35.8309 21.3939 33.9698Z" fill="#A55823"/>
<path d="M15.0859 38.6637C16.4251 38.6734 17.6971 38.492 18.9961 38.5945C19.3418 39.8858 19.7141 41.4198 20.1675 42.6545L19.7637 42.396C18.5837 41.3466 17.3864 40.7152 15.943 40.0845C15.4794 39.7082 14.7197 39.3039 14.1833 38.9965L13.9282 38.7542L15.0859 38.6637Z" fill="#A55823"/>
<path d="M24.2921 39.8716C24.7607 40.1263 25.1273 40.348 25.6453 40.4973C25.9857 41.3405 26.6652 43.8199 26.8746 44.7579L27.0675 44.918C27.0274 44.9399 26.8878 44.9512 26.8338 44.9585C25.6886 43.5697 23.8303 42.3466 22.3491 41.3321C22.9455 40.5009 22.8386 40.8085 23.7411 40.5659L23.7118 40.2588L24.2921 39.8716Z" fill="url(#paint7_linear_101_55262)"/>
<path d="M41.6614 48.9009C42.2479 50.5044 42.7261 51.9932 43.3746 53.6023C43.8909 54.8844 44.7037 56.8113 44.9843 58.1094C43.0554 57.2582 41.1159 56.4312 39.166 55.629C35.9103 54.3239 33.3741 53.4625 30.3315 51.6306C32.641 51.094 34.954 50.572 37.2606 50.0238C38.7229 49.6763 40.2001 49.228 41.6614 48.9009Z" fill="#B96D27"/>
<path d="M22.1476 31.5212C23.2442 31.261 23.5906 31.1119 24.5992 30.5923L25.7965 31.5465C26.162 31.8957 26.587 32.2725 26.8961 32.6651C26.75 33.6368 26.4909 34.3557 25.9019 35.1639C25.2371 35.8627 24.7841 36.2846 24.0603 36.9169C23.7892 36.1924 23.7611 36.0119 23.6603 35.2392C23.5613 35.8715 23.5935 36.4361 23.6061 37.0744C23.9815 37.825 24.4727 38.2591 25.0845 38.8262C24.6904 39.2612 24.606 39.3742 24.292 39.8714L23.7117 40.2586L23.5007 39.648C22.9015 38.1144 22.1891 36.5906 21.6407 35.0445C21.4314 34.4543 21.5563 34.287 21.8566 33.7355L21.394 33.9694C21.5262 33.5344 21.6435 33.0033 21.7552 32.5555L22.1476 31.5212Z" fill="#E3AE4B"/>
<path d="M22.1476 31.5212C23.2442 31.261 23.5906 31.1119 24.5992 30.5923L25.7965 31.5465C26.162 31.8957 26.587 32.2725 26.8961 32.6651C26.75 33.6368 26.4909 34.3557 25.9019 35.1639C25.2371 35.8627 24.7841 36.2846 24.0603 36.9169C23.7892 36.1924 23.7611 36.0119 23.6603 35.2392C24.0291 34.7127 25.2067 33.6492 25.7438 33.0682C25.5777 32.9921 25.224 32.8346 25.0989 32.7256C23.7277 31.5294 22.8118 32.742 21.8566 33.7355L21.394 33.9694C21.5262 33.5344 21.6435 33.0033 21.7552 32.5555L22.1476 31.5212Z" fill="#492218"/>
<path d="M34.8537 33.8643C35.4284 33.9848 35.4864 33.8747 35.7438 34.2376C35.7715 34.6118 35.7788 34.9645 35.8769 35.3257C36.0131 36.2907 36.7351 40.3825 36.4115 41.0336C36.46 41.1904 36.4813 41.3125 36.5148 41.4726L36.3292 41.5187C35.6999 41.3224 35.2388 40.9818 34.6906 40.6403C32.7691 39.4436 31.9576 38.6667 30.8613 36.6674C30.7428 35.8034 30.3563 35.7121 30.1831 34.8601C30.7076 35.011 31.3709 36.3655 31.9379 36.3115L32.123 35.9268L32.7611 35.9841L32.9724 36.02C33.2366 35.0251 34.0882 34.4597 34.8537 33.8643Z" fill="#632C19"/>
<path d="M34.854 33.8643C35.4287 33.9848 35.4866 33.8747 35.7441 34.2376C35.7718 34.6118 35.7791 34.9645 35.8772 35.3257C36.0134 36.2907 36.7354 40.3825 36.4117 41.0336C35.9707 40.0587 33.7149 36.8685 32.9727 36.02C33.2368 35.0251 34.0885 34.4597 34.854 33.8643Z" fill="#F9E8A0"/>
<path d="M28.7765 40.2174C29.1655 40.6851 29.4959 43.408 29.917 44.4098C29.7185 44.5555 29.7832 44.521 29.5497 44.6169C28.7292 44.7311 27.8928 44.8616 27.0678 44.9179L26.8749 44.7579C26.6654 43.8198 25.9859 41.3405 25.6455 40.4973C25.83 40.2085 25.7068 40.3066 26.0249 40.189C26.3906 40.2732 26.4831 40.2896 26.8603 40.2863L26.9465 40.2849L27.525 40.4063C28.0826 40.516 28.2844 40.4592 28.7765 40.2174Z" fill="#F9E8A0"/>
<path d="M25.9018 35.1646L26.3096 35.2574C26.4177 35.89 25.5634 36.5855 25.8803 37.6851L26.7054 37.3465C27.3186 38.2308 27.9164 38.773 28.549 39.5592C28.6181 39.8022 28.6602 39.9905 28.776 40.2179C28.2839 40.4596 28.0821 40.5165 27.5246 40.4068L26.9461 40.2853L26.8598 40.2868C26.4826 40.2901 26.3902 40.2737 26.0245 40.1894C25.7063 40.307 25.8296 40.2089 25.6451 40.4977C25.1271 40.3484 24.7605 40.1267 24.2919 39.872C24.6058 39.3748 24.6903 39.2618 25.0844 38.8268C24.4726 38.2598 23.9814 37.8257 23.606 37.0751C23.5934 36.4368 23.5612 35.8721 23.6602 35.2399C23.761 36.0125 23.7891 36.193 24.0602 36.9175C24.784 36.2853 25.237 35.8634 25.9018 35.1646Z" fill="#A55823"/>
<path d="M25.8804 37.6848L26.7055 37.3462C27.3187 38.2304 27.9165 38.7726 28.5492 39.5588C28.6182 39.8018 28.6604 39.9902 28.7761 40.2175C28.2841 40.4593 28.0822 40.5162 27.5247 40.4064C27.2788 39.8567 26.3663 38.687 25.8804 37.6848Z" fill="#492218"/>
<path d="M25.0845 38.8262C25.7542 39.4373 26.1598 39.8183 26.9462 40.2847L26.8599 40.2862C26.4827 40.2895 26.3903 40.2731 26.0246 40.1888C25.7064 40.3064 25.8297 40.2083 25.6452 40.4971C25.1272 40.3478 24.7606 40.1261 24.292 39.8714C24.6059 39.3742 24.6904 39.2612 25.0845 38.8262Z" fill="#EEC558"/>
<path d="M26.8962 32.6655C27.3859 33.1644 27.5835 33.3441 27.9432 33.9476C28.0096 33.9418 28.177 33.8796 28.249 33.8559L28.4273 33.4812C28.6296 33.7334 29.0318 34.1578 29.088 34.4316L28.9102 34.4183C28.5206 34.521 28.1669 35.0661 27.9192 35.4058C27.6059 35.9165 27.0418 36.9017 26.7056 37.3464L25.8805 37.6849C25.5636 36.5854 26.4179 35.8898 26.3098 35.2572L25.902 35.1644C26.491 34.3562 26.7501 33.6373 26.8962 32.6655Z" fill="#85421D"/>
<path d="M28.4275 33.481C28.6299 33.7331 29.0321 34.1575 29.0882 34.4314L28.9105 34.4181C28.5209 34.5207 28.1672 35.0659 27.9194 35.4055C27.8924 34.8903 27.8481 34.4591 27.9435 33.9473C28.0098 33.9415 28.1772 33.8793 28.2492 33.8556L28.4275 33.481Z" fill="#A55823"/>
<path d="M27.9191 35.4059C28.1668 35.0662 28.5205 34.5211 28.9102 34.4185C29.0214 35.2077 28.8857 38.8953 28.5492 39.5591C27.9165 38.773 27.3187 38.2307 26.7056 37.3465C27.0418 36.9018 27.6059 35.9166 27.9191 35.4059Z" fill="#EEC558"/>
<path d="M52.8138 0.955896C53.3941 0.599828 53.9119 0.318693 54.5145 0C53.6919 2.1025 52.5985 5.24895 50.818 6.62309C50.9669 6.84278 50.8725 6.74506 51.1954 6.84461C51.9006 7.13923 52.7059 7.44808 53.3571 7.83168C53.5415 7.92302 54.0995 8.18191 54.2443 8.27471C54.9942 8.61091 57.0418 9.4545 57.5815 9.96718C57.8489 12.0172 58.2035 13.1297 57.6413 15.1396L57.5377 15.0991C57.4119 14.7401 57.4263 14.7552 57.1191 14.5339C56.935 14.5162 56.9853 14.5308 56.8374 14.4879L56.4376 14.3687C55.9541 14.2227 55.9384 14.1764 55.4715 14.337L53.9376 14.353C50.0778 14.3202 49.1372 14.403 45.3247 13.8334C44.8784 13.8972 44.5849 13.6653 43.9632 13.8411C41.8417 14.0655 39.7722 13.9993 37.6557 14.2741L37.5229 14.2054C37.5605 14.0812 38.2655 13.5218 38.4599 13.3191L38.5248 13.2504C38.5618 12.9045 38.5782 12.7875 38.6684 12.4533L38.5217 12.3555C39.4913 9.2472 40.4845 6.10348 43.1107 4.14866L43.1096 4.01229L42.6058 3.90545C42.851 3.86917 43.4813 3.85349 43.7577 3.83817C45.045 2.8531 47.0351 1.84324 48.176 0.785611C48.0515 1.24925 47.9694 1.47605 47.7842 1.91963C47.3705 3.17836 46.7335 4.85989 46.3835 6.07157L46.9732 6.33375C47.3466 5.56746 48.6747 3.36615 49.2103 2.78747C50.0914 2.23942 51.6977 1.59273 52.8138 0.955896Z" fill="#78CB3E"/>
<path d="M53.3574 7.83203C53.5417 7.92337 54.0998 8.18227 54.2445 8.27507C54.9944 8.61126 57.042 9.45485 57.5817 9.96753C57.8492 12.0175 58.2038 13.13 57.6415 15.1399L57.5379 15.0994C57.4121 14.7404 57.4265 14.7556 57.1193 14.5342C56.9352 14.5166 56.9855 14.5311 56.8377 14.4883L56.4378 14.3691C55.9543 14.223 55.9386 14.1767 55.4717 14.3373L53.9379 14.3534C50.078 14.3206 49.1374 14.4033 45.325 13.8338L45.2686 13.6196L44.9751 13.5891C45.0777 13.5701 45.1793 13.5426 45.2841 13.5432C45.504 13.399 45.7217 13.3012 45.9573 13.1864C47.2125 12.7005 50.2891 10.4715 51.7987 9.6523L52.1008 9.55822C53.963 8.97955 53.0814 9.25266 53.3574 7.83203Z" fill="#F9F7D4"/>
<path d="M54.2443 8.27539C54.9942 8.61159 57.0418 9.45518 57.5815 9.96786C57.849 12.0178 58.2036 13.1304 57.6413 15.1402L57.5377 15.0998C57.4119 14.7408 57.4263 14.7559 57.1191 14.5346C56.4002 13.3619 54.6186 12.3046 53.4002 11.7398L53.2994 11.6942L53.3426 11.5843C52.2118 10.9918 53.7041 8.84441 54.2443 8.27539Z" fill="#F1F1EB"/>
<path d="M57.5814 9.96729C57.8489 12.0173 58.2035 13.1298 57.6412 15.1397L57.5377 15.0992C57.4119 14.7402 57.4263 14.7553 57.1191 14.534C56.4002 13.3613 54.6186 12.3041 53.4001 11.7392L53.2993 11.6937L53.3425 11.5837C54.2744 11.3376 54.911 11.2315 55.8773 11.1702C56.3807 11.1383 57.14 11.2995 57.4535 11.1511C57.6061 10.8575 57.574 10.3217 57.5814 9.96729Z" fill="url(#paint8_linear_101_55262)"/>
<path d="M52.814 0.955896C53.3943 0.599828 53.9121 0.318693 54.5147 0C53.692 2.1025 52.5987 5.24895 50.8182 6.62309C50.9671 6.84278 50.8727 6.74506 51.1956 6.84461C50.2553 6.84552 48.786 7.94545 47.5536 8.3491L47.3875 8.40525C46.9149 8.59888 46.8547 8.61383 46.3457 8.58356C46.5966 7.96824 46.8912 6.99083 46.9734 6.33375C47.3468 5.56746 48.6748 3.36615 49.2105 2.78747C50.0916 2.23942 51.6978 1.59273 52.814 0.955896Z" fill="#49A22A"/>
<path d="M46.9734 6.33388C47.3468 5.56759 48.6748 3.36628 49.2105 2.7876C49.6626 2.84357 50.0812 2.82643 50.38 3.12926C50.4247 3.93183 49.488 4.2425 49.3195 5.03267C49.2947 5.14862 49.135 5.61791 49.0896 5.76796C48.733 6.26496 47.4879 7.9195 47.3875 8.40538C46.9149 8.599 46.8547 8.61395 46.3457 8.58369C46.5966 7.96836 46.8912 6.99095 46.9734 6.33388Z" fill="#A1D648"/>
<path d="M52.8142 0.956055L53.0534 1.07256C52.916 1.64485 49.6361 5.32295 49.0898 5.76799C49.1352 5.61794 49.2949 5.14865 49.3197 5.0327C49.4882 4.24253 50.425 3.93186 50.3803 3.12929C50.0815 2.82646 49.6629 2.8436 49.2107 2.78763C50.0919 2.23958 51.6981 1.59289 52.8142 0.956055Z" fill="#78CB3E"/>
<path d="M51.1953 6.84521C51.9005 7.13984 52.7058 7.44869 53.357 7.83229C53.081 9.25291 53.9627 8.9798 52.1005 9.55848L51.7984 9.65256C48.9493 9.77872 41.8217 12.5469 40.0396 12.3835C40.5145 12.1824 43.3275 10.1488 44.4595 9.53441C44.4763 9.3428 44.4876 9.37142 44.5683 9.186C45.1111 9.11107 45.8046 8.78909 46.3454 8.58417C46.8544 8.61443 46.9146 8.59948 47.3872 8.40586L47.5533 8.34971C48.7857 7.94605 50.255 6.84613 51.1953 6.84521Z" fill="#49A22A"/>
<path d="M51.1952 6.84521C51.9004 7.13984 52.7057 7.44869 53.357 7.83229C53.081 9.25291 53.9626 8.9798 52.1004 9.55848C50.8071 8.72054 45.9341 9.22611 44.4595 9.53441C44.4762 9.3428 44.4875 9.37142 44.5683 9.186C45.1111 9.11107 45.8046 8.7891 46.3454 8.58417C46.8544 8.61443 46.9146 8.59948 47.3871 8.40586L47.5532 8.34971C48.7857 7.94605 50.255 6.84613 51.1952 6.84521Z" fill="#EEC558"/>
<path d="M42.6061 3.90565C42.8513 3.86937 43.4816 3.85369 43.758 3.83838C43.7376 4.64787 43.9394 5.07395 44.7208 5.3106C43.9253 6.50862 39.6376 11.761 38.6687 12.4535L38.522 12.3558C39.4915 9.24741 40.4848 6.10369 43.1109 4.14887L43.1098 4.01249L42.6061 3.90565Z" fill="#49A22A"/>
<path d="M38.5248 13.2506L39.0803 13.0542C40.8656 13.1689 44.3249 13.4795 45.957 13.1862C45.7215 13.3011 45.5038 13.3988 45.2839 13.543C45.1791 13.5424 45.0775 13.57 44.9749 13.5889L45.2684 13.6194L45.3247 13.8336C44.8784 13.8974 44.5849 13.6655 43.9632 13.8413C41.8417 14.0657 39.7722 13.9995 37.6557 14.2743L37.5229 14.2055C37.5605 14.0814 38.2655 13.522 38.4599 13.3193L38.5248 13.2506Z" fill="#F2DC7E"/>
<path d="M48.176 0.785645C48.0515 1.24928 47.9695 1.47609 47.7842 1.91967L47.6116 1.76342C47.2473 1.91091 45.2739 4.66484 44.7205 5.31043C43.9391 5.07378 43.7373 4.6477 43.7577 3.83821C45.0451 2.85314 47.0351 1.84327 48.176 0.785645Z" fill="#49A22A"/>
<path d="M46.3838 6.07178L46.9736 6.33395C46.8914 6.99103 46.5968 7.96844 46.3459 8.58376C45.8052 8.78869 45.1116 9.11066 44.5688 9.1856C45.1074 8.50062 45.8901 7.57955 46.1324 6.73505C46.2228 6.42019 46.2187 6.385 46.3838 6.07178Z" fill="#F2DC7E"/>
<path d="M54.9676 32.0157C55.8903 31.3351 57.2905 30.2224 58.3283 29.8472L58.2796 30.0116L58.938 29.9582C59.6917 31.9429 64.0669 42.1998 63.9997 43.4666C63.4035 44.1987 62.132 44.6235 61.2086 44.6921C60.9967 44.7153 60.657 44.7623 60.4561 44.7661C59.6767 44.9089 58.4818 44.8651 58.078 45.3763L58.0512 45.778C57.1886 45.2252 56.5069 45.6666 55.3982 44.5623C55.3177 44.4075 55.1771 44.0133 55.1073 43.8321C55.1596 43.5544 55.1796 42.0106 55.2128 41.532L53.6697 41.5114C53.6567 41.4849 53.6438 41.4587 53.6307 41.4322C53.625 40.5241 52.3014 38.0696 52.3916 37.3953C52.58 36.5005 53.1227 36.0176 53.0243 35.3464C52.9656 34.947 52.9552 35.0814 52.9887 34.6008L52.9971 34.4943L52.8359 34.4312C52.8341 34.1393 53.023 33.755 53.1369 33.4706C53.6095 32.9745 54.399 32.4343 54.9676 32.0157Z" fill="#EEC558"/>
<path d="M55.7069 41.1602L55.8065 40.9192C56.5866 40.7771 58.3652 40.8189 59.2436 40.8266C60.0813 41.2984 61.4629 42.2887 61.7127 43.2611C61.9988 43.4078 62.0473 43.4478 62.3765 43.4911C62.879 43.4669 63.2651 43.4277 63.7662 43.5028L63.9993 43.4667C63.4032 44.1989 62.1317 44.6237 61.2082 44.6923C60.9964 44.7154 60.6567 44.7624 60.4558 44.7663C59.6764 44.909 58.4815 44.8653 58.0776 45.3765L58.0508 45.7781C57.1883 45.2254 56.5066 45.6667 55.3979 44.5624C55.3173 44.4077 55.1768 44.0135 55.1069 43.8323C55.1593 43.5546 55.1793 42.0107 55.2125 41.5321L55.428 41.1746L55.7069 41.1602Z" fill="#F1F1EB"/>
<path d="M59.8257 43.1953C60.4414 43.2095 61.0075 43.2079 61.6172 43.3031L61.7127 43.2609C61.9988 43.4077 62.0473 43.4476 62.3766 43.491C62.879 43.4668 63.2652 43.4276 63.7662 43.5027L63.9994 43.4666C63.4032 44.1988 62.1317 44.6236 61.2083 44.6921C60.9964 44.7153 60.6567 44.7623 60.4558 44.7662C59.6764 44.9089 58.4815 44.8652 58.0777 45.3764L58.0509 45.778C57.1883 45.2252 56.5066 45.6666 55.3979 44.5623C55.604 44.2743 55.8043 44.4187 56.1845 44.0528L56.7074 43.8152C57.7832 43.5718 58.7326 43.3516 59.8257 43.1953Z" fill="#492218"/>
<path d="M56.1845 44.0525L56.7074 43.8149C56.5588 44.2977 56.5079 44.1836 56.6791 44.5132C57.4341 44.7832 58.4806 44.5041 59.4184 44.5734L59.4124 44.7595C59.8356 44.79 60.0866 44.7522 60.4558 44.7659C59.6764 44.9087 58.4815 44.8649 58.0777 45.3761L58.0509 45.7778C57.1883 45.225 56.5066 45.6664 55.3979 44.5621C55.604 44.274 55.8043 44.4184 56.1845 44.0525Z" fill="#85421D"/>
<path d="M61.6169 43.3033L61.7124 43.2612C61.9985 43.408 62.047 43.4479 62.3762 43.4913C62.8787 43.4671 63.2649 43.4279 63.7659 43.503L63.9991 43.4669C63.4029 44.1991 62.1314 44.6239 61.208 44.6924C60.9961 44.7156 60.6564 44.7626 60.4555 44.7665C60.0863 44.7528 59.8353 44.7905 59.4121 44.7601L59.4181 44.5739C60.1478 44.4215 61.5646 44.1814 61.6169 43.3033Z" fill="#A55823"/>
<path d="M61.6169 43.3033L61.7124 43.2612C61.9985 43.408 62.047 43.4479 62.3762 43.4913C62.8787 43.4671 63.2649 43.4279 63.7659 43.503C63.2005 43.5449 62.7733 43.5719 62.2036 43.5675C61.8118 43.9429 61.4689 44.219 61.208 44.6924C60.9961 44.7156 60.6564 44.7626 60.4555 44.7665C60.0863 44.7528 59.8353 44.7905 59.4121 44.7601L59.4181 44.5739C60.1478 44.4215 61.5646 44.1814 61.6169 43.3033Z" fill="#B96D27"/>
<path d="M55.428 41.1746L55.7069 41.1602L56.1556 41.9432C56.0555 42.5053 55.7321 43.6151 56.1844 44.0528C55.8043 44.4187 55.6039 44.2743 55.3979 44.5624C55.3173 44.4076 55.1768 44.0134 55.1069 43.8322C55.1593 43.5545 55.1793 42.0107 55.2125 41.5321L55.428 41.1746Z" fill="#B96D27"/>
<path d="M56.1554 41.9434C57.2785 43.1612 58.2599 43.2462 59.8255 43.1955C58.7323 43.3518 57.783 43.572 56.7071 43.8154L56.1842 44.053C55.7319 43.6152 56.0553 42.5054 56.1554 41.9434Z" fill="#E3AE4B"/>
<path d="M58.2793 30.0114L58.9376 29.958C59.6913 31.9427 64.0666 42.1996 63.9993 43.4664L63.7661 43.5025C63.2651 43.4273 62.879 43.4665 62.3765 43.4908C61.8607 39.9184 60.637 37.4143 59.4189 34.0808C59.0915 33.1849 58.0459 31.0572 57.999 30.2207L58.2793 30.0114Z" fill="#F9F7D4"/>
<path d="M52.9971 34.4946C53.219 34.8376 53.1433 34.7938 53.2509 35.1437C53.7479 36.7607 54.5758 38.2699 55.0467 39.9102C55.1483 40.2636 55.2996 40.8572 55.4283 41.1748L55.2128 41.5323L53.6697 41.5117C53.6567 41.4853 53.6438 41.459 53.6307 41.4326C53.625 40.5244 52.3014 38.0699 52.3916 37.3957C52.58 36.5009 53.1227 36.0179 53.0243 35.3468C52.9656 34.9473 52.9552 35.0817 52.9887 34.6011L52.9971 34.4946Z" fill="#F9F7D4"/>
<path d="M9.01146 39.6617L10.0128 38.9102C10.0129 39.169 9.9876 39.3499 10.0981 39.5827L9.91558 39.8932C9.56972 40.339 8.69387 42.1305 8.4636 42.696L8.50754 42.7923L8.14089 42.8947C8.00251 43.8355 9.50956 45.196 9.68951 45.7918C9.22259 46.0629 7.54562 46.9362 7.3881 47.3074C6.88599 47.1209 6.7808 47.116 6.24259 47.0771C6.36474 47.4554 6.55964 47.9984 6.64916 48.3699C6.76675 48.6369 6.82911 48.7092 6.76384 48.9931C6.63895 49.4113 6.61853 49.2786 6.7086 49.6615C7.02674 49.9207 7.07378 49.912 7.48838 50.0035C6.85755 50.0859 5.86574 50.1098 5.48433 50.5614L5.43802 50.8573L5.3928 50.8524C5.21851 50.0398 2.8686 47.7027 2.24854 46.4755C2.51527 45.4116 3.45713 42.8581 4.18458 42.0595L4.4916 41.5093L4.54685 41.4976L4.74776 41.3102C6.12299 41.0867 7.64955 40.5554 8.89114 39.9237C8.61547 39.6487 8.33087 39.3233 8.06578 39.0334C8.34947 39.1999 8.72868 39.4722 9.01146 39.6617Z" fill="#A55823"/>
<path d="M4.54685 41.4976C5.01012 41.6502 5.00501 41.5658 5.2557 41.8817L5.30803 42.2555C5.30948 42.9065 5.828 46.9611 5.82271 46.9764C5.92554 47.0045 6.14924 47.0754 6.24259 47.0771C6.36475 47.4554 6.55964 47.9983 6.64916 48.3699C6.76675 48.6368 6.82911 48.7092 6.76384 48.993C6.63895 49.4113 6.61853 49.2786 6.7086 49.6614C7.02674 49.9207 7.07378 49.9119 7.48838 50.0035C6.85755 50.0859 5.86574 50.1097 5.48433 50.5614L5.43802 50.8573L5.3928 50.8523C5.21851 50.0397 2.8686 47.7026 2.24854 46.4754C2.51527 45.4116 3.45713 42.858 4.18458 42.0595L4.4916 41.5092L4.54685 41.4976Z" fill="#76391A"/>
<path d="M4.5467 41.4976C5.00997 41.6502 5.00487 41.5658 5.25555 41.8817L5.30788 42.2555C5.30934 42.9065 5.82785 46.9611 5.82256 46.9764C5.05391 46.6889 4.58006 46.5952 3.76856 46.4247C3.74668 46.0076 4.37386 44.129 4.53156 43.6176L3.72754 43.3574L4.18443 42.0595L4.49145 41.5092L4.5467 41.4976Z" fill="#E3AE4B"/>
<path d="M4.5467 41.4976C5.00997 41.6502 5.00487 41.5658 5.25555 41.8817L5.30788 42.2555L5.06284 42.0345C4.87724 42.3067 4.77405 43.0974 4.53156 43.6176L3.72754 43.3574L4.18443 42.0595L4.49145 41.5092L4.5467 41.4976Z" fill="#CC8531"/>
<path d="M2.4624 46.1374C2.96724 45.1396 3.34355 44.413 3.72769 43.3574L4.53172 43.6176C4.37401 44.129 3.74684 46.0076 3.76872 46.4248C3.45367 46.3854 2.79805 46.214 2.4624 46.1374Z" fill="#D79B3C"/>
<path d="M6.764 48.993C6.22744 48.9541 6.02433 48.8593 5.7793 48.374L5.86152 48.1933C6.26463 48.1408 6.21285 48.1962 6.64932 48.3698C6.76691 48.6367 6.82927 48.7091 6.764 48.993Z" fill="#85421D"/>
<path d="M36.9693 12.9634C37.6947 12.8132 38.1024 12.8544 38.5215 12.356L38.6683 12.4537C38.578 12.7879 38.5616 12.9049 38.5246 13.2508L38.4597 13.3195C38.2654 13.5222 37.5603 14.0816 37.5228 14.2058L37.6555 14.2745C37.0026 14.4781 36.3213 14.6473 35.6582 14.8209C36.1319 14.2127 36.5388 13.6003 36.9693 12.9634Z" fill="#CC8531"/>
<defs>
<linearGradient id="paint0_linear_101_55262" x1="45.5539" y1="41.266" x2="40.633" y2="24.2192" gradientUnits="userSpaceOnUse">
<stop stop-color="#E5A942"/>
<stop offset="1" stop-color="#F3D061"/>
</linearGradient>
<linearGradient id="paint1_linear_101_55262" x1="51.0214" y1="31.5706" x2="53.7097" y2="29.1657" gradientUnits="userSpaceOnUse">
<stop stop-color="#E0B174"/>
<stop offset="1" stop-color="#EECF8A"/>
</linearGradient>
<linearGradient id="paint2_linear_101_55262" x1="49.656" y1="31.2828" x2="54.0225" y2="25.2564" gradientUnits="userSpaceOnUse">
<stop stop-color="#AA5D27"/>
<stop offset="1" stop-color="#743D29"/>
</linearGradient>
<linearGradient id="paint3_linear_101_55262" x1="46.1154" y1="32.8272" x2="45.2251" y2="30.0969" gradientUnits="userSpaceOnUse">
<stop stop-color="#441F17"/>
<stop offset="1" stop-color="#904924"/>
</linearGradient>
<linearGradient id="paint4_linear_101_55262" x1="35.0032" y1="65.7741" x2="41.6705" y2="51.2539" gradientUnits="userSpaceOnUse">
<stop stop-color="#582518"/>
<stop offset="1" stop-color="#A04A1F"/>
</linearGradient>
<linearGradient id="paint5_linear_101_55262" x1="24.4264" y1="34.202" x2="21.9554" y2="29.5587" gradientUnits="userSpaceOnUse">
<stop stop-color="#DDA041"/>
<stop offset="1" stop-color="#F4DC88"/>
</linearGradient>
<linearGradient id="paint6_linear_101_55262" x1="20.0522" y1="39.8416" x2="22.696" y2="34.4937" gradientUnits="userSpaceOnUse">
<stop stop-color="#C97F31"/>
<stop offset="1" stop-color="#E0A64B"/>
</linearGradient>
<linearGradient id="paint7_linear_101_55262" x1="25.6073" y1="40.769" x2="24.3828" y2="42.9292" gradientUnits="userSpaceOnUse">
<stop stop-color="#D39436"/>
<stop offset="1" stop-color="#E7B45A"/>
</linearGradient>
<linearGradient id="paint8_linear_101_55262" x1="54.2965" y1="10.8672" x2="58.1986" y2="13.4014" gradientUnits="userSpaceOnUse">
<stop stop-color="#C2812C"/>
<stop offset="1" stop-color="#DCA34A"/>
</linearGradient>
</defs>
</svg>
