<svg width="96" height="44" viewBox="0 0 96 44" fill="none" xmlns="http://www.w3.org/2000/svg">
<path d="M48.5986 10.6814C49.2149 8.62474 50.1848 7.00835 51.3226 5.2094C53.9746 1.01652 59.9471 -1.74622 64.4723 1.27651C67.0477 -0.157218 71.3032 0.458621 72.5179 3.49388C73.191 5.17717 71.5824 7.29657 70.7344 8.77412C70.2287 9.64858 69.75 10.5387 69.2997 11.4432C72.5042 9.78711 75.6929 8.89074 79.1766 10.3779C82.3 11.7111 84.1214 14.3035 82.6698 17.6614C83.2566 17.4934 83.7032 17.3864 84.3205 17.4544C85.1717 17.5409 85.9513 17.9732 86.4748 18.6505C86.9689 19.2773 87.1806 20.0813 87.0595 20.8702C86.7445 23.0585 84.1162 25.3247 82.4538 26.5877C84.5913 26.8123 86.4053 27.361 88.3879 28.2087C88.5996 28.2979 89.3286 28.6607 89.4445 28.6873C90.1861 28.9342 91.2648 30.1505 91.6683 30.1349L91.7989 29.8944L91.8821 29.8789L91.88 30.8366C91.9042 32.57 91.2142 32.1587 89.8879 32.6733C89.6172 32.7783 89.8395 33.0652 89.4876 33.2454C89.1737 33.0487 89.297 32.7329 89.2116 32.7192C88.4911 32.604 85.7163 32.7922 85.1854 32.8174C79.9783 33.1093 74.7838 33.6091 69.616 34.3155C60.5429 35.437 51.5183 36.921 42.5638 38.7638L28.7719 41.4916C27.2052 41.7968 25.0023 42.3684 23.497 42.5676L23.4692 42.5168L23.4168 42.3012L23.2097 42.2066L23.2033 41.7258C23.0097 41.6538 22.5904 41.8075 22.3034 41.848C21.6272 41.9433 21.0363 41.934 20.3548 41.8584C20.3715 41.6051 20.4032 41.3072 20.3796 41.0586C19.3172 41.2896 18.1566 41.4248 17.0687 41.6111C15.5719 41.8673 13.6661 42.517 12.19 42.4807C11.5685 42.5554 10.9003 42.6852 10.2799 42.7929L11.3488 42.2633C13.2245 40.9414 16.0832 40.5649 17.956 39.158C18.368 38.8485 19.5373 37.9871 19.7122 37.5492L19.5764 37.4557C19.2171 37.6005 17.7359 38.2323 17.4395 38.3093C16.8192 38.2853 16.6424 38.5041 15.9833 38.4094C16.3386 38.2304 17.2033 37.7998 17.5676 37.7566C18.0505 37.2631 18.1861 36.5722 18.4017 35.908L18.4036 35.7934C17.024 35.4782 16.7347 35.3687 15.3026 35.2797C14.8575 35.8375 14.5602 36.274 13.9529 36.6648C12.8514 37.2169 11.5479 36.9036 10.4723 37.6152C8.80601 38.7176 8.23747 41.0833 6.3396 41.8723C5.65339 42.1577 4.92041 42.1309 4.24105 41.8391C3.44529 41.4973 2.8956 40.8488 2.58748 40.049C0.646205 35.0083 7.78038 20.0655 10.1102 14.9038C8.75734 15.6272 7.21658 16.5531 6.18064 17.7221C5.43628 18.6353 4.14213 20.5252 2.72853 20.2365C0.133497 19.7067 -0.277132 15.6937 0.141608 13.6296C0.614916 11.2961 1.87967 9.22773 3.80514 8.02555C7.85486 5.49709 12.4151 3.94001 17.0191 2.79683C22.7936 1.45559 32.721 -0.337989 36.8895 5.27714C38.117 6.93061 38.0293 8.92992 37.6706 10.8456C40.3268 10.3347 42.2821 10.8622 44.7168 11.9105C45.9503 10.6768 46.9214 10.7376 48.5986 10.6814Z" fill="#1A0C23"/>
<path d="M48.5986 10.6814C49.2149 8.62474 50.1848 7.00835 51.3226 5.2094C53.9746 1.01652 59.9471 -1.74622 64.4723 1.27651C67.0477 -0.157218 71.3033 0.458621 72.5179 3.49388C73.191 5.17717 71.5824 7.29657 70.7344 8.77412C70.2288 9.64858 69.75 10.5387 69.2997 11.4432C72.5042 9.7871 75.6929 8.89074 79.1766 10.3779C82.3001 11.7111 84.1214 14.3035 82.6698 17.6614C83.2566 17.4934 83.7032 17.3864 84.3205 17.4544C85.1717 17.5409 85.9513 17.9732 86.4748 18.6505C86.9689 19.2773 87.1806 20.0813 87.0595 20.8702C86.7445 23.0585 84.1162 25.3247 82.4539 26.5877C84.5913 26.8123 86.4053 27.361 88.3879 28.2087C88.0128 28.2868 87.5472 28.1327 87.1638 28.0339C85.0032 27.478 82.6287 27.1004 80.3944 27.0213C82.7436 25.5797 85.315 23.7338 86.2041 20.9924C86.5559 19.91 85.6257 18.3096 84.5744 18.1084C83.108 17.8274 81.4436 19.6888 80.2964 20.4311C81.1908 18.7728 82.9711 16.2356 82.3074 14.3791C81.0307 10.8095 75.9615 9.60696 72.659 10.7413C70.5132 11.4782 68.9691 12.3064 67.2624 13.7714C68.1413 11.8365 69.2719 9.99726 70.2382 8.14964C70.8598 6.96116 72.4589 5.06561 71.8447 3.77199C70.6406 1.23511 66.5377 0.229813 64.5339 2.35891C62.9776 1.06972 61.7773 0.554797 59.6952 0.724084C54.294 1.16347 50.6645 6.49733 49.1188 11.247C47.1274 11.3624 46.221 11.187 44.9806 12.9776C43.7773 11.9256 43.918 12.4923 42.7789 12.0718C40.1621 11.1058 39.1705 10.9601 36.4634 11.9774C37.2269 10.0237 37.6574 8.68921 36.7685 6.59225C36.0959 5.12523 34.7415 3.76546 33.2129 3.24032C26.5929 0.965954 19.1439 2.73825 12.6916 4.86272C8.52853 6.23355 2.99115 8.062 1.21 12.4982C0.540228 14.1661 0.614812 16.4172 1.26141 18.0919C1.53425 18.7852 2.12291 19.2116 2.81059 19.4612C2.89192 19.4906 2.97377 19.5186 3.05604 19.5452C4.77946 19.0476 5.00858 17.5748 6.23025 16.5685C7.5245 15.5023 10.023 14.0192 11.5946 13.4676C10.5796 15.9534 9.33694 18.337 8.26233 20.7964C6.56493 24.6813 1.77907 36.1318 3.41379 39.9342C3.65123 40.4864 4.1375 41.0034 4.70288 41.2243C5.12815 41.3906 5.58387 41.3632 5.9966 41.1783C7.96926 40.2952 8.47576 37.2258 11.1141 36.4881C12.1274 36.2047 13.4599 36.4234 13.9144 35.2321C14.2574 34.3333 14.0682 33.2449 14.2733 32.3025C14.6855 30.4084 15.379 28.5458 16.0055 26.7131C18.7377 30.9788 21.4621 32.9326 26.021 35.109C25.7154 35.2295 25.308 35.3771 25.0194 35.5135C24.7711 35.5892 23.8377 35.8957 23.6178 35.8683L23.4451 35.7187L23.4139 35.796C22.3085 36.1135 19.3724 36.9274 18.4676 37.4253C18.1682 37.5517 17.8842 37.6883 17.5676 37.7566C18.0505 37.2631 18.1861 36.5722 18.4017 35.908L18.4036 35.7934C17.024 35.4782 16.7347 35.3687 15.3026 35.2797C14.8575 35.8375 14.5602 36.274 13.9529 36.6648C12.8514 37.2169 11.5479 36.9036 10.4723 37.6152C8.80601 38.7176 8.23747 41.0833 6.3396 41.8723C5.65339 42.1577 4.92041 42.1309 4.24105 41.8391C3.44529 41.4973 2.8956 40.8488 2.58748 40.049C0.646205 35.0083 7.78038 20.0655 10.1102 14.9038C8.75734 15.6272 7.21659 16.5531 6.18064 17.7221C5.43628 18.6353 4.14213 20.5252 2.72853 20.2365C0.133497 19.7067 -0.277132 15.6937 0.141608 13.6296C0.614916 11.2961 1.87967 9.22773 3.80514 8.02555C7.85486 5.49709 12.4151 3.94001 17.0191 2.79683C22.7936 1.45559 32.721 -0.337989 36.8895 5.27714C38.117 6.93061 38.0293 8.92992 37.6707 10.8456C40.3268 10.3347 42.2821 10.8622 44.7168 11.9105C45.9503 10.6768 46.9214 10.7376 48.5986 10.6814Z" fill="#361E5E"/>
<path d="M16.1826 28.4472C17.9043 30.3525 19.723 32.3892 21.9034 33.7788C22.629 34.2412 23.6147 34.6992 24.4014 35.116C24.082 35.2731 23.6145 35.4406 23.4451 35.7187L23.4139 35.796C22.3085 36.1135 19.3724 36.9274 18.4676 37.4253C18.1682 37.5518 17.8842 37.6883 17.5676 37.7566C18.0505 37.2631 18.1861 36.5722 18.4017 35.908L18.4036 35.7934C17.024 35.4782 16.7347 35.3687 15.3026 35.2797C14.8575 35.8375 14.5602 36.274 13.9529 36.6648C15.2727 35.0792 14.6057 33.9463 15.0395 32.0577C15.3411 30.7445 15.7192 29.7027 16.1826 28.4472Z" fill="#110B15"/>
<path d="M17.1622 35.2447C18.4245 34.8682 18.3349 34.7147 18.5807 33.4588C18.7333 34.748 18.6418 34.8294 19.8893 35.2033C19.0758 35.4585 18.907 35.5818 18.5089 36.3494C18.4557 36.1744 18.4329 36.088 18.4017 35.908L18.4036 35.7934C17.9899 35.3726 17.744 35.3646 17.1622 35.2447Z" fill="#F5F0FD"/>
<path d="M74.0264 28.1778C76.305 28.0851 79.2146 28.2794 81.4868 28.5455C82.5982 28.9821 86.0956 29.199 86.9099 29.9364C83.3967 29.3792 80.3418 29.3274 76.8296 29.2341C76.6948 29.2605 76.6484 29.2428 76.5778 29.3218C76.0532 29.9017 74.8807 30.0364 74.1528 30.0627C74.0327 30.0668 73.9126 30.0692 73.7925 30.0699C67.621 30.5198 61.3639 31.5678 55.2319 32.4531C54.3634 32.5786 50.632 33.1629 50.0903 33.3857L50.0674 33.4505C46.5791 33.9617 43.4089 34.7218 39.9949 35.3426C38.9254 35.7246 38.4051 35.8901 37.2863 36.0726C35.9613 36.4539 34.5617 36.6491 33.2004 36.8932C32.5322 37.013 31.3555 37.3131 30.7404 37.3501C30.3952 37.4837 29.6625 37.7306 29.3774 37.874C28.849 38.0521 28.5496 38.1108 27.9903 38.1784C27.8647 38.459 27.8073 38.6887 27.5503 38.8289L27.2447 38.8622C26.9113 38.9253 26.629 38.9488 26.3449 39.1266L26.3781 39.2007C26.5566 39.2449 26.643 39.2737 26.8309 39.2776C26.1654 39.4546 25.4959 39.6162 24.823 39.7623L24.2991 39.2291C24.9284 38.953 25.7047 38.8721 26.3865 38.7748C25.8178 38.6348 25.1252 38.5312 24.5405 38.4286C24.1339 38.1819 23.9666 38.0314 23.7804 37.5703C26.3809 36.8615 29.1884 35.9057 31.7676 35.0753C39.3632 32.9006 48.1953 30.8241 56.0546 29.7355C56.4893 29.6521 56.9815 29.5883 57.4217 29.5285C62.8708 28.7868 68.5203 28.1023 74.0264 28.1778Z" fill="url(#paint0_linear_101_46494)"/>
<path d="M49.1285 32.1188C51.0606 31.6137 53.6232 31.2228 55.6021 30.9093C60.4279 30.1402 65.2898 29.619 70.1687 29.3475C72.2176 29.2348 74.7901 29.1047 76.8296 29.2341C76.6947 29.2605 76.6484 29.2428 76.5778 29.3218C76.0532 29.9017 74.8807 30.0364 74.1528 30.0627C74.0327 30.0668 73.9126 30.0692 73.7925 30.0699C67.621 30.5197 61.3639 31.5678 55.2318 32.4531C54.3634 32.5786 50.632 33.1629 50.0902 33.3857C49.9018 33.3353 49.5872 33.3866 49.4478 33.3186C48.8944 33.0486 48.8375 32.6024 49.1285 32.1188Z" fill="#3DB1F6"/>
<path d="M39.5621 34.1572C41.6495 33.6417 43.7452 33.1611 45.8486 32.7156C46.7116 32.5322 48.2986 32.1662 49.1286 32.1188C48.8375 32.6024 48.8944 33.0486 49.4479 33.3186C49.5872 33.3866 49.9018 33.3353 50.0903 33.3857L50.0674 33.4505C46.579 33.9617 43.4089 34.7218 39.9949 35.3426C39.5254 35.2109 39.3336 35.1812 39.2259 34.7019C39.296 34.4028 39.3376 34.372 39.5621 34.1572Z" fill="#BC88EE"/>
<path d="M30.187 36.7016C32.5197 35.8302 37.0488 34.765 39.5621 34.1572C39.3376 34.372 39.296 34.4028 39.2259 34.7019C39.3336 35.1812 39.5253 35.2109 39.9949 35.3426C38.9254 35.7246 38.4051 35.8901 37.2863 36.0726C35.9613 36.4539 34.5617 36.6491 33.2004 36.8932C32.5322 37.013 31.3555 37.3131 30.7404 37.3501C30.3518 37.1598 30.1337 37.1534 30.187 36.7016Z" fill="#D157D5"/>
<path d="M56.0546 29.7355C56.4893 29.6521 56.9815 29.5883 57.4217 29.5285C62.8708 28.7868 68.5203 28.1023 74.0264 28.1778C73.3301 28.5423 57.2199 29.9999 56.0546 29.7355Z" fill="#B4E5FD"/>
<path d="M24.5404 38.4286C25.1916 38.0612 29.3038 36.9067 30.187 36.7016C30.1337 37.1534 30.3518 37.1598 30.7404 37.3501C30.3952 37.4837 29.6625 37.7306 29.3774 37.874C28.849 38.0521 28.5496 38.1108 27.9903 38.1784C27.8647 38.459 27.8072 38.6887 27.5503 38.8289L27.2447 38.8622C26.9113 38.9253 26.629 38.9488 26.3449 39.1266L26.3781 39.2007C26.5566 39.2449 26.643 39.2737 26.8309 39.2776C26.1654 39.4546 25.4959 39.6162 24.823 39.7623L24.2991 39.2291C24.9284 38.953 25.7047 38.8721 26.3865 38.7748C25.8178 38.6348 25.1252 38.5312 24.5404 38.4286Z" fill="#FC8DAF"/>
<path d="M26.1047 38.691C27.1301 38.2215 28.247 37.9175 29.3774 37.874C28.849 38.0521 28.5496 38.1108 27.9903 38.1784C27.8646 38.459 27.8072 38.6887 27.5503 38.8289L27.2447 38.8622L26.1047 38.691Z" fill="#FE7776"/>
<path d="M23.5865 42.2779C24.7386 41.9087 26.5854 41.5532 27.7856 41.2918L34.1136 39.8848C47.2639 36.8339 60.5909 34.6027 74.018 33.204C77.2762 32.8849 80.544 32.6642 83.817 32.5422C85.0959 32.4945 90.0744 32.5819 90.8666 32.006C90.9972 31.5706 90.5348 31.6019 90.4442 31.176C90.6106 31.0073 90.9246 31.004 91.1816 30.9665C91.5082 30.6427 91.4629 30.7238 91.88 30.8366C91.9043 32.57 91.2142 32.1587 89.888 32.6733C89.6172 32.7783 89.8395 33.0652 89.4877 33.2454C89.1737 33.0487 89.297 32.7329 89.2117 32.7192C88.4911 32.604 85.7164 32.7922 85.1854 32.8174C79.9783 33.1093 74.7838 33.6091 69.616 34.3155C60.543 35.437 51.5183 36.921 42.5638 38.7638L28.7719 41.4916C27.2052 41.7968 25.0023 42.3684 23.497 42.5676L23.4692 42.5168L23.5865 42.2779Z" fill="#361E5E"/>
<path d="M18.4676 37.4253C19.3724 36.9274 22.3085 36.1135 23.4139 35.796C23.3877 36.0272 23.2815 36.8281 23.2914 37.0175L23.7528 37.2839L23.7804 37.5703C23.9666 38.0314 24.1339 38.1819 24.5404 38.4286C25.1252 38.5312 25.8178 38.6348 26.3865 38.7748C25.7047 38.8721 24.9284 38.953 24.2991 39.2291C24.0106 39.471 23.8355 39.6084 23.7457 39.999C23.7233 40.2714 23.7026 40.5325 23.6668 40.8042C23.6395 41.1394 23.615 41.4748 23.5932 41.8105L23.5864 42.2779L23.4692 42.5168L23.4168 42.3012L23.2097 42.2066L23.2033 41.7258C23.0097 41.6538 22.5904 41.8075 22.3034 41.848C21.6272 41.9433 21.0363 41.934 20.3548 41.8584C20.3715 41.605 20.4032 41.3072 20.3796 41.0586C19.3172 41.2895 18.1566 41.4248 17.0687 41.611C15.5719 41.8672 13.6661 42.517 12.19 42.4807C11.5685 42.5553 10.9003 42.6852 10.2799 42.7929L11.3488 42.2633C13.2245 40.9414 16.0832 40.5649 17.956 39.158C18.368 38.8485 19.5374 37.9871 19.7122 37.5492L19.5764 37.4557C19.2171 37.6005 17.7359 38.2323 17.4395 38.3093C16.8192 38.2852 16.6424 38.504 15.9833 38.4093C16.3386 38.2304 17.2033 37.7998 17.5676 37.7566C17.8842 37.6883 18.1682 37.5517 18.4676 37.4253Z" fill="#FEA438"/>
<path d="M18.4676 37.4253C19.3724 36.9274 22.3085 36.1135 23.4139 35.796C23.3876 36.0272 23.2815 36.8281 23.2914 37.0175C23.2229 37.3699 23.1961 37.6215 23.0148 37.9324C22.3418 37.7946 22.0262 37.6061 21.4054 37.3423C21.6551 37.572 21.9944 37.9023 22.2559 38.0983C21.6821 38.2998 21.1128 38.4852 20.5218 38.6311C20.0762 38.7411 20.0071 38.9439 19.5988 39.1429C17.6768 39.7179 15.9481 40.4672 14.0953 41.2123C13.5564 41.4291 11.846 42.1733 11.3488 42.2633C13.2245 40.9414 16.0832 40.5649 17.956 39.158C18.368 38.8485 19.5373 37.9871 19.7122 37.5492L19.5764 37.4557C19.2171 37.6005 17.7359 38.2323 17.4395 38.3093C16.8192 38.2852 16.6424 38.504 15.9833 38.4093C16.3386 38.2304 17.2032 37.7998 17.5676 37.7566C17.8842 37.6883 18.1682 37.5517 18.4676 37.4253Z" fill="#661D1C"/>
<path d="M18.4676 37.4253C19.0514 37.3797 20.1437 36.9581 20.7815 36.7961C20.5691 36.9124 19.6203 37.3594 19.5764 37.4557C19.2171 37.6005 17.7359 38.2323 17.4395 38.3093C16.8192 38.2853 16.6424 38.5041 15.9833 38.4093C16.3386 38.2304 17.2033 37.7998 17.5676 37.7566C17.8842 37.6883 18.1682 37.5517 18.4676 37.4253Z" fill="#361E5E"/>
<path d="M23.2914 37.0175L23.7528 37.2839L23.7804 37.5703C23.9666 38.0314 24.1339 38.1819 24.5404 38.4286C25.1252 38.5312 25.8178 38.6348 26.3865 38.7748C25.7047 38.8721 24.9284 38.953 24.2991 39.2291C24.0106 39.471 23.8355 39.6084 23.7457 39.999C23.7233 40.2714 23.7026 40.5325 23.6668 40.8042L23.2799 40.8092L23.2685 40.3221L23.2075 40.2374C22.953 40.1664 22.8398 40.246 22.5511 40.3186C22.288 40.1539 21.8142 39.773 21.5496 39.5735L22.5611 39.1984C22.0138 39.0703 21.2568 38.9591 20.689 38.8608C21.957 38.5302 22.1783 38.1969 23.0148 37.9324C23.1961 37.6215 23.2229 37.3699 23.2914 37.0175Z" fill="#F5F0FD"/>
<path d="M22.5612 39.1984C23.0786 39.4744 23.1989 39.7541 23.2685 40.3221L23.2075 40.2374C22.953 40.1664 22.8398 40.246 22.5511 40.3186C22.288 40.1539 21.8143 39.773 21.5497 39.5735L22.5612 39.1984Z" fill="#FFC070"/>
<path d="M22.5511 40.3186C22.8397 40.246 22.953 40.1664 23.2075 40.2374L23.2685 40.3221L23.2799 40.8092L23.6668 40.8042C23.6395 41.1394 23.615 41.4748 23.5932 41.8105L23.5864 42.2779L23.4692 42.5168L23.4168 42.3012L23.2097 42.2066L23.2033 41.7258C23.0097 41.6538 22.5904 41.8075 22.3033 41.848C21.6271 41.9433 21.0363 41.934 20.3548 41.8584C20.3714 41.605 20.4032 41.3072 20.3796 41.0586C19.3172 41.2895 18.1566 41.4248 17.0687 41.6111C15.5719 41.8672 13.6661 42.517 12.1899 42.4807C13.2695 42.1432 14.8652 41.8825 16.0038 41.6528L22.5511 40.3186Z" fill="#661D1C"/>
<path d="M23.2799 40.8092L23.6668 40.8042C23.6395 41.1394 23.615 41.4748 23.5932 41.8105L23.5864 42.2779L23.4692 42.5168L23.4168 42.3012C23.3811 41.803 23.3355 41.3056 23.2799 40.8092Z" fill="#FEA438"/>
<path d="M21.4054 37.3423C22.0262 37.6061 22.3418 37.7946 23.0149 37.9324C22.1783 38.1969 21.957 38.5302 20.689 38.8608C21.2568 38.9591 22.0138 39.0703 22.5611 39.1984L21.5496 39.5735C19.4051 40.3027 16.2867 41.0162 14.0083 41.654C15.4881 40.7302 18.7068 39.9731 19.5988 39.1429C20.0071 38.9439 20.0762 38.7411 20.5218 38.6311C21.1128 38.4852 21.6822 38.2998 22.256 38.0983C21.9944 37.9023 21.6551 37.572 21.4054 37.3423Z" fill="#FEE465"/>
<path d="M50.0902 33.3857C50.632 33.1629 54.3634 32.5786 55.2319 32.4531C61.3639 31.5678 67.621 30.5197 73.7925 30.0699L73.5976 30.1869C73.7483 30.4971 73.7915 30.6805 73.7967 31.026C68.7045 31.5412 63.6269 32.1869 58.5682 32.9626C55.5734 33.4266 52.5459 34.0299 49.5792 34.4798C49.9446 34.2342 51.0053 34.1051 51.4781 34.0271C51.364 33.7786 51.3291 33.6887 51.1598 33.4763C50.8847 33.3452 50.4081 33.443 50.0674 33.4505L50.0902 33.3857Z" fill="#359CF3"/>
<path d="M50.0674 33.4505C50.4081 33.443 50.8847 33.3452 51.1598 33.4763C51.3291 33.6887 51.3639 33.7786 51.4781 34.0271C51.0052 34.1051 49.9445 34.2342 49.5792 34.4798C46.968 34.9487 44.3417 35.5761 41.7121 36.0144C40.2861 36.252 38.8552 36.6867 37.4082 36.925C37.3625 36.7448 37.313 36.2788 37.2863 36.0726C38.4051 35.8901 38.9254 35.7246 39.9948 35.3426C43.4089 34.7218 46.579 33.9618 50.0674 33.4505Z" fill="#825AEE"/>
<path d="M76.8296 29.2341C80.3417 29.3274 83.3967 29.3792 86.9099 29.9364L87.2249 30.1408C84.4722 30.2328 81.7207 30.379 78.9733 30.5794C77.2762 30.7068 75.4654 30.9173 73.7967 31.026C73.7915 30.6805 73.7483 30.4971 73.5976 30.1869L73.7925 30.0699C73.9126 30.0692 74.0327 30.0668 74.1528 30.0627C74.8807 30.0364 76.0532 29.9017 76.5778 29.3218C76.6484 29.2428 76.6947 29.2605 76.8296 29.2341Z" fill="#825AEE"/>
<path d="M30.7404 37.3501C31.3555 37.3131 32.5322 37.013 33.2004 36.8932C34.5617 36.6491 35.9613 36.4539 37.2863 36.0726C37.313 36.2788 37.3625 36.7448 37.4083 36.925C35.5053 37.4008 33.578 37.751 31.6688 38.1978C31.4082 38.2588 31.037 38.339 30.7912 38.4323C29.4916 38.6423 28.1382 39.0192 26.8309 39.2776C26.643 39.2737 26.5566 39.2449 26.3781 39.2007L26.3449 39.1266C26.629 38.9488 26.9113 38.9253 27.2447 38.8622L27.5503 38.8289C27.8073 38.6887 27.8647 38.459 27.9903 38.1784C28.5496 38.1108 28.849 38.0521 29.3774 37.874C29.6625 37.7306 30.3952 37.4837 30.7404 37.3501Z" fill="#E84ABE"/>
<path d="M28.0555 35.9587C29.1849 35.7564 30.8261 35.016 31.7676 35.0753C29.1884 35.9057 26.3809 36.8615 23.7804 37.5703L23.7528 37.2839L23.2914 37.0176C23.2815 36.8282 23.3877 36.0272 23.4139 35.796L23.4451 35.7187L23.6178 35.8683C23.8377 35.8958 24.7711 35.5892 25.0194 35.5135C26.1345 35.5916 28.1924 35.0974 29.7681 35.0975C29.1993 35.4367 28.6268 35.5976 28.0555 35.9587Z" fill="#661D1C"/>
<path d="M23.4451 35.7187L23.6179 35.8683C23.647 36.3853 23.6795 36.7719 23.7528 37.2839L23.2914 37.0176C23.2815 36.8281 23.3877 36.0272 23.4139 35.796L23.4451 35.7187Z" fill="#FEE465"/>
<path d="M26.8309 39.2776C28.1382 39.0192 29.4916 38.6423 30.7912 38.4323C29.6979 39.2315 26.3811 39.0031 26.0187 40.1115C26.3364 40.4511 27.4539 40.2291 27.8805 40.1601C26.6287 40.8855 25.0416 41.6431 23.5932 41.8105C23.615 41.4748 23.6395 41.1394 23.6668 40.8042C23.7026 40.5326 23.7233 40.2714 23.7457 39.999C23.8355 39.6084 24.0105 39.471 24.2991 39.2291L24.823 39.7623C25.4959 39.6162 26.1653 39.4546 26.8309 39.2776Z" fill="#661D1C"/>
<path d="M23.7457 39.999C23.8355 39.6084 24.0106 39.471 24.2991 39.2291L24.823 39.7623C24.4893 39.8373 24.0755 39.9424 23.7457 39.999Z" fill="#FFC070"/>
<path d="M81.4868 28.5455C83.738 28.5081 86.7087 29.2846 88.7639 30.1602L87.2249 30.1408L86.9099 29.9364C86.0956 29.1989 82.5982 28.982 81.4868 28.5455Z" fill="#BC88EE"/>
<path d="M21.4066 4.00722C24.4563 3.41498 30.7375 2.93345 33.4354 4.78286C33.5263 4.84554 33.6138 4.91307 33.6973 4.98533C36.0172 6.49217 35.8566 9.23215 34.3906 11.337C31.3719 15.6713 26.1008 18.192 21.3063 20.0567C21.1483 20.1181 21.0365 20.2262 20.9704 20.3737C21.0195 20.5024 21.0537 20.6124 21.13 20.7277C21.498 21.4576 21.9491 22.0119 22.4116 22.6681C24.1092 25.0761 25.9368 26.5255 28.3562 28.1569C29.906 28.9998 31.3196 29.7879 33.0034 30.3581C34.7058 30.9345 36.433 31.249 38.163 31.7114C35.8831 32.1753 31.8732 33.1 29.7737 33.9816C26.9608 33.1827 22.7803 31.6069 20.845 29.2961C18.7345 27.6422 16.7674 24.391 15.7048 21.9311C14.2832 25.7122 12.2933 29.9388 12.2895 33.9991C12.1089 34.0007 11.9286 34.0097 11.7489 34.0261C8.77767 34.3093 7.29359 36.5943 5.61336 38.7088C5.45313 38.9104 5.35485 38.8978 5.1528 38.9052C4.97277 38.8065 4.84678 38.6974 4.79927 38.487C4.5062 37.1865 4.93474 35.0905 5.24287 33.8545C7.36954 25.3243 11.3699 17.4769 15.2643 9.65879C10.808 11.0683 5.70975 13.1539 2.99473 17.1192C2.74823 16.6342 2.56209 16.1372 2.46306 15.6005C2.18612 14.1002 2.60538 12.5887 3.47426 11.3524C6.17769 7.50568 16.6798 4.82173 21.4066 4.00722Z" fill="#E84ABE"/>
<path d="M28.3562 28.1569C29.906 28.9998 31.3196 29.7879 33.0034 30.3581C34.7058 30.9345 36.433 31.249 38.163 31.7114C35.8831 32.1753 31.8732 33.1 29.7737 33.9816C26.9608 33.1827 22.7803 31.6069 20.845 29.2961C21.2223 29.397 22.9958 30.875 23.5837 31.2699C23.7969 31.2142 24.4654 31.0525 24.6311 30.9776C23.7747 30.3193 22.5398 29.8975 21.6936 28.9356C22.6627 29.441 23.8175 30.233 24.7549 30.8456C24.8646 30.9101 25.0873 31.0376 25.2167 31.001C26.6198 30.604 27.4584 30.4005 28.3645 29.2272C28.1459 29.0941 27.9009 28.9124 27.6881 28.7634C27.9432 28.7727 28.0928 28.8017 28.3257 28.699C28.4494 28.45 28.4008 28.4916 28.3562 28.1569Z" fill="#825AEE"/>
<path d="M33.7287 31.5389C33.097 31.3572 31.1129 30.7153 30.7159 30.267L30.7639 30.1884C31.3663 30.1523 32.9204 30.8324 33.5843 31.0685L33.7872 31.334C33.7727 31.3915 33.753 31.4906 33.7287 31.5389Z" fill="#CAD7FA"/>
<path d="M33.5843 31.0685C34.1214 31.1719 35.0272 31.5661 35.5539 31.786C34.8804 31.7208 34.3934 31.6641 33.7287 31.539C33.753 31.4906 33.7727 31.3915 33.7872 31.334L33.5843 31.0685Z" fill="#BC88EE"/>
<path d="M21.4066 4.00722C24.4563 3.41498 30.7375 2.93345 33.4354 4.78286C33.5264 4.84554 33.6138 4.91307 33.6973 4.98533C33.3582 4.99502 32.9304 4.75916 32.6074 4.61221C33.3006 5.07214 34.1291 5.65416 34.5406 6.39462L34.5411 6.55148C34.1564 6.69327 33.7694 6.26389 33.538 5.98778C32.1076 5.15767 30.7521 4.84754 29.1253 4.7186C22.5792 4.19978 8.71375 7.65242 3.80411 11.9924C4.20441 11.4786 5.19823 10.1902 5.70019 9.83587C9.72241 6.99623 16.3919 5.09995 21.1743 4.3125L21.4066 4.00722Z" fill="#F4C1F0"/>
<path d="M21.4066 4.00722C24.4563 3.41498 30.7375 2.93345 33.4354 4.78286C33.5263 4.84554 33.6138 4.91307 33.6973 4.98533C33.3582 4.99502 32.9304 4.75916 32.6074 4.61221C33.3006 5.07214 34.1291 5.65416 34.5406 6.39462L34.5411 6.55147C34.1564 6.69327 33.7694 6.26389 33.538 5.98778C33.9047 6.14811 34.1903 6.33036 34.5315 6.53704C31.1453 2.74858 25.6599 3.68023 21.1743 4.3125L21.4066 4.00722Z" fill="#FC8DAF"/>
<path d="M27.6881 28.7634C27.6244 28.7254 27.5613 28.6866 27.4988 28.6466C25.7833 27.5544 24.8803 26.5771 23.5795 25.0623C23.2899 24.7251 22.7264 24.2951 22.4146 23.9425C22.258 23.8532 22.3293 23.5444 22.2978 23.5069C21.946 23.0881 20.4631 21.2235 20.8261 20.6857L21.13 20.7277C21.498 21.4576 21.9491 22.0119 22.4117 22.6681C24.1092 25.0761 25.9368 26.5256 28.3562 28.1569C28.4008 28.4916 28.4494 28.45 28.3257 28.699C28.0928 28.8017 27.9432 28.7727 27.6881 28.7634Z" fill="#D157D5"/>
<path d="M20.2994 8.29333C21.7838 7.999 32.2948 6.08859 29.0436 10.5055C26.8457 13.4917 21.1117 15.775 17.7366 16.9448C18.3659 15.5284 19.0405 14.1326 19.7593 12.7595C20.1556 11.9897 21.6888 9.54681 21.151 8.84364C20.8658 8.66224 20.5819 8.47884 20.2994 8.29333Z" fill="#1A0C23"/>
<path d="M25.4652 9.79079C25.969 9.70051 27.1974 9.80796 27.7105 9.85484C26.4269 11.2127 24.8195 12.152 23.2143 13.0661C22.6283 13.4223 22.0418 13.6971 21.4264 13.9975C22.2448 12.4871 22.5947 11.7511 23.0307 10.1086C23.9148 9.96766 24.5701 9.85368 25.4652 9.79079Z" fill="#361E5E"/>
<path d="M25.1451 10.5769C25.2082 10.5725 25.2671 10.6009 25.3352 10.6218C25.1995 10.9849 23.8869 11.7776 23.4788 12.049L23.3202 12.0423L23.2455 11.9335C23.2576 11.5878 23.4592 11.1529 23.5905 10.8195C24.1166 10.7132 24.6148 10.6485 25.1451 10.5769Z" fill="#1A0C23"/>
<path d="M15.5061 10.0434C15.7264 10.2144 16.0088 10.3053 16.2719 10.4107C15.94 11.2719 15.5365 12.1119 15.1247 12.9368C12.19 18.8157 9.36928 24.8303 7.24556 31.0549C6.78584 32.4026 6.41176 33.814 5.96311 35.1797C5.88663 35.3958 5.79076 35.6191 5.70364 35.8323C6.38669 28.0572 11.9096 17.0402 15.5061 10.0434Z" fill="#F4C1F0"/>
<path d="M29.7664 9.64246C30.0983 10.0649 29.948 10.8023 29.6575 11.2097C27.1448 14.7313 21.9587 16.9773 17.9433 18.0106L17.8828 17.9283C18.5468 17.186 20.357 16.4778 21.2711 16.0297C24.0762 14.6543 28.3621 12.5716 29.7664 9.64246Z" fill="#F4C1F0"/>
<path d="M18.1926 8.79435C18.831 8.58703 19.6391 8.40321 20.2994 8.29333C20.5819 8.47884 20.8658 8.66225 21.151 8.84365L18.1926 8.79435Z" fill="#E22B80"/>
<path d="M65.9553 2.79293C67.0027 2.57023 67.8209 2.52725 68.8431 2.8574C69.3689 3.03838 70.5269 3.46481 70.0682 4.22865C69.3307 5.45622 68.4174 7.47323 67.559 8.55595C66.8161 9.99653 66.0144 11.4424 65.2304 12.8632C64.6684 13.8818 63.8527 15.9106 63.2937 16.768C62.7809 17.9629 60.9385 21.4807 61.0986 22.4961C61.6028 23.1874 63.6885 21.4008 64.3229 21.056C64.8049 18.884 66.2054 16.6497 67.9102 15.2286C68.5225 14.4591 69.9615 13.4617 70.8471 13.0346C72.0828 12.217 74.3877 11.4461 75.8414 11.637C76.7853 11.761 77.2046 12.0535 77.764 12.7615L77.9894 12.7677C79.0997 12.678 81.0264 13.4155 80.7294 14.7868C80.2806 16.8671 77.2172 19.9529 78.2928 22.2165C79.0723 23.5494 82.6593 20.4522 83.3861 20.0422C83.5779 19.8208 83.8012 19.6781 84.0382 19.5095C84.2931 19.4422 84.1741 19.4317 84.4069 19.5261C84.7841 20.3555 83.146 22.1546 82.5834 22.7767C80.4734 25.1121 74.9882 27.6792 74.0085 22.8523C73.9316 22.3666 73.9442 22.0496 73.9505 21.5638C72.2756 23.6297 67.8214 27.4919 65.1864 25.08C64.6976 24.6326 64.4095 23.9829 64.1488 23.3862C62.2517 25.355 58.045 27.9497 56.3646 24.4429C55.6082 22.8647 57.7731 18.4461 58.4806 16.9603C58.6082 16.5127 59.4239 14.8078 59.663 14.3324C60.5998 12.4705 61.6047 10.2409 62.7195 8.48948C63.4377 6.7529 64.9893 4.57997 65.9553 2.79293Z" fill="url(#paint1_linear_101_46494)"/>
<path d="M65.9553 2.79293C67.0027 2.57023 67.8209 2.52725 68.843 2.8574C69.3689 3.03838 70.5269 3.46481 70.0682 4.22865C69.3307 5.45622 68.4174 7.47323 67.559 8.55595C66.8161 9.99653 66.0144 11.4424 65.2304 12.8632C64.6684 13.8818 63.8527 15.9106 63.2937 16.768C63.0598 16.9037 63.0189 16.9835 62.8848 17.2169L62.8127 17.2197C62.1335 17.2534 59.8142 17.9431 59.4419 17.8107L59.4304 17.4113C58.6188 19.1554 57.9783 20.6654 56.9178 22.2795C57.1685 21.0772 57.3869 20.3787 57.8975 19.2495C58.0168 18.9857 58.5011 17.8986 58.5648 17.6655L58.4394 17.7359C58.3143 18.0218 58.2779 18.0893 58.094 18.3409C58.2159 17.9097 58.5888 17.2359 58.4806 16.9603C58.6082 16.5127 59.4239 14.8078 59.663 14.3324C60.5998 12.4705 61.6047 10.2409 62.7195 8.48948C63.4377 6.7529 64.9893 4.57997 65.9553 2.79293Z" fill="#F4C1F0"/>
<path d="M65.9553 2.79293C67.0027 2.57023 67.8209 2.52725 68.843 2.8574C69.0765 3.26887 69.1627 3.26634 69.1672 3.67181C69.0545 3.82329 68.9937 3.88313 68.7962 3.8964C68.0335 3.94728 67.2477 3.6618 66.6243 4.29249C65.6223 5.30611 62.9059 9.87075 62.5197 11.1858L61.7102 12.7346C61.0055 14.031 60.4192 15.396 59.756 16.7142C59.6417 16.9412 59.5168 17.1728 59.4304 17.4113C58.6188 19.1554 57.9783 20.6654 56.9178 22.2795C57.1685 21.0772 57.3869 20.3787 57.8975 19.2495C58.0168 18.9857 58.5011 17.8986 58.5648 17.6655L58.4394 17.7359C58.3143 18.0218 58.2779 18.0893 58.094 18.3409C58.2159 17.9097 58.5888 17.2359 58.4806 16.9603C58.6082 16.5127 59.4239 14.8078 59.663 14.3324C60.5998 12.4705 61.6047 10.2409 62.7195 8.48948C63.4377 6.7529 64.9893 4.57997 65.9553 2.79293Z" fill="#F5F0FD"/>
<path d="M58.4806 16.9603C58.6082 16.5126 59.4239 14.8078 59.663 14.3324C60.5998 12.4705 61.6047 10.2409 62.7196 8.48948C62.6109 9.48708 61.3759 11.6374 60.8846 12.6691C60.093 14.326 59.3197 15.9915 58.5648 17.6655L58.4394 17.7359C58.3143 18.0218 58.278 18.0893 58.094 18.3409C58.2159 17.9097 58.5888 17.2359 58.4806 16.9603Z" fill="#BC88EE"/>
<path d="M64.1606 12.5734C64.5164 12.0003 65.851 9.27566 66.3344 9.14904C66.3366 9.46096 66.3282 9.53912 66.4934 9.76056C67.08 9.67986 66.8224 9.01704 67.559 8.55595C66.8162 9.99653 66.0144 11.4424 65.2304 12.8632C64.6684 13.8818 63.8527 15.9106 63.2937 16.768C63.0598 16.9037 63.0189 16.9835 62.8848 17.2169L62.8127 17.2197C62.1335 17.2534 59.8142 17.9431 59.4419 17.8107L59.4304 17.4113C59.5168 17.1728 59.6417 16.9412 59.756 16.7142C60.4193 15.396 61.0055 14.031 61.7103 12.7346C62.2312 12.5724 62.6604 12.8201 63.1239 12.5507C63.389 12.6205 63.8651 12.583 64.1606 12.5734Z" fill="url(#paint2_linear_101_46494)"/>
<path d="M62.5197 11.1858C62.4669 11.548 62.3325 11.8569 62.416 12.1707C62.5963 12.4053 62.8043 12.4409 63.0813 12.5357L63.1239 12.5507C62.6604 12.8201 62.2312 12.5724 61.7103 12.7346L62.5197 11.1858Z" fill="#BC88EE"/>
<path d="M84.0382 19.5095C84.2932 19.4421 84.1741 19.4317 84.4069 19.5261C84.7841 20.3555 83.146 22.1546 82.5834 22.7767C80.4734 25.1121 74.9882 27.6792 74.0085 22.8523C75.0208 23.2045 75.8372 24.3942 77.4185 24.2881C77.4574 24.0955 77.666 23.8982 77.8293 23.7967C78.0347 23.3435 77.5954 22.5856 77.6702 22.3559L77.824 22.5106C79.6149 23.1455 82.5603 21.5655 83.3862 20.0422C83.5779 19.8208 83.8012 19.6781 84.0382 19.5095Z" fill="#359CF3"/>
<path d="M84.0382 19.5095C83.8623 20.4259 81.4689 22.4832 80.6262 22.9716C79.4189 23.4564 78.6057 23.8319 77.824 22.5106C79.6149 23.1455 82.5603 21.5655 83.3862 20.0422C83.5779 19.8208 83.8012 19.6781 84.0382 19.5095Z" fill="#CAD7FA"/>
<path d="M77.4185 24.2881C77.4574 24.0955 77.666 23.8982 77.8293 23.7967C78.0347 23.3435 77.5954 22.5856 77.6702 22.3559L77.824 22.5106C78.6057 23.8319 79.4189 23.4564 80.6262 22.9716C79.8466 23.9831 78.6394 24.2621 77.4185 24.2881Z" fill="#3DB1F6"/>
<path d="M70.8471 13.0346C72.0828 12.217 74.3877 11.446 75.8415 11.637C76.7853 11.761 77.2046 12.0535 77.764 12.7615L77.5385 12.9625C77.4785 12.9466 77.4121 12.9389 77.3742 12.9052C74.7891 12.3023 73.1057 12.8997 70.8598 14.211C70.6417 14.3387 69.8076 14.9207 69.6451 15.0805C68.2661 16.0884 67.0456 17.3636 66.081 18.7789C65.748 19.2673 65.2072 20.8685 64.8661 20.9897C64.715 21.0072 64.4631 21.0278 64.3229 21.056C64.8049 18.884 66.2054 16.6497 67.9102 15.2286C68.5225 14.4591 69.9615 13.4617 70.8471 13.0346Z" fill="#F5F0FD"/>
<path d="M67.9102 15.2286C67.3983 16.4338 64.6942 19.3537 64.8661 20.9898C64.715 21.0072 64.4631 21.0278 64.3229 21.056C64.8049 18.884 66.2054 16.6497 67.9102 15.2286Z" fill="#BC88EE"/>
<path d="M70.8471 13.0346C72.0828 12.217 74.3877 11.446 75.8414 11.637C76.7853 11.761 77.2046 12.0535 77.764 12.7615L77.5385 12.9625C77.4785 12.9466 77.4121 12.9389 77.3742 12.9052C75.9394 11.2181 73.8083 12.0525 72.028 12.6595C71.6582 12.7854 71.2316 12.9907 70.8471 13.0346Z" fill="#BC88EE"/>
<path d="M69.6451 15.0805C69.8076 14.9207 70.6417 14.3387 70.8597 14.211C73.1057 12.8997 74.789 12.3023 77.3742 12.9052C77.4121 12.9389 77.4785 12.9466 77.5385 12.9625L77.764 12.7615L77.9894 12.7677L77.9862 12.8678C77.8661 13.2136 77.863 13.0787 77.9588 13.3903L77.9852 13.5991C77.3984 13.9661 69.9746 15.6342 69.4932 15.4212C69.5669 15.2873 69.6184 15.2268 69.6451 15.0805Z" fill="#BC88EE"/>
<path d="M77.9863 12.8678C78.6499 13.0002 79.4526 13.1664 79.9014 13.7407L79.9088 13.8926C79.5453 14.0628 78.3476 13.574 77.9589 13.3903C77.863 13.0787 77.8662 13.2136 77.9863 12.8678Z" fill="#F5F0FD"/>
<path d="M75.2758 14.8243C75.3474 14.8177 75.4191 14.8124 75.4907 14.8083C75.7804 14.7943 75.9121 14.768 76.0912 14.9255C76.0869 15.43 75.477 16.1825 75.1715 16.5905C73.6093 18.6775 71.673 20.98 69.3767 22.2822C69.0023 22.3891 68.807 22.38 68.5527 22.0922C68.2573 21.019 69.7069 19.0608 70.3963 18.2288C71.7426 16.6026 73.2279 15.4236 75.2758 14.8243Z" fill="#1A0C23"/>
<path d="M76.1691 15.5745C76.4282 15.6484 76.4367 15.7033 76.5283 15.9202C76.4798 17.2901 73.349 20.3554 72.3262 21.3758C71.4139 22.2853 70.371 23.0885 69.0846 23.3251C68.8156 23.1168 68.812 23.1851 68.7464 22.9259C68.8546 22.7517 70.0807 22.2326 70.5501 21.9044C73.1162 20.11 74.3646 17.8554 76.1691 15.5745Z" fill="#CAD7FA"/>
<path d="M63.7389 21.935C63.898 22.9807 61.6941 23.6307 60.7816 23.4918C60.6958 23.2622 60.6895 23.1943 60.6524 22.9488L60.7255 22.8712L61.2503 22.8918C62.2809 22.9377 62.8802 22.4596 63.7389 21.935Z" fill="#CAD7FA"/>
<path d="M38.0783 22.7036C36.4237 24.7141 34.0128 27.1516 31.2043 27.0385C29.32 27.023 28.151 25.0079 28.426 23.2314C29.2205 18.0997 34.8873 12.6229 40.1973 12.6548C40.9126 12.659 41.4334 13.1009 41.8568 13.6172C48.7424 13.6082 41.7173 19.5297 42.238 22.944L42.2944 22.9811C43.6002 22.9771 46.2725 21.1518 46.9844 20.0338C47.3594 19.4447 47.8928 18.0066 48.184 17.31L48.3612 17.6485C47.8663 18.7635 47.4726 19.7756 47.0634 20.9192C46.9829 21.1441 46.5385 22.3869 46.4577 22.5339C46.153 22.7024 46.0048 22.8111 45.8476 23.1382C44.3463 24.7783 40.6028 27.747 38.4899 25.5009C37.875 24.8473 37.978 23.5349 38.0783 22.7036Z" fill="#D157D5"/>
<path d="M45.4791 22.0827C44.9865 22.7381 44.5313 23.2445 43.7653 23.5756C43.2633 23.7925 42.1709 24.0638 41.9332 23.3898C42.0039 23.1318 42.0265 23.1263 42.238 22.944L42.2944 22.9811C42.3548 23.0683 42.4061 23.1066 42.4849 23.182C43.2428 23.3414 44.7351 22.4604 45.4791 22.0827Z" fill="#F4C1F0"/>
<path d="M39.3777 15.8505L40.4685 15.8334C38.8617 18.7945 36.6002 21.6151 33.7545 23.4635C33.3762 23.6077 33.1499 23.6286 32.8586 23.3508C32.5358 22.2846 34.0464 20.1771 34.7272 19.3303C36.0064 17.7391 37.4307 16.5283 39.3777 15.8505Z" fill="#1A0C23"/>
<path d="M38.7004 12.9296C40.1293 12.8051 40.4876 12.8728 41.4621 13.9435C37.4965 12.8879 33.5335 16.2965 31.0793 19.0495C30.6725 19.4816 30.0313 20.4141 29.6361 20.9331C29.8314 20.3974 30.066 19.8768 30.338 19.3757C32.2093 15.959 35.028 14.0029 38.7004 12.9296Z" fill="#F4C1F0"/>
<path d="M40.324 16.6065C40.4639 16.7049 40.7322 17.0101 40.8613 17.1483L40.773 17.3045C39.3535 19.7984 36.547 23.6287 33.6637 24.419C33.4625 24.3483 33.2662 24.2634 33.1915 24.0663C33.8091 23.6279 34.8032 23.1119 35.3235 22.6768C37.3089 21.0161 39.0669 18.8463 40.324 16.6065Z" fill="#F4C1F0"/>
<path d="M41.9823 13.8527C42.4195 13.8395 42.8858 13.8583 43.3252 13.8682C43.615 14.1503 43.8352 14.342 43.9556 14.7288C43.383 14.5858 42.4285 14.6544 42.0768 14.4583C41.8978 14.1858 41.9555 14.2444 41.9823 13.8527Z" fill="#F4C1F0"/>
<path d="M50.0179 12.7131C50.3155 12.4243 50.7896 10.9569 51.0085 10.4777C52.3882 7.46227 54.1836 4.04651 57.4006 2.66641C59.2296 1.88181 62.4933 1.36025 63.4773 3.63946C63.4434 4.14301 63.4178 4.38498 63.2122 4.84343C62.8755 5.59516 61.7794 7.01056 60.8236 6.47974C60.6541 6.19015 60.8368 5.59359 60.7538 5.49667C59.3839 3.89661 56.798 8.73988 56.3884 9.44094C56.1034 9.99115 55.0591 11.858 55.1906 12.3525C55.287 12.3856 55.3235 12.4097 55.4206 12.4139C56.4816 12.299 57.5116 12.4006 58.5421 12.3355C58.7674 12.289 58.906 12.2303 59.1046 12.3204C59.2079 12.7958 58.6103 13.8172 58.357 14.2493C57.4833 15.7391 55.166 15.441 53.6979 15.426C52.9262 17.2732 52.1789 19.1304 51.456 20.9973C51.2095 21.6442 50.5348 23.6142 50.265 24.1329C49.8365 25.6122 49.2155 27.254 48.6715 28.6976C47.053 29.0084 44.8655 29.3201 43.413 30.0111C43.5847 29.547 43.9045 28.7567 44.0349 28.3073C44.5278 26.9462 45.5971 24.4385 45.8476 23.1382C46.0048 22.8111 46.153 22.7024 46.4577 22.5339C46.5385 22.3869 46.9829 21.1441 47.0634 20.9192C47.4725 19.7756 47.8663 18.7635 48.3612 17.6485L48.184 17.31C48.2926 16.9466 48.7275 15.9844 48.8946 15.5905C48.303 15.6521 46.1217 15.971 45.6874 15.6632C45.3952 14.9947 46.5689 13.2384 47.05 12.7783C48.0175 12.7428 49.0645 12.6568 50.0179 12.7131Z" fill="#BC88EE"/>
<path d="M50.0179 12.7131C50.3155 12.4243 50.7896 10.9569 51.0085 10.4777C52.3882 7.46227 54.1836 4.04651 57.4007 2.66641C59.2296 1.88181 62.4933 1.36025 63.4773 3.63946C63.4434 4.14301 63.4178 4.38498 63.2123 4.84343C62.8755 5.59516 61.7794 7.01056 60.8236 6.47974C60.6541 6.19015 60.8369 5.59359 60.7539 5.49667C59.384 3.89661 56.798 8.73988 56.3884 9.44094C56.0906 9.18474 55.6957 9.32011 55.3132 9.36267C54.5484 9.52627 53.4721 9.60591 52.672 9.70641C52.26 10.9378 51.6395 12.0863 51.215 13.3927C51.2023 13.1939 51.1852 13.0593 51.1531 12.8627L50.9988 12.8094C50.5986 13.138 49.7514 12.9576 49.178 12.9134C49.3914 12.79 49.761 12.7557 50.0179 12.7131Z" fill="url(#paint3_linear_101_46494)"/>
<path d="M52.672 9.70641C52.7376 9.50542 52.7314 9.51521 52.8827 9.36752C53.6274 9.12449 54.5216 9.29926 55.3132 9.36268C54.5484 9.52627 53.4721 9.60591 52.672 9.70641Z" fill="#F4C1F0"/>
<path d="M48.3612 17.6485C48.5508 17.0975 48.7389 16.2515 49.4502 16.2211C49.9295 16.5457 48.9133 18.3026 48.6831 18.8786C47.4422 21.9841 46.2507 25.109 45.1086 28.2521C44.9682 28.5233 44.856 28.7964 44.613 28.98L44.4697 28.9599L44.3669 28.7385C44.2883 28.6105 44.1329 28.4296 44.0349 28.3073C44.5278 26.9462 45.5971 24.4385 45.8476 23.1382C46.0048 22.8111 46.153 22.7024 46.4577 22.5339C46.5385 22.3869 46.9829 21.1441 47.0634 20.9192C47.4726 19.7756 47.8663 18.7635 48.3612 17.6485Z" fill="#F4C1F0"/>
<path d="M45.8476 23.1382C46.0048 22.8111 46.153 22.7024 46.4577 22.5339C45.9258 24.135 44.9821 27.3107 44.3669 28.7385C44.2883 28.6105 44.1329 28.4296 44.0349 28.3073C44.5278 26.9462 45.5971 24.4385 45.8476 23.1382Z" fill="#BC88EE"/>
<path d="M50.265 24.1329C49.8365 25.6122 49.2155 27.254 48.6715 28.6976C47.053 29.0084 44.8655 29.3201 43.413 30.0111C43.5847 29.547 43.9045 28.7567 44.0349 28.3073C44.1328 28.4296 44.2883 28.6105 44.3669 28.7385L44.4697 28.9599L44.613 28.9801C44.856 28.7964 44.9682 28.5233 45.1086 28.2521C45.254 28.7892 45.6048 28.5276 45.9791 28.4112C47.029 28.0847 47.7357 27.5358 48.6092 26.8914C48.6589 27.0556 48.6908 27.131 48.7572 27.2854L48.9034 27.3072C49.4544 26.928 49.5528 24.8822 50.265 24.1329Z" fill="#825AEE"/>
<path d="M55.4206 12.4139C56.4816 12.299 57.5116 12.4006 58.5422 12.3355L58.7105 12.4235C58.6264 12.6501 58.6005 12.6079 58.3589 12.7797C57.7891 13.092 55.2424 13.6616 54.8381 13.0822L54.9047 12.7795C55.0922 12.4198 54.9649 12.5591 55.4206 12.4139Z" fill="#F5F0FD"/>
<path d="M55.4206 12.4139C56.4817 12.299 57.5116 12.4006 58.5422 12.3355L58.7105 12.4235C58.6264 12.6501 58.6005 12.6079 58.3589 12.7797C57.831 12.4741 55.6351 12.7175 54.9047 12.7795C55.0922 12.4198 54.9649 12.5591 55.4206 12.4139Z" fill="#F4C1F0"/>
<path d="M49.178 12.9134C49.7514 12.9576 50.5986 13.138 50.9988 12.8094L51.1531 12.8627C51.1852 13.0593 51.2023 13.1939 51.215 13.3927C50.5822 13.6834 47.7392 13.7456 46.9308 13.7765C47.6302 12.789 48.0361 12.9555 49.178 12.9134Z" fill="#F4C1F0"/>
<path d="M56.0818 17.6139C56.1142 17.6158 56.2624 17.6655 56.2997 17.677C56.4715 18.0566 55.6864 19.6277 55.496 20.1492C54.8722 21.8577 54.1994 24.3973 54.9799 26.1172C55.4872 27.2351 56.5535 27.6649 57.6145 28.0574C56.204 28.3757 54.746 28.5847 53.3163 28.8184L50.6142 29.2764C51.988 25.3753 53.4451 21.5041 54.9845 17.6654L56.0818 17.6139Z" fill="#361E5E"/>
<path d="M53.9657 22.14C54.2505 22.5058 53.1785 25.3693 55.1657 27.7328L52.9283 28.0916C52.6279 28.1238 52.0436 28.2534 51.7258 28.3132C52.5009 26.3069 53.2218 24.1734 53.9657 22.14Z" fill="#110B15"/>
<path d="M37.1906 26.8144C37.4241 26.8532 38.2072 27.8926 38.5701 28.0944C39.7542 28.7532 41.2118 28.4445 42.4296 28.1943C42.1945 28.9478 41.928 29.7185 41.6789 30.4697C40.7759 30.4691 40.0459 30.4332 39.1436 30.3686C37.2284 30.1505 35.3483 29.6925 33.5474 29.0053C35.1379 28.3306 35.8023 27.8576 37.1906 26.8144Z" fill="#361E5E"/>
<path d="M37.0367 27.9331C37.7042 28.3425 38.5444 29.013 39.2994 29.1932C39.7441 29.2992 40.742 29.0526 41.2058 29.2523C41.3109 29.4616 41.2945 29.3674 41.2173 29.6378C40.8664 29.9567 40.2635 29.851 39.7752 29.8289C38.1862 29.6438 36.9937 29.499 35.4882 28.9718L37.0367 27.9331Z" fill="#110B15"/>
<path d="M27.8738 19.4626C28.1889 19.5513 27.4617 20.9911 27.3441 21.2952C26.7703 22.7801 26.7794 23.9895 27.0228 25.5172C26.3973 24.9946 26.0178 24.6318 25.4434 24.0464C24.7615 23.4077 24.0433 22.3524 23.4808 21.57C24.99 20.9654 26.4576 20.2613 27.8738 19.4626Z" fill="#361E5E"/>
<path d="M26.5045 21.0528L26.6098 21.07C26.6587 21.2329 26.1985 23.3848 26.1718 23.8923L25.6143 23.3797C24.2617 21.8851 25.0499 21.6558 26.5045 21.0528Z" fill="#110B15"/>
<path d="M59.8951 7.81866C60.1381 7.99911 60.6158 8.27174 60.8904 8.43892C60.5944 9.05623 59.9273 10.5432 59.5153 10.9656L59.3703 10.9612L58.0612 10.9039C58.7032 9.59843 59.0557 9.01157 59.8951 7.81866Z" fill="#361E5E"/>
<path d="M72.9456 25.4033C73.1194 25.5697 73.7599 26.4889 73.9379 26.7382C73.4554 26.8103 73.0098 26.8125 72.5242 26.8251L71.2169 26.8338C71.8837 26.4114 72.3925 25.9556 72.9456 25.4033Z" fill="#361E5E"/>
<path d="M63.6824 26.6586C63.9256 26.6468 64.2799 27.0894 64.4573 27.2715L63.4578 27.3875C63.1624 27.4347 62.7815 27.4484 62.4749 27.4681L63.6824 26.6586Z" fill="#361E5E"/>
<path d="M91.6725 24.186L92.1887 24.254C92.3056 25.2351 92.925 25.7641 93.8657 25.9024C94.0227 26.0326 94.1196 26.0807 94.166 26.277C92.5626 26.5173 92.4162 26.7493 92.0338 28.3281C92.0317 28.7636 92.0717 29.511 91.8821 29.8788L91.7989 29.8944L91.6683 30.1349C91.2648 30.1505 90.1861 28.9342 89.4445 28.6873L89.3296 28.1549C89.1126 27.4506 88.9725 26.9873 88.9314 26.2519L87.5378 26.2767C87.9623 26.1807 88.2615 26.118 88.6923 26.0648C90.2693 25.9348 91.3449 25.9984 91.6725 24.186Z" fill="#1A0C23"/>
<path d="M91.6725 24.186L92.1887 24.254C92.3056 25.2351 92.925 25.7641 93.8657 25.9024C94.0227 26.0326 94.1196 26.0807 94.166 26.277C92.5626 26.5173 92.4162 26.7493 92.0338 28.3281L91.7336 28.516C91.4839 26.3588 90.6886 26.2686 88.6554 26.1577L88.6923 26.0648C90.2693 25.9348 91.3448 25.9984 91.6725 24.186Z" fill="#F5F0FD"/>
<path d="M89.3297 28.1549C89.8079 28.6163 91.2058 29.3018 91.7673 29.4028L91.7989 29.8944L91.6683 30.1349C91.2648 30.1505 90.1861 28.9342 89.4445 28.6873L89.3297 28.1549Z" fill="#110B15"/>
<path d="M92.0338 28.3281C92.0317 28.7636 92.0717 29.511 91.8821 29.8788L91.7989 29.8944L91.7673 29.4028C91.7262 29.0479 91.7262 28.8729 91.7336 28.516L92.0338 28.3281Z" fill="#359CF3"/>
<path d="M23.497 42.5676C23.5061 42.8804 23.5615 42.88 23.4154 43.0704C23.3187 42.6347 23.2639 42.6287 22.8622 42.7013C21.9703 42.8623 17.0097 44.0257 16.5256 43.8679C16.9537 43.6815 17.7561 43.5657 18.2411 43.437C19.8871 42.9999 21.5707 42.6637 23.2097 42.2066L23.4168 42.3012L23.4692 42.5168L23.497 42.5676Z" fill="#361E5E" fill-opacity="0.980392"/>
<path d="M15.9833 38.4093C16.6424 38.504 16.8192 38.2852 17.4396 38.3093C16.191 38.7331 14.8685 39.2119 13.5884 39.5005C14.4288 39.086 15.1163 38.7571 15.9833 38.4093Z" fill="#661D1C"/>
<path d="M91.9253 21.9985C92.0422 22.6127 92.157 23.6222 92.1886 24.254L91.6725 24.186C91.7399 23.3485 91.7789 22.815 91.9253 21.9985Z" fill="#B4E5FD" fill-opacity="0.984314"/>
<path d="M93.8657 25.9024C94.5863 25.9749 95.2889 26.0324 96 26.1737C95.5386 26.2021 94.5842 26.288 94.1659 26.277C94.1196 26.0807 94.0227 26.0326 93.8657 25.9024Z" fill="#3DB1F6" fill-opacity="0.980392"/>
<defs>
<linearGradient id="paint0_linear_101_46494" x1="54.9094" y1="29.8814" x2="55.3963" y2="35.5493" gradientUnits="userSpaceOnUse">
<stop stop-color="#B7E5FE"/>
<stop offset="1" stop-color="#FFC7E3"/>
</linearGradient>
<linearGradient id="paint1_linear_101_46494" x1="69.977" y1="25.8205" x2="67.6734" y2="15.8518" gradientUnits="userSpaceOnUse">
<stop stop-color="#42A2F7"/>
<stop offset="1" stop-color="#B49AF3"/>
</linearGradient>
<linearGradient id="paint2_linear_101_46494" x1="61.9748" y1="10.9492" x2="63.9963" y2="16.7946" gradientUnits="userSpaceOnUse">
<stop stop-color="#EB91EE"/>
<stop offset="1" stop-color="#B69BF3"/>
</linearGradient>
<linearGradient id="paint3_linear_101_46494" x1="57.4436" y1="9.6154" x2="54.6928" y2="4.12719" gradientUnits="userSpaceOnUse">
<stop stop-color="#F5AEF3"/>
<stop offset="1" stop-color="#FEF5FD"/>
</linearGradient>
</defs>
</svg>
