<svg width="94" height="150" viewBox="0 0 94 150" fill="none" xmlns="http://www.w3.org/2000/svg">
<path d="M48.0801 55.4875C48.3147 55.7762 48.4383 55.9577 48.7307 56.1832C48.9779 56.2669 49.2276 56.3323 49.4434 56.4744L49.9891 56.6812L50.7869 56.6518L51.1484 56.704C51.6441 56.711 52.2355 56.5783 52.8375 56.5769C53.1064 56.2301 53.0933 56.2452 53.2196 55.8219C53.2438 55.8546 53.2681 55.8873 53.2924 55.9199C54.5535 57.3871 56.0559 58.4818 57.2013 60.0755C60.7401 65.0003 61.8808 71.1451 62.4994 77.0549C62.5384 77.429 62.674 78.1587 62.6124 78.5094C62.7524 79.9367 62.8817 81.3836 63.0376 82.8076C63.3834 85.0995 63.7339 87.5095 64.5976 89.7942C65.8709 93.1628 67.9301 96.7637 70.4293 99.3907C70.5336 99.5004 71.1553 99.5937 71.3282 99.6196L71.3567 99.6775C71.3756 100.402 71.3333 101.318 71.9534 101.818C73.3219 101.841 79.6664 104.407 80.6277 105.274C80.8475 104.657 81.2333 103.468 81.524 102.933C86.0572 104.8 91.3836 107.872 93.342 112.598C94.3522 115.036 93.8909 123.154 93.9182 126.213C93.9476 131.544 94.619 133.819 90.5537 137.906C84.9282 143.563 76.663 145.769 69.1751 147.748C61.5625 149.298 53.8067 150.037 46.0381 149.952C34.6218 149.887 20.6492 147.991 10.4715 142.793C7.76633 141.411 5.61327 140.108 3.44365 137.95C-0.601773 133.926 0.077799 130.495 0.113971 125.237C-0.0787906 113.686 -1.16932 109.588 10.5208 103.816L10.7135 103.636C10.9782 103.559 11.591 103.253 11.8636 103.13C14.4357 101.966 17.0343 101.117 19.7395 100.319L19.7985 100.281C19.9287 100.102 20.0807 97.187 20.1336 96.6752C20.2268 95.5859 20.8531 93.0632 21.1607 91.9484C24.3364 80.4434 31.8837 68.8854 40.5139 60.675C41.9456 59.4263 43.479 58.3372 45.0582 57.2989C45.7376 56.8522 47.6437 55.937 48.0801 55.4875Z" fill="url(#paint0_linear_101_48995)"/>
<path d="M48.0799 55.4875C48.3144 55.7762 48.4381 55.9577 48.7305 56.1832C48.9776 56.2669 49.2273 56.3323 49.4432 56.4744L49.9888 56.6812L50.7867 56.6518L51.1482 56.704C51.6438 56.711 52.2352 56.5783 52.8373 56.5769C53.1061 56.2301 53.0931 56.2452 53.2193 55.8219C53.2436 55.8546 53.2678 55.8873 53.2921 55.9199C54.5532 57.3871 56.0557 58.4818 57.201 60.0755C60.7398 65.0003 61.8805 71.1451 62.4992 77.0549C62.5381 77.429 62.6737 78.1587 62.6121 78.5094C62.7521 79.9367 62.8814 81.3836 63.0373 82.8076C63.3832 85.0995 63.7337 87.5095 64.5974 89.7942C65.8706 93.1628 67.9299 96.7637 70.429 99.3907C70.5333 99.5004 71.155 99.5937 71.3279 99.6196L71.3564 99.6775C71.3753 100.402 71.3331 101.318 71.9531 101.818C73.3216 101.841 79.6662 104.407 80.6274 105.274L80.644 105.357C80.2199 106.853 79.4911 109.18 79.1826 110.642L79.1301 110.67C78.9446 111.392 78.651 112.405 78.5637 113.122C78.689 113.918 78.9864 115.449 79.037 116.197C78.4559 116.307 78.1255 116.468 77.5894 116.695L77.4363 116.786C75.5685 117.57 74.0436 118.212 72.1022 118.782L71.6743 118.829C71.3188 118.56 70.507 118.43 70.0778 118.194C69.2645 117.747 69.6757 116.962 69.394 116.145L69.0661 116.414C69.2503 117.503 66.5119 119.214 65.7899 119.959C65.2272 120.216 64.6394 120.509 64.0525 120.69C63.5131 120.601 60.4376 121.051 59.6026 121.115C54.8099 121.48 50.4481 121.784 45.6218 121.756C42.3724 121.729 39.1253 121.563 35.8901 121.259C34.6895 121.15 29.8214 120.411 29.2417 120.502L28.2305 120.07C26.6369 119.959 23.5364 118.9 21.9656 118.332L21.8706 118.373C21.0113 119.312 17.5654 119.378 16.3064 119.151L15.9372 118.917C14.3799 117.723 12.3249 108.587 11.345 106.106L11.4479 106.049C11.0619 105.509 11.2612 104.796 10.5205 103.816L10.7133 103.636C10.9779 103.559 11.5907 103.253 11.8633 103.13C14.4355 101.966 17.034 101.117 19.7392 100.319L19.7983 100.281C19.9285 100.102 20.0804 97.187 20.1334 96.6752C20.2265 95.5859 20.8529 93.0632 21.1604 91.9484C24.3361 80.4434 31.8834 68.8854 40.5136 60.675C41.9453 59.4263 43.4788 58.3372 45.058 57.2989C45.7373 56.8522 47.6435 55.937 48.0799 55.4875Z" fill="#9E9B90"/>
<path d="M60.7876 95.7694C60.7218 93.5179 60.986 91.3485 61.2047 89.1116C61.3594 87.5275 61.7545 85.9645 62.0807 84.4077C62.1202 84.2196 62.3666 83.0548 62.4352 82.9496C63.2233 81.7421 62.1864 79.7228 62.6121 78.5112C62.7521 79.9384 62.8814 81.3853 63.0373 82.8093C63.3832 85.1012 63.7337 87.5112 64.5974 89.7959C65.8706 93.1645 67.9299 96.7654 70.429 99.3924C70.5333 99.5021 71.155 99.5955 71.3279 99.6214L71.3564 99.6792C71.3753 100.404 71.3331 101.319 71.9531 101.82C73.3216 101.843 79.6662 104.409 80.6274 105.276L80.644 105.359C80.2199 106.855 79.4911 109.182 79.1826 110.644L79.1301 110.672C78.9446 111.394 78.651 112.407 78.5637 113.123C78.689 113.919 78.9864 115.451 79.037 116.199C78.4559 116.309 78.1255 116.47 77.5894 116.697L77.4363 116.788C75.5684 117.572 74.0436 118.214 72.1022 118.784L71.6742 118.831C71.3188 118.562 70.5069 118.431 70.0778 118.196C69.2645 117.749 69.6757 116.964 69.394 116.147L69.0661 116.415C69.2503 117.505 66.5119 119.216 65.7899 119.961C65.2272 120.217 64.6394 120.51 64.0525 120.692C63.5131 120.602 60.4376 121.053 59.6026 121.117C54.8099 121.481 50.4481 121.786 45.6218 121.758C42.3724 121.731 39.1253 121.565 35.8901 121.261C34.6894 121.151 29.8214 120.413 29.2417 120.504L28.2305 120.072C26.5367 118.281 24.39 117.559 24.853 114.447L25.2544 114.77C25.6121 113.605 25.1743 113.899 26.2182 112.92C28.8623 115.048 35.8581 116.124 39.259 116.456C43.5166 116.871 48.2311 116.76 52.4931 116.368C52.6307 115.929 52.1887 116.038 52.4277 115.631C53.0534 115.495 53.2398 115.87 53.8307 115.977C54.0338 116.013 54.7075 115.872 54.9283 115.829C55.7616 115.568 56.2398 115.141 57.1814 115.045C57.2596 115.074 57.3809 115.123 57.4479 115.132C61.6572 115.699 66.6879 111.622 67.6743 107.663C68.2759 105.248 67.8085 101.957 66.4923 99.8087C64.8828 98.5493 62.1048 96.9299 60.7876 95.7694Z" fill="#837D71"/>
<path d="M24.853 114.446L25.2544 114.769C27.8469 117.23 30.5385 118.619 34.0124 119.423C35.7291 119.909 35.9151 119.395 36.9223 119.542C38.0987 119.714 38.3141 120.101 39.9936 120.144C46.9538 120.738 53.5777 120.848 60.4462 119.33C64.0342 118.537 65.7572 118.015 69.0661 116.414C69.2502 117.503 66.5119 119.215 65.7899 119.959C65.2272 120.216 64.6394 120.509 64.0525 120.69C63.5131 120.601 60.4376 121.052 59.6026 121.115C54.8099 121.48 50.4481 121.785 45.6218 121.757C42.3724 121.73 39.1253 121.564 35.8901 121.259C34.6894 121.15 29.8214 120.412 29.2417 120.503L28.2305 120.07C26.5367 118.28 24.39 117.558 24.853 114.446Z" fill="#32345D"/>
<path d="M72.3384 113.484C72.996 113.676 74.9225 114.392 75.497 114.022C77.6464 112.637 74.1715 111.259 73.7561 110.403L73.8896 110.235C74.4352 110.016 75.0338 110.104 75.6256 110.139C75.8753 110.159 76.5365 110.191 76.7386 110.258C77.5397 110.366 78.3516 110.454 79.1296 110.669C78.9441 111.391 78.6505 112.405 78.5633 113.121C78.6886 113.917 78.9859 115.448 79.0365 116.197C78.4554 116.307 78.125 116.468 77.589 116.695L77.4359 116.786C75.568 117.569 74.0432 118.212 72.1018 118.781L71.6738 118.829C71.3184 118.559 70.5065 118.429 70.0773 118.193C69.264 117.747 69.6752 116.962 69.3936 116.144C69.468 116.052 69.465 116.035 69.5574 115.986C70.748 115.355 71.4679 114.487 72.3384 113.484Z" fill="#886453"/>
<path d="M76.7385 110.26C77.5397 110.369 78.3515 110.456 79.1296 110.672C78.9441 111.394 78.6505 112.407 78.5632 113.124L78.3889 113.129C77.8059 112.152 76.9723 111.235 76.5 110.391L76.7385 110.26Z" fill="#6C4C42"/>
<path d="M78.3898 113.126L78.5642 113.121C78.6895 113.917 78.9868 115.448 79.0374 116.197C78.4563 116.307 78.1259 116.468 77.5898 116.695C78.3077 115.107 78.2692 114.847 78.3898 113.126Z" fill="#6C4C42"/>
<path d="M71.9521 101.82C73.3206 101.843 79.6652 104.409 80.6264 105.276L80.643 105.359C80.219 106.855 79.4901 109.182 79.1816 110.644L79.1291 110.672C78.3511 110.456 77.5392 110.369 76.738 110.26C76.536 110.194 75.8748 110.161 75.6251 110.141L75.7789 110.018C75.6573 109.753 74.3806 108.774 73.9957 108.423C73.9432 105.726 73.1351 104.193 71.9521 101.82Z" fill="#926262"/>
<path d="M60.7876 95.7694C60.7218 93.5179 60.986 91.3485 61.2046 89.1116C61.3593 87.5275 61.7544 85.9645 62.0807 84.4077C62.1201 84.2196 62.3666 83.0548 62.4352 82.9496C63.2233 81.7421 62.1864 79.7228 62.6121 78.5112C62.7521 79.9384 62.8814 81.3853 63.0373 82.8093C62.6611 83.389 61.2135 93.3825 61.6086 94.0189C61.7309 94.0005 61.8837 93.9774 62.0672 93.9496C62.9091 94.4616 63.7444 95.0574 64.5511 95.621C64.7303 95.7463 64.9217 95.9323 65.0428 96.0504L64.9812 96.1656C64.2536 96.1341 62.3502 94.3545 61.4079 94.7465C61.2441 95.1153 61.2987 95.007 61.4098 95.4926C62.4681 96.6963 65.7432 97.7171 66.2881 99.072L66.3401 99.2062C66.661 99.3411 67.0986 99.4711 67.2909 99.7369C66.9816 99.8727 66.8276 99.8316 66.4923 99.8087C64.8827 98.5493 62.1047 96.9299 60.7876 95.7694Z" fill="#686056"/>
<path d="M34.0117 119.424C35.0719 118.862 37.6672 118.054 38.9694 118.338C39.4772 118.448 39.8429 119.626 39.9929 120.145C38.3134 120.101 38.098 119.715 36.9216 119.543C35.9144 119.396 35.7284 119.91 34.0117 119.424Z" fill="#5F5347"/>
<path d="M54.9277 115.828C55.7611 115.567 56.2393 115.14 57.1809 115.044C57.0859 115.607 57.1741 115.641 56.8243 116.014C56.2276 116.301 55.4902 116.104 54.9277 115.828Z" fill="#757166"/>
<path d="M66.5522 110.977C67.2119 111.443 67.0548 112.298 67.4894 112.884C68.912 114.802 70.2762 111.875 71.269 111.183C71.6739 111.109 71.4961 111.069 71.8249 111.287C71.8657 111.458 71.8776 111.474 71.8223 111.65C71.0247 114.179 68.8977 115.336 66.6723 116.505C65.1053 117.334 64.2568 116.707 62.6631 116.915C61.995 117.002 61.2883 118.181 60.3994 117.48C60.5191 116.539 63.5777 115.716 64.3172 115.382C64.7443 115.189 65.6112 114.412 65.9708 114.078C66.0362 112.63 65.9547 112.272 66.5522 110.977Z" fill="#686056"/>
<path d="M30.1143 115.438C30.7591 115.408 31.2965 115.675 31.7238 116.147C30.791 116.28 30.6309 116.18 30.1143 115.438Z" fill="#5F5347"/>
<path d="M19.7392 100.319C20.0944 100.71 19.978 102.423 20.0755 103.208C20.0692 104.451 20.6734 107.065 21.1429 108.306C21.1768 108.403 21.2879 108.691 21.2902 108.772L22.0442 110.267C22.5 111.084 23.0827 112.163 23.6479 112.886C23.7499 113.183 24.0663 113.691 24.3013 113.831L24.853 114.446C24.39 117.558 26.5368 118.28 28.2305 120.07C26.6369 119.959 23.5364 118.901 21.9656 118.332L21.8706 118.373C21.0113 119.312 17.5654 119.378 16.3064 119.152L15.9372 118.917C14.3799 117.723 12.3249 108.587 11.345 106.106L11.4479 106.049C11.0619 105.509 11.2612 104.797 10.5205 103.816L10.7133 103.636C10.9779 103.559 11.5907 103.253 11.8633 103.13C14.4355 101.967 17.034 101.118 19.7392 100.319Z" fill="#926262"/>
<path d="M22.0441 110.268C22.4999 111.086 23.0826 112.164 23.6478 112.887C23.7498 113.184 24.0663 113.693 24.3013 113.832L24.853 114.447C24.39 117.559 26.5367 118.281 28.2305 120.071C26.6368 119.96 23.5363 118.902 21.9655 118.333L21.8705 118.375C21.0113 119.314 17.5654 119.379 16.3063 119.153L15.9372 118.918C15.8403 118.503 15.3848 117.432 15.2051 116.982L15.2272 116.86C15.4018 115.969 15.5299 115.592 16.5549 115.556L16.3362 115.269C14.7729 112.814 19.1359 111.389 20.7403 110.77C21.2213 110.623 21.586 110.463 22.0441 110.268Z" fill="#6C4C42"/>
<path d="M16.5549 115.555C18.0531 116.943 19.9686 117.641 21.8705 118.373C21.0113 119.312 17.5654 119.378 16.3063 119.151L15.9372 118.917C15.8403 118.501 15.3848 117.43 15.2051 116.98L15.2272 116.859C15.4018 115.967 15.5299 115.59 16.5549 115.555Z" fill="#97837A"/>
<path d="M16.3359 115.268C17.8687 114.962 19.0078 114.774 20.5893 114.846C21.9804 115.645 23.1916 116.733 21.9652 118.331L21.8702 118.373C19.9683 117.641 18.0528 116.943 16.5546 115.555L16.3359 115.268Z" fill="#886453"/>
<path d="M19.7392 100.319C20.0944 100.71 19.978 102.423 20.0755 103.208L19.8853 102.636C19.5343 102.474 19.0067 102.719 18.609 102.866C16.8877 103.52 15.1897 104.235 13.5186 105.01C12.9405 105.281 11.9595 105.841 11.4479 106.049C11.0619 105.509 11.2612 104.797 10.5205 103.816L10.7133 103.636C10.9779 103.559 11.5907 103.253 11.8633 103.13C14.4355 101.967 17.034 101.118 19.7392 100.319Z" fill="#97837A"/>
<path d="M15.2042 116.982C14.7534 115.353 15.4068 113.122 16.4672 111.845C17.5673 110.521 19.3589 108.567 21.142 108.308C21.1759 108.405 21.2869 108.692 21.2893 108.774L22.0433 110.268C21.5852 110.464 21.2204 110.623 20.7395 110.771C19.1351 111.389 14.772 112.815 16.3354 115.27L16.554 115.557C15.5291 115.592 15.4009 115.969 15.2264 116.861L15.2042 116.982Z" fill="#987C77"/>
<path d="M20.7402 110.768C21.337 109.617 20.9715 109.418 21.29 108.772L22.0441 110.266C21.586 110.461 21.2212 110.621 20.7402 110.768Z" fill="#97837A"/>
<path d="M23.6481 112.887C23.8108 111.855 22.3228 109.558 22.2057 108.379C22.1324 107.643 21.9847 106.186 23.0474 106.117C24.2189 106.829 24.1459 108.896 24.7545 109.786C25.4656 110.826 27.2791 110.813 26.2824 112.671L26.2184 112.919C25.1746 113.899 25.6124 113.604 25.2546 114.769L24.8532 114.446L24.3015 113.831C24.0665 113.692 23.7501 113.184 23.6481 112.887Z" fill="#686056"/>
<path d="M24.3018 113.832C24.4245 113.656 24.575 113.548 24.7823 113.522C25.3358 113.452 25.8357 113.014 26.2826 112.672L26.2186 112.92C25.1748 113.9 25.6126 113.605 25.2548 114.77L24.8534 114.447L24.3018 113.832Z" fill="#757166"/>
<path d="M22.716 106.621C23.4892 106.882 23.7697 108.443 23.6194 109.142C22.3954 108.63 22.4206 107.826 22.716 106.621Z" fill="#9E9B90"/>
<path d="M51.1484 56.7038C51.6441 56.7108 52.2355 56.578 52.8375 56.5766L52.8868 56.6677C53.7292 58.1939 56.764 61.8526 56.6146 63.3886L56.4676 63.4001C56.1542 63.0748 55.9994 62.8052 55.7766 62.4162C54.7019 60.5392 53.5974 58.8095 52.0404 57.2898C52.2387 58.5346 52.779 61.5525 52.5379 62.6398L52.3986 62.7077C51.604 61.6416 51.7883 58.9246 51.3657 58.048C51.3305 57.4849 51.2717 57.2392 51.1484 56.7038Z" fill="#757166"/>
<path d="M49.9889 56.683L50.7868 56.6535L51.1483 56.7058C51.2715 57.2412 51.3303 57.4869 51.3655 58.05L51.2253 58.0442C51.0136 57.7889 51.1506 57.8825 50.76 57.8246C50.1985 58.1275 50.5679 58.2379 50.11 58.4822C49.837 59.2292 49.1019 62.5167 48.55 62.6714C48.1691 61.9396 49.6062 57.6244 49.9889 56.683Z" fill="#757166"/>
<path d="M50.7871 56.6535L51.1486 56.7058C51.2718 57.2412 51.3306 57.4869 51.3659 58.05L51.2256 58.0442C51.0139 57.7889 51.1509 57.8825 50.7603 57.8246C50.1988 58.1275 50.5682 58.2379 50.1104 58.4822C50.2798 57.9037 50.4623 57.1324 50.7871 56.6535Z" fill="#97837A"/>
<path d="M48.7292 56.1846C48.9764 56.2684 49.2261 56.3338 49.4419 56.4759C47.8322 57.4738 45.9713 59.453 44.3975 60.6137C44.3188 60.6114 44.2404 60.6093 44.1618 60.6072L44.1279 60.4053C44.7247 59.3227 47.6973 56.9776 48.7292 56.1846Z" fill="#757166"/>
<path d="M37.6994 65.7191C39.9619 66.531 37.0432 69.6329 36.2693 70.699C31.4276 77.3681 27.8786 84.7643 25.7932 92.7373C25.6175 93.4096 25.3622 93.8173 24.7515 94.1111C23.5025 93.6353 23.4171 92.892 23.6532 91.6036C25.1146 83.6259 29.3665 76.1605 34.1606 69.7279C35.1708 68.3723 36.3634 66.7256 37.6994 65.7191Z" fill="#C8C7C4"/>
<path d="M51.2558 92.8414C54.5467 92.9016 55.1252 97.6943 52.3811 99.0973C49.0108 99.2457 48.2208 93.7753 51.2558 92.8414Z" fill="#422D22"/>
<path d="M33.0366 93.886C36.4538 93.4447 37.2589 98.4621 34.3129 100.021C31.1242 100.417 30.3436 95.5312 33.0366 93.886Z" fill="#422D22"/>
<path d="M42.8304 100.553C42.9538 100.542 43.0775 100.532 43.2012 100.524C45.1969 100.389 46.9064 100.98 48.441 102.288C48.9922 102.758 50.1156 104.176 50.1492 104.829C49.8223 105.164 50.0118 105.049 49.5542 105.178C48.0501 104.77 48.5948 102.27 43.8471 101.69C41.4558 101.744 39.759 102.738 38.3968 104.632C38.1315 105.001 37.6781 105.59 37.2645 105.765C36.9222 105.649 37.0814 105.747 36.8419 105.362C36.7894 104.835 36.8711 104.676 37.1808 104.219C38.489 102.281 40.528 100.958 42.8304 100.553Z" fill="#422D22"/>
<path d="M62.339 101.279C62.5922 101.356 62.5054 101.319 62.7215 101.479C62.7745 101.859 62.2135 102.657 61.9899 102.979C60.3092 105.409 57.9825 107.368 55.5859 109.063C53.6001 110.468 51.3589 111.223 49.1571 112.218C48.8142 112.09 48.9374 112.199 48.7617 111.897C48.8537 111.688 48.8896 111.536 49.1321 111.447C55.044 109.292 58.6122 106.513 62.339 101.279Z" fill="#686056"/>
<path d="M48.65 87.2616C48.9406 87.4422 49.3123 87.9832 49.5637 88.2684C50.6117 89.4574 51.2192 89.9066 52.5806 90.5726C53.7283 91.1341 55.8478 90.9495 56.4106 91.6622C56.3859 92.0599 56.3623 91.9651 56.0601 92.3469C53.5932 92.4545 49.0435 91.0445 48.2262 88.0075C48.1406 87.6894 48.4332 87.4756 48.65 87.2616Z" fill="#422D22"/>
<path d="M35.5994 88.1969C37.1767 88.5874 35.8498 90.2275 35.2666 90.9033C33.7208 92.6944 31.7224 93.6666 29.3876 93.8356C29.0289 93.6848 28.8562 93.5296 28.8721 93.1406C29.5713 92.4909 30.4378 92.468 31.2671 92.2146C33.4907 91.5346 34.5434 90.0942 35.5994 88.1969Z" fill="#422D22"/>
<path d="M29.3743 108.796C30.8887 108.744 31.4532 109.667 30.625 110.969C29.2089 111.223 28.7394 109.964 29.3743 108.796Z" fill="#686056"/>
<path d="M29.5576 109.084C30.6689 109.268 30.8071 109.714 30.4521 110.716C29.3728 110.635 29.2853 109.979 29.5576 109.084Z" fill="#9E9B90"/>
<path d="M23.6997 95.5854C25.1818 95.7182 24.7926 96.7856 24.2827 97.6801C23.9 97.6322 23.9153 97.6441 23.59 97.4449C23.1716 96.8456 23.2292 96.1464 23.6997 95.5854Z" fill="#C8C7C4"/>
<path d="M80.6439 105.359C82.1192 105.283 86.1635 108.734 87.1716 109.738C90.8862 113.435 90.4733 118.99 86.1616 122.364C74.2396 131.694 56.7092 132.634 42.1135 132.365C32.3067 131.822 22.1487 130.368 13.2833 125.916C10.7125 124.626 8.50879 123.275 6.57721 121.098C1.27346 115.119 5.58539 109.387 11.3449 106.108C12.3248 108.589 14.3799 117.725 15.9371 118.919L16.3063 119.153C17.5653 119.38 21.0112 119.314 21.8705 118.375L21.9655 118.334C23.5363 118.903 26.6368 119.961 28.2305 120.072L29.2416 120.504C29.8213 120.413 34.6894 121.152 35.89 121.261C39.1252 121.565 42.3723 121.731 45.6217 121.758C50.448 121.786 54.8099 121.482 59.6025 121.117C60.4375 121.053 63.5131 120.603 64.0524 120.692C64.6393 120.511 65.2272 120.218 65.7898 119.961C66.5118 119.216 69.2502 117.505 69.0661 116.416L69.3939 116.147C69.6756 116.964 69.2644 117.749 70.0777 118.196C70.5069 118.432 71.3188 118.562 71.6742 118.831L72.1022 118.784C74.0436 118.214 75.5684 117.572 77.4363 116.788L77.5893 116.697C78.1254 116.47 78.4558 116.309 79.0369 116.199C78.9863 115.451 78.689 113.92 78.5637 113.124C78.6509 112.407 78.9445 111.394 79.13 110.672L79.1825 110.644C79.4911 109.182 80.2199 106.855 80.6439 105.359Z" fill="#923131"/>
<path d="M79.0373 116.198C77.8212 119.742 75.7699 121.737 72.229 123.366C59.1553 129.383 40.196 129.538 26.6026 125.211C23.4372 124.203 18.2462 121.818 16.3066 119.152C17.5657 119.378 21.0116 119.313 21.8708 118.374L21.9658 118.332C23.5366 118.901 26.6371 119.959 28.2308 120.07L29.242 120.503C29.8217 120.412 34.6897 121.15 35.8904 121.259C39.1256 121.564 42.3726 121.73 45.622 121.757C50.4483 121.785 54.8102 121.48 59.6029 121.115C60.4379 121.052 63.5134 120.601 64.0527 120.69C64.6396 120.509 65.2275 120.216 65.7901 119.96C66.5122 119.215 69.2505 117.504 69.0664 116.414L69.3943 116.145C69.6759 116.963 69.2648 117.748 70.078 118.194C70.5072 118.43 71.3191 118.56 71.6745 118.83L72.1025 118.782C74.0439 118.213 75.5687 117.57 77.4366 116.787L77.5897 116.696C78.1257 116.469 78.4562 116.308 79.0373 116.198Z" fill="#886453"/>
<path d="M29.2412 120.502C29.8209 120.411 34.6889 121.15 35.8896 121.259C39.1248 121.563 42.3719 121.729 45.6213 121.756C50.4476 121.784 54.8094 121.48 59.6021 121.115C60.4371 121.051 63.5126 120.601 64.052 120.69C63.6921 120.94 62.8583 121.333 62.4394 121.489C54.7385 124.35 45.1158 124.486 37.1111 123.044C34.5333 122.579 31.5805 121.515 29.2412 120.502Z" fill="#46497A"/>
<path d="M69.3942 116.145C69.6759 116.963 69.2647 117.748 70.0779 118.194C70.5071 118.43 71.319 118.56 71.6744 118.83C70.4338 119.168 67.0225 119.981 65.79 119.96C66.5121 119.215 69.2504 117.504 69.0663 116.414L69.3942 116.145Z" fill="#6C4C42"/>
<path d="M77.4356 116.788C77.6758 118.646 75.5517 118.772 74.1984 118.903C73.6514 118.957 72.5837 119.045 72.1016 118.784C74.0429 118.214 75.5678 117.572 77.4356 116.788Z" fill="#97837A"/>
<path d="M79.1824 110.643C80.3123 111.068 83.4301 112.064 82.7492 113.784C82.394 114.68 79.9656 116.151 79.0367 116.198C78.9861 115.45 78.6888 113.918 78.5635 113.122C78.6508 112.406 78.9443 111.393 79.1299 110.671L79.1824 110.643Z" fill="#6D2B29"/>
<path d="M0.113229 125.238C0.712984 125.733 1.16268 127.334 1.64062 128.066C2.54842 129.457 3.68981 130.636 4.99387 131.666C16.9677 140.644 35.6859 142.433 50.0623 142.185C54.9364 142.076 59.7982 141.644 64.6149 140.891C65.5455 140.747 68.187 140.319 69.0519 140.037C69.0491 141.098 68.9317 147.144 69.1744 147.748C61.5617 149.299 53.806 150.038 46.0374 149.953C34.6211 149.888 20.6484 147.992 10.4708 142.794C7.76559 141.412 5.61253 140.109 3.44291 137.951C-0.602515 133.927 0.0770573 130.496 0.113229 125.238Z" fill="#46497A"/>
<path d="M69.0523 140.038C70.4994 139.776 72.0438 139.345 73.6025 138.875C80.4971 136.793 88.4804 133.881 92.7155 127.688C93.0082 127.26 93.2887 126.252 93.6835 126.027L93.9179 126.214C93.9473 131.546 94.6187 133.821 90.5534 137.908C84.9278 143.564 76.6627 145.77 69.1748 147.749C68.9321 147.144 69.0495 141.098 69.0523 140.038Z" fill="#32345D"/>
<path d="M71.3271 99.6208C71.5752 99.3314 75.352 67.5553 75.6314 64.6002C75.9028 65.2627 75.5555 66.4702 75.4713 67.2235L74.4592 76.1013C74.405 76.5671 73.8412 80.2802 74.0524 80.4319C74.1269 80.3336 75.5527 79.4566 75.7602 79.5819C75.8458 79.6337 76.5072 79.2284 76.6041 79.3654C78.3202 79.8853 80.4385 80.1759 82.2004 80.4043C83.3647 80.5553 86.0988 80.5131 86.9896 80.9287C87.0414 81.0811 87.0823 81.2073 87.1285 81.3628L87.2398 81.359C87.9289 80.2925 88.3669 77.6763 88.9091 76.2653C88.5333 78.3544 87.6626 80.9434 87.0683 83.0724C85.8004 87.6737 84.5017 92.2666 83.172 96.8504C82.9169 97.7428 81.55 102.285 81.4945 102.864L81.523 102.934C81.2322 103.469 80.8464 104.658 80.6266 105.275C79.6654 104.408 73.3208 101.842 71.9523 101.82C71.3323 101.319 71.3745 100.403 71.3556 99.6786L71.3271 99.6208Z" fill="#C8C7C4"/>
<path d="M71.3555 99.679C75.6679 100.626 77.3857 101.213 81.4944 102.865L81.5228 102.934C81.2321 103.469 80.8463 104.658 80.6265 105.276C79.6652 104.409 73.3207 101.843 71.9522 101.82C71.3321 101.319 71.3744 100.403 71.3555 99.679Z" fill="#97837A"/>
<path d="M80.333 88.8322C80.7502 88.597 81.2791 88.7363 81.5267 89.1463C81.7743 89.5566 81.651 90.0894 81.2483 90.3489C80.9771 90.5239 80.6319 90.5377 80.3477 90.3843C80.0634 90.2313 79.8849 89.9356 79.8819 89.6126C79.8788 89.2899 80.0515 88.9907 80.333 88.8322Z" fill="#837D71"/>
<path d="M10.7123 103.637C8.33288 96.7029 6.6832 89.2696 4.53879 82.2513C3.92573 80.2453 3.2576 78.1856 2.85645 76.1322C3.2569 76.7264 4.4095 82.0868 5.05383 83.0084C5.37261 82.8999 5.19479 82.8889 5.38685 82.7589C6.76395 81.8264 8.76718 81.4854 10.3678 81.0266C10.7149 80.9272 11.6892 80.6675 11.8896 80.6952C13.6929 80.9442 15.5248 80.2033 17.2755 80.3018C17.4354 80.3107 17.3129 80.4033 17.6466 80.372C18.0802 79.6484 16.3003 69.1405 16.4692 67.5373C16.4977 67.267 16.1652 66.8871 16.3505 66.3791C16.3607 66.6246 16.3668 66.8327 16.4307 67.0719C16.6347 67.832 16.6114 68.6245 16.7103 69.4427C16.9766 71.5106 17.2219 73.5813 17.4461 75.654L19.3945 91.7641C19.5168 92.7767 19.7495 95.9967 20.1324 96.6765C20.0794 97.1883 19.9275 100.104 19.7973 100.282L19.7383 100.32C17.0331 101.119 14.4345 101.968 11.8623 103.131C11.5898 103.254 10.9769 103.56 10.7123 103.637Z" fill="#C8C7C4"/>
<path d="M47.4144 44.0635C49.3185 41.9779 51.8262 42.6285 54.3786 42.9258C55.6495 43.0574 59.1183 43.1106 58.8709 44.9591L58.4985 45.806C58.137 49.3166 55.7807 51.8559 53.3749 54.1699C53.3025 54.2397 53.2453 54.5436 53.2323 54.6542L53.1851 54.7919L53.2829 55.0812L53.4073 55.2467C53.3121 55.4768 53.2449 55.5783 53.219 55.8224C53.0927 56.2457 53.1058 56.2306 52.837 56.5774C52.2349 56.5788 51.6435 56.7115 51.1479 56.7045L50.7864 56.6523L49.9885 56.6817L49.4429 56.4749C49.227 56.3328 48.9773 56.2674 48.7302 56.1837C48.4377 55.9582 48.3141 55.7767 48.0795 55.488C48.0865 55.2243 48.0805 55.2423 48.2293 55.0245L48.3939 54.8388L48.35 54.6348L48.0457 54.3349C48.0221 53.4757 46.0551 51.7781 45.39 50.7112C44.3496 49.0419 43.8873 48.0097 43.1179 46.2172L42.9366 45.9349C42.2565 44.6359 43.6073 43.9167 44.6672 43.611C46.2814 43.1454 46.1766 43.7834 47.4144 44.0635Z" fill="#9E9B90"/>
<path d="M47.4144 44.0635C49.3185 41.9779 51.8262 42.6285 54.3786 42.9258C55.6495 43.0574 59.1183 43.1106 58.8709 44.9592L58.4985 45.806C58.0037 45.8912 57.7729 46.0816 57.3265 46.2473C56.1767 46.6739 55.2019 46.5341 54.011 46.4436C52.3999 47.6382 51.6809 47.9624 49.6286 48.0884C48.8699 47.6823 48.4044 47.3717 47.5663 47.1967C46.1064 46.8917 44.6159 47.1752 43.3522 46.3276C43.2605 46.2662 43.2257 46.2595 43.1179 46.2172L42.9366 45.9349C42.2565 44.6359 43.6073 43.9167 44.6672 43.611C46.2814 43.1454 46.1766 43.7834 47.4144 44.0635Z" fill="#9E9B90"/>
<path d="M47.4147 44.0635C49.3187 41.9779 51.8265 42.6285 54.3788 42.9258L54.4516 43.0987C55.0017 43.1905 56.765 43.3729 57.0803 43.5743C56.5641 44.0369 54.7937 43.46 53.8367 43.5498C54.6745 43.6609 56.393 43.7928 57.031 44.2457L57.1046 44.4793C56.5337 45.2721 54.6414 44.965 53.7833 44.8063C51.6087 45.6702 51.2832 46.7026 48.7985 45.6322C48.444 45.4789 48.091 45.3223 47.7395 45.1624C46.8744 45.3622 45.018 45.8926 44.4766 44.9087C44.7972 44.0138 46.5979 44.0604 47.4147 44.0635Z" fill="url(#paint1_linear_101_48995)"/>
<path d="M53.8861 45.8435C55.246 45.9915 56.5202 46.3229 57.5941 45.5157C57.9521 45.2468 58.4207 45.0191 58.8709 44.9581L58.4984 45.805C58.0037 45.8902 57.7729 46.0806 57.3264 46.2463C56.1766 46.6729 55.2019 46.5331 54.011 46.4426C52.3998 47.6372 51.6808 47.9614 49.6286 48.0874C48.8699 47.6813 48.4043 47.3707 47.5663 47.1957C46.1064 46.8907 44.6158 47.1742 43.3522 46.3266C43.2604 46.2652 43.2257 46.2585 43.1179 46.2162L42.9365 45.9339C43.6509 45.7913 44.4639 46.4559 44.8522 46.4272C47.5719 46.2267 47.6356 46.2592 49.9674 47.5299C51.7146 47.2827 52.4231 46.7877 53.8861 45.8435Z" fill="#757166"/>
<path d="M51.7345 53.329C52.2047 53.1937 52.1882 53.1127 52.5674 53.2362L52.6771 53.3864C52.5242 53.6403 52.4183 53.7325 52.4019 54.0018C52.9046 54.0613 52.9329 53.9738 53.2071 54.2513L53.2325 54.6553L53.1854 54.793L53.2831 55.0823L53.4075 55.2478C53.3123 55.4779 53.2451 55.5794 53.2192 55.8235C53.0929 56.2468 53.106 56.2317 52.8372 56.5784C52.2351 56.5798 51.6437 56.7126 51.1481 56.7056L50.7866 56.6534L49.9887 56.6828L49.4431 56.476C49.2272 56.3339 48.9775 56.2685 48.7304 56.1848C48.438 55.9593 48.3143 55.7778 48.0797 55.4891C48.0867 55.2254 48.0807 55.2433 48.2296 55.0256L48.3941 54.8399L48.3502 54.6359L48.0459 54.336L48.202 54.0676C48.6195 53.909 48.6186 53.9969 49.1413 54.0947L49.328 53.7671C49.7537 53.7573 49.8757 54.0777 50.2491 54.2308L50.5208 54.3162C50.6505 54.1204 50.7 54.1636 50.9889 54.0725C51.0563 53.9423 51.0239 53.9934 51.1121 53.8709L51.1761 53.7841C51.2388 53.9216 51.1873 53.8592 51.3611 53.9412L51.7345 53.329Z" fill="#5F5347"/>
<path d="M48.3934 54.84C50.0637 55.5977 51.1523 55.4322 52.9455 55.1303L53.2825 55.0824L53.4069 55.2479C53.3117 55.478 53.2445 55.5795 53.2186 55.8236C53.0923 56.2469 53.1054 56.2318 52.8365 56.5785C52.2344 56.5799 51.6431 56.7127 51.1474 56.7057L50.7859 56.6534L49.988 56.6829L49.4424 56.4761C49.2266 56.334 48.9769 56.2686 48.7297 56.1848C48.4373 55.9594 48.3136 55.7779 48.0791 55.4892C48.0861 55.2255 48.08 55.2434 48.2289 55.0257L48.3934 54.84Z" fill="#886453"/>
<path d="M48.394 54.84C50.0642 55.5977 51.1529 55.4322 52.9461 55.1303L53.0177 55.366L52.8593 55.5884C52.0663 56.0094 50.0225 56.0063 49.1191 55.7788C48.5975 55.6474 48.4813 55.4472 48.2295 55.0257L48.394 54.84Z" fill="#5F5347"/>
<path d="M48.3496 54.634C49.7358 54.9292 51.7871 55.1113 53.1848 54.7911L53.2825 55.0804L52.9455 55.1283C51.1523 55.4303 50.0637 55.5957 48.3935 54.838L48.3496 54.634Z" fill="#837D71"/>
<path d="M51.7343 53.329C52.2045 53.1937 52.1879 53.1127 52.5671 53.2362L52.6768 53.3864C52.524 53.6403 52.418 53.7325 52.4017 54.0018C51.948 54.5192 51.1609 54.4931 50.5205 54.3162C50.6503 54.1204 50.6997 54.1636 50.9887 54.0725C51.0561 53.9423 51.0236 53.9934 51.1119 53.8709L51.1758 53.7841C51.2386 53.9216 51.187 53.8592 51.3609 53.9412L51.7343 53.329Z" fill="#686056"/>
<path d="M49.1409 54.0948C48.9958 52.4661 47.656 50.9434 47.6651 49.6302L47.7993 49.5852C49.0847 50.6435 49.6683 53.6171 50.2963 54.1328L50.2487 54.2308C49.8753 54.0777 49.7533 53.7573 49.3276 53.7671L49.1409 54.0948Z" fill="#757166"/>
<path d="M51.7354 53.3295C52.4208 52.48 53.9542 49.9263 54.4466 49.481L54.6492 49.5475C54.8482 50.1832 53.1195 53.0658 52.6779 53.3869L52.5682 53.2366C52.189 53.1131 52.2056 53.1941 51.7354 53.3295Z" fill="#757166"/>
<path d="M50.2966 54.1322C50.5263 53.4629 50.2913 51.648 50.7344 50.9026C51.151 51.2552 51.2285 53.2253 51.176 53.7835L51.112 53.8703C51.0238 53.9929 51.0563 53.9417 50.9888 54.072C50.6999 54.163 50.6504 54.1198 50.5207 54.3156L50.249 54.2302L50.2966 54.1322Z" fill="#757166"/>
<path d="M66.676 0.051961C67.6066 -0.180707 68.5483 0.390065 68.7728 1.32272C68.997 2.25537 68.418 3.19211 67.4834 3.40821C66.5604 3.62151 65.6379 3.05116 65.4165 2.13029C65.1948 1.20921 65.757 0.281735 66.676 0.051961Z" fill="#837D71"/>
<path d="M85.1483 65.6987C85.0433 65.6366 86.4248 67.108 86.8572 67.4562C86.0955 68.0233 85.7667 68.4933 85.2486 69.2643L85.167 69.2863C84.4211 68.367 84.5322 68.2349 83.5107 67.4639C84.4895 66.8578 84.6251 66.7187 85.1483 65.6987Z" fill="#837D71"/>
<path d="M7.56231 73.5318C8.10302 74.0382 8.42087 74.6032 9.15667 75.2377C8.41643 75.9089 8.12239 76.2255 7.54037 77.0276C7.18425 76.2048 6.54552 75.7602 5.83398 75.2874C6.63864 74.7959 7.00386 74.2718 7.56231 73.5318Z" fill="#837D71"/>
<path d="M63.777 77.9463C64.2892 77.6945 64.9088 77.8997 65.1695 78.4077C65.4299 78.9157 65.2353 79.5388 64.7317 79.8079C64.3984 79.986 63.9949 79.9706 63.6761 79.7673C63.3574 79.5643 63.173 79.2049 63.194 78.8273C63.2148 78.4499 63.4376 78.1132 63.777 77.9463Z" fill="#837D71"/>
<path d="M25.0295 45.5159C25.3413 45.4146 25.6834 45.4904 25.9233 45.7138C26.1632 45.9371 26.2631 46.2729 26.1844 46.591C26.1058 46.9093 25.861 47.1597 25.5448 47.2456C25.0717 47.374 24.5828 47.1016 24.443 46.6321C24.3032 46.1625 24.5634 45.6671 25.0295 45.5159Z" fill="#837D71"/>
<path d="M25.9649 7.71236C26.2125 7.58868 26.5075 7.60805 26.7367 7.763C26.9661 7.91796 27.094 8.1847 27.0713 8.46054C27.0487 8.73638 26.879 8.97862 26.6277 9.09413C26.2475 9.26893 25.7974 9.1065 25.6165 8.72938C25.4357 8.35202 25.5906 7.89952 25.9649 7.71236Z" fill="#837D71"/>
<path d="M48.7934 10.3879C48.9841 10.2509 49.234 10.228 49.4464 10.3281C49.6587 10.4282 49.8002 10.6357 49.816 10.8698C49.8319 11.1041 49.7196 11.3286 49.5227 11.4562C49.2277 11.6476 48.8342 11.5685 48.6361 11.2781C48.438 10.9878 48.5078 10.5927 48.7934 10.3879Z" fill="#97837A"/>
<defs>
<linearGradient id="paint0_linear_101_48995" x1="55.0021" y1="144.558" x2="39.2362" y2="94.9322" gradientUnits="userSpaceOnUse">
<stop stop-color="#7F5544"/>
<stop offset="1" stop-color="#936D5B"/>
</linearGradient>
<linearGradient id="paint1_linear_101_48995" x1="50.542" y1="45.9869" x2="51.0247" y2="42.5479" gradientUnits="userSpaceOnUse">
<stop stop-color="#696255"/>
<stop offset="1" stop-color="#868076"/>
</linearGradient>
</defs>
</svg>
