<svg width="50" height="50" viewBox="0 0 50 50" fill="none" xmlns="http://www.w3.org/2000/svg">
<g clip-path="url(#clip0_13360_10303)">
<path d="M49.252 31.0476C45.9127 44.4406 32.3462 52.5913 18.9501 49.2515C5.55965 45.9126 -2.59198 32.3468 0.748798 18.9549C4.08664 5.56048 17.6531 -2.59085 31.045 0.748085C44.4402 4.08702 52.5913 17.6543 49.2516 31.0479L49.2519 31.0476H49.252Z" fill="#6E54FF"/>
<g clip-path="url(#clip1_13360_10303)">
<path d="M24.9244 10C20.6616 10 10.1631 20.6402 10.1631 24.9608C10.1631 29.2814 20.6616 39.9217 24.9244 39.9217C29.1872 39.9217 39.6859 29.2812 39.6859 24.9608C39.6859 20.6404 29.1873 10 24.9244 10ZM22.6241 33.5158C20.8265 33.0193 15.9937 24.4512 16.4835 22.6293C16.9735 20.8074 25.4272 15.9093 27.2248 16.4058C29.0223 16.9023 33.8553 25.4703 33.3653 27.2922C32.8754 29.1142 24.4216 34.0124 22.6241 33.5158Z" fill="white"/>
</g>
</g>
<defs>
<clipPath id="clip0_13360_10303">
<rect width="50" height="50" fill="white"/>
</clipPath>
<clipPath id="clip1_13360_10303">
<rect width="30" height="30" fill="white" transform="translate(10 10)"/>
</clipPath>
</defs>
</svg>
