<svg width="95" height="81" viewBox="0 0 95 81" fill="none" xmlns="http://www.w3.org/2000/svg">
<path d="M38.1032 35.0915C38.2979 35.042 38.415 35.0225 38.5918 34.9302C38.6889 34.8281 38.7775 34.7204 38.8961 34.6468L39.1212 34.4262L39.2876 34.0283L39.3952 33.863C39.511 33.6215 39.5799 33.3015 39.7157 33.006C39.6067 32.7956 39.6111 32.8054 39.4322 32.6476C39.4537 32.6431 39.4752 32.6386 39.4968 32.6341C40.502 32.3484 41.3793 31.8599 42.4202 31.6597C45.6369 31.0411 48.9081 31.8747 51.9458 32.9111C52.1381 32.9768 52.5266 33.0757 52.6846 33.1855C53.4161 33.4404 54.1547 33.705 54.8882 33.9513C56.0903 34.3013 57.3513 34.6758 58.6672 34.7702C60.6074 34.9096 62.8396 34.7163 64.6941 34.0865C64.7715 34.0602 64.9582 33.7766 65.0101 33.6977L65.045 33.6969C65.4044 33.8518 65.8438 34.0801 66.2299 33.8896C66.5512 33.2238 69.2475 30.6949 69.8906 30.4203C69.6377 30.1725 69.142 29.7138 68.9458 29.45C70.8888 27.6507 73.6026 25.7358 76.3634 25.8469C77.7877 25.9043 81.6632 27.9708 83.1688 28.6506C85.7894 29.8448 87.057 30.0314 88.1393 32.951C89.6372 36.9912 88.8451 41.5435 88.118 45.6632C87.1523 49.747 85.7565 53.7169 83.9541 57.5065C81.3344 63.089 77.237 69.5094 72.3816 73.3211C71.091 74.3341 69.9641 75.0944 68.4142 75.6688C65.5242 76.74 63.996 75.629 61.4266 74.4195C55.7193 71.8953 53.4633 71.5012 53.2833 64.4614L53.2388 64.3261C53.2608 64.1787 53.2499 63.809 53.2513 63.6475C53.2639 62.1226 53.4367 60.6562 53.6585 59.1489L53.6533 59.1113C53.5953 59.007 52.2004 58.2717 51.9615 58.1297C51.4485 57.8371 50.3536 56.9581 49.8768 56.5546C44.9561 52.3896 41.0003 46.0693 38.9314 39.977C38.6437 38.992 38.4573 37.9933 38.3063 36.9837C38.2413 36.5494 38.2246 35.4074 38.1032 35.0915Z" fill="url(#paint0_linear_109_93140)"/>
<path d="M38.1031 35.0924C38.2978 35.0428 38.4148 35.0233 38.5916 34.9311C38.6887 34.8289 38.7773 34.7213 38.896 34.6477L39.121 34.427L39.2875 34.0292L39.395 33.8638C39.5108 33.6224 39.5798 33.3024 39.7156 33.0068C39.6065 32.7964 39.611 32.8063 39.4321 32.6484C39.4536 32.6439 39.4751 32.6394 39.4966 32.6349C40.5018 32.3492 41.3791 31.8608 42.4201 31.6605C45.6368 31.0419 48.908 31.8756 51.9457 32.912C52.1379 32.9776 52.5264 33.0766 52.6844 33.1863C53.4159 33.4412 54.1546 33.7058 54.8881 33.9522C56.0901 34.3022 57.3512 34.6766 58.6671 34.7711C60.6073 34.9105 62.8395 34.7171 64.694 34.0874C64.7714 34.0611 64.9581 33.7775 65.01 33.6986L65.0448 33.6977C65.4042 33.8527 65.8436 34.0809 66.2297 33.8905C66.551 33.2247 69.2473 30.6958 69.8904 30.4211L69.9348 30.4318C70.5722 30.9788 71.5477 31.8635 72.1944 32.3462L72.1963 32.3783C72.5082 32.6329 72.9385 33.0066 73.2699 33.2117C73.6886 33.3307 74.5068 33.5321 74.8851 33.6769C74.8073 33.9867 74.8113 34.1852 74.8011 34.4995L74.811 34.5952C74.7718 35.6886 74.7411 36.5818 74.5803 37.6628L74.5064 37.8833C74.2939 37.9965 74.0459 38.365 73.8331 38.522C73.4297 38.8195 73.138 38.4399 72.6735 38.3927L72.731 38.6144C73.3068 38.7711 73.5251 40.5016 73.7265 41.0244C73.7248 41.3584 73.7351 41.713 73.691 42.0419C73.5249 42.286 73.0488 43.8961 72.8906 44.3199C71.983 46.7523 71.1436 48.9599 70.0357 51.3197C69.286 52.9067 68.4686 54.4611 67.5859 55.9781C67.2602 56.5421 65.7946 58.7614 65.7079 59.0662L65.2666 59.4639C64.8508 60.22 63.6292 61.5003 62.9942 62.1414L62.993 62.1974C63.2586 62.8316 62.5096 64.5359 62.1133 65.1018L61.9145 65.2296C60.9762 65.7225 56.0311 64.659 54.5927 64.577L54.5881 64.5137C54.2359 64.5805 53.9317 64.3213 53.2832 64.4622L53.2386 64.3269C53.2607 64.1796 53.2498 63.8099 53.2512 63.6483C53.2638 62.1235 53.4366 60.657 53.6583 59.1497L53.6532 59.1122C53.5951 59.0079 52.2002 58.2725 51.9613 58.1305C51.4483 57.8379 50.3535 56.959 49.8767 56.5555C44.9559 52.3905 41.0002 46.0702 38.9312 39.9778C38.6435 38.9928 38.4572 37.9941 38.3061 36.9845C38.2411 36.5502 38.2245 35.4082 38.1031 35.0924Z" fill="#9E9B90"/>
<path d="M60.733 37.9924C59.6142 37.5143 58.6105 36.893 57.5634 36.2787C56.8218 35.8438 56.1451 35.2958 55.4558 34.7829C55.3725 34.7209 54.8573 34.3361 54.8212 34.2786C54.4079 33.6185 53.1828 33.6691 52.6853 33.1857C53.4168 33.4406 54.1555 33.7052 54.889 33.9516C56.091 34.3016 57.352 34.676 58.668 34.7705C60.6082 34.9099 62.8404 34.7165 64.6948 34.0868C64.7723 34.0605 64.959 33.7769 65.0109 33.698L65.0457 33.6971C65.4051 33.8521 65.8445 34.0804 66.2306 33.8899C66.5519 33.2241 69.2482 30.6952 69.8913 30.4205L69.9357 30.4312C70.5731 30.9782 71.5486 31.863 72.1953 32.3456L72.1971 32.3777C72.5091 32.6323 72.9394 33.006 73.2708 33.2111C73.6895 33.3302 74.5077 33.5315 74.8859 33.6763C74.8082 33.9862 74.8121 34.1846 74.802 34.4989L74.8119 34.5946C74.7727 35.688 74.742 36.5812 74.5812 37.6622L74.5073 37.8827C74.2948 37.9959 74.0468 38.3644 73.8339 38.5214C73.4306 38.8189 73.1389 38.4393 72.6744 38.3922L72.7319 38.6139C73.3077 38.7705 73.5259 40.501 73.7274 41.0238C73.7257 41.3578 73.736 41.7124 73.6919 42.0413C73.5258 42.2855 73.0496 43.8955 72.8915 44.3193C71.9839 46.7517 71.1445 48.9593 70.0366 51.3191C69.2869 52.9061 68.4695 54.4605 67.5868 55.9776C67.2611 56.5415 65.7955 58.7608 65.7087 59.0656L65.2675 59.4633C64.0057 59.8879 63.1653 60.7768 61.7444 59.8443L61.9936 59.7207C61.5033 59.2811 61.5487 59.5626 61.3051 58.8288C62.9476 58.0148 65.061 54.8288 65.9947 53.2366C67.1636 51.2435 68.1776 48.9068 68.9519 46.7285C68.7675 46.5614 68.7211 46.8029 68.5755 46.5934C68.6508 46.2559 68.8768 46.2494 69.0631 45.9839C69.1271 45.8927 69.2107 45.5304 69.2397 45.4125C69.3004 44.9446 69.1996 44.6135 69.3658 44.13C69.3977 44.0982 69.4492 44.0498 69.4689 44.019C70.7011 42.0839 69.8427 38.6933 68.1251 37.3121C67.0774 36.4697 65.3582 35.9529 64.0066 36.1112C63.0242 36.6148 61.6006 37.6097 60.733 37.9924Z" fill="#837D71"/>
<path d="M61.744 59.8446L61.9932 59.7209C63.7874 59.0078 65.079 58.0032 66.2606 56.4823C66.8879 55.7507 66.6781 55.543 66.9785 55.0825C67.3294 54.5447 67.5678 54.5268 67.9698 53.7132C69.8389 50.4354 71.3941 47.2127 72.2069 43.5012C72.6315 41.5623 72.7663 40.5993 72.7315 38.6141C73.3073 38.7708 73.5255 40.5013 73.727 41.0241C73.7253 41.3581 73.7356 41.7127 73.6915 42.0416C73.5254 42.2857 73.0493 43.8958 72.8911 44.3196C71.9835 46.752 71.1441 48.9596 70.0362 51.3194C69.2865 52.9064 68.4691 54.4608 67.5864 55.9778C67.2607 56.5417 65.7951 58.7611 65.7084 59.0659L65.2671 59.4636C64.0053 59.8881 63.1649 60.7771 61.744 59.8446Z" fill="#32345D"/>
<path d="M72.0366 36.3446C72.2802 36.0659 73.0679 35.2837 73.0167 34.9181C72.825 33.5504 71.3615 34.9416 70.8478 34.9513L70.7955 34.8476C70.8118 34.5305 70.9907 34.257 71.1419 33.9747C71.2082 33.8568 71.3741 33.54 71.4525 33.456C71.6873 33.0879 71.9143 32.7097 72.1962 32.377C72.5082 32.6317 72.9385 33.0053 73.2699 33.2105C73.6886 33.3295 74.5067 33.5309 74.885 33.6756C74.8073 33.9855 74.8112 34.184 74.801 34.4982L74.811 34.5939C74.7717 35.6873 74.7411 36.5806 74.5803 37.6615L74.5064 37.882C74.2939 37.9953 74.0459 38.3638 73.833 38.5207C73.4297 38.8182 73.138 38.4387 72.6735 38.3915C72.6453 38.3342 72.636 38.3317 72.6329 38.2753C72.5933 37.5484 72.3313 36.9988 72.0366 36.3446Z" fill="#886453"/>
<path d="M71.4535 33.4572C71.6883 33.089 71.9152 32.7108 72.1972 32.3782C72.5092 32.6328 72.9395 33.0065 73.2709 33.2117L73.2337 33.2982C72.6228 33.3627 71.984 33.5634 71.4634 33.6037L71.4535 33.4572Z" fill="#6C4C42"/>
<path d="M73.2326 33.2973L73.2697 33.2107C73.6884 33.3297 74.5066 33.5311 74.8848 33.6759C74.8071 33.9857 74.811 34.1842 74.8009 34.4985C74.1852 33.7867 74.049 33.7466 73.2326 33.2973Z" fill="#6C4C42"/>
<path d="M66.231 33.8896C66.5523 33.2238 69.2486 30.6949 69.8917 30.4202L69.936 30.4309C70.5734 30.9779 71.5489 31.8627 72.1957 32.3453L72.1975 32.3774C71.9155 32.71 71.6886 33.0882 71.4538 33.4564C71.3753 33.5404 71.2095 33.8571 71.1431 33.9751L71.1177 33.8718C70.9599 33.8712 70.1909 34.2754 69.9315 34.3845C68.597 33.7987 67.6627 33.8476 66.231 33.8896Z" fill="#926262"/>
<path d="M60.7327 37.9921C59.6139 37.514 58.6102 36.8927 57.5631 36.2784C56.8215 35.8435 56.1447 35.2954 55.4554 34.7826C55.3721 34.7206 54.8569 34.3357 54.8209 34.2782C54.4076 33.6181 53.1825 33.6687 52.6849 33.1854C53.4164 33.4403 54.1551 33.7049 54.8886 33.9513C55.0875 34.2671 59.659 37.2422 60.0605 37.1928C60.0792 37.1286 60.1025 37.0484 60.1305 36.9522C60.5724 36.6555 61.0538 36.381 61.513 36.1133C61.6151 36.0538 61.7497 36.0022 61.835 35.9695L61.8776 36.0259C61.6972 36.3755 60.3932 36.9052 60.3718 37.4561C60.5154 37.62 60.4747 37.5687 60.738 37.6243C61.5681 37.3783 62.8109 36.004 63.5987 36.044L63.6763 36.0489C63.8152 35.9221 63.9781 35.7371 64.152 35.7031C64.1485 35.8855 64.0935 35.9517 64.0062 36.1109C63.0239 36.6145 61.6002 37.6094 60.7327 37.9921Z" fill="#686056"/>
<path d="M66.2606 56.4822C66.2253 55.8349 66.4177 54.3794 66.8517 53.8052C67.021 53.5813 67.6814 53.6691 67.9698 53.7131C67.5678 54.5267 67.3294 54.5446 66.9785 55.0825C66.6781 55.5429 66.8879 55.7506 66.2606 56.4822Z" fill="#5F5347"/>
<path d="M69.2396 45.4122C69.3003 44.9443 69.1995 44.6132 69.3657 44.1296C69.6203 44.3039 69.6569 44.2683 69.7604 44.5243C69.7662 44.8821 69.5025 45.199 69.2396 45.4122Z" fill="#757166"/>
<path d="M69.4958 38.6143C69.8735 38.3963 70.257 38.6671 70.6428 38.5869C71.9058 38.3242 70.7798 36.9918 70.666 36.3484C70.7214 36.133 70.6613 36.2111 70.8428 36.0993C70.936 36.1181 70.9465 36.1159 71.02 36.1828C72.0791 37.1472 72.1643 38.4523 72.2333 39.8085C72.2842 40.7646 71.7844 41.0384 71.5253 41.8669C71.4166 42.2143 71.8344 42.828 71.2893 43.1049C70.8548 42.8328 71.1448 41.1468 71.1488 40.7085C71.1509 40.4554 70.9665 39.8542 70.8843 39.6022C70.1889 39.2418 69.9953 39.2007 69.4958 38.6143Z" fill="#686056"/>
<path d="M63.4225 57.4897C63.554 57.1668 63.8066 56.9638 64.1348 56.8613C63.9886 57.3487 63.9032 57.4045 63.4225 57.4897Z" fill="#5F5347"/>
<path d="M53.6586 59.1492C53.9308 59.0636 54.7442 59.509 55.1514 59.6393C55.759 59.924 57.1779 60.2204 57.8926 60.2715C57.9477 60.2768 58.114 60.2876 58.1546 60.305L59.0581 60.2741C59.5624 60.236 60.2233 60.1948 60.706 60.0816C60.8746 60.0989 61.1956 60.059 61.3171 59.9754L61.7438 59.8443C63.1647 60.7768 64.0051 59.8879 65.2669 59.4634C64.8511 60.2195 63.6295 61.4997 62.9945 62.1409L62.9933 62.1969C63.2589 62.831 62.5099 64.5353 62.1136 65.1013L61.9148 65.2291C60.9765 65.722 56.0314 64.6584 54.593 64.5765L54.5884 64.5131C54.2362 64.58 53.932 64.3207 53.2835 64.4617L53.2389 64.3264C53.261 64.1791 53.2501 63.8094 53.2515 63.6478C53.2641 62.123 53.4369 60.6565 53.6586 59.1492Z" fill="#926262"/>
<path d="M59.0581 60.2748C59.5624 60.2368 60.2233 60.1956 60.706 60.0824C60.8746 60.0997 61.1956 60.0598 61.3171 59.9761L61.7438 59.8451C63.1647 60.7776 64.0051 59.8887 65.2669 59.4642C64.8511 60.2203 63.6295 61.5005 62.9945 62.1417L62.9933 62.1976C63.2589 62.8318 62.5099 64.5361 62.1136 65.1021L61.9148 65.2298C61.689 65.1831 61.0607 65.1637 60.7994 65.1498L60.7449 65.1114C60.3474 64.8237 60.1917 64.6755 60.4066 64.1649L60.2164 64.2071C58.6583 64.417 58.9483 61.9547 59.0088 61.0279C59.0456 60.7587 59.0501 60.5437 59.0581 60.2748Z" fill="#6C4C42"/>
<path d="M60.4061 64.1643C61.4265 63.7446 62.2026 62.9635 62.9927 62.197C63.2583 62.8312 62.5094 64.5355 62.113 65.1015L61.9142 65.2292C61.6885 65.1825 61.0602 65.1631 60.7988 65.1492L60.7444 65.1108C60.3469 64.8231 60.1911 64.6749 60.4061 64.1643Z" fill="#97837A"/>
<path d="M60.2159 64.2065C60.4135 63.3858 60.5795 62.7847 60.9731 62.0255C61.6802 61.5246 62.4881 61.1774 62.994 62.1411L62.9928 62.1971C62.2026 62.9635 61.4265 63.7446 60.4062 64.1643L60.2159 64.2065Z" fill="#886453"/>
<path d="M53.6586 59.1492C53.9308 59.0636 54.7442 59.509 55.1514 59.6393L54.8274 59.6026C54.6684 59.738 54.669 60.0522 54.651 60.2806C54.5817 61.2729 54.5474 62.2675 54.5481 63.2623C54.5503 63.6073 54.6021 64.215 54.5884 64.5131C54.2362 64.58 53.932 64.3207 53.2835 64.4617L53.2389 64.3264C53.261 64.1791 53.2501 63.8094 53.2515 63.6478C53.2641 62.123 53.4369 60.6565 53.6586 59.1492Z" fill="#97837A"/>
<path d="M60.7997 65.1502C59.8988 65.002 58.953 64.1758 58.5675 63.3666C58.1676 62.527 57.6156 61.2056 57.893 60.2727C57.948 60.2781 58.1144 60.2889 58.1549 60.3062L59.0585 60.2753C59.0504 60.5442 59.046 60.7592 59.0091 61.0284C58.9486 61.9552 58.6587 64.4175 60.2167 64.2075L60.407 64.1654C60.192 64.6759 60.3478 64.8242 60.7453 65.1119L60.7997 65.1502Z" fill="#987C77"/>
<path d="M59.0081 61.0277C58.579 60.4742 58.3986 60.6083 58.1539 60.3056L59.0575 60.2746C59.0494 60.5435 59.0449 60.7585 59.0081 61.0277Z" fill="#97837A"/>
<path d="M60.7059 60.0824C60.2367 59.7687 58.7732 59.9775 58.169 59.7678C57.7914 59.6368 57.0438 59.379 57.2508 58.8423C57.8652 58.4293 58.8624 58.9338 59.4365 58.8371C60.1074 58.7241 60.5124 57.8322 61.1973 58.742L61.3045 58.8296C61.548 59.5634 61.5027 59.2819 61.9929 59.7215L61.7437 59.8451L61.3171 59.9761C61.1955 60.0598 60.8746 60.0997 60.7059 60.0824Z" fill="#686056"/>
<path d="M61.3178 59.9758C61.2592 59.8757 61.2403 59.7773 61.2745 59.6699C61.366 59.3828 61.2642 59.0382 61.198 58.7417L61.3052 58.8293C61.5488 59.5631 61.5034 59.2816 61.9937 59.7211L61.7444 59.8448L61.3178 59.9758Z" fill="#757166"/>
<path d="M57.4231 59.1182C57.7264 58.7983 58.5552 59.0146 58.8639 59.2468C58.3357 59.7309 57.947 59.5362 57.4231 59.1182Z" fill="#9E9B90"/>
<path d="M39.3949 33.8628C39.5107 33.6213 39.5796 33.3013 39.7154 33.0058L39.7712 33.0023C40.7104 32.9352 43.1922 32.2768 43.9114 32.6982L43.8837 32.7729C43.6531 32.8528 43.4859 32.8675 43.2446 32.8886C42.0808 32.99 40.9824 33.1394 39.8844 33.5583C40.5396 33.7432 42.1417 34.1625 42.6201 34.5271L42.6218 34.6108C41.919 34.7588 40.6287 34.0524 40.1032 34.0609C39.8191 33.9506 39.6853 33.9237 39.3949 33.8628Z" fill="#757166"/>
<path d="M39.1216 34.4271L39.2881 34.0293L39.3957 33.8639C39.6861 33.9249 39.8199 33.9517 40.1039 34.0621L40.0693 34.1296C39.8961 34.1755 39.9731 34.1295 39.8561 34.3079C39.8774 34.6519 40.0152 34.4958 40.0312 34.7756C40.3356 35.0788 41.7807 36.1845 41.7314 36.4901C41.2863 36.511 39.4964 34.8282 39.1216 34.4271Z" fill="#757166"/>
<path d="M39.2882 34.0285L39.3958 33.8631C39.6862 33.924 39.82 33.9509 40.104 34.0613L40.0694 34.1287C39.8962 34.1746 39.9732 34.1287 39.8562 34.3071C39.8775 34.651 40.0153 34.495 40.0313 34.7748C39.7861 34.5606 39.4493 34.2963 39.2882 34.0285Z" fill="#97837A"/>
<path d="M38.5924 34.9306C38.6895 34.8284 38.7781 34.7208 38.8967 34.6472C39.021 35.6626 39.5696 37.0236 39.7819 38.0583C39.7629 38.0964 39.7441 38.1343 39.7253 38.1724L39.6186 38.1432C39.2231 37.6053 38.7472 35.6163 38.5924 34.9306Z" fill="#757166"/>
<path d="M40.7658 42.5007C41.6768 41.5755 42.5359 43.7097 42.8832 44.3307C45.0553 48.2163 47.877 51.6329 51.3132 54.4627C51.603 54.7013 51.745 54.9188 51.7506 55.2849C51.2342 55.7894 50.8504 55.6627 50.2723 55.2549C46.6923 52.73 43.996 48.953 41.9291 45.1445C41.4934 44.3419 40.9565 43.3839 40.7658 42.5007Z" fill="#C8C7C4"/>
<path d="M57.137 42.0018C57.9125 40.402 60.3934 41.2048 60.4592 42.8682C59.768 44.5542 56.9069 43.7014 57.137 42.0018Z" fill="#422D22"/>
<path d="M53.5187 51.1707C54.0769 49.3953 56.7193 50.138 56.8157 51.9357C56.287 53.5888 53.7148 52.864 53.5187 51.1707Z" fill="#422D22"/>
<path d="M59.008 47.8801C59.0305 47.8171 59.0537 47.7542 59.0777 47.6917C59.4639 46.6826 60.1414 45.9786 61.1305 45.5227C61.4858 45.3589 62.4355 45.1295 62.7634 45.2611C62.8536 45.4974 62.8403 45.3785 62.7998 45.6321C62.2585 46.2769 61.1566 45.4432 59.7956 47.6392C59.2803 48.824 59.383 49.8813 60.0026 50.9783C60.1232 51.192 60.3096 51.548 60.3017 51.7904C60.167 51.9319 60.2509 51.8759 60.0083 51.9063C59.738 51.8126 59.6784 51.7364 59.5243 51.4809C58.8711 50.4003 58.6847 49.1008 59.008 47.8801Z" fill="#422D22"/>
<path d="M63.7863 38.481C63.8814 38.3743 63.8435 38.4084 63.9707 38.3387C64.1691 38.3989 64.4331 38.8548 64.5405 39.0375C65.3511 40.4124 65.7837 41.997 66.0716 43.5564C66.3104 44.8485 66.1725 46.1185 66.1611 47.4235C66.0209 47.5626 66.1021 47.5269 65.914 47.5445C65.8324 47.4521 65.7659 47.3999 65.7775 47.261C66.0609 43.8739 65.5073 41.4946 63.7863 38.481Z" fill="#686056"/>
<path d="M53.8105 42.0151C53.9649 41.9136 54.3144 41.854 54.5112 41.7954C55.3317 41.5511 55.6896 41.3551 56.3248 40.8386C56.8602 40.4032 57.2502 39.3223 57.7272 39.2078C57.9166 39.3101 57.8648 39.3002 57.9834 39.5349C57.477 40.7688 55.7543 42.6798 54.0801 42.392C53.9047 42.3619 53.8662 42.1699 53.8105 42.0151Z" fill="#422D22"/>
<path d="M51.3109 48.6251C51.8598 47.9402 52.3631 48.9626 52.5623 49.4017C53.09 50.5656 53.1136 51.7657 52.6672 52.9487C52.512 53.0904 52.3968 53.1399 52.2096 53.0439C52.0496 52.5539 52.2348 52.1239 52.2986 51.6598C52.4692 50.4155 52.0017 49.5729 51.3109 48.6251Z" fill="#422D22"/>
<path d="M59.999 56.3457C60.3169 55.5915 60.8974 55.524 61.3479 56.2252C61.1514 56.977 60.4276 56.9218 59.999 56.3457Z" fill="#686056"/>
<path d="M60.1815 56.3225C60.5234 55.8192 60.7732 55.8525 61.184 56.2537C60.8999 56.7646 60.5585 56.6588 60.1815 56.3225Z" fill="#9E9B90"/>
<path d="M52.2351 56.1344C52.6362 55.4378 53.0713 55.8706 53.3943 56.3234C53.2841 56.5002 53.2934 56.4953 53.1219 56.6096C52.7333 56.6789 52.4036 56.4922 52.2351 56.1344Z" fill="#C8C7C4"/>
<path d="M69.9359 30.4317C70.2329 29.6911 72.8419 28.4907 73.5623 28.2238C76.217 27.2408 78.8467 28.7024 79.5237 31.5813C81.3955 39.5414 77.8823 48.3491 74.4418 55.444C71.9523 60.1289 68.9368 64.7795 64.7448 68.117C63.5292 69.0848 62.3674 69.859 60.8621 70.3124C56.7287 71.5575 54.896 68.1442 54.5938 64.577C56.0321 64.6589 60.9773 65.7225 61.9155 65.2296L62.1143 65.1018C62.5107 64.5358 63.2597 62.8315 62.9941 62.1974L62.9953 62.1414C63.6303 61.5002 64.8519 60.22 65.2677 59.4639L65.7089 59.0661C65.7957 58.7613 67.2613 56.542 67.587 55.9781C68.4697 54.461 69.2871 52.9067 70.0368 51.3196C71.1447 48.9598 71.9841 46.7522 72.8917 44.3198C73.0498 43.8961 73.526 42.286 73.6921 42.0418C73.7362 41.713 73.7259 41.3584 73.7276 41.0243C73.5261 40.5015 73.3079 38.7711 72.7321 38.6144L72.6746 38.3927C73.1391 38.4399 73.4308 38.8194 73.8341 38.5219C74.047 38.365 74.295 37.9965 74.5075 37.8832L74.5814 37.6627C74.7422 36.5818 74.7729 35.6885 74.8121 34.5951L74.8022 34.4994C74.8123 34.1851 74.8084 33.9867 74.8861 33.6768C74.5078 33.5321 73.6897 33.3307 73.271 33.2117C72.9396 33.0065 72.5093 32.6328 72.1973 32.3782L72.1955 32.3461C71.5488 31.8635 70.5733 30.9787 69.9359 30.4317Z" fill="#923131"/>
<path d="M74.885 33.6774C76.3468 35.077 76.8599 36.5349 76.8562 38.6404C76.8425 46.414 72.6208 55.7445 67.4178 61.428C66.2062 62.7515 63.86 64.7559 62.1132 65.1024C62.5095 64.5364 63.2585 62.8321 62.9929 62.198L62.9941 62.142C63.6291 61.5008 64.8507 60.2206 65.2665 59.4645L65.7078 59.0667C65.7946 58.7619 67.2601 56.5426 67.5858 55.9787C68.4685 54.4616 69.2859 52.9073 70.0357 51.3202C71.1435 48.9604 71.9829 46.7528 72.8905 44.3204C73.0487 43.8966 73.5248 42.2866 73.6909 42.0424C73.735 41.7136 73.7247 41.359 73.7264 41.0249C73.525 40.5021 73.3067 38.7716 72.7309 38.615L72.6734 38.3933C73.1379 38.4404 73.4296 38.82 73.833 38.5225C74.0458 38.3655 74.2938 37.9971 74.5063 37.8838L74.5802 37.6633C74.741 36.5823 74.7717 35.6891 74.8109 34.5957L74.801 34.5C74.8112 34.1857 74.8072 33.9873 74.885 33.6774Z" fill="#886453"/>
<path d="M65.7079 59.0652C65.7947 58.7603 67.2602 56.541 67.5859 55.9771C68.4686 54.46 69.286 52.9057 70.0358 51.3187C71.1437 48.9589 71.983 46.7513 72.8906 44.3188C73.0488 43.8951 73.5249 42.285 73.691 42.0409C73.732 42.2739 73.7356 42.7718 73.717 43.0125C73.3743 47.4367 71.2596 52.1853 68.7379 55.7829C67.9258 56.9414 66.7349 58.1479 65.7079 59.0652Z" fill="#46497A"/>
<path d="M72.6739 38.3921C73.1385 38.4393 73.4301 38.8188 73.8335 38.5213C74.0463 38.3644 74.2943 37.9959 74.5068 37.8826C74.3914 38.5675 74.0166 40.4243 73.7269 41.0237C73.5255 40.5009 73.3072 38.7705 72.7314 38.6138L72.6739 38.3921Z" fill="#6C4C42"/>
<path d="M74.8117 34.5947C75.7773 34.8983 75.3574 35.9682 75.115 36.6614C75.0171 36.9417 74.8182 37.4851 74.581 37.6623C74.7418 36.5814 74.7725 35.6881 74.8117 34.5947Z" fill="#97837A"/>
<path d="M72.1945 32.3459C72.6594 31.8885 73.8545 30.5857 74.5431 31.3093C74.902 31.6866 75.0726 33.2106 74.8851 33.6766C74.5068 33.5319 73.6886 33.3305 73.27 33.2115C72.9386 33.0063 72.5083 32.6327 72.1963 32.378L72.1945 32.3459Z" fill="#6D2B29"/>
<path d="M61.4267 74.4205C61.8051 74.2386 62.6919 74.381 63.1594 74.3127C64.047 74.1829 64.8837 73.8905 65.6844 73.4847C72.8002 69.6493 77.9208 60.878 81.0579 53.7732C82.1097 51.359 82.9999 48.8775 83.7225 46.3452C83.863 45.8563 84.252 44.4643 84.3099 43.9764C84.829 44.2181 87.7667 45.6462 88.1181 45.6643C87.1525 49.748 85.7567 53.718 83.9543 57.5076C81.3345 63.09 77.2372 69.5105 72.3818 73.3221C71.0911 74.3352 69.9643 75.0954 68.4143 75.6699C65.5243 76.741 63.9961 75.6301 61.4267 74.4205Z" fill="#46497A"/>
<path d="M84.3103 43.9763C84.5099 43.2075 84.6487 42.3526 84.7713 41.4817C85.3136 37.6296 85.6958 33.0555 83.6193 29.5751C83.4758 29.3347 83.0453 28.9687 83.0246 28.7242L83.1694 28.6517C85.79 29.8458 87.0576 30.0324 88.1399 32.952C89.6377 36.9922 88.8457 41.5445 88.1185 45.6642C87.7671 45.6462 84.8294 44.2181 84.3103 43.9763Z" fill="#32345D"/>
<path d="M65.011 33.6984C64.9254 33.5112 50.2025 24.4563 48.817 23.6494C49.2034 23.6666 49.7166 24.1105 50.0669 24.3226L54.19 26.8313C54.4061 26.9634 56.0987 28.0816 56.221 28.0124C56.1897 27.9536 56.0829 27.0558 56.1914 26.9824C56.2362 26.9522 56.1874 26.5361 56.2765 26.5196C56.9205 25.7961 57.5431 24.8234 58.0545 24.0114C58.3925 23.4748 58.9915 22.1247 59.3972 21.7822C59.4837 21.7914 59.5548 21.8 59.6415 21.8126L59.6649 21.7571C59.2983 21.1775 58.1149 20.3697 57.546 19.7841C58.4851 20.4418 59.557 21.4556 60.4661 22.2296C62.4346 23.8943 64.392 25.5722 66.3379 27.2632C66.7176 27.5905 68.6347 29.2903 68.9061 29.4489L68.9467 29.4507C69.1429 29.7145 69.6385 30.1732 69.8915 30.4209C69.2484 30.6956 66.5521 33.2245 66.2308 33.8903C65.8447 34.0808 65.4053 33.8525 65.0458 33.6975L65.011 33.6984Z" fill="#C8C7C4"/>
<path d="M65.0454 33.6972C66.4873 31.7976 67.1645 31.0885 68.9056 29.4485L68.9463 29.4504C69.1425 29.7141 69.6381 30.1728 69.891 30.4206C69.248 30.6953 66.5516 33.2242 66.2303 33.89C65.8442 34.0804 65.4048 33.8521 65.0454 33.6972Z" fill="#97837A"/>
<path d="M61.7628 26.8369C61.742 26.579 61.9302 26.3513 62.1874 26.3229C62.4446 26.2945 62.6779 26.4756 62.7138 26.7319C62.7382 26.9046 62.6667 27.0769 62.5271 27.1815C62.3876 27.2862 62.2022 27.3067 62.0431 27.2349C61.8842 27.1633 61.7767 27.0108 61.7628 26.8369Z" fill="#837D71"/>
<path d="M53.239 64.3268C49.2998 63.9214 45.2816 63.0452 41.3545 62.5056C40.2321 62.3514 39.0708 62.2121 37.9731 61.9433C38.3552 61.8816 41.2446 62.5317 41.8425 62.4247C41.8615 62.2438 41.8158 62.3285 41.7956 62.2049C41.6506 61.3183 41.9376 60.2589 42.0755 59.3701C42.1054 59.1774 42.1989 58.6409 42.258 58.5489C42.7888 57.7213 42.8408 56.6551 43.286 55.8191C43.3266 55.7428 43.3442 55.8238 43.4045 55.6531C43.148 55.2765 37.5928 53.7672 36.8451 53.3209C36.719 53.2457 36.4574 53.3226 36.2503 53.1166C36.373 53.1672 36.4764 53.2114 36.6082 53.2343C37.0271 53.3066 37.4104 53.4977 37.8339 53.6346C38.9081 53.9729 39.9789 54.322 41.046 54.6819L49.386 57.3786C49.9102 57.5482 51.5416 58.164 51.9617 58.1304C52.2006 58.2724 53.5955 59.0078 53.6536 59.1121L53.6587 59.1496C53.437 60.6569 53.2642 62.1234 53.2516 63.6482C53.2502 63.8098 53.2611 64.1795 53.239 64.3268Z" fill="#C8C7C4"/>
<path d="M32.3512 32.8276C31.7603 31.4213 32.6478 30.3393 33.3722 29.1553C33.7248 28.562 34.5372 26.8734 35.3874 27.4138L35.7182 27.7883C37.3574 28.7614 38.0682 30.4922 38.6573 32.1963C38.6751 32.2476 38.8112 32.3445 38.8624 32.376L38.9192 32.4303L39.0833 32.4479L39.1926 32.4245C39.2838 32.5233 39.3184 32.5793 39.4322 32.6473C39.6111 32.8052 39.6066 32.7953 39.7157 33.0057C39.5799 33.3012 39.511 33.6213 39.3952 33.8627L39.2876 34.0281L39.1211 34.4259L38.8961 34.6466C38.7775 34.7202 38.6888 34.8278 38.5917 34.93C38.4149 35.0222 38.2979 35.0417 38.1032 35.0912C37.9755 35.028 37.9829 35.0351 37.9099 34.9127L37.8561 34.79L37.7462 34.7652L37.5302 34.8465C37.1036 34.6632 35.8254 35.2428 35.1515 35.327C34.0973 35.4587 33.4864 35.4514 32.4332 35.4223L32.2537 35.4471C31.4627 35.4861 31.4162 34.6608 31.5066 34.0719C31.6443 33.1749 31.9334 33.3709 32.3512 32.8276Z" fill="#9E9B90"/>
<path d="M32.3512 32.8276C31.7603 31.4213 32.6478 30.3393 33.3722 29.1553C33.7248 28.562 34.5372 26.8734 35.3874 27.4138L35.7182 27.7883C35.6478 28.0502 35.6888 28.2065 35.6689 28.463C35.6174 29.1234 35.3279 29.5696 35.0135 30.1329C35.234 31.1937 35.2299 31.6196 34.8265 32.6544C34.4554 32.9343 34.1976 33.0921 33.9218 33.4633C33.4413 34.11 33.2425 34.905 32.5404 35.3324C32.4896 35.3635 32.4784 35.379 32.4332 35.4223L32.2537 35.4471C31.4627 35.4861 31.4162 34.6608 31.5066 34.0719C31.6443 33.1749 31.9334 33.3709 32.3512 32.8276Z" fill="#9E9B90"/>
<path d="M32.3512 32.8278C31.7603 31.4215 32.6478 30.3395 33.3721 29.1555L33.4734 29.159C33.643 28.9101 34.1322 28.087 34.3024 27.9781C34.4122 28.336 33.7281 29.0732 33.5552 29.5628C33.7995 29.1772 34.2537 28.3645 34.6205 28.1544L34.7517 28.1713C35.0109 28.6309 34.4314 29.4891 34.1591 29.8738C34.0897 31.1357 34.5221 31.5294 33.434 32.5049C33.2785 32.6439 33.1217 32.7815 32.9636 32.9176C32.8654 33.387 32.7047 34.4174 32.0996 34.4598C31.7335 34.0998 32.1646 33.2275 32.3512 32.8278Z" fill="url(#paint1_linear_109_93140)"/>
<path d="M34.6916 30.0579C35.0724 29.4248 35.5237 28.8752 35.3714 28.1656C35.3207 27.9292 35.3153 27.6478 35.3875 27.4133L35.7183 27.7879C35.6479 28.0498 35.6889 28.2061 35.669 28.4625C35.6175 29.1229 35.328 29.5692 35.0136 30.1325C35.2341 31.1932 35.23 31.6192 34.8266 32.6539C34.4555 32.9338 34.1977 33.0917 33.9219 33.4629C33.4414 34.1095 33.2425 34.9045 32.5405 35.332C32.4897 35.363 32.4785 35.3785 32.4333 35.4218L32.2538 35.4467C32.3458 35.0642 32.8559 34.8162 32.9299 34.6193C33.4481 33.2405 33.4785 33.2166 34.63 32.3614C34.905 31.4488 34.8229 30.9892 34.6916 30.0579Z" fill="#757166"/>
<path d="M37.8735 32.8094C37.9137 32.5481 37.8703 32.5379 38.0168 32.38L38.1153 32.3603C38.2051 32.4928 38.2263 32.5656 38.3546 32.6347C38.4978 32.4017 38.4613 32.368 38.6595 32.2965L38.8633 32.3756L38.9201 32.4299L39.0841 32.4476L39.1934 32.4241C39.2847 32.5229 39.3192 32.5789 39.433 32.6469C39.6119 32.8048 39.6075 32.795 39.7166 33.0054C39.5808 33.3009 39.5118 33.6209 39.396 33.8623L39.2884 34.0277L39.122 34.4256L38.8969 34.6462C38.7783 34.7198 38.6897 34.8274 38.5926 34.9296C38.4158 35.0218 38.2987 35.0413 38.104 35.0909C37.9763 35.0277 37.9837 35.0347 37.9108 34.9124L37.857 34.7896L37.747 34.7649L37.531 34.8461L37.4348 34.7087C37.4517 34.468 37.4946 34.4884 37.661 34.2543L37.5427 34.0885C37.6344 33.8776 37.8192 33.8904 37.9789 33.742L38.0823 33.6282C38.0157 33.5202 38.0481 33.5058 38.069 33.3435C38.0204 33.2809 38.0381 33.3084 37.9981 33.2374L37.97 33.1863C38.0516 33.1867 38.0094 33.1979 38.0889 33.1312L37.8735 32.8094Z" fill="#5F5347"/>
<path d="M37.8564 34.7911C38.6065 34.144 38.7722 33.5728 39.0306 32.6252L39.0836 32.4491L39.1929 32.4256C39.2841 32.5245 39.3187 32.5804 39.4325 32.6485C39.6114 32.8063 39.6069 32.7965 39.716 33.0069C39.5802 33.3024 39.5112 33.6224 39.3954 33.8639L39.2879 34.0293L39.1214 34.4271L38.8964 34.6477C38.7777 34.7213 38.6891 34.829 38.592 34.9311C38.4152 35.0234 38.2982 35.0429 38.1035 35.0924C37.9758 35.0292 37.9832 35.0363 37.9102 34.9139L37.8564 34.7911Z" fill="#886453"/>
<path d="M37.8571 34.7904C38.6072 34.1433 38.7729 33.572 39.0313 32.6244L39.1631 32.6427L39.2363 32.7708C39.2629 33.255 38.7981 34.2564 38.4818 34.6477C38.2991 34.8736 38.1746 34.8852 37.9109 34.9131L37.8571 34.7904Z" fill="#5F5347"/>
<path d="M37.7461 34.7646C38.2051 34.1519 38.7593 33.1874 38.9192 32.4296L39.0832 32.4473L39.0303 32.6234C38.7718 33.571 38.6062 34.1422 37.856 34.7893L37.7461 34.7646Z" fill="#837D71"/>
<path d="M37.873 32.8108C37.9133 32.5496 37.8698 32.5394 38.0163 32.3814L38.1148 32.3617C38.2047 32.4942 38.2258 32.5671 38.3542 32.6361C38.505 32.9758 38.3137 33.3558 38.0818 33.6297C38.0153 33.5217 38.0477 33.5072 38.0685 33.3449C38.02 33.2823 38.0377 33.3098 37.9976 33.2388L37.9695 33.1878C38.0512 33.1882 38.0089 33.1993 38.0885 33.1327L37.873 32.8108Z" fill="#686056"/>
<path d="M37.6607 34.2556C36.8293 33.9576 35.7791 34.2693 35.1373 33.9672L35.1457 33.8912C35.9559 33.5009 37.5461 33.8888 37.9413 33.6978L37.9786 33.7434C37.8189 33.8917 37.6341 33.8789 37.5424 34.0898L37.6607 34.2556Z" fill="#757166"/>
<path d="M37.8731 32.8108C37.612 32.2822 36.7076 30.9515 36.6009 30.6092L36.6795 30.5249C37.0362 30.5714 38.0576 32.0724 38.1149 32.3617L38.0164 32.3814C37.8699 32.5394 37.9134 32.5496 37.8731 32.8108Z" fill="#757166"/>
<path d="M37.9413 33.697C37.6653 33.4327 36.7222 33.1365 36.4572 32.7502C36.7245 32.6259 37.708 33.0345 37.9697 33.1868L37.9978 33.2379C38.0379 33.3089 38.0202 33.2814 38.0687 33.344C38.0479 33.5062 38.0155 33.5207 38.0821 33.6287L37.9786 33.7425L37.9413 33.697Z" fill="#757166"/>
<path d="M15.1398 13.4086C15.2367 12.8996 15.73 12.5673 16.2381 12.6687C16.7462 12.7701 17.0743 13.2663 16.9683 13.7736C16.8637 14.2744 16.3749 14.5974 15.8732 14.4972C15.3714 14.3971 15.0441 13.9113 15.1398 13.4086Z" fill="#837D71"/>
<path d="M51.5123 19.2317C51.458 19.2691 52.4926 18.9253 52.7613 18.7922C52.8667 19.2942 53.0226 19.562 53.2832 19.9908L53.2754 20.0358C52.6557 20.1931 52.6161 20.1087 52.0065 20.4347C51.9312 19.8175 51.8938 19.7194 51.5123 19.2317Z" fill="#837D71"/>
<path d="M37.7653 59.0452C38.1362 58.8949 38.4852 58.8671 38.9631 58.6502C39.1244 59.1653 39.213 59.3812 39.4743 59.8484C38.9901 59.8364 38.6274 60.0488 38.2343 60.2905C38.1757 59.7846 38.0015 59.4867 37.7653 59.0452Z" fill="#837D71"/>
<path d="M52.6725 32.4867C52.6652 32.1785 52.9062 31.9212 53.2144 31.9086C53.5225 31.8961 53.7839 32.1328 53.8016 32.4407C53.8134 32.6444 53.7144 32.8387 53.5425 32.949C53.3707 33.0592 53.1527 33.0681 52.9723 32.9722C52.792 32.8765 52.6774 32.6909 52.6725 32.4867Z" fill="#837D71"/>
<path d="M27.9893 44.1317C28.0103 43.9558 28.1251 43.8053 28.289 43.7383C28.4528 43.6713 28.6401 43.6985 28.7782 43.8091C28.9165 43.9198 28.9837 44.0966 28.9542 44.2711C28.9099 44.5321 28.6655 44.7101 28.4036 44.6722C28.1417 44.6343 27.9578 44.3944 27.9893 44.1317Z" fill="#837D71"/>
<path d="M9.66697 35.1053C9.66246 34.9559 9.73882 34.8157 9.86674 34.7385C9.99472 34.6611 10.1545 34.6589 10.2846 34.7325C10.4147 34.8061 10.495 34.9442 10.4947 35.0936C10.4942 35.3196 10.3125 35.5035 10.0866 35.5067C9.8606 35.5098 9.67388 35.3313 9.66697 35.1053Z" fill="#837D71"/>
<path d="M16.154 24.5182C16.13 24.3936 16.1755 24.2659 16.2727 24.1845C16.3699 24.1031 16.5037 24.0808 16.622 24.126C16.7405 24.1714 16.8251 24.2773 16.8431 24.4028C16.87 24.5908 16.742 24.7658 16.5548 24.7971C16.3675 24.8284 16.1897 24.7047 16.154 24.5182Z" fill="#97837A"/>
<defs>
<linearGradient id="paint0_linear_109_93140" x1="83.3413" y1="51.8889" x2="55.4372" y2="48.369" gradientUnits="userSpaceOnUse">
<stop stop-color="#7F5544"/>
<stop offset="1" stop-color="#936D5B"/>
</linearGradient>
<linearGradient id="paint1_linear_109_93140" x1="34.0031" y1="31.7305" x2="32.4265" y2="30.7143" gradientUnits="userSpaceOnUse">
<stop stop-color="#696255"/>
<stop offset="1" stop-color="#868076"/>
</linearGradient>
</defs>
</svg>
