<svg width="287" height="165" viewBox="0 0 287 165" fill="none" xmlns="http://www.w3.org/2000/svg">
<rect width="286.333" height="164.767" rx="16" fill="#EAE3D1"/>
<path d="M101.979 29.2566L94.2442 33.7344L101.911 37.9714L109.577 33.463L101.979 29.2566Z" fill="#FC9F66"/>
<path d="M109.577 44.1826V33.463L101.911 37.9714L102.114 48.5247L109.577 44.1826Z" fill="#F8874C"/>
<path d="M64.3923 67.25L63.9852 74.0345H74.4334L75.3832 67.25H64.3923Z" fill="#F5615B"/>
<path d="M74.4334 74.0345H63.9852V83.8043H74.7048L74.4334 74.0345Z" fill="#EA5148"/>
<path d="M75.3832 67.25L74.4334 74.0345L74.7048 83.8043L75.5189 78.7837L75.3832 67.25Z" fill="#6B373B"/>
<path fill-rule="evenodd" clip-rule="evenodd" d="M167.581 33.463H109.577V44.1826L102.114 48.5247L94.2442 44.1826V42.4799L61.8141 61.551L61 101.173L109.984 130.211H177.83L225.864 101.444L224.372 61.2796L182.715 37.3589V41.0617L175.116 45.5395L167.382 41.3331L167.581 33.463ZM178.101 107.822L186.107 103.199L193.841 107.665V118.27L186.107 122.735L178.101 118.113V107.822ZM110.799 106.193L118.262 110.535V120.984L110.663 125.461L103.064 120.984L103.2 110.671L110.799 106.193ZM63.9852 74.0345L64.3923 67.25H75.3832L75.5189 78.7837L74.7048 83.8043H63.9852V74.0345ZM211.21 65.8931H221.794L222.608 72.2706V82.3117H212.024L210.803 77.6982L211.21 65.8931ZM187.464 72.2706C187.556 74.2451 187.412 76.0973 187.057 77.8339C187.464 85.0255 186.054 92.5215 169.417 101.173C159.24 106.465 132.373 107.432 123.146 103.479C118.315 101.41 110.934 97.9181 107.813 94.9309C98.315 85.8396 99.5362 78.648 99.5362 78.648C98.4165 66.7575 104.916 59.1116 114.326 54.4152C121.722 50.7245 130.915 48.8554 139.621 48.1791L139.701 44.9967H145.4V47.9307C152.135 47.9666 159.221 49.2997 165.618 51.5949C177.531 55.87 187.053 63.4831 187.464 72.2706Z" fill="#D9D9D9"/>
<path d="M106.26 68.6069L135.901 72.8133C135.8 71.8546 136.097 71.0497 136.654 70.3905L114.326 59.4736C110.818 61.774 107.873 64.7529 106.26 68.6069Z" fill="#A765D3"/>
<path d="M114.326 59.4736L136.654 70.3905C137.168 69.783 137.903 69.2994 138.751 68.9333L127.081 54.0418C122.838 55.1922 118.233 56.9123 114.326 59.4736Z" fill="#40C5C4"/>
<path d="M142.686 55.5806L140.386 51.7812C140.386 51.7812 134.249 52.0988 127.081 54.0418L138.751 68.9333C139.978 68.4036 141.444 68.1202 142.822 68.0641L142.686 55.5806Z" fill="#2652CB"/>
<path d="M144.73 51.5949L142.686 55.5806L142.822 68.0641C144.218 68.0073 145.769 68.1727 147.123 68.6069L158.155 53.6081C150.894 51.7812 144.73 51.5949 144.73 51.5949Z" fill="#89D648"/>
<path d="M158.155 53.6081L147.123 68.6069C148.306 68.9861 149.338 69.5703 149.988 70.3905L172.054 59.4736C167.85 56.6018 162.78 54.772 158.155 53.6081Z" fill="#2753C7"/>
<path d="M149.988 70.3905C150.504 71.0434 150.778 71.8458 150.692 72.8133L179.998 68.0641C178.623 65.1199 176.263 62.7527 173.759 60.7368C173.21 60.2948 172.641 59.8741 172.054 59.4736L149.988 70.3905Z" fill="#AA67CE"/>
<path d="M150.692 72.8133C150.692 72.8133 150.983 74.3188 150.827 75.2558L180.614 78.241C181.078 76.6194 181.293 74.9001 181.222 73.0847C181.15 71.2388 180.704 69.5754 179.998 68.0641L150.692 72.8133Z" fill="#D9D9D9"/>
<path d="M180.614 78.241L150.827 75.2558C150.733 75.8192 150.013 76.6127 149.606 77.164L172.809 88.741C176.615 85.8961 179.428 82.3878 180.614 78.241Z" fill="#D9D9D9"/>
<path d="M172.809 88.741L149.606 77.164C148.882 77.7236 147.928 78.2448 146.892 78.6364L160.054 94.9579C164.83 93.4781 169.253 91.3991 172.809 88.741Z" fill="#3EC0C0"/>
<path d="M146.892 78.6364C145.886 79.0166 144.801 79.2745 143.771 79.3265C143.548 79.3378 143.321 79.3405 143.093 79.3353V97.6528C143.229 97.6507 143.365 97.648 143.5 97.6447C148.979 97.5112 154.735 96.6063 160.054 94.9579L146.892 78.6364Z" fill="#284FCF"/>
<path d="M136.654 77.0197L112.562 88.465C120.188 94.207 132.306 97.8194 143.093 97.6528V79.3353C140.635 79.2786 138 78.2907 136.654 77.0197Z" fill="#86D546"/>
<path d="M136.654 77.0197C136.157 76.55 135.836 76.0415 135.766 75.5271C135.746 75.3873 135.735 75.2336 135.73 75.0728L105.452 79.3265C106.486 82.7176 109.047 85.8176 112.562 88.465L136.654 77.0197Z" fill="#3EC5C1"/>
<path d="M104.964 76.6127C105.016 77.5352 105.182 78.4408 105.452 79.3265L135.73 75.0728C135.699 74.0803 135.901 72.8133 135.901 72.8133L106.26 68.6069C105.283 70.9402 104.794 73.5942 104.964 76.6127Z" fill="#2850CC"/>
<path d="M103.2 110.671L110.663 115.013L118.262 110.535L110.799 106.193L103.2 110.671Z" fill="#48CFC8"/>
<path d="M110.663 115.013L103.2 110.671L103.064 120.984L110.663 125.461V115.013Z" fill="#33B6B0"/>
<path d="M118.262 110.535L110.663 115.013V125.461L118.262 120.984V110.535Z" fill="#36BFB7"/>
<path d="M175.387 26L167.653 30.6135L172.006 33.463L175.116 35.4984L177.172 34.1764L182.715 30.6135L175.387 26Z" fill="#FABB76"/>
<path d="M167.382 41.3331L175.116 45.5395V35.4984L172.006 33.463L167.653 30.6135L167.581 33.463L167.382 41.3331Z" fill="#FABB76"/>
<path d="M175.116 45.5395L182.715 41.0617V37.3589V30.6135L177.172 34.1764L175.116 35.4984V45.5395Z" fill="#FABB76"/>
<path d="M135.901 72.8133C136.173 75.3914 140.018 77.1535 143.5 77.0197C146.751 76.8948 150.401 76.054 150.692 72.8133C150.778 71.8458 150.504 71.0434 149.988 70.3905C149.338 69.5703 148.306 68.9861 147.123 68.6069C145.769 68.1727 144.218 68.0073 142.822 68.0641C141.444 68.1202 139.978 68.4036 138.751 68.9333C137.903 69.2994 137.168 69.783 136.654 70.3905C136.097 71.0497 135.8 71.8546 135.901 72.8133Z" fill="#D9D9D9"/>
<path d="M143.5 77.0197C140.018 77.1535 136.173 75.3914 135.901 72.8133C135.901 72.8133 135.699 74.0803 135.73 75.0728C135.735 75.2336 135.746 75.3873 135.766 75.5271C135.836 76.0415 136.157 76.55 136.654 77.0197C138 78.2907 140.635 79.2786 143.093 79.3353C143.321 79.3405 143.548 79.3378 143.771 79.3265C144.801 79.2745 145.886 79.0166 146.892 78.6364C147.928 78.2448 148.882 77.7236 149.606 77.164C150.013 76.6127 150.733 75.8192 150.827 75.2558C150.983 74.3188 150.692 72.8133 150.692 72.8133C150.401 76.054 146.751 76.8948 143.5 77.0197Z" fill="#C3C3C1"/>
<path d="M222.608 72.2706H212.024V82.3117H222.608V72.2706Z" fill="#DF6CBA"/>
<path d="M221.794 65.8931H211.21L212.024 72.2706H222.608L221.794 65.8931Z" fill="#F487CA"/>
<path d="M212.024 72.2706L211.21 65.8931L210.803 77.6982L212.024 82.3117V72.2706Z" fill="#F581C8"/>
<path d="M146.892 101.308C126.498 103.406 100.724 91.2673 99.5362 78.648C99.5362 78.648 98.315 85.8396 107.813 94.9309C110.934 97.9181 118.315 101.41 123.146 103.479C132.373 107.432 159.24 106.465 169.417 101.173C186.054 92.5215 187.464 85.0255 187.057 77.8339C183.918 93.2143 164.308 99.5173 146.892 101.308Z" fill="#C4C4C4"/>
<path d="M99.5362 78.648C100.724 91.2673 126.498 103.406 146.892 101.308C164.308 99.5173 183.918 93.2143 187.057 77.8339C187.412 76.0973 187.556 74.2451 187.464 72.2706C187.053 63.4831 177.531 55.87 165.618 51.5949C159.221 49.2997 152.135 47.9666 145.4 47.9307V50.2887L144.73 51.5949C144.73 51.5949 150.894 51.7812 158.155 53.6081C162.78 54.772 167.85 56.6018 172.054 59.4736C172.641 59.8741 173.21 60.2948 173.759 60.7368C176.263 62.7527 178.623 65.1199 179.998 68.0641C180.704 69.5754 181.15 71.2388 181.222 73.0847C181.293 74.9001 181.078 76.6194 180.614 78.241C179.428 82.3878 176.615 85.8961 172.809 88.741C169.253 91.3991 164.83 93.4781 160.054 94.9579C154.735 96.6063 148.979 97.5112 143.5 97.6447C143.365 97.648 143.229 97.6507 143.093 97.6528C132.306 97.8194 120.188 94.207 112.562 88.465C109.047 85.8176 106.486 82.7176 105.452 79.3265C105.182 78.4408 105.016 77.5352 104.964 76.6127C104.794 73.5942 105.283 70.9402 106.26 68.6069C107.873 64.7529 110.818 61.774 114.326 59.4736C118.233 56.9123 122.838 55.1922 127.081 54.0418C134.249 52.0988 140.386 51.7812 140.386 51.7812L139.565 50.4243L139.621 48.1791C130.915 48.8554 121.722 50.7245 114.326 54.4152C104.916 59.1116 98.4165 66.7575 99.5362 78.648Z" fill="#EAE9EF"/>
<path d="M186.107 103.199L178.101 107.822L186.107 112.345L193.841 107.665L186.107 103.199Z" fill="#2C57DA"/>
<path d="M178.101 107.822V118.113L186.107 122.735V112.345L178.101 107.822Z" fill="#2151C5"/>
<path d="M193.841 118.27V107.665L186.107 112.345V122.735L193.841 118.27Z" fill="#294DC8"/>
<path d="M142.686 55.5806L142.822 50.4243L141.458 48.0534L139.701 44.9967L139.621 48.1791L139.565 50.4243L140.386 51.7812L142.686 55.5806Z" fill="#DFDD76"/>
<path d="M145.4 44.9967H139.701L141.458 48.0534L142.822 50.4243L144.001 47.9422L145.4 44.9967Z" fill="#D9D9D9"/>
<path d="M142.822 50.4243L142.686 55.5806L144.73 51.5949L145.4 50.2887V47.9307V44.9967L144.001 47.9422L142.822 50.4243Z" fill="#B5CB9D"/>
<path d="M177.83 130.211H109.984V137.809H177.83V130.211Z" fill="#C4C4C4"/>
<path d="M109.984 130.211L61 101.173V108.5L109.984 137.809V130.211Z" fill="#C4C4C4"/>
<path d="M225.864 101.444L177.83 130.211V137.809L226 108.771L225.864 101.444Z" fill="#C4C4C4"/>
<path d="M94.2442 44.1826L102.114 48.5247L101.911 37.9714L94.2442 33.7344V42.4799V44.1826Z" fill="#F8874C"/>
<path d="M109.577 33.463L101.979 29.2566L94.2442 33.7344M109.577 33.463V44.1826L102.114 48.5247M109.577 33.463L101.911 37.9714M109.577 33.463H167.581M225.864 101.444L224.372 61.2796L182.715 37.3589M225.864 101.444L177.83 130.211M225.864 101.444L226 108.771L177.83 137.809M177.83 130.211H109.984M177.83 130.211V137.809M109.984 130.211L61 101.173M109.984 130.211V137.809M61 101.173L61.8141 61.551L94.2442 42.4799M61 101.173V108.5L109.984 137.809M109.984 137.809H177.83M178.101 118.27V118.113M178.101 107.822L186.107 103.199L193.841 107.665M178.101 107.822V118.113M178.101 107.822L186.107 112.345M193.841 107.665V118.27L186.107 122.735M193.841 107.665L186.107 112.345M186.107 122.735L178.101 118.113M186.107 122.735V112.345M103.2 110.671L110.663 115.013M103.2 110.671L110.799 106.193L118.262 110.535M103.2 110.671L103.064 120.984L110.663 125.461M110.663 115.013L118.262 110.535M110.663 115.013V125.461M118.262 110.535V120.984L110.663 125.461M63.9852 74.0345L64.3923 67.25H75.3832M63.9852 74.0345H74.4334M63.9852 74.0345V83.8043H74.7048M75.3832 67.25L74.4334 74.0345M75.3832 67.25L75.5189 78.7837L74.7048 83.8043M74.4334 74.0345L74.7048 83.8043M94.2442 33.7344V42.4799M94.2442 33.7344L101.911 37.9714M102.114 48.5247L94.2442 44.1826V42.4799M102.114 48.5247L101.911 37.9714M211.21 65.8931H221.794L222.608 72.2706M211.21 65.8931L212.024 72.2706M211.21 65.8931L210.803 77.6982L212.024 82.3117M222.608 72.2706H212.024M222.608 72.2706V82.3117H212.024M212.024 72.2706V82.3117M167.653 30.6135L175.387 26L182.715 30.6135M167.653 30.6135L167.581 33.463M167.653 30.6135L172.006 33.463L175.116 35.4984M182.715 30.6135V37.3589M182.715 30.6135L177.172 34.1764L175.116 35.4984M175.116 35.4984V45.5395M175.116 45.5395L167.382 41.3331L167.581 33.463M175.116 45.5395L182.715 41.0617V37.3589M99.5362 78.648C100.724 91.2673 126.498 103.406 146.892 101.308C164.308 99.5173 183.918 93.2143 187.057 77.8339M99.5362 78.648C99.5362 78.648 98.315 85.8396 107.813 94.9309C110.934 97.9181 118.315 101.41 123.146 103.479M99.5362 78.648H78.7755M99.5362 78.648C98.4165 66.7575 104.916 59.1116 114.326 54.4152M187.057 77.8339C187.412 76.0973 187.556 74.2451 187.464 72.2706C187.053 63.4831 177.531 55.87 165.618 51.5949M187.057 77.8339C187.464 85.0255 186.054 92.5215 169.417 101.173M187.057 77.8339L207.546 77.6982M169.417 101.173C159.24 106.465 132.373 107.432 123.146 103.479M169.417 101.173L176.744 106.736M123.146 103.479L118.126 108.093M165.618 51.5949L170.367 46.2179M165.618 51.5949C159.221 49.2997 152.135 47.9666 145.4 47.9307M139.701 44.9967H145.4M139.701 44.9967L139.621 48.1791M139.701 44.9967L141.458 48.0534L142.822 50.4243M145.4 44.9967V47.9307M145.4 44.9967L144.001 47.9422L142.822 50.4243M142.686 55.5806L142.822 50.4243M142.686 55.5806L140.386 51.7812M142.686 55.5806L144.73 51.5949M142.686 55.5806L142.822 68.0641M114.326 54.4152L106.999 48.5247M114.326 54.4152C121.722 50.7245 130.915 48.8554 139.621 48.1791M176.88 54.3594C176.88 54.3594 178.083 55.0394 178.78 55.5806C179.343 56.0181 180.137 56.8018 180.137 56.8018M181.765 57.8873C181.765 57.8873 183.451 59.0907 184.343 60.0584C185.061 60.8375 185.971 62.2294 185.971 62.2294M187.464 63.722L188.007 64.9433M182.579 55.0378C182.579 55.0378 185.328 56.904 186.785 58.4301C187.986 59.6871 189.499 61.9581 189.499 61.9581M190.585 63.315L191.399 64.6719M140.386 51.7812L139.565 50.4243L139.621 48.1791M140.386 51.7812C140.386 51.7812 134.249 52.0988 127.081 54.0418M144.73 51.5949L145.4 50.2887V47.9307M144.73 51.5949C144.73 51.5949 150.894 51.7812 158.155 53.6081M142.822 68.0641C141.444 68.1202 139.978 68.4036 138.751 68.9333M142.822 68.0641C144.218 68.0073 145.769 68.1727 147.123 68.6069M135.901 72.8133C136.173 75.3914 140.018 77.1535 143.5 77.0197C146.751 76.8948 150.401 76.054 150.692 72.8133M135.901 72.8133C135.901 72.8133 135.699 74.0803 135.73 75.0728M135.901 72.8133L106.26 68.6069M135.901 72.8133C135.8 71.8546 136.097 71.0497 136.654 70.3905M150.692 72.8133C150.692 72.8133 150.983 74.3188 150.827 75.2558M150.692 72.8133C150.778 71.8458 150.504 71.0434 149.988 70.3905M150.692 72.8133L179.998 68.0641M150.827 75.2558L180.614 78.241M150.827 75.2558C150.733 75.8192 150.013 76.6127 149.606 77.164M112.562 88.465L136.654 77.0197M112.562 88.465C109.047 85.8177 106.486 82.7176 105.452 79.3265M112.562 88.465C120.188 94.207 132.306 97.8194 143.093 97.6528M136.654 77.0197C136.157 76.55 135.836 76.0415 135.766 75.5271C135.746 75.3873 135.735 75.2336 135.73 75.0728M136.654 77.0197C138 78.2907 140.636 79.2786 143.093 79.3353M105.452 79.3265C105.182 78.4408 105.016 77.5352 104.964 76.6127C104.794 73.5942 105.283 70.9402 106.26 68.6069M105.452 79.3265L135.73 75.0728M106.26 68.6069C107.873 64.7529 110.818 61.774 114.326 59.4736M114.326 59.4736L136.654 70.3905M114.326 59.4736C118.233 56.9123 122.838 55.1922 127.081 54.0418M136.654 70.3905C137.168 69.783 137.903 69.2994 138.751 68.9333M127.081 54.0418L138.751 68.9333M147.123 68.6069L158.155 53.6081M147.123 68.6069C148.306 68.9861 149.338 69.5703 149.988 70.3905M158.155 53.6081C162.78 54.772 167.85 56.6018 172.054 59.4736M149.988 70.3905L172.054 59.4736M172.054 59.4736C172.641 59.8741 173.21 60.2948 173.759 60.7368C176.263 62.7527 178.623 65.1199 179.998 68.0641M179.998 68.0641C180.704 69.5754 181.15 71.2388 181.222 73.0847C181.293 74.9001 181.078 76.6194 180.614 78.241M180.614 78.241C179.428 82.3878 176.615 85.8961 172.809 88.741M149.606 77.164L172.809 88.741M149.606 77.164C148.882 77.7236 147.928 78.2448 146.892 78.6364M172.809 88.741C169.253 91.3991 164.83 93.4781 160.054 94.9579M146.892 78.6364C145.886 79.0166 144.801 79.2745 143.771 79.3265C143.548 79.3378 143.321 79.3405 143.093 79.3353M146.892 78.6364L160.054 94.9579M160.054 94.9579C154.735 96.6063 148.979 97.5112 143.5 97.6447C143.365 97.648 143.229 97.6507 143.093 97.6528M143.093 79.3353V97.6528" stroke="black"/>
</svg>
