<svg width="64" height="62" viewBox="0 0 64 62" fill="none" xmlns="http://www.w3.org/2000/svg">
<path d="M42.8616 0C46.4818 1.01026 50.63 2.23222 54.201 3.37908C48.4961 4.11948 42.2177 4.17764 36.519 4.94408L36.7941 5.22544C40.951 5.10816 45.1095 5.06167 49.2679 5.08628C50.5816 5.0866 53.5956 4.90206 54.7415 5.26491C54.9927 5.34447 63.3034 10.8281 63.9759 11.3685L64 11.477C62.5101 12.0585 59.7987 12.6961 58.1736 13.0896C56.3361 13.5347 54.2342 14.1564 52.4211 14.5581C50.8056 14.0097 49.3122 13.2107 47.7339 12.5756C43.4098 10.8356 39.1165 8.98815 35.0075 6.78021C33.9786 6.22739 32.8365 5.96344 31.8432 5.32482L32.1741 6.72685C29.1682 7.02883 24.1852 7.74542 21.2494 8.63952C20.7466 8.79259 18.9704 10.0975 18.4401 10.4694C16.7936 11.6173 15.165 12.7906 13.5552 13.9893C12.3306 14.8944 10.2405 16.5741 9.01434 17.3142C7.56518 21.4968 6.4279 25.7019 5.2264 29.9601C5.04249 30.6116 4.82695 31.3381 4.59911 31.9713C4.21997 31.6671 3.3305 30.8232 2.91301 30.8117L2.80229 31.0696C2.75372 30.8467 2.76266 30.7009 2.55735 30.5656C2.03217 30.2195 0.792631 29.4499 0.160561 29.5247L0.058624 29.8626C0.00174405 29.4871 -0.0492209 29.0549 0.0859488 28.701C0.306918 27.6997 3.94356 16.1758 4.59001 15.6027C7.57717 12.955 14.236 7.58005 17.7909 5.19205C18.0397 5.02492 22.2348 4.51428 22.9012 4.44846C25.6199 4.18003 28.7942 3.59765 31.5144 3.43532C32.264 3.4203 34.103 3.37924 34.8219 3.4922C37.03 2.53595 40.778 0.694862 42.8616 0Z" fill="#7A7A7B"/>
<path d="M42.8614 0C46.4816 1.01026 50.6299 2.23222 54.2008 3.37908C48.4959 4.11948 42.2176 4.17764 36.5189 4.94408L36.794 5.22544C40.9509 5.10816 45.1093 5.06167 49.2678 5.08628C50.5815 5.0866 53.5955 4.90206 54.7414 5.26491C54.9925 5.34447 63.3032 10.8281 63.9757 11.3685C63.7455 11.4431 63.436 11.4401 63.2008 11.3833C58.592 10.2726 53.9514 9.41523 49.283 8.58536C45.1811 7.87005 41.0887 7.10024 37.0071 6.27644C35.6123 5.98789 32.9445 5.5009 31.665 5.04203C32.7496 4.58411 33.783 4.04343 34.8217 3.4922C37.0298 2.53595 40.7778 0.694862 42.8614 0Z" fill="#F1F1EB"/>
<path d="M34.9102 5.15236C35.4227 5.06832 35.9987 5.00873 36.5192 4.94434L36.7944 5.2257C36.1249 5.24839 35.5803 5.20221 34.9102 5.15236Z" fill="#262124"/>
<path d="M31.5143 3.43555C31.492 3.45025 31.4694 3.46495 31.4471 3.47964C27.4834 5.49553 23.3562 7.06245 19.286 8.86071C16.1128 10.2695 12.0346 11.2124 9.42767 13.529C8.92166 13.9786 7.69635 16.0471 7.28317 16.6838C4.814 20.4892 2.67429 24.5102 0.413635 28.4408C0.331831 28.583 0.242517 28.6696 0.0859375 28.7013C0.306907 27.7 3.94355 16.176 4.59 15.6029C7.57715 12.9553 14.2359 7.58027 17.7909 5.19227C18.0397 5.02515 22.2348 4.51451 22.9012 4.44868C25.6199 4.18026 28.7942 3.59788 31.5143 3.43555Z" fill="#F1F1EB"/>
<path d="M50.1995 28.9621L50.3104 28.8896C49.9867 28.7563 50.107 28.8602 49.9199 28.5889C49.9268 28.2642 49.8751 28.3269 50.038 28.1201C50.3014 28.2342 50.3812 28.2537 50.6675 28.2764C51.1241 28.4835 52.6584 29.2844 52.9289 29.6639C54.4549 31.8056 55.9913 34.0861 57.3357 36.3433C57.6361 36.8482 57.5782 39.4429 57.5857 40.1906C57.6047 41.6766 57.6412 43.1625 57.6949 44.6484C58.3758 45.7029 56.8431 48.8808 56.3355 49.921C55.4463 51.7424 54.9737 53.8946 53.4939 55.3437C51.1716 57.6157 49.6406 59.2279 46.6514 60.6195L46.702 60.5141C47.0505 59.7983 47.41 59.4404 47.7569 58.6527C48.418 57.1524 49.1384 52.757 49.8128 51.7088C50.957 49.1381 51.8735 47.0674 52.8521 44.4231C52.9986 41.8635 52.688 37.0191 52.3994 34.4371C52.4657 33.7901 52.3724 31.0841 53.0842 30.8841C53.0031 30.4381 52.857 30.0804 52.7041 29.6559C51.9329 29.3766 51.0258 29.2472 50.1995 28.9621Z" fill="#2C3443"/>
<path d="M50.1992 28.9621L50.3101 28.8896C49.9864 28.7563 50.1067 28.8602 49.9196 28.5889C49.9264 28.2642 49.8748 28.3269 50.0377 28.1201C50.3011 28.2342 50.3808 28.2537 50.6672 28.2764C51.1238 28.4835 52.6581 29.2844 52.9286 29.6639C54.4546 31.8056 55.991 34.0861 57.3354 36.3433C57.6358 36.8482 57.5779 39.4429 57.5854 40.1906C57.6044 41.6766 57.6409 43.1625 57.6946 44.6484L57.6509 46.3468C56.2219 41.1653 54.6994 36.0093 53.0839 30.8841C53.0028 30.4381 52.8567 30.0804 52.7038 29.6559C51.9326 29.3766 51.0255 29.2472 50.1992 28.9621Z" fill="url(#paint0_linear_101_55405)"/>
<path d="M52.8522 44.4233C54.3808 45.2701 55.4356 45.7559 57.0281 46.4525C56.3769 47.0948 55.5638 47.4718 54.8708 48.0183C53.2676 49.2805 51.5291 50.4932 49.947 51.7666L49.813 51.7091C50.9571 49.1383 51.8736 47.0676 52.8522 44.4233Z" fill="#7A7A7B"/>
<path d="M0.0585938 29.863L0.16053 29.5251C0.792601 29.4503 2.03214 30.22 2.55732 30.566C2.76263 30.7014 2.75369 30.8471 2.80226 31.07L2.91298 30.8121C3.33047 30.8236 4.21994 31.6675 4.59908 31.9717C5.19089 33.2359 5.60471 34.6678 6.10034 35.9875C7.42935 39.5233 8.63884 43.1183 10.0314 46.6302C10.2197 47.1047 10.837 47.7853 10.9802 48.1049C11.0081 48.7152 14.3486 53.975 14.8557 54.9081C14.0575 54.5422 12.9473 51.8324 12.7288 51.7493C11.119 51.1326 6.47756 49.7026 5.26023 48.5427C4.74176 47.87 1.04649 39.2565 0.654879 37.9623C0.561889 37.6556 0.436464 35.3005 0.401154 34.7221L0.0585938 29.863Z" fill="#2C3443"/>
<path d="M0.0585938 29.863L0.16053 29.5251C0.792601 29.4503 2.03214 30.22 2.55732 30.566C2.76263 30.7014 2.75369 30.8471 2.80226 31.07C3.12404 32.9726 3.3399 34.9761 3.60065 36.8966L4.74736 45.1315C4.82772 45.737 5.28484 48.1656 5.26023 48.5427C4.74176 47.87 1.04649 39.2565 0.654879 37.9623C0.561889 37.6556 0.436464 35.3005 0.401154 34.7221L0.0585938 29.863Z" fill="#919292"/>
<path d="M34.6425 27.7197C34.837 28.0195 34.8708 28.6546 34.8662 29.0136C33.8219 30.2753 33.3467 31.2031 32.5295 32.6235C32.399 32.8503 31.8068 33.8914 31.6691 34.0475C31.0674 34.2103 30.4219 35.5716 29.9886 36.1196C28.6708 37.786 27.5074 39.6746 26.1003 41.2468C25.3987 41.8891 19.8761 43.4996 18.9802 43.5811L18.8979 43.5699C18.9269 43.2408 19.8948 41.0758 20.1317 40.5581C20.6206 39.4876 21.212 37.8851 21.8527 36.9233C22.092 36.5638 23.5357 35.6307 23.9454 35.3543C25.5216 34.287 27.105 33.2315 28.6955 32.1867C29.5842 31.5991 31.2673 30.5557 31.962 29.853C32.4972 29.1997 33.0643 29.2015 33.8404 29.1155C34.1023 28.8755 34.3027 28.7345 34.4493 28.4109L34.3645 28.2294L33.9035 28.1195C34.132 27.9706 34.3979 27.8456 34.6425 27.7197Z" fill="#2C3443"/>
<path d="M31.962 29.8532C32.4972 29.1999 33.0643 29.2017 33.8404 29.1157C32.9575 30.0383 32.0906 31.0059 31.1883 31.8996C27.2574 35.7938 22.7853 39.6109 18.9802 43.5813L18.8979 43.5701C18.9269 43.241 19.8948 41.076 20.1317 40.5583C20.6206 39.4878 21.212 37.8853 21.8527 36.9235C22.092 36.564 23.5357 35.6309 23.9454 35.3545C25.5216 34.2872 27.105 33.2317 28.6955 32.1869C29.5842 31.5993 31.2673 30.5559 31.962 29.8532Z" fill="#CDCCCB"/>
<path d="M35.3301 27.1696C37.8878 26.2515 42.1912 25.8622 44.9415 25.3667C45.8772 25.1981 49.7842 27.6464 50.6674 28.2768C50.3811 28.2542 50.3013 28.2347 50.0379 28.1206C49.8751 28.3273 49.9267 28.2647 49.9198 28.5894C50.1069 28.8607 49.9866 28.7568 50.3103 28.8901L50.1994 28.9626C51.0258 29.2476 51.9328 29.377 52.704 29.6563C52.857 30.0809 53.003 30.4386 53.0841 30.8845C52.3723 31.0846 52.4657 33.7905 52.3994 34.4376C51.0425 33.1755 44.6961 29.4282 42.9717 28.6251L42.3445 28.3863L41.9799 28.3292C40.0692 29.4117 36.0818 29.5592 34.9807 30.7621C34.9746 30.119 34.9335 29.656 34.8663 29.014C34.8709 28.655 34.837 28.0199 34.6426 27.7202L34.7335 27.5123C34.9722 27.3227 35.0308 27.2512 35.3301 27.1696Z" fill="#F1F1EB"/>
<path d="M42.8354 27.5127C45.177 27.8495 47.8893 28.432 50.1992 28.9622C51.0255 29.2472 51.9326 29.3766 52.7038 29.6559C52.8567 30.0804 53.0027 30.4382 53.0839 30.8841C52.3721 31.0842 52.4654 33.7901 52.3991 34.4372C51.0423 33.1751 44.6959 29.4278 42.9714 28.6247C42.9869 28.3082 42.8895 27.839 42.8354 27.5127Z" fill="#919292"/>
<path d="M34.6426 27.72L34.7335 27.5121C34.9722 27.3225 35.0308 27.2511 35.3301 27.1694C35.637 27.2017 35.9056 27.2412 36.2157 27.2234C36.9606 27.4762 36.7321 27.7323 37.2902 27.8453C38.7076 28.1321 40.6092 27.933 41.9799 28.3291C40.0692 29.4116 36.0818 29.559 34.9807 30.762C34.9746 30.1189 34.9335 29.6559 34.8663 29.0139C34.8709 28.6549 34.837 28.0198 34.6426 27.72Z" fill="#2C3443"/>
<path d="M36.2153 27.2231C37.7604 27.2337 40.171 27.2006 41.6622 27.3874L42.8353 27.5127C42.8893 27.8389 42.9868 28.3082 42.9713 28.6247L42.3441 28.3858L41.9795 28.3288C40.6088 27.9327 38.7072 28.1318 37.2898 27.845C36.7317 27.732 36.9602 27.4759 36.2153 27.2231Z" fill="#4F5666"/>
<path d="M41.6626 27.3877L42.8357 27.513C42.8897 27.8392 42.9871 28.3085 42.9716 28.625L42.3445 28.3861C42.0532 28.0231 41.9023 27.7771 41.6626 27.3877Z" fill="#7A7A7B"/>
<path d="M20.9347 57.3188C21.9377 57.6464 24.4064 57.9308 25.5424 58.1001C28.1782 58.5155 30.818 58.9054 33.4615 59.2697C34.8947 59.463 36.6399 59.6196 38.0181 59.8529C37.4618 60.5799 37.0571 61.0975 36.6214 61.9044C33.134 61.9667 29.2637 61.7206 25.7405 61.6232C24.1965 61.58 19.7122 61.4187 18.3521 61.0911C18.9851 60.3706 20.6015 58.1784 20.9347 57.3188Z" fill="url(#paint1_linear_101_55405)"/>
<path d="M10.9805 48.1045C13.1208 50.1592 15.2834 52.1899 17.4678 54.1967C18.2026 54.8806 20.2287 56.825 20.9343 57.3187C20.6012 58.1783 18.9847 60.3704 18.3517 61.091C17.2497 59.0715 16.0415 56.8682 14.856 54.9077C14.3488 53.9746 11.0084 48.7148 10.9805 48.1045Z" fill="#919292"/>
<path d="M33.9032 28.1196L34.3642 28.2296L34.449 28.4111C34.3023 28.7346 34.102 28.8757 33.8401 29.1157C33.0639 29.2016 32.4969 29.1999 31.9616 29.8532C31.1808 30.1595 28.4734 31.7305 27.5953 32.2362C25.6163 33.3759 23.3018 34.5092 21.3979 35.6819L24.6102 31.6951C25.2025 30.9612 25.9405 29.9828 26.6052 29.3393C28.2606 28.9535 32.7123 28.5767 33.9032 28.1196Z" fill="#F1F1EB"/>
<path d="M34.8659 29.0142C34.9332 29.6561 34.9742 30.1192 34.9803 30.7623C33.7913 37.9001 32.7289 37.2945 27.5938 41.7379C28.9156 39.2502 30.4542 36.5484 31.6688 34.048C31.8065 33.8919 32.3987 32.8508 32.5292 32.6241C33.3465 31.2037 33.8216 30.2759 34.8659 29.0142Z" fill="#7A7A7B"/>
<defs>
<linearGradient id="paint0_linear_101_55405" x1="57.1518" y1="35.9981" x2="51.2649" y2="36.9828" gradientUnits="userSpaceOnUse">
<stop stop-color="#CBCBCB"/>
<stop offset="1" stop-color="#EEEEF0"/>
</linearGradient>
<linearGradient id="paint1_linear_101_55405" x1="27.615" y1="56.6357" x2="28.36" y2="62.6599" gradientUnits="userSpaceOnUse">
<stop stop-color="#545250"/>
<stop offset="1" stop-color="#878B92"/>
</linearGradient>
</defs>
</svg>
