<svg width="40" height="40" viewBox="0 0 40 40" fill="none" xmlns="http://www.w3.org/2000/svg">
<path d="M20 37.5C29.698 37.5 37.5 29.698 37.5 20C37.5 10.302 29.698 2.5 20 2.5C10.302 2.5 2.5 10.302 2.5 20C2.5 29.698 10.302 37.5 20 37.5Z" fill="#2775CA"/>
<path d="M24.8123 22.7708C24.8123 20.2187 23.281 19.3437 20.2185 18.9792C18.031 18.6875 17.5935 18.1042 17.5935 17.0833C17.5935 16.0623 18.3228 15.4062 19.781 15.4062C21.0935 15.4062 21.8228 15.8437 22.1873 16.9375C22.2603 17.1562 22.479 17.302 22.6978 17.302H23.8643C24.156 17.302 24.3748 17.0833 24.3748 16.7917V16.7187C24.0831 15.1145 22.7706 13.875 21.0935 13.7292V11.9792C21.0935 11.6875 20.8748 11.4687 20.5103 11.3958H19.4165C19.1248 11.3958 18.906 11.6145 18.8331 11.9792V13.6562C16.6456 13.948 15.2603 15.4062 15.2603 17.2292C15.2603 19.6355 16.7185 20.5833 19.781 20.948C21.8228 21.3125 22.479 21.75 22.479 22.9167C22.479 24.0834 21.4581 24.8855 20.0728 24.8855C18.1768 24.8855 17.5206 24.0833 17.3018 22.9895C17.229 22.698 17.0103 22.552 16.7915 22.552H15.5518C15.2603 22.552 15.0415 22.7708 15.0415 23.0625V23.1355C15.3331 24.9583 16.4998 26.2708 18.906 26.6355V28.3855C18.906 28.677 19.1248 28.8958 19.4893 28.9687H20.5831C20.8748 28.9687 21.0935 28.75 21.1665 28.3855V26.6355C23.354 26.2708 24.8123 24.7395 24.8123 22.7708Z" fill="white"/>
<path d="M16.2812 30.427C10.5937 28.3855 7.67698 22.0417 9.79168 16.427C10.8854 13.3645 13.2917 11.0313 16.2812 9.93752C16.5729 9.79175 16.7187 9.573 16.7187 9.2083V8.18752C16.7187 7.8958 16.5729 7.67705 16.2812 7.60425C16.2082 7.60425 16.0625 7.60425 15.9895 7.67705C9.06246 9.86455 5.27073 17.2292 7.45823 24.1563C8.77073 28.2395 11.9062 31.375 15.9895 32.6875C16.2812 32.8333 16.5729 32.6875 16.6457 32.3958C16.7187 32.323 16.7187 32.25 16.7187 32.1042V31.0833C16.7187 30.8645 16.5 30.573 16.2812 30.427ZM24.0104 7.67705C23.7187 7.53127 23.427 7.67705 23.3542 7.96877C23.2812 8.04175 23.2812 8.11455 23.2812 8.2605V9.28127C23.2812 9.573 23.5 9.86455 23.7187 10.0105C29.4062 12.052 32.3229 18.3958 30.2082 24.0105C29.1145 27.073 26.7082 29.4063 23.7187 30.5C23.427 30.6458 23.2812 30.8645 23.2812 31.2292V32.25C23.2812 32.5417 23.427 32.7605 23.7187 32.8333C23.7917 32.8333 23.9375 32.8333 24.0104 32.7605C30.9375 30.573 34.7292 23.2083 32.5417 16.2813C31.2292 12.125 28.0207 8.98955 24.0104 7.67705Z" fill="white"/>
</svg>
