<svg width="287" height="165" viewBox="0 0 287 165" fill="none" xmlns="http://www.w3.org/2000/svg">
<g clip-path="url(#clip0_217_3809)">
<rect width="286.333" height="164.767" rx="16" fill="#151C36"/>
<path d="M207.426 121.135C205.9 107.181 87.5647 109.296 87.5647 109.296C87.5647 109.296 71.3333 110.142 71.3335 121.135C71.3337 132.128 104.269 136.658 129.599 138.471C163.18 140.874 208.952 135.089 207.426 121.135Z" fill="#0D1424"/>
<path d="M94.3744 117.469L148.083 123.532L148.259 110.615L92.9305 104.816L94.3744 117.469Z" fill="#8A4734"/>
<path d="M109.683 82.1467L90.223 81.0923L91.5768 92.9543L92.9305 104.816L148.259 110.615L148.602 85.5735L124.472 83.4647L123.953 92.9543L109.683 91.3727V82.1467Z" fill="#8A4734"/>
<path d="M184.667 81.0923L159.239 85.3099L159.321 97.1719L183.8 91.8999L184.667 81.0923Z" fill="#8A4734"/>
<path d="M183.8 91.8999L159.321 97.1719L159.406 109.561L182.85 103.738L183.8 91.8999Z" fill="#8A4734"/>
<path d="M159.499 123.005L181.813 116.678L182.85 103.738L159.406 109.561L159.499 123.005Z" fill="#8A4734"/>
<path fill-rule="evenodd" clip-rule="evenodd" d="M190.115 73.4479L154.569 79.5107L153.791 130.913L185.964 121.95L186.618 114.306L190.115 73.4479ZM159.239 85.3099L184.667 81.0923L183.8 91.8999L182.85 103.738L181.813 116.678L159.499 123.005L159.406 109.561L159.321 97.1719L159.239 85.3099Z" fill="#E9AA39"/>
<path fill-rule="evenodd" clip-rule="evenodd" d="M154.569 79.5107L83.996 73.9751L87.874 110.615L89.1852 123.005L153.791 130.913L154.569 79.5107ZM90.223 81.0923L109.683 82.1467V91.3727L123.953 92.9543L124.472 83.4647L148.602 85.5735L148.259 110.615L148.083 123.532L94.3744 117.469L92.9305 104.816L91.5768 92.9543L90.223 81.0923ZM118.504 80.3015H114.353V83.973L115.391 84.2555V89.7911H118.504V80.3015Z" fill="#E9AA39"/>
<path d="M120.58 68.1759L83.996 73.9751L154.569 79.5107L190.115 73.4479L177.68 72.5051L169.255 71.8663L138.223 69.5136L130.699 68.9431L120.58 68.1759Z" fill="#FBF086"/>
<path d="M199.456 58.3776L196.342 69.4939C196.342 69.4939 201.55 71.241 206.27 64.7491L199.456 58.3776Z" fill="#8A4734"/>
<path d="M206.27 64.7491C207.63 62.8776 208.951 60.3214 210.094 56.8411C210.439 55.7914 210.65 54.732 210.753 53.678L202.692 46.8244L199.456 58.3776L206.27 64.7491Z" fill="#8A4734"/>
<path d="M205.423 37.0712L202.692 46.8244L210.753 53.678C211.583 45.203 205.423 37.0712 205.423 37.0712Z" fill="#8A4734"/>
<path fill-rule="evenodd" clip-rule="evenodd" d="M212.948 63.4311C222.016 41.816 202.31 28.636 202.31 28.636L201.306 32.3264L191.191 69.4939L190.115 73.4479C190.115 73.4479 205.538 81.0923 212.948 63.4311ZM196.342 69.4939L199.456 58.3776L202.692 46.8244L205.423 37.0712C205.423 37.0712 211.583 45.203 210.753 53.678C210.65 54.732 210.439 55.7914 210.094 56.8411C208.951 60.3214 207.63 62.8776 206.27 64.7491C201.55 71.241 196.342 69.4939 196.342 69.4939Z" fill="#E9AE3A"/>
<path d="M126.288 64.4855L191.191 69.4939L201.306 32.3264L136.894 29.4268L126.288 64.4855Z" fill="#9E6C37"/>
<path d="M133.553 26L120.58 68.1759L130.699 68.9431L130.958 66.8579L138.223 67.3851V69.5136L169.255 71.8663L169.877 70.0211L177.921 70.5483L177.68 72.5051L190.115 73.4479L191.191 69.4939L126.288 64.4855L136.894 29.4268L201.306 32.3264L202.31 28.636L133.553 26Z" fill="#935435"/>
<path d="M92.9305 104.816L94.3744 117.469L148.083 123.532L148.259 110.615M92.9305 104.816L148.259 110.615M92.9305 104.816L91.5768 92.9543M148.259 110.615L148.602 85.5735L124.472 83.4647L123.953 92.9543L109.683 91.3727V82.1467L90.223 81.0923L91.5768 92.9543M91.5768 92.9543L148.083 97.9627M114.353 83.9919V83.973M114.353 83.973V80.3015H118.504V89.7911H115.391V84.2555L114.353 83.973ZM83.996 73.9751L120.58 68.1759M83.996 73.9751L154.569 79.5107M83.996 73.9751L87.874 110.615L89.1852 123.005L153.791 130.913M120.58 68.1759L133.553 26L202.31 28.636M120.58 68.1759L130.699 68.9431M190.115 73.4479L154.569 79.5107M190.115 73.4479C190.115 73.4479 205.538 81.0923 212.948 63.4311C222.016 41.816 202.31 28.636 202.31 28.636M190.115 73.4479L191.191 69.4939M190.115 73.4479L186.618 114.306L185.964 121.95L153.791 130.913M190.115 73.4479L177.68 72.5051M154.569 79.5107L153.791 130.913M159.321 97.1719L159.239 85.3099L184.667 81.0923L183.8 91.8999M159.321 97.1719L183.8 91.8999M159.321 97.1719L159.406 109.561M183.8 91.8999L182.85 103.738M159.406 109.561L159.499 123.005L181.813 116.678L182.85 103.738M159.406 109.561L182.85 103.738M202.31 28.636L201.306 32.3264M199.456 58.3776L196.342 69.4939C196.342 69.4939 201.55 71.241 206.27 64.7491M199.456 58.3776L206.27 64.7491M199.456 58.3776L202.692 46.8244M206.27 64.7491C207.63 62.8776 208.951 60.3214 210.094 56.8411C210.439 55.7914 210.65 54.732 210.753 53.678M202.692 46.8244L205.423 37.0712C205.423 37.0712 211.583 45.203 210.753 53.678M202.692 46.8244L210.753 53.678M191.191 69.4939L126.288 64.4855L136.894 29.4268L201.306 32.3264M191.191 69.4939L201.306 32.3264M130.699 68.9431L130.958 66.8579L138.223 67.3851V69.5136M130.699 68.9431L138.223 69.5136M138.223 69.5136L169.255 71.8663M169.255 71.8663L169.877 70.0211L177.921 70.5483L177.68 72.5051M169.255 71.8663L177.68 72.5051M177.661 72.6571L177.68 72.5051" stroke="black" stroke-width="1.24685"/>
<path d="M89.4668 -4.63333L89.3335 74L154.333 79L189.833 74L192.833 7.5L89.4668 -10V-4.63333Z" fill="url(#paint0_linear_217_3809)"/>
<path d="M142.926 36.431C133.54 35.8845 124.578 44.1888 123.24 53.2576C122.063 61.2288 126.095 67.9772 134.217 68.934C142.596 69.921 150.673 63.9874 153.826 55.9336C157.389 46.8341 152.543 36.991 142.926 36.431Z" fill="#2775CA"/>
<path fill-rule="evenodd" clip-rule="evenodd" d="M143.688 33.5854C132.685 32.6863 122.116 42.2804 119.996 52.9738C118.012 62.9797 123.472 70.9467 133.763 71.8069C143.884 72.6528 153.244 65.876 156.761 56.1904C160.645 45.4965 154.868 34.499 143.688 33.5854ZM123.24 53.2576C124.578 44.1888 133.54 35.8845 142.926 36.431C152.543 36.991 157.389 46.8341 153.826 55.9336C150.673 63.9874 142.596 69.921 134.217 68.934C126.095 67.9772 122.063 61.2288 123.24 53.2576Z" fill="#2775CA"/>
<path d="M142.926 36.431C133.54 35.8845 124.578 44.1888 123.24 53.2576C122.063 61.2288 126.095 67.9772 134.217 68.934C142.596 69.921 150.673 63.9874 153.826 55.9336C157.389 46.8341 152.543 36.991 142.926 36.431Z" stroke="black" stroke-width="0.310134"/>
<path fill-rule="evenodd" clip-rule="evenodd" d="M143.688 33.5854C132.685 32.6863 122.116 42.2804 119.996 52.9738C118.012 62.9797 123.472 70.9467 133.763 71.8069C143.884 72.6528 153.244 65.876 156.761 56.1904C160.645 45.4965 154.868 34.499 143.688 33.5854ZM123.24 53.2576C124.578 44.1888 133.54 35.8845 142.926 36.431C152.543 36.991 157.389 46.8341 153.826 55.9336C150.673 63.9874 142.596 69.921 134.217 68.934C126.095 67.9772 122.063 61.2288 123.24 53.2576Z" stroke="black" stroke-width="0.310134"/>
<path d="M142.974 55.4962C143.604 53.1436 142.365 52.2096 139.543 51.6188C137.535 51.1679 137.263 50.5938 137.515 49.6526C137.768 48.7114 138.623 48.1673 140.009 48.2886C141.257 48.3977 141.843 48.8617 141.919 49.9003C141.934 50.1081 142.106 50.2607 142.314 50.2789L143.423 50.3759C143.701 50.4002 143.963 50.2167 144.035 49.9479L144.053 49.8806C144.172 48.3775 143.23 47.1256 141.672 46.8517L142.104 45.2385C142.176 44.9695 142.022 44.7497 141.693 44.6521L140.654 44.5611C140.376 44.5368 140.114 44.7203 139.955 45.0504L139.54 46.5964C137.389 46.6834 135.711 47.9125 135.261 49.5931C134.667 51.8113 135.819 52.8064 138.641 53.3973C140.492 53.9032 141.008 54.3611 140.719 55.4367C140.431 56.5123 139.262 57.1667 137.945 57.0515C136.143 56.8938 135.717 56.0997 135.779 55.0732C135.782 54.7983 135.61 54.6456 135.402 54.6274L134.223 54.5243C133.946 54.5 133.684 54.6835 133.612 54.9524L133.594 55.0197C133.421 56.7244 134.206 58.0314 136.404 58.5677L135.971 60.181C135.899 60.4498 136.053 60.6696 136.382 60.7672L137.422 60.8582C137.699 60.8825 137.961 60.699 138.121 60.369L138.553 58.7558C140.723 58.6015 142.488 57.3112 142.974 55.4962Z" fill="white"/>
<path d="M132.972 61.8449C128.068 59.4898 126.862 53.399 130.26 48.3989C132.056 45.6666 134.92 43.7158 138.033 42.9561C138.346 42.846 138.539 42.6565 138.629 42.3203L138.881 41.3793C138.953 41.1103 138.869 40.8965 138.609 40.8052C138.54 40.7991 138.401 40.787 138.314 40.848C131.188 42.2884 125.763 48.7623 126.132 55.3301C126.371 59.2036 128.578 62.3549 132.136 63.9045C132.377 64.0632 132.691 63.9531 132.832 63.6902C132.919 63.6291 132.937 63.5619 132.973 63.4275L133.225 62.4863C133.28 62.2846 133.144 61.9977 132.972 61.8449ZM145.94 41.5152C145.699 41.3565 145.385 41.4667 145.244 41.7295C145.157 41.7907 145.139 41.8579 145.102 41.9924L144.85 42.9334C144.778 43.2024 144.914 43.4893 145.086 43.6421C149.989 45.9972 151.195 52.088 147.798 57.0881C146.002 59.8204 143.137 61.7712 140.025 62.5309C139.712 62.641 139.519 62.8305 139.429 63.1667L139.177 64.1077C139.105 64.3767 139.189 64.5905 139.449 64.6818C139.518 64.6879 139.657 64.7 139.744 64.639C146.87 63.1986 152.294 56.7247 151.926 50.1569C151.705 46.2161 149.429 43.0587 145.94 41.5152Z" fill="white"/>
</g>
<defs>
<linearGradient id="paint0_linear_217_3809" x1="133.333" y1="-46.1667" x2="133.333" y2="158" gradientUnits="userSpaceOnUse">
<stop offset="0.3" stop-color="#D9D9D9" stop-opacity="0"/>
<stop offset="0.45" stop-color="#DCD3C2" stop-opacity="0.145902"/>
<stop offset="1" stop-color="#EDAE3E"/>
</linearGradient>
<clipPath id="clip0_217_3809">
<rect width="286.333" height="164.767" rx="16" fill="white"/>
</clipPath>
</defs>
</svg>
