<svg width="74" height="106" viewBox="0 0 74 106" fill="none" xmlns="http://www.w3.org/2000/svg">
<path d="M45.2488 58.3734C45.7165 58.8898 46.1774 58.8654 46.506 59.4259C47.0838 59.4334 47.6618 59.4327 48.2396 59.4235C48.5307 60.1535 49.6964 62.9332 49.8125 63.4748L49.7914 64.6495C51.5236 64.9926 53.2794 65.2053 55.008 65.5688C55.4542 65.6625 55.9015 65.7573 56.3543 65.8113C58.005 66.3351 59.7757 66.7105 61.4028 67.3181C65.2845 68.7674 69.0493 70.4765 71.9019 73.5768C74.4119 76.3047 73.9672 79.027 73.973 82.4441C73.9764 84.3269 74.0012 86.2732 73.9455 88.154C73.9892 91.7201 74.0175 93.1773 71.3379 95.974C67.4242 100.059 59.9178 102.501 54.4708 103.696C53.8113 103.903 51.7684 104.239 51.0493 104.358C46.3395 105.117 41.5752 105.485 36.8049 105.458C26.1404 105.447 11.1882 103.615 2.74075 96.1173C-0.480827 93.2581 0.0478958 89.6391 0.0778511 85.7153C0.0205133 85.2386 0.0423774 83.4773 0.0438476 82.8998C0.0473393 81.4013 -0.0697216 79.5719 0.0649855 78.1074C0.120853 77.4823 0.252249 76.8663 0.456607 76.2729C1.67577 72.7725 5.28438 70.6443 8.42564 69.0976C10.4962 67.8829 13.867 66.8502 16.1778 66.2713C18.7222 65.6375 21.2366 65.0705 23.842 64.7383L23.8712 63.4774C24.0868 62.5475 25.1222 60.408 25.5678 59.4356L27.2058 59.429C27.6149 59.0034 28.0287 58.888 28.3257 58.5247C29.663 61.0304 43.9247 60.7505 45.2488 58.3734Z" fill="url(#paint0_linear_101_48177)"/>
<path d="M45.249 58.3734C45.7167 58.8898 46.1776 58.8654 46.5062 59.4259C47.084 59.4334 47.6619 59.4327 48.2397 59.4235C48.5308 60.1535 49.6965 62.9332 49.8126 63.4748L49.7915 64.6495C51.5238 64.9926 53.2796 65.2053 55.0081 65.5688C55.4543 65.6625 55.9017 65.7573 56.3545 65.8113C56.2273 66.6295 55.9243 66.6852 55.6207 67.3146L55.9641 67.3742C57.5525 67.8522 62.1127 69.3172 63.5417 70.2173C63.3304 71.27 62.8827 72.6562 62.5786 73.7151C62.32 74.6151 62.0686 75.6922 61.7957 76.5515C61.9655 77.0207 62.0892 77.3252 62.1313 77.831C62.3909 78.8305 61.9216 80.0594 61.3962 80.8991C59.3708 84.1355 54.0685 85.8706 50.5702 86.7621C40.5506 89.3152 21.4012 89.3283 13.3594 81.833C12.7897 81.2723 12.4183 80.7918 11.9616 80.1423C10.8786 78.4575 9.55067 71.6467 8.8492 71.0026L8.85949 70.9537C8.73324 70.2826 8.60331 69.7586 8.42578 69.0976C10.4964 67.8829 13.8672 66.8502 16.178 66.2713C18.7223 65.6375 21.2367 65.0705 23.8421 64.7383L23.8713 63.4774C24.0869 62.5475 25.1223 60.408 25.5679 59.4356L27.2059 59.429C27.615 59.0034 28.0289 58.888 28.3259 58.5247C29.6632 61.0304 43.9249 60.7505 45.249 58.3734Z" fill="#FDC02E"/>
<path d="M45.2478 58.3734C45.7155 58.8898 46.1764 58.8654 46.505 59.4259C47.0828 59.4334 47.6607 59.4327 48.2385 59.4235C48.5296 60.1535 49.6953 62.9332 49.8115 63.4748L49.7903 64.6495C51.5226 64.9926 53.2784 65.2053 55.007 65.5688C55.4532 65.6625 55.9005 65.7573 56.3533 65.8113C56.2261 66.6295 55.9231 66.6852 55.6195 67.3146L55.963 67.3742C56.1072 67.9736 55.6687 70.8898 55.5631 71.61C55.5364 71.9494 55.3672 74.4003 55.3034 74.578C54.9533 74.0446 52.5844 73.4567 51.9093 73.2923C51.4709 73.1855 51.2603 73.1956 50.9029 73.4332C50.9804 73.6525 51.0683 73.9732 51.2148 74.134C51.4557 75.1767 51.9657 76.1919 52.263 77.2523L21.2637 77.2535C21.5595 76.1445 22.0219 75.5152 22.3193 74.534C22.5449 74.0834 22.6168 73.8629 22.7721 73.3878L22.907 73.0844C23.2098 72.8573 23.4605 72.9593 23.89 73.0094C23.8703 71.966 23.8735 70.9069 23.8678 69.8619C23.9435 68.9763 23.8678 67.1617 23.8507 66.2092L23.8409 64.7383L23.8701 63.4774C24.0857 62.5475 25.1211 60.408 25.5668 59.4356L27.2048 59.429C27.6138 59.0034 28.0277 58.888 28.3247 58.5247C29.662 61.0304 43.9237 60.7505 45.2478 58.3734Z" fill="#593426"/>
<path d="M45.2476 58.3734C45.7153 58.8898 46.1762 58.8654 46.5048 59.4259C46.5748 60.1821 46.589 60.6702 46.4872 61.432C43.6719 62.8822 37.2348 63.1652 34.0598 62.8301C33.6672 62.7888 32.2549 62.7035 31.8897 62.6203C31.139 62.5254 30.3444 62.3646 29.5961 62.2274C28.6777 62.0451 27.9847 61.7986 27.1241 61.4452C27.105 60.7963 27.0611 60.0546 27.2046 59.429C27.6137 59.0034 28.0275 58.888 28.3245 58.5247C29.6618 61.0304 43.9235 60.7505 45.2476 58.3734Z" fill="url(#paint1_linear_101_48177)"/>
<path d="M29.3891 60.7112C30.9038 60.8078 32.0463 60.4928 31.9144 62.3166C31.9069 62.4184 31.8988 62.5202 31.8903 62.6219C31.1396 62.527 30.345 62.3662 29.5966 62.2289C29.3855 61.6289 29.3667 61.3718 29.3891 60.7112Z" fill="#FCD761"/>
<path d="M49.7905 64.6498C51.5228 64.9929 53.2786 65.2056 55.0072 65.5691C55.4534 65.6628 55.9007 65.7576 56.3535 65.8117C56.2263 66.6298 55.9233 66.6855 55.6197 67.3149L55.9632 67.3745C56.1074 67.974 55.6689 70.8901 55.5633 71.6103C55.5366 71.9498 55.3674 74.4006 55.3036 74.5783C54.9535 74.045 52.5846 73.4571 51.9094 73.2926C51.4711 73.1858 51.2605 73.1959 50.9031 73.4336C50.8336 73.2538 50.8018 73.2213 50.6998 73.0531C50.381 72.8591 50.109 72.9144 49.7236 72.9245L49.7894 69.7397C49.7464 68.6071 49.7778 67.2664 49.7751 66.1175L49.7905 64.6498Z" fill="#0FB4F5"/>
<path d="M49.7894 69.7406C51.5943 70.2137 53.9165 70.7681 55.5633 71.6113C55.5366 71.9507 55.3674 74.4015 55.3036 74.5793C54.9535 74.0459 52.5846 73.458 51.9094 73.2936C51.4711 73.1868 51.2605 73.1969 50.9031 73.4345C50.8336 73.2548 50.8018 73.2223 50.6998 73.0541C50.381 72.86 50.109 72.9153 49.7236 72.9255L49.7894 69.7406Z" fill="#FDC02E"/>
<path d="M49.7908 64.6498C51.5231 64.9929 53.2789 65.2056 55.0075 65.5691C55.4537 65.6628 55.901 65.7576 56.3538 65.8117C56.2266 66.6298 55.9236 66.6855 55.62 67.3149C53.6953 66.8081 51.7442 66.4084 49.7754 66.1175L49.7908 64.6498Z" fill="#FDC02E"/>
<path d="M49.7234 72.9257C50.1088 72.9155 50.3808 72.8602 50.6996 73.0543C50.8016 73.2225 50.8334 73.255 50.9029 73.4347C50.9804 73.654 51.0683 73.9746 51.2148 74.1354C51.4557 75.1782 51.9657 76.1934 52.263 77.2537L21.2637 77.255C21.5595 76.1459 22.0219 75.5167 22.3193 74.5355C22.5449 74.0849 22.6168 73.8644 22.7721 73.3893L22.907 73.0859C23.2098 72.8588 23.4605 72.9608 23.89 73.0109C23.9343 73.9921 23.9045 75.1287 23.8994 76.1232C26.2625 76.184 29.3507 76.1046 31.7475 76.0974L49.7909 76.0684C49.7396 75.0216 49.717 73.9737 49.7234 72.9257Z" fill="#875749"/>
<path d="M25.5677 59.4372L27.2057 59.4306C27.0622 60.0562 27.1061 60.7979 27.1252 61.4468C27.9858 61.8002 28.6788 62.0466 29.5972 62.2289C30.3455 62.3662 31.1401 62.527 31.8909 62.6218C32.256 62.7051 33.6683 62.7904 34.0609 62.8317C37.236 63.1667 43.673 62.8837 46.4883 61.4336C46.5901 60.6718 46.5759 60.1837 46.5059 59.4275C47.0837 59.435 47.6617 59.4343 48.2395 59.4251C48.5306 60.155 49.6963 62.9348 49.8124 63.4764C46.6553 63.4891 43.3577 63.5389 40.2098 63.4746C39.5142 63.5227 38.413 63.4661 37.6592 63.4696C36.2766 63.476 34.7844 63.5356 33.4138 63.4733C30.2328 63.4977 27.0519 63.4996 23.8711 63.479C24.0867 62.5491 25.1221 60.4096 25.5677 59.4372Z" fill="#875749"/>
<path d="M33.4131 63.472C34.3796 63.3869 34.6063 63.2559 35.4578 63.1111C36.6087 62.915 38.0516 63.1916 39.1956 63.3831C39.5056 63.4349 39.9154 63.4125 40.2091 63.4733C39.5135 63.5215 38.4123 63.4649 37.6585 63.4684C36.2759 63.4748 34.7837 63.5343 33.4131 63.472Z" fill="#673F35"/>
<path d="M27.9248 65.4076C29.603 65.3047 32.2218 65.4003 33.9874 65.3995L45.7558 65.4124C45.7749 68.3616 45.7745 71.3108 45.755 74.2599C40.112 74.0934 33.6277 74.2387 27.9391 74.2358L27.9248 65.4076Z" fill="#FDC02E"/>
<path d="M29.6175 66.9613L43.7722 66.9524C43.7544 67.5186 43.7454 67.7912 43.8125 68.3508C39.1609 68.4379 34.2828 68.3508 29.5929 68.3728C29.5806 67.8886 29.5989 67.4446 29.6175 66.9613Z" fill="#FBA520"/>
<path d="M30.6326 69.1663C34.5994 69.262 38.885 69.1837 42.8786 69.18C43.0071 69.64 43.0898 69.9852 43.0201 70.4586C41.6477 70.5218 31.0718 70.5918 30.674 70.3345C30.5352 69.9517 30.6032 69.582 30.6326 69.1663Z" fill="#FBA520"/>
<path d="M33.6941 71.4348C35.9384 71.3743 38.2852 71.3975 40.5373 71.3885C40.5329 71.867 40.6068 72.2386 40.3933 72.6071C40.0965 72.7657 39.7105 72.7177 39.3564 72.7148C37.6499 72.8134 34.7409 72.7355 32.8949 72.7596L32.8721 71.4927L33.6941 71.4348Z" fill="#FBA520"/>
<path d="M28.959 66.1255C29.1781 65.991 29.464 66.0491 29.6134 66.2582C29.7628 66.4673 29.7248 66.7566 29.5267 66.9202C29.3854 67.0367 29.1911 67.0646 29.0228 66.9927C28.8544 66.9209 28.7403 66.761 28.7269 66.5785C28.7135 66.396 28.803 66.2213 28.959 66.1255Z" fill="#FFFFFD"/>
<path d="M29.0754 72.6332C29.3268 72.5578 29.5927 72.6956 29.6762 72.9447C29.7594 73.1935 29.6302 73.4636 29.3842 73.555C29.2177 73.6167 29.0308 73.5829 28.8966 73.4668C28.7624 73.3506 28.7022 73.1705 28.7393 72.997C28.7766 72.8235 28.9052 72.6841 29.0754 72.6332Z" fill="#FDE687"/>
<path d="M44.2593 72.554C44.6463 72.6595 44.7252 72.701 44.9303 72.987C44.8891 73.3549 44.9211 73.2248 44.6647 73.5491C44.299 73.5173 44.109 73.5341 43.9316 73.1941C43.9899 72.8594 44.039 72.8313 44.2593 72.554Z" fill="#FDE687"/>
<path d="M44.209 66.0923C44.4173 65.946 44.704 65.9905 44.8581 66.193C45.0123 66.3956 44.9789 66.6835 44.7824 66.8454C44.6484 66.9557 44.4649 66.9838 44.3041 66.9189C44.1431 66.8539 44.0306 66.7063 44.0109 66.5339C43.9911 66.3616 44.0672 66.1921 44.209 66.0923Z" fill="#FDE687"/>
<path d="M16.178 66.2733C18.7223 65.6395 21.2367 65.0725 23.8421 64.7403L23.8519 66.2112C23.8689 67.1637 23.9447 68.9783 23.8689 69.8639C23.8746 70.9089 23.8715 71.9679 23.8912 73.0114C23.4617 72.9612 23.211 72.8593 22.9082 73.0864L22.7733 73.3898C22.618 73.8649 22.5461 74.0854 22.3205 74.536C21.1254 75.3092 19.8255 76.0998 19.4982 77.6174C19.3416 78.3727 19.5026 79.1591 19.9437 79.792C20.0597 79.9594 20.1802 80.1237 20.3052 80.2845C19.5403 80.301 18.4018 79.4696 17.7601 79.0381L17.6199 78.9227C17.2012 78.6454 16.6418 78.1979 16.2278 77.8875C14.4477 77.6159 13.0227 78.4752 11.8308 78.3109L11.9616 80.1443C10.8786 78.4594 9.55067 71.6487 8.8492 71.0046L8.85949 70.9557C8.73324 70.2846 8.60331 69.7606 8.42578 69.0996C10.4964 67.8848 13.8672 66.8522 16.178 66.2733Z" fill="#0FB4F5"/>
<path d="M8.42578 69.0988C10.4964 67.8841 13.8672 66.8514 16.178 66.2725L16.2015 66.3453C16.3421 66.7919 16.3121 67.2114 16.5949 67.563L16.9048 67.7016L16.3731 67.844C16.5962 69.051 16.6646 71.4432 16.8958 72.3376L16.8557 72.3891C16.9248 73.4103 16.9048 74.5692 17.1373 75.5486C16.2579 76.0611 16.0127 76.9272 16.2278 77.8867C14.4477 77.6151 13.0227 78.4745 11.8308 78.3102L11.9616 80.1435C10.8786 78.4586 9.55067 71.6479 8.8492 71.0038L8.85949 70.9549C8.73324 70.2838 8.60331 69.7598 8.42578 69.0988Z" fill="#7DCEC7"/>
<path d="M11.8301 78.3092C11.9321 75.6199 14.6383 73.4686 16.855 72.3882C16.9241 73.4094 16.9041 74.5683 17.1366 75.5476C16.2572 76.0602 16.0121 76.9263 16.2271 77.8858C14.447 77.6142 13.022 78.4735 11.8301 78.3092Z" fill="#FCD761"/>
<path d="M8.42578 69.0988C10.4964 67.884 13.8672 66.8514 16.178 66.2725L16.2015 66.3453C16.3421 66.7919 16.3121 67.2114 16.5949 67.563L16.9048 67.7016L16.3731 67.844C13.6716 68.7748 11.4059 69.6211 8.85949 70.9549C8.73324 70.2838 8.60331 69.7598 8.42578 69.0988Z" fill="#FCD761"/>
<path d="M16.8946 72.3374C18.9771 71.3051 21.5682 70.2646 23.8678 69.8629C23.8735 70.9078 23.8703 71.9669 23.89 73.0104C23.4605 72.9602 23.2098 72.8582 22.907 73.0854L22.7721 73.3888C22.6168 73.8638 22.545 74.0844 22.3193 74.535C21.1242 75.3081 19.8243 76.0987 19.497 77.6164C19.3405 78.3717 19.5015 79.158 19.9425 79.791C20.0585 79.9584 20.179 80.1227 20.304 80.2835C19.5391 80.3 18.4006 79.4686 17.7589 79.0371L17.6187 78.9217C17.2 78.6444 16.6406 78.1969 16.2266 77.8865C16.0116 76.927 16.2567 76.0609 17.1361 75.5483C16.9036 74.569 16.9236 73.4101 16.8545 72.3889L16.8946 72.3374Z" fill="#FDC02E"/>
<path d="M17.1592 75.5966C17.4865 74.5636 21.6942 73.5418 22.7726 73.3896C22.6173 73.8647 22.5454 74.0852 22.3198 74.5358C21.1247 75.309 19.8248 76.0996 19.4975 77.6172C19.341 78.3725 19.5019 79.1589 19.943 79.7918C20.059 79.9592 20.1795 80.1235 20.3045 80.2843C19.5396 80.3008 18.4011 79.4694 17.7594 79.0379L17.6192 78.9225C17.3305 77.8884 17.3215 76.6977 17.1592 75.5966Z" fill="#FBA520"/>
<path d="M16.1768 66.2733C18.7211 65.6395 21.2355 65.0725 23.8409 64.7403L23.8506 66.2112C22.0925 66.4014 18.587 67.1418 16.9036 67.7023L16.5937 67.5638C16.3109 67.2122 16.3409 66.7927 16.2003 66.3461L16.1768 66.2733Z" fill="#FDC02E"/>
<path d="M21.2647 77.2542L52.2641 77.2529C52.3117 78.2234 52.3131 79.1611 52.3174 80.1321C50.7411 80.1244 49.1647 80.1349 47.5887 80.1634C46.9633 80.1733 45.1204 80.222 44.5937 80.1448C39.9133 80.0342 34.2618 80.0485 29.5811 80.145C26.8315 80.1814 24.019 80.0785 21.3035 80.1575C21.2364 79.1912 21.2236 78.222 21.2647 77.2542Z" fill="#593426"/>
<path d="M50.9038 73.4332C51.2612 73.1955 51.4718 73.1854 51.9101 73.2922C52.5853 73.4567 54.9542 74.0446 55.3043 74.5779C55.1911 75.1888 54.9075 77.2388 54.6122 77.5731C54.6695 78.2148 54.6497 78.2694 54.5308 78.9047C54.6019 79.3175 54.6673 79.8083 54.8263 80.1895C54.274 80.3839 54.0066 80.4262 53.4252 80.5239C53.2179 80.6937 52.9593 80.9194 52.7472 81.0718C52.0482 80.8656 51.6819 80.9854 50.9889 81.1495C48.5528 81.7166 46.2048 81.9736 43.7112 82.1564C37.5575 82.6074 31.2424 82.6033 25.1387 81.6229C24.0223 81.4435 22.2391 80.7026 21.2116 81.0551L20.3049 80.2825C20.1799 80.1217 20.0594 79.9574 19.9434 79.7899C19.5023 79.157 19.3414 78.3707 19.4979 77.6153C19.8252 76.0977 21.1251 75.3071 22.3202 74.534C22.0228 75.5152 21.5604 76.1444 21.2646 77.2535C21.2234 78.2212 21.2363 79.1905 21.3033 80.1568C24.0188 80.0777 26.8313 80.1807 29.5809 80.1443C34.2617 80.0478 39.9131 80.0334 44.5935 80.1441C45.1202 80.2213 46.9631 80.1726 47.5885 80.1626C49.1645 80.1342 50.741 80.1237 52.3172 80.1314C52.313 79.1603 52.3115 78.2227 52.2639 77.2522C51.9666 76.1918 51.4566 75.1766 51.2157 74.1339C51.0692 73.9731 50.9813 73.6524 50.9038 73.4332Z" fill="#EB3738"/>
<path d="M29.5806 80.1441C34.2614 80.0476 39.9128 80.0333 44.5932 80.1439C44.3245 80.3983 43.556 80.6903 43.1798 80.8035C39.1831 82.0061 34.5806 81.9868 30.6015 80.7199C30.3012 80.6243 29.7381 80.4519 29.5273 80.2606L29.5806 80.1441Z" fill="#FBA520"/>
<path d="M50.9033 73.4332C51.2608 73.1955 51.4714 73.1854 51.9097 73.2922C52.5849 73.4567 54.9537 74.0446 55.3038 74.5779C55.1906 75.1888 54.907 77.2388 54.6117 77.5731C54.0624 75.8737 52.7618 74.9048 51.2152 74.1339C51.0687 73.9731 50.9809 73.6524 50.9033 73.4332Z" fill="#FBA520"/>
<path d="M54.5314 78.9058C54.6025 79.3185 54.6679 79.8094 54.8269 80.1905C54.2746 80.385 54.0072 80.4272 53.4258 80.525C54.0464 79.9022 54.2502 79.7395 54.5314 78.9058Z" fill="#FBA520"/>
<path d="M21.2109 81.056C22.2384 80.7036 24.0216 81.4445 25.138 81.6239C31.2417 82.6043 37.5568 82.6084 43.7105 82.1574C46.2041 81.9745 48.5521 81.7176 50.9882 81.1505C51.6812 80.9864 52.0475 80.8666 52.7465 81.0728C46.244 86.2001 27.5214 86.3405 21.2109 81.056Z" fill="#FA4D4D"/>
<path d="M55.9624 67.3761C57.5508 67.8541 62.111 69.3192 63.54 70.2193C63.3286 71.2719 62.881 72.6582 62.5768 73.7171C62.3182 74.617 62.0669 75.6941 61.7939 76.5535C60.2357 73.8863 58.2616 72.8267 55.5625 71.6119C55.6682 70.8917 56.1067 67.9756 55.9624 67.3761Z" fill="#7DCEC7"/>
<path d="M55.5635 71.6112C58.2626 72.8259 60.2367 73.8856 61.7949 76.5527C61.9647 77.0219 62.0884 77.3264 62.1305 77.8321L61.9537 77.8064C61.2796 74.7526 58.2723 73.0156 55.6158 71.8451C55.605 72.4174 55.3453 74.1423 55.5861 74.3698C56.2019 74.9522 58.0448 75.4644 57.9884 76.479C57.9702 76.8072 57.9314 77.7234 58.0409 77.958C58.8041 78.436 59.8956 78.4108 60.0797 78.8464C59.4009 78.8341 58.4649 78.5314 57.877 78.1571C56.5845 79.4902 56.4976 79.308 54.9098 80.0948C56.5625 80.962 58.242 81.0624 60.0652 80.6886C60.5676 80.5855 60.8885 79.3924 60.9163 78.9252C61.2421 79.3692 60.6904 80.253 60.4701 80.7312C58.8574 81.2862 56.3131 81.0897 54.8258 80.1907C54.6668 79.8096 54.6014 79.3187 54.5303 78.9059C54.6492 78.2706 54.669 78.216 54.6117 77.5743C54.907 77.24 55.1906 75.19 55.3038 74.5791C55.3675 74.4014 55.5368 71.9506 55.5635 71.6112Z" fill="#FCD761"/>
<path d="M11.8301 78.3093C13.022 78.4736 14.447 77.6142 16.2271 77.8858C16.6411 78.1962 17.2005 78.6437 17.6192 78.921L17.7594 79.0364C17.6554 79.5187 17.8518 80.1946 17.474 80.5076C16.4463 81.3584 14.7898 81.0034 13.6064 81.3439C13.6075 81.3436 13.4059 81.7492 13.3587 81.8333C12.789 81.2726 12.4176 80.7921 11.9609 80.1426L11.8301 78.3093Z" fill="#FDE687"/>
<path d="M63.5403 70.2196C66.2275 71.6302 69.5088 73.6071 70.4584 76.7065C70.9128 78.1633 70.7577 79.7422 70.0283 81.0829C65.0558 90.2794 42.5961 92.3099 33.212 91.6499C25.3793 91.099 16.9262 90.0765 9.91388 86.283C2.13413 82.382 0.609354 75.5259 8.8478 71.0048C9.54927 71.649 10.8772 78.4597 11.9602 80.1445C12.4169 80.794 12.7883 81.2746 13.358 81.8353C21.3998 89.3305 40.5492 89.3175 50.5688 86.7643C54.0671 85.8728 59.3694 84.1378 61.3948 80.9013C61.9202 80.0616 62.3895 78.8327 62.1299 77.8332C62.0878 77.3274 61.9641 77.0229 61.7943 76.5538C62.0672 75.6944 62.3186 74.6173 62.5772 73.7174C62.8813 72.6585 63.329 71.2722 63.5403 70.2196Z" fill="#0FB4F5"/>
<path d="M0.0771826 85.7164C0.694483 86.7622 0.687131 87.5949 1.61611 88.7431C4.94667 92.8593 10.3572 95.0134 15.2904 96.522C25.8206 99.5741 37.5537 100.021 48.394 98.6622C49.5919 98.5121 53.1819 97.9786 54.2485 97.6709L54.3167 97.69C54.3448 98.5418 54.2439 103.354 54.4702 103.697C53.8106 103.904 51.7678 104.241 51.0486 104.359C46.3389 105.118 41.5745 105.486 36.8042 105.459C26.1398 105.448 11.1875 103.616 2.74008 96.1184C-0.481495 93.2592 0.0472273 89.6401 0.0771826 85.7164Z" fill="#FA4D4D"/>
<path d="M54.208 91.494C55.2495 91.3333 56.2604 91.0996 57.2853 90.8015C62.4836 89.2892 68.1084 87.4294 71.8758 83.3349C72.7024 82.4366 73.3 81.327 73.8547 80.2622C73.9675 81.6693 73.8708 84.2712 73.88 85.7877C73.9192 86.5793 73.9046 87.3969 73.9451 88.1555C73.9888 91.7216 74.0171 93.1788 71.3375 95.9755C67.4238 100.06 59.9174 102.502 54.4704 103.698C54.2442 103.354 54.3451 98.5423 54.317 97.6905L54.2488 97.6714C54.4206 97.0826 54.224 92.4075 54.208 91.494Z" fill="#FBA520"/>
<path d="M54.3174 97.6894C60.6863 96.1 68.7948 93.7576 72.8932 88.1436C73.3239 87.5537 73.5046 86.5655 73.8166 85.9163L73.8804 85.7867C73.9196 86.5782 73.905 87.3958 73.9455 88.1545C73.9892 91.7206 74.0175 93.1778 71.3379 95.9745C67.4242 100.059 59.9177 102.501 54.4708 103.697C54.2446 103.353 54.3455 98.5412 54.3174 97.6894Z" fill="#EB3738"/>
<path d="M15.2756 4.08463C15.2695 3.51603 15.1589 2.65008 15.5919 2.2002C17.8076 -0.102134 38.1376 -0.0958847 42.2144 0.0568323C44.7489 0.15166 56.507 0.522149 58.0342 2.30826C58.6314 3.0066 58.3644 4.93881 58.3407 5.8202C58.3433 6.31216 58.258 7.75039 58.5243 8.04443C61.7255 7.62266 59.4336 4.96638 60.4581 3.25599C60.7505 2.7677 62.8294 2.89211 63.4281 2.89744C64.6934 2.81107 71.3619 2.61884 71.9976 3.15068C72.3602 3.4541 72.4313 4.04163 72.4375 4.48011C72.5577 12.8827 69.8661 20.6621 63.9238 26.6851C61.6582 28.9814 58.9718 30.8397 56.1837 32.4459C54.8122 33.2361 53.2468 33.7924 52.0523 34.8532C51.4977 35.3457 51.0551 35.9668 51.0816 36.7402C51.0959 37.1581 51.2677 37.5848 51.5881 37.8617C51.8356 38.0757 52.0563 38.1153 52.3739 38.1097C52.6012 38.0001 52.6163 38.0071 52.7966 37.8176C53.4299 37.0908 54.2567 36.5599 55.0269 37.3913C56.6849 39.1809 53.7395 40.9631 52.0787 40.6755C49.9389 40.3048 49.0303 39.3057 48.4584 37.3382C46.7118 39.3376 43.4884 41.5054 41.0144 42.3975C42.9534 44.4688 42.2411 45.6395 40.6467 46.7768C40.5597 46.8388 40.5678 47.7773 40.5215 47.9085C39.644 50.8813 40.3712 54.4908 42.9453 56.4241C43.9937 56.9405 44.9194 57.1629 45.2484 58.3745C43.9243 60.7517 29.6626 61.0315 28.3253 58.5258C28.4146 58.1255 28.5282 57.8906 28.686 57.5168C29.0973 57.1451 29.5595 56.9633 30.0596 56.7433C32.9461 55.3766 34.0067 51.2804 33.0624 48.3485C32.8121 47.5711 32.999 47.267 32.9298 46.5993C30.7399 45.9657 30.929 43.6148 32.5115 42.4401C29.3092 41.2487 27.3656 39.5721 24.9793 37.2283C24.8639 37.766 24.7378 38.2931 24.4574 38.7725C23.9195 39.689 23.0318 40.3473 21.9985 40.5956C20.4542 40.976 18.2864 40.3613 18.0223 38.5527C17.973 38.2014 18.0646 37.8448 18.277 37.5609C18.4047 37.39 18.8873 36.9478 19.3741 36.9548C20.5935 36.9723 22.0755 39.8531 22.4676 36.3524C22.3098 35.5822 21.0351 34.4498 20.4694 34.1872C8.78411 28.7645 0.56974 18.3353 1.09405 5.0432C1.18851 2.64457 1.70253 2.85995 4.08113 2.84047C6.66225 2.81952 9.286 2.81474 11.8691 2.86877C15.276 2.99319 10.6772 7.78659 15.2372 8.08651L15.2756 4.08463Z" fill="#FDC02E"/>
<path d="M15.2758 4.08463C15.2697 3.51603 15.1591 2.65008 15.5921 2.2002C17.8078 -0.102134 38.1378 -0.0958847 42.2146 0.0568323C44.7491 0.15166 56.5072 0.522149 58.0344 2.30826C58.6316 3.0066 58.3646 4.93881 58.3409 5.8202C58.2657 5.41314 58.2409 3.67665 58.2227 3.1358C55.4909 4.53855 53.5488 4.62088 50.5582 5.03419C44.1351 5.81469 34.8669 5.89941 28.3786 5.49694C27.8837 11.5343 27.9772 17.9637 28.716 23.9889C28.8649 25.5415 29.4412 27.1758 29.6501 28.6847C30.0041 31.2396 30.5199 33.0987 31.4552 35.4923C32.0976 37.1832 32.8879 38.8141 33.8169 40.366C34.0918 40.8268 35.2124 41.9632 35.0265 42.4098C33.1185 42.7746 29.3112 39.3628 28.0373 37.9966C19.4293 28.7649 18.4051 16.4716 18.7486 4.46229C17.8126 4.21088 16.6163 3.87402 15.7878 3.37636C15.6106 3.26977 15.6399 3.22824 15.4092 3.2411C15.3726 3.52632 15.3241 3.80143 15.2758 4.08463Z" fill="#FCD761"/>
<path d="M32.4966 0.764617C36.0582 0.58121 53.2805 0.695336 55.82 2.35556C56.0077 2.47814 56.1007 2.55863 56.1356 2.77953C56.1146 2.80617 56.095 2.83411 56.0725 2.85947C55.0228 4.04776 43.4503 4.49599 41.1947 4.56913C35.7989 4.62775 30.4029 4.64631 25.0252 4.16152C23.9083 4.06081 17.5202 3.63849 17.3291 2.63343C17.3848 2.53272 17.3855 2.51893 17.4748 2.42429C18.5784 1.25401 30.2404 0.838495 32.4966 0.764617Z" fill="#FBA520"/>
<path d="M23.6282 8.58405C23.8581 8.78932 23.9504 9.2166 24.0502 9.52332C24.7845 11.7801 25.5211 12.6337 27.516 13.7943L27.355 13.8792C24.7957 15.2402 24.4824 16.416 23.6797 19.0329C23.5497 18.8927 23.3775 18.3214 23.3187 18.1187C22.6378 15.7724 21.8713 14.9362 19.7314 13.7779C22.2604 12.5183 22.7917 11.2122 23.6282 8.58405Z" fill="#FFFFFD"/>
<path d="M26.4849 20.9125C26.5783 20.9516 27.3533 21.9488 27.517 22.1381C27.193 22.4487 26.8556 22.8072 26.5395 23.1312C26.4526 23.1126 25.6296 22.2555 25.4795 22.1114C25.9095 21.6606 26.144 21.428 26.4849 20.9125Z" fill="#FFFFFD"/>
<path d="M63.4288 2.89735C64.694 2.81098 71.3625 2.61875 71.9982 3.15059C72.3608 3.45401 72.4319 4.04154 72.4381 4.48002C72.5583 12.8826 69.8668 20.662 63.9244 26.685C61.6588 28.9813 58.9724 30.8396 56.1843 32.4458C54.8128 33.236 53.2474 33.7923 52.0529 34.8531C51.4983 35.3456 51.0557 35.9668 51.0822 36.7401C51.0965 37.158 51.2684 37.5847 51.5887 37.8617C51.8362 38.0756 52.0569 38.1153 52.3745 38.1096C52.6018 38 52.6169 38.007 52.7972 37.8175C53.1228 37.9205 54.0406 36.5846 54.8364 37.3574C55.1398 37.6533 55.3167 38.0552 55.3298 38.4788C55.0773 38.995 54.8713 39.6377 54.3729 40.0135C52.5675 41.3754 48.6907 39.8562 48.8319 37.4616C48.8646 36.9036 49.9514 35.91 50.3781 35.4358C51.5179 34.17 52.1597 32.5061 53.3447 31.3156C54.5625 30.4643 56.1511 29.5951 57.4505 28.6801L57.4243 28.5051C55.9759 29.3545 54.2077 30.543 52.738 31.4538C55.9493 26.5839 57.445 19.7087 57.9387 13.9944C58.0272 12.9686 58.0712 11.8533 58.2165 10.8442L58.227 10.7751C58.4473 9.98739 58.3582 8.98435 58.399 8.132L58.5249 8.04434C61.7261 7.62258 59.4342 4.96629 60.4588 3.2559C60.7511 2.76761 62.83 2.89203 63.4288 2.89735Z" fill="#FFFFFD"/>
<path d="M63.4288 2.89735C64.694 2.81098 71.3625 2.61875 71.9982 3.15059C72.3608 3.45401 72.4319 4.04154 72.4381 4.48002C72.5583 12.8826 69.8668 20.662 63.9244 26.685C61.6588 28.9813 58.9724 30.8396 56.1843 32.4458C54.8128 33.236 53.2474 33.7923 52.0529 34.8531C51.4983 35.3456 51.0557 35.9668 51.0822 36.7401C51.0965 37.158 51.2684 37.5847 51.5887 37.8617C51.8362 38.0756 52.0569 38.1153 52.3745 38.1096C52.6018 38 52.6169 38.007 52.7972 37.8175C53.1228 37.9205 54.0406 36.5846 54.8364 37.3574C55.1398 37.6533 55.3167 38.0552 55.3298 38.4788C55.0773 38.995 54.8713 39.6377 54.3729 40.0135C52.5675 41.3754 48.6907 39.8562 48.8319 37.4616C48.8646 36.9036 49.9514 35.91 50.3781 35.4358C51.5179 34.17 52.1597 32.5061 53.3447 31.3156C54.5625 30.4643 56.1511 29.5951 57.4505 28.6801L57.4243 28.5051C58.4001 27.5427 59.8326 26.5597 60.8792 25.5142C65.4714 20.9272 68.2558 15.6591 68.8666 9.15967C68.9696 8.06639 68.9619 6.90457 68.976 5.80835C67.3307 5.69827 64.9697 5.70507 63.3089 5.71334C63.3769 5.21071 63.7055 3.18919 63.4288 2.89735Z" fill="#FDC02E"/>
<path d="M58.5245 8.04531C61.7256 7.62355 59.4338 4.96727 60.4583 3.25687C60.7507 2.76858 62.8296 2.893 63.4283 2.89833C63.7051 3.19017 63.3765 5.21169 63.3085 5.71431C63.0608 9.44348 62.0392 10.7294 58.2266 10.776C58.4469 9.98837 58.3578 8.98532 58.3986 8.13298L58.5245 8.04531Z" fill="#FBA520"/>
<path d="M58.2226 3.13486C58.2408 3.67571 58.2657 5.4122 58.3408 5.81926C58.3434 6.31122 58.2581 7.74945 58.5244 8.04349L58.3985 8.13115C58.3577 8.9835 58.4469 9.98654 58.2265 10.7742L58.216 10.8433C58.0707 11.8524 58.0267 12.9677 57.9382 13.9936C57.4445 19.7079 55.9488 26.5831 52.7375 31.4529C54.2072 30.5421 55.9754 29.3537 57.4238 28.5043L57.4501 28.6792C56.1506 29.5942 54.562 30.4635 53.3442 31.3147C52.1592 32.5052 51.5174 34.1691 50.3777 35.435C49.9509 35.9091 48.8641 36.9028 48.8314 37.4607C48.6902 39.8553 52.567 41.3746 54.3724 40.0126C54.8708 39.6368 55.0768 38.9941 55.3293 38.4779C55.3162 38.0543 55.1393 37.6524 54.8359 37.3565C54.0401 36.5837 53.1223 37.9196 52.7967 37.8167C53.43 37.0899 54.2568 36.5589 55.027 37.3903C56.685 39.1799 53.7396 40.9622 52.0789 40.6746C49.939 40.3039 49.0304 39.3047 48.4585 37.3372C46.7119 39.3367 43.4885 41.5045 41.0145 42.3965C42.9535 44.4679 42.2412 45.6385 40.6468 46.7759C40.5599 46.8378 40.5679 47.7764 40.5216 47.9076C39.6441 50.8803 40.3713 54.4899 42.9454 56.4232C42.9899 56.8056 43.0662 57.1425 42.9603 57.5047C42.316 58.1922 39.9925 58.4157 39.0319 58.4842C39.695 57.8184 39.7998 57.7364 40.067 56.8023C39.9199 56.0396 39.1282 54.384 38.8215 53.5004C38.035 51.2339 38.2575 49.4416 38.2252 47.1198C36.4264 46.9064 34.772 47.2824 32.9951 46.5574C33.7738 44.9317 38.333 46.9426 39.2427 45.2109C40.3103 43.1791 36.2444 42.178 34.9946 42.6899L34.904 42.6803C35.055 42.6084 35.0931 42.6002 35.2522 42.5583C40.7732 41.1039 44.2905 35.2324 46.6233 30.4198C46.9258 29.7957 47.4463 28.7746 47.4189 28.1102L47.4562 28.0156C48.1152 27.2327 48.9611 23.134 49.3792 21.9382L49.3682 21.8636L49.4715 21.7634C50.476 15.6086 50.5739 11.2498 50.5581 5.03325C53.5487 4.61994 55.4908 4.53761 58.2226 3.13486Z" fill="url(#paint2_linear_101_48177)"/>
<path d="M51.0753 19.4539C51.4353 20.658 51.8168 21.1983 52.8961 21.8964C51.7991 22.6475 51.5597 23.163 51.1043 24.3965C50.7586 23.1843 50.5379 22.5986 49.3792 21.9391L49.3682 21.8645L49.4714 21.7643C50.5669 21.0463 50.738 20.7157 51.0753 19.4539Z" fill="#FFFFFD"/>
<path d="M32.3018 44.1785C33.1752 42.1153 32.9262 42.8144 34.9036 42.6806L34.9942 42.6901C35.3144 42.9167 35.6233 43.2328 35.8058 43.5825C36.0958 44.2421 35.8177 44.7115 35.228 45.0882C34.7171 45.5221 33.9322 45.5587 33.2658 45.652C32.6921 45.0853 32.573 44.914 32.3018 44.1785Z" fill="#FCD761"/>
<path d="M33.7576 43.2668C34.3705 43.4643 34.7033 43.633 34.5897 44.3376C34.2701 44.8713 33.9588 44.9077 33.4198 44.673L33.2774 44.6124C33.1735 44.3444 33.1802 44.3314 33.1504 44.0581C33.2529 43.6768 33.4641 43.541 33.7576 43.2668Z" fill="#FFFFFD"/>
<path d="M28.6865 57.5158C29.0978 57.1441 29.56 56.9623 30.0601 56.7423C30.3387 57.0413 30.7939 57.6151 31.1449 57.7004C30.7891 58.0499 30.7674 58.2364 30.9199 58.7043C30.1751 58.7284 29.1608 58.076 28.6865 57.5158Z" fill="#FCD761"/>
<path d="M31.1437 57.7019C31.6168 57.8214 32.5338 57.9428 32.4458 58.5943C31.9325 59.0135 31.5214 58.7979 30.9188 58.7059C30.7662 58.238 30.7879 58.0514 31.1437 57.7019Z" fill="#FFFFFD"/>
<path d="M47.4185 28.1108C47.2298 28.4098 47.2213 28.4238 46.9447 28.6373C46.5626 28.7088 46.72 28.725 46.3443 28.6033C45.8 27.995 46.2252 27.6655 46.6676 27.209C47.0089 27.5042 47.1891 27.6403 47.4558 28.0162L47.4185 28.1108Z" fill="#FFFFFD"/>
<path d="M7.3096 5.73581C8.31356 5.71266 9.16481 5.69097 10.1662 5.75051C10.3081 9.46589 11.7198 10.8181 15.3808 10.7534C15.6085 16.4295 16.5776 22.4729 18.8016 27.7329C19.3531 29.0372 20.0309 30.233 20.6697 31.4944C20.0538 31.1462 19.3957 30.713 18.7917 30.3335C11.0117 25.566 5.23974 17.9401 4.61527 8.68466C4.54801 7.68787 4.50924 6.7497 4.50391 5.74996C5.4316 5.77036 6.38025 5.74739 7.3096 5.73581Z" fill="#FFFFFD"/>
<defs>
<linearGradient id="paint0_linear_101_48177" x1="35.1617" y1="99.3841" x2="38.2057" y2="64.4514" gradientUnits="userSpaceOnUse">
<stop stop-color="#FFBC2C"/>
<stop offset="1" stop-color="#FCD849"/>
</linearGradient>
<linearGradient id="paint1_linear_101_48177" x1="37.102" y1="63.0315" x2="36.4619" y2="57.8563" gradientUnits="userSpaceOnUse">
<stop stop-color="#FAA81E"/>
<stop offset="1" stop-color="#FFD43F"/>
</linearGradient>
<linearGradient id="paint2_linear_101_48177" x1="37.8109" y1="27.9941" x2="53.8382" y2="32.1109" gradientUnits="userSpaceOnUse">
<stop stop-color="#FA981F"/>
<stop offset="1" stop-color="#FEB125"/>
</linearGradient>
</defs>
</svg>
