<svg width="55" height="79" viewBox="0 0 55 79" fill="none" xmlns="http://www.w3.org/2000/svg">
<path d="M33.6309 34.9971C33.9785 34.6133 34.3211 34.6314 34.5653 34.2148C34.9947 34.2092 35.4243 34.2098 35.8537 34.2166C36.0701 33.6741 36.9365 31.608 37.0228 31.2055L37.0071 30.3324C38.2946 30.0774 39.5996 29.9194 40.8843 29.6492C41.216 29.5795 41.5484 29.509 41.885 29.4689C43.1118 29.0796 44.4279 28.8006 45.6372 28.349C48.5223 27.2718 51.3205 26.0016 53.4406 23.6973C55.3061 21.6698 54.9756 19.6465 54.98 17.1067C54.9824 15.7074 55.0009 14.2607 54.9595 12.8629C54.992 10.2124 55.013 9.12934 53.0214 7.05072C50.1126 4.01474 44.5335 2.1996 40.4851 1.31109C39.9949 1.1577 38.4765 0.907471 37.9421 0.81937C34.4415 0.255257 30.9005 -0.0181999 27.355 0.00174331C19.4287 0.0100746 8.31552 1.37174 2.03704 6.94418C-0.357371 9.06924 0.0355982 11.7591 0.0578623 14.6754C0.0152464 15.0297 0.0314967 16.3388 0.0325894 16.768C0.0351846 17.8817 -0.0518201 19.2415 0.0483001 20.33C0.0898233 20.7945 0.187482 21.2523 0.33937 21.6934C1.2455 24.295 3.92758 25.8768 6.2623 27.0264C7.80126 27.9292 10.3066 28.6967 12.0241 29.127C13.9151 29.5981 15.784 30.0195 17.7204 30.2664L17.7421 31.2036C17.9023 31.8947 18.6719 33.4849 19.0031 34.2076L20.2205 34.2125C20.5246 34.5288 20.8322 34.6146 21.0529 34.8847C22.0469 33.0223 32.6468 33.2303 33.6309 34.9971Z" fill="url(#paint0_linear_109_93277)"/>
<path d="M33.6308 34.9971C33.9784 34.6133 34.321 34.6314 34.5652 34.2148C34.9946 34.2092 35.4242 34.2098 35.8536 34.2166C36.07 33.6741 36.9364 31.608 37.0227 31.2055L37.007 30.3324C38.2945 30.0774 39.5995 29.9194 40.8842 29.6492C41.2159 29.5795 41.5483 29.509 41.8849 29.4689C41.7904 28.8608 41.5651 28.8194 41.3395 28.3516L41.5948 28.3073C42.7753 27.9521 46.1646 26.8632 47.2268 26.1941C47.0697 25.4118 46.737 24.3815 46.5109 23.5944C46.3187 22.9256 46.1319 22.125 45.929 21.4863C46.0552 21.1376 46.1472 20.9113 46.1784 20.5354C46.3714 19.7925 46.0226 18.8791 45.6321 18.255C44.1267 15.8495 40.1859 14.56 37.5857 13.8974C30.1387 11.9998 15.9061 11.9901 9.92909 17.5609C9.50566 17.9776 9.22961 18.3348 8.89019 18.8175C8.08527 20.0697 7.09827 25.1318 6.57691 25.6105L6.58456 25.6468C6.49072 26.1457 6.39415 26.5351 6.26221 27.0264C7.80116 27.9292 10.3065 28.6967 12.024 29.127C13.915 29.5981 15.7839 30.0195 17.7203 30.2664L17.742 31.2036C17.9022 31.8947 18.6718 33.4849 19.003 34.2076L20.2204 34.2125C20.5245 34.5288 20.8321 34.6146 21.0528 34.8847C22.0468 33.0223 32.6467 33.2303 33.6308 34.9971Z" fill="#FDC02E"/>
<path d="M33.6288 34.9971C33.9764 34.6133 34.3189 34.6314 34.5632 34.2148C34.9926 34.2092 35.4222 34.2098 35.8516 34.2166C36.068 33.6741 36.9344 31.608 37.0207 31.2055L37.005 30.3324C38.2925 30.0774 39.5974 29.9194 40.8822 29.6492C41.2138 29.5795 41.5463 29.509 41.8829 29.4689C41.7883 28.8608 41.5631 28.8194 41.3375 28.3516L41.5928 28.3073C41.7 27.8618 41.3741 25.6944 41.2955 25.1591C41.2757 24.9068 41.1499 23.0852 41.1025 22.9531C40.8423 23.3495 39.0817 23.7865 38.5799 23.9087C38.2541 23.9881 38.0976 23.9806 37.8319 23.804C37.8895 23.641 37.9548 23.4027 38.0637 23.2832C38.2428 22.5081 38.6218 21.7536 38.8428 20.9655L15.8027 20.9645C16.0226 21.7889 16.3663 22.2565 16.5873 22.9858C16.755 23.3207 16.8084 23.4846 16.9239 23.8377L17.0241 24.0632C17.2492 24.232 17.4355 24.1562 17.7547 24.1189C17.7401 24.8945 17.7424 25.6817 17.7382 26.4583C17.7945 27.1165 17.7382 28.4652 17.7255 29.1732L17.7183 30.2664L17.74 31.2036C17.9002 31.8947 18.6697 33.4849 19.001 34.2076L20.2184 34.2125C20.5224 34.5288 20.83 34.6146 21.0508 34.8847C22.0447 33.0223 32.6446 33.2303 33.6288 34.9971Z" fill="#593426"/>
<path d="M33.6293 34.9971C33.9769 34.6133 34.3195 34.6314 34.5637 34.2148C34.6157 33.6528 34.6262 33.29 34.5506 32.7238C32.4582 31.646 27.6738 31.4356 25.314 31.6846C25.0222 31.7154 23.9725 31.7787 23.7011 31.8406C23.1432 31.9111 22.5525 32.0306 21.9964 32.1327C21.3138 32.2681 20.7987 32.4513 20.1591 32.714C20.1449 33.1963 20.1122 33.7475 20.2189 34.2125C20.523 34.5288 20.8306 34.6146 21.0513 34.8847C22.0453 33.0223 32.6451 33.2303 33.6293 34.9971Z" fill="url(#paint1_linear_109_93277)"/>
<path d="M21.8438 33.2588C22.9696 33.1869 23.8188 33.4211 23.7207 32.0655C23.7151 31.9899 23.7091 31.9142 23.7028 31.8387C23.1448 31.9091 22.5542 32.0287 21.998 32.1307C21.8411 32.5767 21.8271 32.7677 21.8438 33.2588Z" fill="#FCD761"/>
<path d="M37.0058 30.332C38.2933 30.077 39.5982 29.919 40.883 29.6488C41.2146 29.5791 41.5471 29.5087 41.8837 29.4685C41.7891 28.8604 41.5639 28.819 41.3383 28.3512L41.5935 28.307C41.7008 27.8614 41.3749 25.694 41.2963 25.1587C41.2765 24.9064 41.1507 23.0849 41.1033 22.9528C40.8431 23.3492 39.0825 23.7861 38.5806 23.9084C38.2549 23.9877 38.0983 23.9802 37.8327 23.8036C37.7811 23.9372 37.7574 23.9614 37.6816 24.0863C37.4446 24.2306 37.2425 24.1895 36.9561 24.182L37.0049 26.549C36.973 27.3909 36.9963 28.3873 36.9943 29.2412L37.0058 30.332Z" fill="#0FB4F5"/>
<path d="M37.0049 26.5479C38.3464 26.1963 40.0723 25.7842 41.2963 25.1575C41.2765 24.9052 41.1507 23.0837 41.1033 22.9516C40.8431 23.348 39.0825 23.7849 38.5806 23.9072C38.2549 23.9865 38.0983 23.979 37.8327 23.8024C37.7811 23.936 37.7574 23.9602 37.6816 24.0851C37.4446 24.2294 37.2425 24.1883 36.9561 24.1808L37.0049 26.5479Z" fill="#FDC02E"/>
<path d="M37.0081 30.332C38.2956 30.077 39.6005 29.919 40.8853 29.6488C41.2169 29.5791 41.5494 29.5087 41.8859 29.4685C41.7914 28.8604 41.5662 28.819 41.3405 28.3512C39.91 28.7279 38.4599 29.025 36.9966 29.2412L37.0081 30.332Z" fill="#FDC02E"/>
<path d="M36.9553 24.1812C37.2417 24.1888 37.4438 24.2299 37.6808 24.0856C37.7566 23.9607 37.7803 23.9365 37.8319 23.8029C37.8895 23.6399 37.9548 23.4016 38.0637 23.2821C38.2428 22.5071 38.6218 21.7525 38.8428 20.9644L15.8027 20.9635C16.0226 21.7878 16.3663 22.2555 16.5873 22.9847C16.755 23.3196 16.8084 23.4835 16.9239 23.8366L17.0241 24.0621C17.2492 24.231 17.4355 24.1552 17.7547 24.1179C17.7877 23.3886 17.7655 22.5438 17.7617 21.8047C19.5181 21.7595 21.8134 21.8185 23.5948 21.8238L37.0054 21.8454C36.9673 22.6234 36.9505 23.4023 36.9553 24.1812Z" fill="#875749"/>
<path d="M19.0032 34.2058L20.2206 34.2107C20.1139 33.7458 20.1466 33.1945 20.1608 32.7122C20.8004 32.4496 21.3155 32.2664 21.998 32.1309C22.5542 32.0289 23.1449 31.9094 23.7028 31.8389C23.9742 31.777 25.0239 31.7136 25.3157 31.6829C27.6755 31.4339 32.4598 31.6442 34.5523 32.7221C34.6279 33.2882 34.6174 33.651 34.5654 34.2131C34.9948 34.2075 35.4244 34.208 35.8538 34.2148C36.0702 33.6723 36.9366 31.6063 37.0229 31.2037C34.6764 31.1943 32.2255 31.1573 29.8858 31.2051C29.3688 31.1693 28.5504 31.2114 27.9901 31.2088C26.9625 31.204 25.8534 31.1597 24.8347 31.2061C22.4705 31.1879 20.1063 31.1865 17.7422 31.2018C17.9024 31.893 18.672 33.4831 19.0032 34.2058Z" fill="#875749"/>
<path d="M24.835 31.2072C25.5533 31.2704 25.7218 31.3678 26.3547 31.4754C27.2101 31.6212 28.2825 31.4156 29.1327 31.2733C29.3632 31.2348 29.6678 31.2514 29.886 31.2062C29.369 31.1704 28.5506 31.2125 27.9903 31.2099C26.9628 31.2051 25.8536 31.1609 24.835 31.2072Z" fill="#673F35"/>
<path d="M20.7559 29.7692C22.0032 29.8457 23.9496 29.7747 25.2618 29.7752L34.0086 29.7656C34.0228 27.5737 34.0225 25.3817 34.008 23.1898C29.8139 23.3136 24.9945 23.2055 20.7665 23.2077L20.7559 29.7692Z" fill="#FDC02E"/>
<path d="M22.014 28.6136L32.5343 28.6201C32.5211 28.1993 32.5144 27.9967 32.5643 27.5808C29.107 27.5161 25.4814 27.5808 21.9956 27.5644C21.9865 27.9243 22.0002 28.2543 22.014 28.6136Z" fill="#FBA520"/>
<path d="M22.7676 26.9746C25.7159 26.9034 28.9012 26.9616 31.8694 26.9644C31.9649 26.6225 32.0263 26.366 31.9746 26.0141C30.9545 25.9671 23.0941 25.9151 22.7984 26.1063C22.6952 26.3908 22.7458 26.6656 22.7676 26.9746Z" fill="#FBA520"/>
<path d="M25.0421 25.2888C26.7101 25.3338 28.4544 25.3165 30.1283 25.3232C30.125 24.9676 30.1799 24.6914 30.0212 24.4175C29.8006 24.2996 29.5138 24.3353 29.2506 24.3375C27.9822 24.2641 25.8201 24.322 24.4481 24.3041L24.4312 25.2458L25.0421 25.2888Z" fill="#FBA520"/>
<path d="M21.5241 29.2353C21.6869 29.3353 21.8994 29.2921 22.0105 29.1367C22.1215 28.9812 22.0932 28.7662 21.946 28.6447C21.841 28.5581 21.6966 28.5373 21.5715 28.5907C21.4464 28.6441 21.3615 28.763 21.3516 28.8986C21.3416 29.0342 21.4081 29.1641 21.5241 29.2353Z" fill="#FFFFFD"/>
<path d="M21.6084 24.3978C21.7953 24.4538 21.9929 24.3514 22.0549 24.1663C22.1168 23.9813 22.0208 23.7805 21.8379 23.7127C21.7141 23.6668 21.5752 23.6919 21.4755 23.7782C21.3758 23.8645 21.331 23.9984 21.3586 24.1273C21.3863 24.2563 21.4819 24.36 21.6084 24.3978Z" fill="#FDE687"/>
<path d="M32.8969 24.457C33.1845 24.3786 33.2431 24.3478 33.3956 24.1352C33.365 23.8618 33.3887 23.9585 33.1982 23.7174C32.9264 23.741 32.7851 23.7286 32.6533 23.9813C32.6966 24.23 32.7331 24.2509 32.8969 24.457Z" fill="#FDE687"/>
<path d="M32.8581 29.2593C33.0128 29.368 33.2259 29.3349 33.3405 29.1844C33.4551 29.0339 33.4302 28.8199 33.2842 28.6995C33.1846 28.6176 33.0482 28.5967 32.9287 28.6449C32.809 28.6932 32.7254 28.8029 32.7108 28.931C32.6961 29.0592 32.7526 29.1851 32.8581 29.2593Z" fill="#FDE687"/>
<path d="M12.024 29.1252C13.915 29.5963 15.7839 30.0177 17.7203 30.2646L17.7275 29.1714C17.7402 28.4634 17.7965 27.1148 17.7402 26.4565C17.7445 25.6799 17.7421 24.8927 17.7568 24.1172C17.4376 24.1545 17.2512 24.2303 17.0261 24.0614L16.9259 23.8359C16.8105 23.4828 16.7571 23.3189 16.5893 22.984C15.7011 22.4094 14.735 21.8218 14.4917 20.6938C14.3754 20.1324 14.495 19.548 14.8228 19.0776C14.909 18.9531 14.9986 18.831 15.0915 18.7115C14.523 18.6992 13.6768 19.3171 13.1999 19.6379L13.0956 19.7236C12.7845 19.9297 12.3687 20.2623 12.061 20.493C10.738 20.6949 9.67886 20.0562 8.79294 20.1783L8.89019 18.8157C8.08527 20.068 7.09827 25.13 6.57691 25.6087L6.58456 25.6451C6.49072 26.1439 6.39415 26.5333 6.26221 27.0246C7.80116 27.9275 10.3065 28.695 12.024 29.1252Z" fill="#0FB4F5"/>
<path d="M6.26221 27.0254C7.80116 27.9282 10.3065 28.6957 12.024 29.126L12.0414 29.0719C12.1459 28.74 12.1237 28.4281 12.3339 28.1668L12.5642 28.0639L12.169 27.958C12.3348 27.0609 12.3857 25.2829 12.5575 24.6181L12.5277 24.5799C12.5791 23.8208 12.5642 22.9595 12.737 22.2316C12.0834 21.8507 11.9012 21.2069 12.061 20.4938C10.738 20.6957 9.67886 20.057 8.79294 20.1791L8.89019 18.8165C8.08527 20.0687 7.09827 25.1307 6.57691 25.6095L6.58456 25.6458C6.49072 26.1446 6.39415 26.534 6.26221 27.0254Z" fill="#7DCEC7"/>
<path d="M8.79102 20.1793C8.86682 22.1782 10.8782 23.7771 12.5258 24.5801C12.5771 23.8211 12.5623 22.9597 12.735 22.2318C12.0815 21.8509 11.8992 21.2071 12.0591 20.494C10.736 20.6959 9.67694 20.0572 8.79102 20.1793Z" fill="#FCD761"/>
<path d="M6.26221 27.0254C7.80116 27.9282 10.3065 28.6957 12.024 29.126L12.0414 29.0719C12.1459 28.74 12.1237 28.4281 12.3339 28.1668L12.5642 28.0639L12.169 27.958C10.1612 27.2662 8.47714 26.6372 6.58456 25.6458C6.49072 26.1446 6.39415 26.5341 6.26221 27.0254Z" fill="#FCD761"/>
<path d="M12.5558 24.6179C14.1037 25.3851 16.0294 26.1584 17.7386 26.457C17.7428 25.6804 17.7405 24.8932 17.7551 24.1177C17.4359 24.155 17.2496 24.2308 17.0245 24.0619L16.9242 23.8364C16.8088 23.4833 16.7554 23.3194 16.5877 22.9845C15.6994 22.4099 14.7333 21.8223 14.4901 20.6943C14.3737 20.1329 14.4934 19.5485 14.8212 19.0781C14.9074 18.9536 14.997 18.8315 15.0898 18.712C14.5214 18.6997 13.6752 19.3176 13.1982 19.6384L13.094 19.7241C12.7828 19.9302 12.3671 20.2628 12.0593 20.4935C11.8995 21.2067 12.0817 21.8504 12.7353 22.2314C12.5625 22.9593 12.5774 23.8206 12.5261 24.5796L12.5558 24.6179Z" fill="#FDC02E"/>
<path d="M12.7544 22.1966C12.9977 22.9644 16.125 23.7238 16.9265 23.8369C16.8111 23.4838 16.7577 23.3199 16.59 22.985C15.7017 22.4104 14.7356 21.8228 14.4924 20.6948C14.376 20.1334 14.4956 19.549 14.8235 19.0785C14.9096 18.9541 14.9992 18.832 15.0921 18.7125C14.5236 18.7002 13.6775 19.3181 13.2005 19.6388L13.0963 19.7246C12.8817 20.4932 12.875 21.3782 12.7544 22.1966Z" fill="#FBA520"/>
<path d="M12.0225 29.1252C13.9135 29.5963 15.7824 30.0177 17.7188 30.2646L17.726 29.1714C16.4193 29.03 13.8138 28.4797 12.5627 28.0631L12.3324 28.1661C12.1222 28.4274 12.1444 28.7392 12.0399 29.0711L12.0225 29.1252Z" fill="#FDC02E"/>
<path d="M15.8056 20.9639L38.8456 20.9648C38.881 20.2435 38.8821 19.5466 38.8852 18.8249C37.7137 18.8306 36.542 18.8229 35.3706 18.8017C34.9058 18.7943 33.5361 18.7581 33.1446 18.8155C29.666 18.8977 25.4656 18.887 21.9866 18.8153C19.943 18.7883 17.8526 18.8648 15.8344 18.806C15.7845 19.5242 15.775 20.2446 15.8056 20.9639Z" fill="#593426"/>
<path d="M37.8324 23.8039C38.0981 23.9805 38.2546 23.9881 38.5804 23.9087C39.0822 23.7864 40.8429 23.3495 41.1031 22.9531C41.0189 22.4991 40.8082 20.9754 40.5887 20.727C40.6313 20.25 40.6165 20.2094 40.5282 19.7372C40.581 19.4305 40.6297 19.0656 40.7478 18.7824C40.3374 18.6378 40.1386 18.6064 39.7064 18.5338C39.5524 18.4076 39.3602 18.2398 39.2026 18.1266C38.683 18.2798 38.4108 18.1908 37.8957 18.0688C36.085 17.6473 34.34 17.4563 32.4866 17.3204C27.9129 16.9852 23.2193 16.9883 18.6827 17.717C17.8529 17.8503 16.5276 18.401 15.7639 18.139L15.09 18.7132C14.9971 18.8327 14.9075 18.9549 14.8213 19.0793C14.4935 19.5497 14.3739 20.1342 14.4902 20.6956C14.7335 21.8235 15.6996 22.4111 16.5878 22.9858C16.3668 22.2565 16.0232 21.7888 15.8033 20.9645C15.7727 20.2452 15.7822 19.5249 15.8321 18.8067C17.8503 18.8654 19.9407 18.7889 21.9844 18.8159C25.4633 18.8877 29.6637 18.8983 33.1424 18.8161C33.5338 18.7587 34.9035 18.7949 35.3684 18.8023C36.5397 18.8235 37.7114 18.8312 38.8829 18.8255C38.8798 19.5473 38.8787 20.2441 38.8433 20.9655C38.6223 21.7536 38.2433 22.5081 38.0642 23.2831C37.9554 23.4026 37.8901 23.641 37.8324 23.8039Z" fill="#EB3738"/>
<path d="M21.9854 18.8162C25.4643 18.8879 29.6647 18.8985 33.1434 18.8163C32.9437 18.6273 32.3725 18.4102 32.0929 18.3261C29.1224 17.4322 25.7016 17.4466 22.7442 18.3882C22.521 18.4592 22.1025 18.5874 21.9458 18.7296L21.9854 18.8162Z" fill="#FBA520"/>
<path d="M37.833 23.8039C38.0987 23.9805 38.2552 23.9881 38.581 23.9087C39.0828 23.7864 40.8434 23.3495 41.1036 22.9531C41.0195 22.4991 40.8087 20.9754 40.5892 20.727C40.181 21.99 39.2143 22.7101 38.0648 23.2831C37.9559 23.4026 37.8906 23.641 37.833 23.8039Z" fill="#FBA520"/>
<path d="M40.5302 19.7363C40.5831 19.4295 40.6317 19.0647 40.7499 18.7814C40.3394 18.6369 40.1407 18.6055 39.7085 18.5328C40.1698 18.9957 40.3212 19.1166 40.5302 19.7363Z" fill="#FBA520"/>
<path d="M15.7646 18.1383C16.5283 18.4002 17.8536 17.8495 18.6834 17.7162C23.22 16.9875 27.9136 16.9845 32.4873 17.3197C34.3407 17.4556 36.0858 17.6465 37.8964 18.068C38.4115 18.19 38.6837 18.2791 39.2033 18.1258C34.3703 14.315 20.4549 14.2106 15.7646 18.1383Z" fill="#FA4D4D"/>
<path d="M41.5936 28.3057C42.7742 27.9504 46.1635 26.8615 47.2256 26.1925C47.0685 25.4101 46.7358 24.3798 46.5097 23.5928C46.3176 22.9239 46.1307 22.1233 45.9279 21.4847C44.7697 23.467 43.3025 24.2546 41.2964 25.1574C41.3749 25.6927 41.7008 27.8601 41.5936 28.3057Z" fill="#7DCEC7"/>
<path d="M41.2977 25.1582C43.3038 24.2553 44.771 23.4678 45.9292 21.4854C46.0554 21.1367 46.1473 20.9104 46.1786 20.5345L46.0472 20.5536C45.5462 22.8233 43.311 24.1144 41.3366 24.9843C41.3286 24.559 41.1356 23.277 41.3145 23.1079C41.7722 22.675 43.1419 22.2943 43.1 21.5402C43.0865 21.2963 43.0577 20.6154 43.1391 20.4409C43.7063 20.0857 44.5175 20.1044 44.6544 19.7807C44.1498 19.7898 43.4542 20.0148 43.0172 20.293C42.0566 19.3022 41.992 19.4376 40.8118 18.8528C42.0402 18.2083 43.2885 18.1337 44.6436 18.4115C45.017 18.4881 45.2555 19.3749 45.2761 19.7221C45.5183 19.3921 45.1083 18.7352 44.9445 18.3798C43.7459 17.9673 41.8548 18.1133 40.7494 18.7815C40.6313 19.0648 40.5826 19.4296 40.5298 19.7364C40.6182 20.2086 40.6329 20.2492 40.5903 20.7261C40.8098 20.9746 41.0205 22.4983 41.1047 22.9523C41.1521 23.0844 41.2779 24.9059 41.2977 25.1582Z" fill="#FCD761"/>
<path d="M8.79102 20.1797C9.67694 20.0576 10.736 20.6963 12.0591 20.4944C12.3668 20.2637 12.7826 19.9311 13.0937 19.725L13.1979 19.6392C13.1206 19.2808 13.2666 18.7784 12.9858 18.5458C12.222 17.9134 10.9908 18.1773 10.1113 17.9242C10.1121 17.9245 9.96227 17.623 9.92717 17.5605C9.50374 17.9772 9.22769 18.3344 8.88826 18.8171L8.79102 20.1797Z" fill="#FDE687"/>
<path d="M47.2267 26.1924C49.2239 25.1439 51.6627 23.6746 52.3685 21.371C52.7063 20.2883 52.591 19.1147 52.0489 18.1183C48.3531 11.2831 31.66 9.77391 24.6854 10.2644C18.8638 10.6739 12.5811 11.4339 7.36923 14.2534C1.58699 17.1527 0.453703 22.2485 6.57687 25.6087C7.09824 25.13 8.08523 20.068 8.89015 18.8157C9.22958 18.333 9.50563 17.9758 9.92905 17.5591C15.9061 11.9883 30.1387 11.998 37.5857 13.8956C40.1858 14.5582 44.1267 15.8478 45.632 18.2533C46.0226 18.8773 46.3714 19.7907 46.1784 20.5336C46.1471 20.9095 46.0552 21.1358 45.929 21.4845C46.1318 22.1232 46.3187 22.9238 46.5109 23.5927C46.7369 24.3797 47.0697 25.41 47.2267 26.1924Z" fill="#0FB4F5"/>
<path d="M0.0575503 14.6748C0.516354 13.8975 0.51089 13.2786 1.20135 12.4252C3.67676 9.36584 7.69809 7.76487 11.3647 6.64361C19.1911 4.37513 27.9117 4.04335 35.9687 5.05289C36.859 5.16448 39.5273 5.561 40.32 5.78965L40.3707 5.77545C40.3916 5.14236 40.3166 1.56603 40.4848 1.31047C39.9946 1.15708 38.4762 0.906855 37.9417 0.818754C34.4412 0.25464 30.9001 -0.018816 27.3547 0.00112628C19.4284 0.00945854 8.31521 1.37112 2.03673 6.94357C-0.357683 9.06863 0.0352862 11.7585 0.0575503 14.6748Z" fill="#FA4D4D"/>
<path d="M40.2891 10.3806C41.0631 10.5 41.8145 10.6737 42.5763 10.8952C46.4398 12.0192 50.6204 13.4015 53.4205 16.4447C54.0349 17.1124 54.4791 17.9371 54.8913 18.7285C54.9752 17.6826 54.9033 15.7488 54.9102 14.6217C54.9392 14.0334 54.9285 13.4257 54.9585 12.8619C54.991 10.2113 55.012 9.12832 53.0204 7.0497C50.1116 4.01373 44.5325 2.19859 40.4841 1.31008C40.316 1.56564 40.391 5.14196 40.3701 5.77505L40.3194 5.78925C40.4471 6.22688 40.3009 9.70159 40.2891 10.3806Z" fill="#FBA520"/>
<path d="M40.3701 5.77545C45.1038 6.95681 51.1304 8.69778 54.1764 12.8703C54.4966 13.3088 54.6309 14.0432 54.8628 14.5258L54.9102 14.6221C54.9393 14.0338 54.9285 13.4261 54.9586 12.8623C54.9911 10.2117 55.0121 9.12872 53.0205 7.0501C50.1117 4.01412 44.5325 2.19898 40.4842 1.31047C40.316 1.56603 40.391 5.14235 40.3701 5.77545Z" fill="#EB3738"/>
<path d="M11.3534 75.346C11.3489 75.7686 11.2667 76.4122 11.5885 76.7466C13.2353 78.4577 28.3454 78.4531 31.3755 78.3396C33.2592 78.2691 41.9983 77.9938 43.1334 76.6662C43.5773 76.1472 43.3789 74.7111 43.3612 74.056C43.3632 73.6904 43.2998 72.6214 43.4977 72.4029C45.8769 72.7163 44.1735 74.6906 44.935 75.9618C45.1523 76.3248 46.6974 76.2323 47.1424 76.2283C48.0829 76.2925 53.0392 76.4354 53.5116 76.0401C53.7811 75.8146 53.834 75.3779 53.8386 75.052C53.9279 68.8069 51.9274 63.0249 47.5108 58.5483C45.827 56.8416 43.8303 55.4604 41.7581 54.2666C40.7387 53.6793 39.5752 53.2659 38.6874 52.4775C38.2752 52.1114 37.9463 51.6497 37.966 51.075C37.9766 50.7644 38.1043 50.4472 38.3424 50.2414C38.5264 50.0824 38.6904 50.0529 38.9264 50.0571C39.0954 50.1385 39.1066 50.1333 39.2406 50.2741C39.7113 50.8143 40.3258 51.209 40.8983 50.591C42.1306 49.2609 39.9414 47.9363 38.7071 48.15C37.1166 48.4255 36.4413 49.1682 36.0163 50.6305C34.7181 49.1444 32.3223 47.5332 30.4836 46.8702C31.9247 45.3307 31.3953 44.4606 30.2103 43.6153C30.1457 43.5692 30.1517 42.8717 30.1172 42.7741C29.465 40.5647 30.0055 37.8819 31.9187 36.445C32.698 36.0612 33.386 35.8959 33.6305 34.9954C32.6463 33.2286 22.0464 33.0206 21.0525 34.883C21.1189 35.1805 21.2033 35.355 21.3206 35.6328C21.6263 35.9092 21.9698 36.0442 22.3415 36.2077C24.4869 37.2236 25.2751 40.268 24.5733 42.4471C24.3873 43.0249 24.5262 43.251 24.4747 43.7472C22.8471 44.2182 22.9877 45.9654 24.1638 46.8385C21.7838 47.724 20.3392 48.9701 18.5656 50.7122C18.4798 50.3125 18.3861 49.9208 18.1777 49.5644C17.7779 48.8832 17.1182 48.394 16.3501 48.2094C15.2023 47.9267 13.5911 48.3836 13.3949 49.7278C13.3583 49.9889 13.4263 50.2539 13.5842 50.465C13.6791 50.592 14.0378 50.9206 14.3996 50.9154C15.3059 50.9024 16.4073 48.7613 16.6988 51.3632C16.5815 51.9356 15.6341 52.7773 15.2137 52.9725C6.52864 57.0028 0.423363 64.7543 0.813053 74.6335C0.88326 76.4163 1.2653 76.2562 3.03318 76.2707C4.95158 76.2862 6.90167 76.2898 8.82157 76.2496C11.3537 76.1572 7.93565 72.5945 11.3248 72.3716L11.3534 75.346Z" fill="#FDC02E"/>
<path d="M11.353 75.346C11.3485 75.7686 11.2662 76.4122 11.588 76.7466C13.2349 78.4577 28.345 78.4531 31.3751 78.3396C33.2588 78.2691 41.9979 77.9938 43.133 76.6662C43.5769 76.1472 43.3784 74.7111 43.3608 74.056C43.305 74.3586 43.2865 75.6492 43.273 76.0512C41.2426 75.0086 39.7991 74.9474 37.5764 74.6402C32.8024 74.0601 25.914 73.9971 21.0915 74.2963C20.7237 69.809 20.7932 65.0304 21.3423 60.5522C21.4529 59.3983 21.8813 58.1836 22.0366 57.0621C22.2997 55.1632 22.6831 53.7815 23.3782 52.0024C23.8557 50.7456 24.443 49.5335 25.1335 48.38C25.3378 48.0376 26.1708 47.193 26.0325 46.861C24.6145 46.5899 21.7847 49.1257 20.8379 50.1411C14.44 57.0025 13.6788 66.1394 13.9341 75.0653C13.2385 75.2521 12.3493 75.5025 11.7335 75.8724C11.6018 75.9516 11.6236 75.9825 11.4521 75.9729C11.425 75.7609 11.3889 75.5564 11.353 75.346Z" fill="#FCD761"/>
<path d="M24.1521 77.8143C26.7992 77.9506 39.5995 77.8658 41.487 76.6318C41.6265 76.5407 41.6956 76.4809 41.7216 76.3167C41.706 76.2969 41.6914 76.2761 41.6747 76.2573C40.8945 75.3741 32.2933 75.0409 30.6168 74.9866C26.6064 74.943 22.5959 74.9292 18.599 75.2895C17.7688 75.3644 13.021 75.6783 12.8789 76.4253C12.9203 76.5001 12.9208 76.5104 12.9872 76.5807C13.8074 77.4505 22.4751 77.7594 24.1521 77.8143Z" fill="#FBA520"/>
<path d="M17.5608 72.002C17.7317 71.8494 17.8002 71.5318 17.8744 71.3038C18.4202 69.6265 18.9677 68.9921 20.4503 68.1295L20.3307 68.0664C18.4285 67.0548 18.1957 66.1809 17.599 64.2359C17.5025 64.3401 17.3745 64.7648 17.3308 64.9154C16.8247 66.6593 16.255 67.2807 14.6646 68.1417C16.5442 69.0778 16.939 70.0486 17.5608 72.002Z" fill="#FFFFFD"/>
<path d="M19.6853 62.8389C19.7547 62.8098 20.3307 62.0686 20.4524 61.928C20.2115 61.6971 19.9608 61.4306 19.7258 61.1898C19.6612 61.2036 19.0496 61.8407 18.938 61.9478C19.2576 62.2828 19.4319 62.4557 19.6853 62.8389Z" fill="#FFFFFD"/>
<path d="M47.1428 76.229C48.0833 76.2932 53.0395 76.4361 53.512 76.0408C53.7815 75.8153 53.8344 75.3786 53.839 75.0527C53.9283 68.8075 51.9278 63.0256 47.5112 58.549C45.8273 56.8423 43.8307 55.4611 41.7585 54.2673C40.7391 53.68 39.5756 53.2665 38.6878 52.4781C38.2756 52.1121 37.9467 51.6504 37.9663 51.0756C37.977 50.765 38.1047 50.4478 38.3428 50.242C38.5268 50.083 38.6908 50.0535 38.9268 50.0578C39.0958 50.1392 39.107 50.134 39.241 50.2748C39.483 50.1983 40.1652 51.1912 40.7566 50.6168C40.9821 50.3969 41.1136 50.0982 41.1233 49.7833C40.9357 49.3997 40.7825 48.922 40.4121 48.6427C39.0703 47.6304 36.1889 48.7596 36.2938 50.5394C36.3181 50.9541 37.1259 51.6926 37.4431 52.045C38.2902 52.9858 38.7672 54.2225 39.6479 55.1073C40.5531 55.74 41.7337 56.3861 42.6996 57.0662L42.68 57.1962C41.6036 56.5649 40.2893 55.6816 39.197 55.0046C41.5838 58.6241 42.6955 63.7341 43.0624 67.9812C43.1282 68.7436 43.1608 69.5726 43.2689 70.3226L43.2767 70.3739C43.4404 70.9594 43.3742 71.7049 43.4045 72.3384L43.4981 72.4035C45.8773 72.717 44.1739 74.6913 44.9354 75.9625C45.1527 76.3254 46.6978 76.233 47.1428 76.229Z" fill="#FFFFFD"/>
<path d="M47.1428 76.229C48.0833 76.2932 53.0395 76.4361 53.512 76.0408C53.7815 75.8153 53.8344 75.3786 53.839 75.0527C53.9283 68.8075 51.9278 63.0256 47.5112 58.549C45.8273 56.8423 43.8307 55.4611 41.7585 54.2673C40.7391 53.68 39.5756 53.2665 38.6878 52.4781C38.2756 52.1121 37.9467 51.6504 37.9663 51.0756C37.977 50.765 38.1047 50.4478 38.3428 50.242C38.5268 50.083 38.6908 50.0535 38.9268 50.0578C39.0958 50.1392 39.107 50.134 39.241 50.2748C39.483 50.1983 40.1652 51.1912 40.7566 50.6168C40.9821 50.3969 41.1136 50.0982 41.1233 49.7833C40.9357 49.3997 40.7825 48.922 40.4121 48.6427C39.0703 47.6304 36.1889 48.7596 36.2938 50.5394C36.3181 50.9541 37.1259 51.6926 37.4431 52.045C38.2902 52.9858 38.7672 54.2225 39.6479 55.1073C40.5531 55.74 41.7337 56.3861 42.6996 57.0662L42.68 57.1962C43.4053 57.9115 44.4701 58.6421 45.2479 59.4192C48.661 62.8285 50.7305 66.7439 51.1845 71.5746C51.261 72.3871 51.2553 73.2507 51.2658 74.0654C50.0429 74.1472 48.2881 74.1422 47.0538 74.136C47.1043 74.5096 47.3485 76.0121 47.1428 76.229Z" fill="#FDC02E"/>
<path d="M43.4978 72.4024C45.877 72.7159 44.1736 74.6901 44.9351 75.9614C45.1524 76.3243 46.6975 76.2318 47.1425 76.2278C47.3482 76.0109 47.104 74.5085 47.0535 74.1349C46.8693 71.3632 46.1101 70.4075 43.2764 70.3728C43.4401 70.9582 43.3739 71.7037 43.4042 72.3372L43.4978 72.4024Z" fill="#FBA520"/>
<path d="M43.2741 76.0518C43.2876 75.6498 43.3061 74.3591 43.3619 74.0566C43.3639 73.6909 43.3005 72.622 43.4984 72.4035L43.4048 72.3383C43.3745 71.7048 43.4408 70.9593 43.277 70.3739L43.2692 70.3225C43.1612 69.5725 43.1285 68.7435 43.0627 67.9811C42.6958 63.734 41.5841 58.624 39.1973 55.0045C40.2896 55.6815 41.6039 56.5648 42.6804 57.1961L42.6999 57.0661C41.7341 56.386 40.5534 55.7399 39.6482 55.1073C38.7675 54.2224 38.2905 52.9858 37.4434 52.0449C37.1262 51.6925 36.3184 50.954 36.2941 50.5393C36.1892 48.7595 39.0706 47.6303 40.4124 48.6426C40.7829 48.9219 40.936 49.3996 41.1237 49.7833C41.114 50.0981 40.9824 50.3968 40.7569 50.6167C40.1655 51.1911 39.4833 50.1982 39.2413 50.2747C39.712 50.8149 40.3265 51.2095 40.899 50.5916C42.1313 49.2615 39.9422 47.9369 38.7078 48.1506C37.1173 48.4261 36.442 49.1688 36.017 50.6311C34.7188 49.145 32.3231 47.5338 30.4843 46.8708C31.9254 45.3313 31.396 44.4612 30.211 43.6158C30.1464 43.5698 30.1524 42.8722 30.1179 42.7747C29.4657 40.5653 30.0062 37.8825 31.9194 36.4456C31.9525 36.1613 32.0092 35.911 31.9305 35.6418C31.4516 35.1308 29.7247 34.9647 29.0108 34.9137C29.5036 35.4086 29.5814 35.4695 29.78 36.1638C29.6708 36.7306 29.0823 37.9612 28.8544 38.6179C28.2698 40.3025 28.4352 41.6346 28.4111 43.3603C27.0742 43.5189 25.8446 43.2394 24.5239 43.7782C25.1027 44.9865 28.4913 43.492 29.1674 44.779C29.9609 46.2892 26.939 47.0332 26.01 46.6528L25.9427 46.6599C26.055 46.7133 26.0832 46.7194 26.2015 46.7506C30.3049 47.8315 32.9191 52.1954 34.653 55.7724C34.8778 56.2363 35.2646 56.9952 35.2443 57.489L35.272 57.5593C35.7618 58.1412 36.3905 61.1875 36.7013 62.0763L36.6931 62.1318L36.7699 62.2062C37.5165 66.7807 37.5893 70.0204 37.5775 74.6408C39.8002 74.948 41.2437 75.0092 43.2741 76.0518Z" fill="url(#paint2_linear_109_93277)"/>
<path d="M37.9607 63.9238C38.2283 63.0289 38.5118 62.6273 39.314 62.1084C38.4987 61.5502 38.3207 61.167 37.9823 60.2503C37.7253 61.1512 37.5613 61.5865 36.7001 62.0767L36.6919 62.1322L36.7687 62.2066C37.5829 62.7403 37.71 62.986 37.9607 63.9238Z" fill="#FFFFFD"/>
<path d="M24.0073 45.547C24.6565 47.0805 24.4715 46.5609 25.9412 46.6603L26.0085 46.6532C26.2464 46.4848 26.476 46.2499 26.6117 45.99C26.8272 45.4997 26.6206 45.1509 26.1822 44.8709C25.8025 44.5484 25.2191 44.5212 24.7239 44.4518C24.2974 44.8731 24.2089 45.0004 24.0073 45.547Z" fill="#FCD761"/>
<path d="M25.0914 46.2246C25.547 46.0778 25.7943 45.9524 25.7099 45.4287C25.4724 45.032 25.241 45.005 24.8404 45.1794L24.7345 45.2245C24.6573 45.4236 24.6623 45.4333 24.6401 45.6365C24.7164 45.9199 24.8733 46.0208 25.0914 46.2246Z" fill="#FFFFFD"/>
<path d="M21.3218 35.6341C21.6275 35.9104 21.971 36.0455 22.3426 36.209C22.5497 35.9868 22.888 35.5603 23.1489 35.4969C22.8845 35.2372 22.8684 35.0985 22.9817 34.7508C22.4282 34.7329 21.6743 35.2178 21.3218 35.6341Z" fill="#FCD761"/>
<path d="M23.1464 35.4961C23.498 35.4073 24.1796 35.317 24.1142 34.8328C23.7327 34.5213 23.4271 34.6815 22.9792 34.7499C22.8659 35.0977 22.882 35.2363 23.1464 35.4961Z" fill="#FFFFFD"/>
<path d="M35.2448 57.4889C35.1045 57.2667 35.0983 57.2563 34.8927 57.0976C34.6087 57.0445 34.7256 57.0325 34.4465 57.1229C34.0419 57.575 34.3579 57.8199 34.6867 58.1592C34.9404 57.9398 35.0744 57.8386 35.2725 57.5593L35.2448 57.4889Z" fill="#FFFFFD"/>
<path d="M5.43297 74.1191C6.17916 74.1363 6.81184 74.1524 7.55612 74.1082C7.66156 71.3467 8.71084 70.3417 11.4318 70.3898C11.6011 66.1711 12.3213 61.6793 13.9743 57.7699C14.3842 56.8005 14.888 55.9117 15.3628 54.9742C14.905 55.233 14.4159 55.5549 13.9669 55.837C8.18456 59.3804 3.89456 65.0483 3.43043 71.9274C3.38044 72.6682 3.35162 73.3655 3.34766 74.1086C4.03716 74.0934 4.74223 74.1105 5.43297 74.1191Z" fill="#FFFFFD"/>
<defs>
<linearGradient id="paint0_linear_109_93277" x1="26.1337" y1="4.51618" x2="28.3961" y2="30.4797" gradientUnits="userSpaceOnUse">
<stop stop-color="#FFBC2C"/>
<stop offset="1" stop-color="#FCD849"/>
</linearGradient>
<linearGradient id="paint1_linear_109_93277" x1="27.5751" y1="31.535" x2="27.0994" y2="35.3814" gradientUnits="userSpaceOnUse">
<stop stop-color="#FAA81E"/>
<stop offset="1" stop-color="#FFD43F"/>
</linearGradient>
<linearGradient id="paint2_linear_109_93277" x1="28.1032" y1="57.5753" x2="40.0154" y2="54.5155" gradientUnits="userSpaceOnUse">
<stop stop-color="#FA981F"/>
<stop offset="1" stop-color="#FEB125"/>
</linearGradient>
</defs>
</svg>
